<svg xmlns="http://www.w3.org/2000/svg" viewBox="0 0 500 500"><g id="freepik--Leaves--inject-43"><g id="freepik--Leaf--inject-43"><path d="M409.73,338.65l0,0s6.41.3,14.56-7C426.33,331.77,417,328.67,409.73,338.65Z" style="fill:#e0e0e0"></path><path d="M292.83,420.28c4.77-1,9.61-1.64,14.29-2.92l7-2a52.22,52.22,0,0,0,6.85-2.24,166.08,166.08,0,0,0,25.54-11.69A152.74,152.74,0,0,0,405,341.23c2-3.77,3.47-6.76,4.37-8.85l1.44-3.18-.75-.32s-.51,1.09-1.45,3.15-2.41,5-4.39,8.77a151.68,151.68,0,0,1-58.4,59.48,163.79,163.79,0,0,1-25.38,11.45,49.72,49.72,0,0,1-6.79,2.18l-6.92,1.92c-4.64,1.24-9.44,1.85-14.15,2.81-4.78.57-9.58,1-14.36,1.4h-1.41l.92,1.73h.58C283.15,421.39,288,420.88,292.83,420.28Z" style="fill:#e0e0e0"></path><path d="M411.92,325.42s8.09-4.37,4.6-15.45v0S410.34,314.61,411.92,325.42Z" style="fill:#e0e0e0"></path><path d="M305.66,395.5c-9,3.57-16.7,8-19.43,22.38C286.23,417.88,303.6,413.4,305.66,395.5Z" style="fill:#e0e0e0"></path><path d="M314.1,434.37c-6-7.55-12.51-13.66-27.05-12.13C287.05,422.24,296.37,437.58,314.1,434.37Z" style="fill:#e0e0e0"></path><path d="M315.91,412.05s15.9-8.32,13.84-26.22C321.83,391.35,315.31,397.45,315.91,412.05Z" style="fill:#e0e0e0"></path><path d="M345.72,423.29c-7.19-6.44-14.62-11.39-28.7-7.45C317,415.84,328.77,429.41,345.72,423.29Z" style="fill:#e0e0e0"></path><path d="M343.11,400.56s14.45-10.65,9.67-28C345.81,379.2,340.29,386.22,343.11,400.56Z" style="fill:#e0e0e0"></path><path d="M374.29,405.46c-8.27-5-16.5-8.43-29.58-1.92C344.71,403.54,358.79,414.66,374.29,405.46Z" style="fill:#e0e0e0"></path><path d="M363.77,387.12s10.84-10.55,4.87-24.52C363.57,369,359.77,375.46,363.77,387.12Z" style="fill:#e0e0e0"></path><path d="M390.18,385.66c-7.75-2.45-15.18-3.67-24.62,4.25C365.56,389.91,379.3,396.24,390.18,385.66Z" style="fill:#e0e0e0"></path><path d="M383,349.71c-3.15,5.79-5.28,11.5-.45,20.24C382.54,370,389.71,360,383,349.71Z" style="fill:#e0e0e0"></path><path d="M384,372.46s11.65,3.8,19.41-5.75C396.94,365.48,390.85,365.2,384,372.46Z" style="fill:#e0e0e0"></path><path d="M392.48,335.82c-1.79,5.6-2.69,11,3,17.82C395.5,353.64,400.12,343.72,392.48,335.82Z" style="fill:#e0e0e0"></path><path d="M398.19,355.47s10.9,1,15.8-8.8C408.11,346.86,402.75,347.81,398.19,355.47Z" style="fill:#e0e0e0"></path><path d="M401.36,321.21l0,0s-2.07,6.08,2.65,15.92C404,337.1,409.35,329.64,401.36,321.21Z" style="fill:#e0e0e0"></path></g><g id="freepik--leaf--inject-43"><path d="M90.27,338.65l0,0s-6.41.3-14.56-7C73.67,331.77,83,328.67,90.27,338.65Z" style="fill:#e0e0e0"></path><path d="M207.17,420.28c-4.77-1-9.61-1.64-14.29-2.92l-7-2a52.22,52.22,0,0,1-6.85-2.24,166.08,166.08,0,0,1-25.54-11.69A152.74,152.74,0,0,1,95,341.23c-2-3.77-3.47-6.76-4.37-8.85l-1.44-3.18.75-.32s.51,1.09,1.45,3.15,2.41,5,4.39,8.77a151.68,151.68,0,0,0,58.4,59.48,163.79,163.79,0,0,0,25.38,11.45,49.72,49.72,0,0,0,6.79,2.18l6.92,1.92c4.64,1.24,9.44,1.85,14.15,2.81,4.78.57,9.58,1,14.36,1.4h1.41l-.92,1.73h-.58C216.85,421.39,212,420.88,207.17,420.28Z" style="fill:#e0e0e0"></path><path d="M88.08,325.42S80,321.05,83.48,310v0S89.66,314.61,88.08,325.42Z" style="fill:#e0e0e0"></path><path d="M194.34,395.5c9,3.57,16.7,8,19.43,22.38C213.77,417.88,196.4,413.4,194.34,395.5Z" style="fill:#e0e0e0"></path><path d="M185.9,434.37c6-7.55,12.51-13.66,27-12.13C213,422.24,203.62,437.58,185.9,434.37Z" style="fill:#e0e0e0"></path><path d="M184.09,412.05s-15.9-8.32-13.84-26.22C178.17,391.35,184.69,397.45,184.09,412.05Z" style="fill:#e0e0e0"></path><path d="M154.28,423.29c7.19-6.44,14.62-11.39,28.7-7.45C183,415.84,171.23,429.41,154.28,423.29Z" style="fill:#e0e0e0"></path><path d="M156.89,400.56s-14.45-10.65-9.67-28C154.19,379.2,159.71,386.22,156.89,400.56Z" style="fill:#e0e0e0"></path><path d="M125.71,405.46c8.27-5,16.5-8.43,29.58-1.92C155.29,403.54,141.21,414.66,125.71,405.46Z" style="fill:#e0e0e0"></path><path d="M136.23,387.12s-10.84-10.55-4.87-24.52C136.43,369,140.23,375.46,136.23,387.12Z" style="fill:#e0e0e0"></path><path d="M109.82,385.66c7.75-2.45,15.18-3.67,24.62,4.25C134.44,389.91,120.7,396.24,109.82,385.66Z" style="fill:#e0e0e0"></path><path d="M117,349.71c3.15,5.79,5.28,11.5.45,20.24C117.46,370,110.29,360,117,349.71Z" style="fill:#e0e0e0"></path><path d="M116,372.46s-11.65,3.8-19.41-5.75C103.06,365.48,109.15,365.2,116,372.46Z" style="fill:#e0e0e0"></path><path d="M107.52,335.82c1.79,5.6,2.69,11-3,17.82C104.5,353.64,99.88,343.72,107.52,335.82Z" style="fill:#e0e0e0"></path><path d="M101.81,355.47s-10.9,1-15.8-8.8C91.89,346.86,97.25,347.81,101.81,355.47Z" style="fill:#e0e0e0"></path><path d="M98.64,321.21l0,0s2.07,6.08-2.65,15.92C96,337.1,90.65,329.64,98.64,321.21Z" style="fill:#e0e0e0"></path></g></g><g id="freepik--small-hearts--inject-43"><path id="freepik--Heart--inject-43" d="M66.89,74.66a4.39,4.39,0,0,1,1.88-2.5h0a4.45,4.45,0,0,1,3.58-.5c2.15.62,3.25,3.5,2.91,5.66.88-2,3.34-3.85,5.49-3.22a4.38,4.38,0,0,1,2.75,2.33v0h0a4.34,4.34,0,0,1,.25,3.12c-1,3.35-5.93,5.24-7.51,5.94a35.16,35.16,0,0,1-3.74,1.3,29,29,0,0,1-2.64-3.15C68.83,82.14,65.92,78,66.89,74.66Z" style="fill:#73AFA1"></path><path id="freepik--heart--inject-43" d="M28.4,119.35A6.28,6.28,0,0,1,29,114.9h0l0,0a6.35,6.35,0,0,1,4.11-3.14c3.14-.75,6.54,2.07,7.65,5-.32-3.12,1.46-7.17,4.6-7.91a6.37,6.37,0,0,1,5.09,1l0,0h0A6.31,6.31,0,0,1,53,113.54c1.15,4.87-3.72,10.75-5.2,12.74A48,48,0,0,1,44,130.56a43.7,43.7,0,0,1-5.53-2.07C36.12,127.34,29.55,124.22,28.4,119.35Z" style="fill:#73AFA1"></path><path id="freepik--heart--inject-43" d="M433.11,74.66a4.39,4.39,0,0,0-1.88-2.5h0a4.45,4.45,0,0,0-3.58-.5c-2.15.62-3.25,3.5-2.91,5.66-.88-2-3.34-3.85-5.49-3.22a4.38,4.38,0,0,0-2.75,2.33v0h0a4.34,4.34,0,0,0-.25,3.12c1,3.35,5.93,5.24,7.51,5.94a35.16,35.16,0,0,0,3.74,1.3,29,29,0,0,0,2.64-3.15C431.17,82.14,434.08,78,433.11,74.66Z" style="fill:#73AFA1"></path><path id="freepik--heart--inject-43" d="M471.6,119.35a6.28,6.28,0,0,0-.59-4.45h0l0,0a6.35,6.35,0,0,0-4.11-3.14c-3.14-.75-6.54,2.07-7.65,5,.32-3.12-1.46-7.17-4.6-7.91a6.37,6.37,0,0,0-5.09,1l0,0h0a6.31,6.31,0,0,0-2.52,3.72c-1.15,4.87,3.72,10.75,5.2,12.74a48,48,0,0,0,3.76,4.28,43.7,43.7,0,0,0,5.53-2.07C463.88,127.34,470.45,124.22,471.6,119.35Z" style="fill:#73AFA1"></path><path id="freepik--heart--inject-43" d="M421.62,402.53a4.39,4.39,0,0,0-1.88-2.5h0a4.41,4.41,0,0,0-3.58-.49c-2.15.62-3.25,3.49-2.91,5.65-.88-2-3.34-3.84-5.49-3.22a4.43,4.43,0,0,0-2.76,2.34v0h0a4.34,4.34,0,0,0-.25,3.12c1,3.34,5.93,5.24,7.51,5.93a33.85,33.85,0,0,0,3.74,1.31,29,29,0,0,0,2.64-3.15C419.68,410,422.59,405.87,421.62,402.53Z" style="fill:#f0f0f0"></path><path id="freepik--heart--inject-43" d="M456.84,371.77a6.32,6.32,0,0,0-.58-4.46h0v0a6.36,6.36,0,0,0-4.12-3.15c-3.13-.74-6.54,2.08-7.65,5,.33-3.12-1.45-7.17-4.59-7.91a6.36,6.36,0,0,0-5.09,1l0,0h0a6.39,6.39,0,0,0-2.52,3.72c-1.15,4.88,3.73,10.76,5.21,12.75a47.88,47.88,0,0,0,3.75,4.27,42.48,42.48,0,0,0,5.54-2.07C449.12,379.76,455.69,376.64,456.84,371.77Z" style="fill:#f0f0f0"></path><path id="freepik--heart--inject-43" d="M78.38,402.53a4.39,4.39,0,0,1,1.88-2.5h0a4.41,4.41,0,0,1,3.58-.49c2.15.62,3.25,3.49,2.91,5.65.88-2,3.34-3.84,5.49-3.22A4.43,4.43,0,0,1,95,404.29v0h0a4.34,4.34,0,0,1,.25,3.12c-1,3.34-5.93,5.24-7.51,5.93A33.85,33.85,0,0,1,84,414.67a29,29,0,0,1-2.64-3.15C80.32,410,77.41,405.87,78.38,402.53Z" style="fill:#f0f0f0"></path><path id="freepik--heart--inject-43" d="M43.16,371.77a6.32,6.32,0,0,1,.58-4.46h0v0a6.36,6.36,0,0,1,4.12-3.15c3.13-.74,6.54,2.08,7.65,5C55.19,366,57,362,60.11,361.24a6.36,6.36,0,0,1,5.09,1l0,0h0A6.39,6.39,0,0,1,67.75,366c1.15,4.88-3.73,10.76-5.21,12.75A47.88,47.88,0,0,1,58.79,383a42.48,42.48,0,0,1-5.54-2.07C50.88,379.76,44.31,376.64,43.16,371.77Z" style="fill:#f0f0f0"></path></g><g id="freepik--heart--inject-43"><g id="freepik--heart--inject-43"><path d="M392.35,84.22c-44.29-20-80.88-8.65-106.65,8.51C265,106.48,260.45,114.56,250,114.56s-15-8.08-35.7-21.83c-25.77-17.16-62.36-28.52-106.65-8.51C58.49,106.43,45,178,60,224.38c15.88,49.45,48.2,90,93.6,124.91,30,23.08,51.71,32.9,67.15,45.34,19.87,16,15.14,22.2,21.19,30.67,1.92,2.68,6.67,2.32,8.11-1.55,1.44,3.87,6.19,4.23,8.11,1.55,6.05-8.47,1.32-14.66,21.19-30.67,15.44-12.44,37.14-22.26,67.15-45.34,45.4-34.91,77.72-75.46,93.6-124.91C455,178,441.51,106.43,392.35,84.22Z" style="fill:#73AFA1"></path><path d="M392.35,84.22c-44.29-20-80.88-8.65-106.65,8.51C265,106.48,260.45,114.56,250,114.56s-15-8.08-35.7-21.83c-25.77-17.16-62.36-28.52-106.65-8.51C58.49,106.43,45,178,60,224.38c15.88,49.45,48.2,90,93.6,124.91,30,23.08,51.71,32.9,67.15,45.34,19.87,16,15.14,22.2,21.19,30.67,1.92,2.68,6.67,2.32,8.11-1.55,1.44,3.87,6.19,4.23,8.11,1.55,6.05-8.47,1.32-14.66,21.19-30.67,15.44-12.44,37.14-22.26,67.15-45.34,45.4-34.91,77.72-75.46,93.6-124.91C455,178,441.51,106.43,392.35,84.22Z" style="fill:#fff;opacity:0.2"></path></g></g><g id="freepik--Womb--inject-43"><g id="freepik--womb--inject-43"><path d="M281.65,305.86c3.67-42.06-24.21-66.69-30.42-109-3.49-23.77-14.11-80.66-53-97.86S110.79,86.42,87.65,119.43s-26.42,88-6.1,127.68,52.91,71,80.48,93.08c15.3,12.25,39.16,26.75,57.12,35.28s23.53,18.19,26.5,25.24.59,19.84,4.35,23c3.44-3.74,3.06-17,3.81-23.46a132.07,132.07,0,0,1,9.74-35.17C271.59,346.21,279.48,330.74,281.65,305.86Z" style="fill:#73AFA1"></path><path d="M281.65,305.86c3.67-42.06-24.21-66.69-30.42-109-3.49-23.77-14.11-80.66-53-97.86S110.79,86.42,87.65,119.43s-26.42,88-6.1,127.68,52.91,71,80.48,93.08c15.3,12.25,39.16,26.75,57.12,35.28s23.53,18.19,26.5,25.24.59,19.84,4.35,23c3.44-3.74,3.06-17,3.81-23.46a132.07,132.07,0,0,1,9.74-35.17C271.59,346.21,279.48,330.74,281.65,305.86Z" style="opacity:0.30000000000000004"></path><path d="M271.69,305.83c-3.37-3.22-.68-11.69-5.33-11.77-3.7,13.62-10.49,28.52-24,32.6-8.37,2.53-17.67.08-24.87-4.86s-12.58-12.13-17.05-19.63c-4-6.72-7.54-14-13.44-19.09-8-7-19.13-9-29.57-11.06-14.48-2.92-29.7-6.66-40.05-17.52-9.94-10.43-17.39-21.61-21.19-35.68s-4.09-28.64-2.89-43a117.8,117.8,0,0,1,4.89-26.69c5.69-17.56,17.25-32.46,31.85-43.84a118.16,118.16,0,0,1,27.43-15.88c-27.63-1.29-54.39,8.06-69.82,30.07-23.15,33-26.42,88-6.1,127.68s52.91,71,80.48,93.08c15.3,12.25,39.16,26.75,57.12,35.28s23.53,18.19,26.5,25.24.59,19.84,4.35,23c3.44-3.74,3.06-17,3.81-23.46a132.07,132.07,0,0,1,9.74-35.17c8-18.91,15.93-34.38,18.1-59.26a86.49,86.49,0,0,0,.29-9.57,40.68,40.68,0,0,1-1.23,5.18C279.41,305.24,274.57,308.58,271.69,305.83Z" style="opacity:0.2"></path></g></g><g id="freepik--Character--inject-43"><g id="freepik--Baby--inject-43"><path d="M202,127.88l-25.38,62.88A133.9,133.9,0,0,1,156.79,177c-15.4-12.73-44.79-50.29-34.89-62.18s28-17.45,49.89-10C183.54,108.76,193.76,117.91,202,127.88Z" style="fill:#c8856a"></path><path d="M176.7,136.41c-20.55-20.42-40.36-25.62-54-22.47-.26.28-.51.57-.75.86a7.65,7.65,0,0,0-1.2,2C134.53,124.12,197.19,156.77,176.7,136.41Z" style="fill:#af6152"></path><path d="M190.65,279.11c10-3.81,15.46-18.4,17.26-30s5.61-45.52,3.2-54.33S204.5,182.4,193.29,187,182.83,256.28,190.65,279.11Z" style="fill:#c8856a"></path><path d="M186.23,205.13a173.25,173.25,0,0,0-1.39,20.77,22.55,22.55,0,0,1,8.34-8.52,27.06,27.06,0,0,0,13-15.66l-5.59-5.34Z" style="fill:#af6152"></path><path d="M140,116.94c-19-5.61-36.36-1.33-48.46,19-12.79,21.52-5.26,64.41.11,83.62s19.22,49.59,27.48,57.65S132.79,287,137.34,288s15.29,3.1,17.56,4.14l35.75-13s11.83-27,4-57.21a33.21,33.21,0,0,1,.46-18.82,80,80,0,0,0,2.18-39.18C193,142.28,159.23,123,140,116.94Z" style="fill:#c8856a"></path><polygon points="165.94 147.73 169.75 158.1 171.93 153.93 165.94 147.73" style="fill:#af6152"></polygon><path d="M163,299.71a11.07,11.07,0,0,0-8.08-7.58s-2-13.66,1.62-23.61,7.6-15.95,12.77-18.56l1,47.44Z" style="fill:#c8856a"></path><path d="M163,299.71l7.28-2.31-.44-48.15c-6.22,6.29-11.61,26.22-6.92,44.64a9.67,9.67,0,0,0-1.48,2.71A14.11,14.11,0,0,1,163,299.71Z" style="fill:#af6152"></path><path d="M207.8,191.19c-3.35-7.92-7.52-9.86-19-4.72s-19.84,20.82-23.88,25.23-7.3,5.41-12.56,9.69-8.05,8.45-6.16,10,6.23-3.36,8.77-5.2c1.3-.94,2.65-1.23.56.77-3.56,3.4-12,9.8-9.42,12.25,1.75,1.65,4.51-1.19,8.32-4.09,3.08-2.34,6.25-5.79,6.56-5.05.4,1-3,3.75-6,6.2s-9.49,6.89-7.6,9.9,8.35-2.06,11.9-4.8c3.36-2.59,7.59-7.26,7.94-6.64s-5.29,6.38-9.09,9.32-4.48,4.49-3.63,6.21,6-.38,9.27-2.58a23.64,23.64,0,0,0,4.95-4.27s-.54,3.55.56,5.26,3.08,2.08,3.94,1.1,1.71-4.4,4.16-7.47,4.09-8.25,4.78-12.48c.76-4.73,2.65-6.88,11.76-13.53C204.15,208.82,208.25,200.77,207.8,191.19Z" style="fill:#af6152"></path><path d="M209.25,189.81c-3.35-7.92-9.25-10.51-20.76-5.37s-19.84,20.81-23.88,25.22-7.3,5.41-12.56,9.7-8.05,8.44-6.16,10,6.23-3.37,8.78-5.21c1.29-.93,2.65-1.22.55.78-3.56,3.39-12,9.79-9.42,12.25,1.75,1.64,4.52-1.2,8.32-4.1,3.08-2.34,6.26-5.78,6.56-5,.41,1-3,3.74-6,6.19s-9.48,6.9-7.6,9.9c2,3.16,8.35-2,11.9-4.79,3.36-2.6,7.6-7.26,7.94-6.64s-5.29,6.38-9.09,9.32-4.48,4.49-3.62,6.2,6-.38,9.26-2.58a23,23,0,0,0,4.95-4.27s-.54,3.55.56,5.27,3.08,2.08,3.94,1.1,1.71-4.41,4.16-7.47,4.09-8.26,4.78-12.49c.76-4.73,2.66-6.88,11.76-13.53C203.88,206.78,209.71,199.39,209.25,189.81Z" style="fill:#c8856a"></path><path d="M182.41,225.16c-.95,3-1.21,6.21-2.42,9.16-1.26,4.12-4.55,7.06-6.12,11-.43.81-.73,2-1.51,2.49a2.41,2.41,0,0,1-2.55-.68c-1.46-1.43-1.23-3.83-1-5.72l.15-1.08-.74.82a25.18,25.18,0,0,1-9.94,6.72c-1.66.53-4.18,1.42-3.9-1.25.47-1.81,2.38-3.11,3.81-4.3a56.07,56.07,0,0,0,8.85-8.71,2,2,0,0,0,.4-.79.58.58,0,0,0-.49-.63c-.87.06-1.5.9-2.14,1.39a75.31,75.31,0,0,1-11.89,9.57c-1.43.78-3.7,2.2-5.1,1a2,2,0,0,1-.26-2.32c1.38-2.64,4-4.41,6.31-6.31s4.94-3.79,6.94-6.28c.5-.59.74-2-.44-1.81a5.36,5.36,0,0,0-1.63,1.07,115.78,115.78,0,0,1-9.5,7.73c-1.11.74-2.59,1.51-3.34.21-.6-2.91,6.18-7.88,8.23-9.94.51-.58,3.7-2.83,2.26-3.52-.54-.08-.65.08-1,.23-3.06,1.62-5.15,5.31-8.57,6-3-.87,1.16-5.54,2.33-6.72,5.61-6,14-8.92,18.4-16.18,5.78-8.22,11.72-17.41,21-21.93C179.1,188.82,173,198,167.07,206.09a30.48,30.48,0,0,1-3.92,4.68c-4.48,4.14-10.36,6.75-14.6,11.29-1.44,1.54-2.93,3.09-3.53,5.21a2.09,2.09,0,0,0,1.68,2.79,5.71,5.71,0,0,0,3-1.28c1.92-1.29,3.58-3.24,5.44-4.42-3.08,3.25-11.35,8.75-10.14,12.51,1,2,3.32,1.19,4.68.18,3.59-2.44,6.74-5.44,10.1-8.08a18.83,18.83,0,0,1-1.89,1.9c-3.66,3.56-8.72,6.08-11.29,10.62a3,3,0,0,0,.47,3.4c3.59,3.47,14.73-7.41,18-10.4a58.31,58.31,0,0,1-7.5,7.16c-2,1.54-6,4.78-3.18,7.34,1.33.62,2.84,0,4.07-.38A25.85,25.85,0,0,0,168,242.3c-.13,1.88-.05,3.93,1.36,5.28a3,3,0,0,0,3.23.76c1-.57,1.27-1.83,1.76-2.78,1.55-4,4.81-7,6-11.11,1.16-3,1.38-6.18,2.27-9.2,2-4.95,7-7.77,11-11C189.57,217.43,184.49,220.19,182.41,225.16Z" style="fill:#af6152"></path><path d="M168.92,240.34s-.45,1-.48,1h0a15,15,0,0,0-.11,2.68,43.76,43.76,0,0,0,5.92-10.83A48.53,48.53,0,0,1,168.92,240.34Z" style="fill:#af6152"></path><path d="M139.79,288.53c-8.59-1.27-20.11-2.6-27.52-7.26S101,268.32,99,257.47c-2.13-11.13-4.18-38.16-3.29-47.22,1.27-12.93,6.27-21.59,23.2-20.32s42.06,8.38,48.41,8.17,15.37-4.41,21.51-4,6.08,4.52,6.08,4.52a10.35,10.35,0,0,1,3.09,3.28c.78,1.69-.1,4.9-.1,4.9a14.76,14.76,0,0,1,.31,5.29c-.27,2.64-2.41,4.39-4.65,5.85s-4,1.95-4.58.1.1-2.44,1.46-4.58-.49-2.24-3-1.46-4.71,2.24-5.18,4.19,0,2.63,3.43,4.48,4.67,4.77,3.41,6.43-2.47.09-4.79-.78-3.69-1.27-8.17-2.83a64.24,64.24,0,0,1-10.52-4.37c-4.79-2.54-11-2.08-21.64-2.08s-17,.24-17,.24,4.6,24.33,5.58,32.71C139.84,265.4,140.92,283.13,139.79,288.53Z" style="fill:#c8856a"></path><path d="M195.29,198.33c-1.6-7.69-13.23-4-18.38-2.62a44.56,44.56,0,0,1-9.83,1.94,63.64,63.64,0,0,1-9.94-1.42c-6.62-1.31-13.24-2.76-19.9-4-11.77-1.74-30.52-7.28-38.13,5-3.54,5.94-3.94,13.07-3.9,19.81A283.44,283.44,0,0,0,99,257.47a284.71,284.71,0,0,1-3.25-40.41c0-6.6.42-13.71,3.9-19.49,7.39-11.92,26.06-6.33,37.5-4.6,6.64,1.27,13.24,2.74,19.88,4.08a65,65,0,0,0,10.12,1.49,46.77,46.77,0,0,0,10.05-1.93c4.54-1.11,15.24-4.69,17.08,1.52a5.46,5.46,0,0,0-1.19-.3,7.36,7.36,0,0,0-2.87.31c-.07,0,0,.22,0,.2a7.15,7.15,0,0,1,3.08.3,10.84,10.84,0,0,1,1.24.46,4.51,4.51,0,0,1,.44.22c2.48,1.82,3.2,3.44,2.7,6.22a7,7,0,0,0-1.24-1.86,4.53,4.53,0,0,0-3.95-1.48c-.07,0-.08.18,0,.18a4.71,4.71,0,0,1,3.45,1.79,6.89,6.89,0,0,1,1,1.52c.13.29.25.59.37.89,0,.11.09.21.13.32l0,.06c.44,2.11.7,4.64-.15,6.71s-3.06,3.38-5,4.54-2.94.76-3.06-1.29c0-1.42,1.34-2.5,1.9-3.79,1.34-3.86-5.67-1.09-7,0-1.54,1-2.89,3-2.2,5,.92,1.74,3,2.31,4.41,3.32,1.66,1.06,3.76,3.4,2.5,5.36a1.15,1.15,0,0,1-1.16.58c-1.06-.27-2.1-1.08-3.19-1.45s-7.31-2.52-8.48-2.91c-2.25-.78-4.5-1.56-6.67-2.52s-4.23-2.29-6.58-2.9a32.11,32.11,0,0,0-7.16-.89c-9.56-.12-19.09.12-28.65.31h-.24l0,.23c2.06,10.86,4.24,21.72,5.78,32.67-1.4-10.9-3.07-21.53-5-32.33,9.46,0,18.59-.48,28-.3a31.11,31.11,0,0,1,7,.9c2.3.61,4.3,2,6.48,2.89,3.84,1.72,9.45,3.46,13.46,4.92l1.69.59c1.44.41,2.8,2,4.42,1.34,2.95-2,.39-5.82-1.88-7.14-1.41-1-3.26-1.52-4.11-3-.49-1.53.62-3.2,1.94-4.07a11.39,11.39,0,0,1,4.79-1.8c.52-.08,1.17,0,1.12.2-.08,1-1,1.88-1.52,2.8a3.61,3.61,0,0,0-.06,3.85c1.74,2.28,5.23-.77,6.85-1.92a7.53,7.53,0,0,0,3-6.58,15,15,0,0,0-.38-3.55,13.91,13.91,0,0,0,.38-2.31C199.18,201.9,197.29,199.74,195.29,198.33Z" style="fill:#af6152"></path><path d="M126.94,217.1c-3.22,0-11.78-2.32-18.4-10.7,1.17,7.31,11.76,14.11,19,14.7Z" style="fill:#af6152"></path><path d="M224.19,181.54c-.64,6.6-3.14,13.64-11.78,16.34-11.13,3.47-24-.53-35.78-7.12L202,127.88a166.55,166.55,0,0,1,16.64,24.77C223.15,160.74,224.83,174.94,224.19,181.54Z" style="fill:#c8856a"></path><path d="M191.52,197.22c7-9.83,14.64-44.25,14.64-44.25s4.45,4,8.19,6.86c3.22,2.44,6.33,4.33,8.74,6.4a47.11,47.11,0,0,0-4.44-13.58A166.55,166.55,0,0,0,202,127.88l-25.38,62.88A75.27,75.27,0,0,0,191.52,197.22Z" style="fill:#af6152"></path><path d="M224.19,181.54c-.64,19-19.81,20.72-34.24,15.6a70,70,0,0,1-13.32-6.38c6.57,3.3,13.41,6.12,20.67,7.37,13.38,2,25.2-1.49,26.89-16.59Z" style="fill:#af6152"></path><path d="M105.4,167.48c4.53-.59,7.88,3,15.55,13.39s13.09,17,24.37,24.15c13.62,8.59,24.31,10.54,31.59,7.19s12.43-8.75,18.45-25.24c5.36-14.7,9.45-37.4,9.45-37.4s7.55,6.34,11.42,9.88,9.26,7.41,9.6,8.92,0,4.89,0,6.91,2.53,3,4.72,2.19,3.53-2.87,3.87-6.23c3.54,0,2.52-4.38,1.51-6.24a20.61,20.61,0,0,0-4.21-13c-3.53-4.38-5.55-8.76-7.74-13.81s-2.7-18.7-13.31-21-13.92,3.1-16.16,7.21-4.55,6.6-7.58,10.47-12.13,12.46-17.18,23.24c-3.37-14.48-17.35-31.49-17.35-31.49C134.55,114.14,89.25,132.67,105.4,167.48Z" style="fill:#c8856a"></path><path d="M196.49,120.74c-1.66,2.05-2.65,4.44-4.14,6.49s-3.1,4-4.7,6c-6.29,7.58-13.45,14.61-17.8,23.58-3.28-11.27-10.12-21.2-17.45-30.22,7.07,9.6,13.88,20,16.91,31.59a.46.46,0,0,0,.85.09c4.32-9.29,11.76-16.65,18.17-24.5,1.59-2,3.22-4,4.63-6.15s2.43-4.57,4-6.55c3.08-4.37,8.85-5,13.74-3.91C205.77,115.8,199.72,116.34,196.49,120.74Z" style="fill:#af6152"></path><path d="M105.4,167.48c6.2-.89,11.41,8,14.95,12.17,4,5.34,8,10.71,12.78,15.35,9.79,9.3,30.44,23.06,44.13,16.51,9.37-4.23,13.64-14.21,17.21-23.28,4.68-12.49,7.62-25.61,10.34-38.66-3,16.37-6.27,33.06-13.55,48.2-3.6,7.55-9.87,14.66-18.46,16.19-13.49,2.08-30.88-9.3-40.21-18.41-4.76-4.77-8.71-10.22-12.63-15.61-3.44-4.27-8.37-13.19-14.56-12.46Z" style="fill:#af6152"></path><path d="M234.41,164.5c-.13-.08-.14.15-.1.21.55,1,1.11,2.13.57,3.28a1.85,1.85,0,0,1-1.31,1.06,1.76,1.76,0,0,1-1.64-.58,7.67,7.67,0,0,0-1.3-1.05,14.49,14.49,0,0,1-1.48-1,12.59,12.59,0,0,1-1.41-1.32l-.65-.73a4.51,4.51,0,0,1-.7-.88s-.09,0,0,.08a5.6,5.6,0,0,1,.72,1c.2.3.42.59.64.87a10.6,10.6,0,0,0,1.54,1.6c.59.49,1.3.83,1.86,1.35a5,5,0,0,0,1.53,1.21,2.35,2.35,0,0,0,3-1.32A3.2,3.2,0,0,0,234.41,164.5Z" style="fill:#af6152"></path><path d="M234.17,162.21c-.13-.8-.65-2.18-1.59-2.32-.14,0-.12.2-.06.26a4,4,0,0,1,.91,1.22,3.42,3.42,0,0,1,.2,1.52,1.68,1.68,0,0,1-.76,1.49,1.82,1.82,0,0,1-1.54-.17c-.52-.3-.94-.74-1.42-1.08a8.38,8.38,0,0,0-1.67-.89,6.28,6.28,0,0,1-3.12-2.41h0a5.06,5.06,0,0,0,2.18,2.35c.54.31,1.09.6,1.63.92a14.42,14.42,0,0,1,1.62,1.2,2.62,2.62,0,0,0,2.82.6C234.23,164.42,234.32,163.09,234.17,162.21Z" style="fill:#af6152"></path><path d="M231.17,156c-.09-.15-.21,0-.18.12a5.36,5.36,0,0,1,.23,1.82,2.09,2.09,0,0,1-.58,1.19,1.75,1.75,0,0,1-2.35,0,16.47,16.47,0,0,1-1.94-2.06,6.91,6.91,0,0,0-2.12-1.55s-.06.09,0,.11a7.67,7.67,0,0,1,1.47,1.07,7.85,7.85,0,0,1,1.1,1.52,4.36,4.36,0,0,0,2.42,2,1.93,1.93,0,0,0,2.32-1A3.7,3.7,0,0,0,231.17,156Z" style="fill:#af6152"></path><path d="M204.81,149.57a17.64,17.64,0,0,1-3.69-10.1c-1,4.43.9,10.33,3,13.5Z" style="fill:#af6152"></path><path d="M168.25,153.18c-2.14,2.65-5.49,9.64-6.1,17.32A24.43,24.43,0,0,0,164,182.4,26.22,26.22,0,0,1,165.42,168c1.11-2.76,2.32-5,4.74-9.67A48.43,48.43,0,0,0,168.25,153.18Z" style="fill:#af6152"></path><path d="M152.75,138.92c-.26,0-.48.25-.64.74a26.79,26.79,0,0,0-.6,4.49l-.6,4.54a22,22,0,0,0-.28,4.58,11.32,11.32,0,0,0,1.25,4.32c.52,1,1.18,1.87,1.62,2.88.55,1.25.75,2.63,1.21,3.92a9.79,9.79,0,0,0,3.77,4.81,8.66,8.66,0,0,1,1.3,1,8.5,8.5,0,0,1,1.11,1.71,8.38,8.38,0,0,0,5.12,3.78,13.52,13.52,0,0,1,2.27.59,9.44,9.44,0,0,1,2,1.47,11.59,11.59,0,0,0,5.31,2.53c1.16.19,2.35.17,3.51.36a25.71,25.71,0,0,1,3,.76,13.32,13.32,0,0,0,6.87.5c.93-.23,1.8-.62,2.72-.88,3.41-.95,6.8-.56,9.84-2.65a16.82,16.82,0,0,0,6-7.36c2.5-6-3.16-10.63-3.16-10.63l-1.58,6.15a4.5,4.5,0,0,1-1.94,1.44l-2.46,1a11.66,11.66,0,0,0-2.28,1.09,14.36,14.36,0,0,1-2.21,1.54c-1.39.58-2.95.09-4.42-.21a17.93,17.93,0,0,0-6.77-.06,4.5,4.5,0,0,1-1.46.13,4.56,4.56,0,0,1-1.87-1,17.06,17.06,0,0,0-4.91-2.43,23.81,23.81,0,0,0-2.63-.6c-.79-.14-1.07-.61-1.47-1.29A11.26,11.26,0,0,0,168,163a13.4,13.4,0,0,0-2-1.29c-1.1-.6-2.68-1-3-2.31-.59-2.71-1.28-6.14-3.59-7.95a16,16,0,0,0,1.31-4.51c.14-1.09.58-3-.31-3.87a12.07,12.07,0,0,0-2.14-1.13l-3.58-2C154,139.47,153.29,138.84,152.75,138.92Z" style="fill:#73AFA1"></path><path d="M152.75,138.92c-.26,0-.48.25-.64.74a26.79,26.79,0,0,0-.6,4.49l-.6,4.54a22,22,0,0,0-.28,4.58,11.32,11.32,0,0,0,1.25,4.32c.52,1,1.18,1.87,1.62,2.88.55,1.25.75,2.63,1.21,3.92a9.79,9.79,0,0,0,3.77,4.81,8.66,8.66,0,0,1,1.3,1,8.5,8.5,0,0,1,1.11,1.71,8.38,8.38,0,0,0,5.12,3.78,13.52,13.52,0,0,1,2.27.59,9.44,9.44,0,0,1,2,1.47,11.59,11.59,0,0,0,5.31,2.53c1.16.19,2.35.17,3.51.36a25.71,25.71,0,0,1,3,.76,13.32,13.32,0,0,0,6.87.5c.93-.23,1.8-.62,2.72-.88,3.41-.95,6.8-.56,9.84-2.65a16.82,16.82,0,0,0,6-7.36c2.5-6-3.16-10.63-3.16-10.63l-1.58,6.15a4.5,4.5,0,0,1-1.94,1.44l-2.46,1a11.66,11.66,0,0,0-2.28,1.09,14.36,14.36,0,0,1-2.21,1.54c-1.39.58-2.95.09-4.42-.21a17.93,17.93,0,0,0-6.77-.06,4.5,4.5,0,0,1-1.46.13,4.56,4.56,0,0,1-1.87-1,17.06,17.06,0,0,0-4.91-2.43,23.81,23.81,0,0,0-2.63-.6c-.79-.14-1.07-.61-1.47-1.29A11.26,11.26,0,0,0,168,163a13.4,13.4,0,0,0-2-1.29c-1.1-.6-2.68-1-3-2.31-.59-2.71-1.28-6.14-3.59-7.95a16,16,0,0,0,1.31-4.51c.14-1.09.58-3-.31-3.87a12.07,12.07,0,0,0-2.14-1.13l-3.58-2C154,139.47,153.29,138.84,152.75,138.92Z" style="fill:#fff;opacity:0.5"></path><path d="M204.41,160.33l-1.58,6.15a4.5,4.5,0,0,1-1.94,1.44l-2.46,1a11.66,11.66,0,0,0-2.28,1.09,14.36,14.36,0,0,1-2.21,1.54c-1.39.58-2.95.09-4.42-.21a17.93,17.93,0,0,0-6.77-.06,4.5,4.5,0,0,1-1.46.13,4.56,4.56,0,0,1-1.87-1,17.06,17.06,0,0,0-4.91-2.43,23.81,23.81,0,0,0-2.63-.6c-.79-.14-1.07-.61-1.47-1.29A11.26,11.26,0,0,0,168,163a13.4,13.4,0,0,0-2-1.29c-1.1-.6-2.68-1-3-2.31-.59-2.71-1.28-6.14-3.59-7.95a16,16,0,0,0,1.31-4.51c.14-1.09.58-3-.31-3.87a12.07,12.07,0,0,0-2.14-1.13l-3.58-2c-.68-.39-1.38-1-1.92-.94-.26,0-.48.25-.64.74a7.54,7.54,0,0,0-.26,1.09,14.61,14.61,0,0,1,3.25,1.83,6.16,6.16,0,0,1,2.5,4.32c.12,2.4-1.59,4.43-2.77,6.52a16.12,16.12,0,0,0-1.94,5.88q.29.48.51,1a14.52,14.52,0,0,1,2.28-5c.68-.95,1.83-1.9,2.89-1.43a2.78,2.78,0,0,1,1.25,1.75,15.5,15.5,0,0,1,1,4.73c.06,2.39-.78,4.71-1.25,7.05a14.38,14.38,0,0,0-.29,2.45,4.14,4.14,0,0,1,.46.37,3.88,3.88,0,0,1,.55.73,13.63,13.63,0,0,1,1.16-4.75,4.06,4.06,0,0,1,1.85-2.19c1.79-.8,3.78.88,4.49,2.71,1,2.59.6,5.5,1.06,8.24a13.52,13.52,0,0,0,.54,2.08c.3.23.59.49.89.73l.28.21a8.63,8.63,0,0,1-.38-2.37c0-2.07,1.15-4.3,3.15-4.82,2.18-.56,4.36,1.07,5.52,3s1.68,4.18,2.83,6.11a10.43,10.43,0,0,0,1.37,1.8,19.2,19.2,0,0,0,2,.38,17.31,17.31,0,0,1-1.92-2.87,4.58,4.58,0,0,1-.72-2.87c.28-1.75,2.23-2.75,4-2.84a11.51,11.51,0,0,1,6.76,2.24,43.47,43.47,0,0,0,4.43,2.87,10.87,10.87,0,0,0,2.06.77,9.82,9.82,0,0,0,1.7-.88,11.72,11.72,0,0,1-3.76-3,3,3,0,0,1-.71-1.36,2.47,2.47,0,0,1,2-2.44,16.54,16.54,0,0,1,3.45-.18,8.41,8.41,0,0,0,5.79-2.87C208.59,163.8,204.41,160.33,204.41,160.33Z" style="fill:#73AFA1;opacity:0.30000000000000004"></path><path d="M218.84,202.73a6.72,6.72,0,0,1-6.11,4.26,6.41,6.41,0,0,0-1.16.09,5.05,5.05,0,0,0-1,.37A10,10,0,0,1,202,207a2.69,2.69,0,0,0-.69-.32,3,3,0,0,0-.74,0,9.74,9.74,0,0,1-3.26-.45,8.75,8.75,0,0,1-2.81-1.65,13.57,13.57,0,0,1-4.15-4.94s1.81-3.52,4-7.67a9.62,9.62,0,0,0,2.49,3.69,25.18,25.18,0,0,0,3.53,2.21,10.52,10.52,0,0,1,2,1.6,2.08,2.08,0,0,0,.59.48,1.57,1.57,0,0,0,.61.1,20.19,20.19,0,0,0,3.78-.57c1.19-.22,2.36-.24,3.55-.4a2.92,2.92,0,0,0,.7-1.75,13.67,13.67,0,0,0,0-1.92,15.46,15.46,0,0,1,.14-2.55,14.28,14.28,0,0,0,.31-2.15c0-.92-1.59-1.91-2.22-2.62a7.56,7.56,0,0,1-1.88-3.19,1.68,1.68,0,0,0-.17-.49,1.5,1.5,0,0,0-.53-.43c-2.48-1.41-4.94-2.62-6.18-5.31,2.38-1.89,4.47-3.65,5.92-6.4,0,0,1.53.87,1.66.95a9,9,0,0,1,1.18,1c.9.75,2,1.21,2.93,1.94a6.34,6.34,0,0,1,2.23,3.62,4.36,4.36,0,0,0,.3,1.07,2.7,2.7,0,0,0,.56.7c.81.78,1.72,1.44,2.49,2.24a4.8,4.8,0,0,1,1.47,2.94c0,.43,0,.86,0,1.29a9.21,9.21,0,0,0,.87,2.17,9.28,9.28,0,0,1,.59,2.43,9.89,9.89,0,0,1-.8,4.92,16,16,0,0,0-.7,1.59,10.9,10.9,0,0,0-.28,1.26A13.46,13.46,0,0,1,218.84,202.73Z" style="fill:#73AFA1"></path><path d="M218.84,202.73a6.72,6.72,0,0,1-6.11,4.26,6.41,6.41,0,0,0-1.16.09,5.05,5.05,0,0,0-1,.37A10,10,0,0,1,202,207a2.69,2.69,0,0,0-.69-.32,3,3,0,0,0-.74,0,9.74,9.74,0,0,1-3.26-.45,8.75,8.75,0,0,1-2.81-1.65,13.57,13.57,0,0,1-4.15-4.94s1.81-3.52,4-7.67a9.62,9.62,0,0,0,2.49,3.69,25.18,25.18,0,0,0,3.53,2.21,10.52,10.52,0,0,1,2,1.6,2.08,2.08,0,0,0,.59.48,1.57,1.57,0,0,0,.61.1,20.19,20.19,0,0,0,3.78-.57c1.19-.22,2.36-.24,3.55-.4a2.92,2.92,0,0,0,.7-1.75,13.67,13.67,0,0,0,0-1.92,15.46,15.46,0,0,1,.14-2.55,14.28,14.28,0,0,0,.31-2.15c0-.92-1.59-1.91-2.22-2.62a7.56,7.56,0,0,1-1.88-3.19,1.68,1.68,0,0,0-.17-.49,1.5,1.5,0,0,0-.53-.43c-2.48-1.41-4.94-2.62-6.18-5.31,2.38-1.89,4.47-3.65,5.92-6.4,0,0,1.53.87,1.66.95a9,9,0,0,1,1.18,1c.9.75,2,1.21,2.93,1.94a6.34,6.34,0,0,1,2.23,3.62,4.36,4.36,0,0,0,.3,1.07,2.7,2.7,0,0,0,.56.7c.81.78,1.72,1.44,2.49,2.24a4.8,4.8,0,0,1,1.47,2.94c0,.43,0,.86,0,1.29a9.21,9.21,0,0,0,.87,2.17,9.28,9.28,0,0,1,.59,2.43,9.89,9.89,0,0,1-.8,4.92,16,16,0,0,0-.7,1.59,10.9,10.9,0,0,0-.28,1.26A13.46,13.46,0,0,1,218.84,202.73Z" style="fill:#fff;opacity:0.4"></path><path d="M217.33,189.74a14,14,0,0,0,2.91-.58,5.52,5.52,0,0,1-.31-.8,14.42,14.42,0,0,1-8.65-1.69c-.86-.54-1.71-1.47-1.43-2.44.34-1.15,1.86-1.3,3-1.5a8.21,8.21,0,0,0,3.06-1.17l-.09-.08a3.07,3.07,0,0,1-.41-.47,17.67,17.67,0,0,1-7.78-.59,3.76,3.76,0,0,1-1.5-.77,1.46,1.46,0,0,1-.42-1.55,2.56,2.56,0,0,1,.93-.92,7.64,7.64,0,0,0,2.59-3.54,3.21,3.21,0,0,0-.61-.45c-.13-.08-1.64-1-1.66-.95-1.45,2.75-3.54,4.51-5.92,6.4,1.24,2.69,3.7,3.9,6.18,5.31a1.5,1.5,0,0,1,.53.43,1.68,1.68,0,0,1,.17.49,7.56,7.56,0,0,0,1.88,3.19c.63.71,2.19,1.7,2.22,2.62a14.28,14.28,0,0,1-.31,2.15,15.46,15.46,0,0,0-.14,2.55,13.67,13.67,0,0,1,0,1.92,2.92,2.92,0,0,1-.7,1.75c-1.19.16-2.36.18-3.55.4a20.19,20.19,0,0,1-3.78.57,1.57,1.57,0,0,1-.61-.1,2.08,2.08,0,0,1-.59-.48,10.52,10.52,0,0,0-2-1.6,25.18,25.18,0,0,1-3.53-2.21,9.62,9.62,0,0,1-2.49-3.69c-2.24,4.15-4,7.67-4,7.67.11.25.24.5.37.74A13.58,13.58,0,0,1,194,199c2-.47,4.37-.11,5.68,1.48a5.45,5.45,0,0,1,1.05,3.66,12,12,0,0,1-.42,2.51h.26a3.32,3.32,0,0,1,.63,0c.76-.91,1.43-1.91,2.25-2.77,1.22-1.29,3.13-2.27,4.76-1.55s2.14,2.56,2.21,4.24c0,.3,0,.6,0,.9l.13,0a5.4,5.4,0,0,1,1-.37,1.11,1.11,0,0,1,.17,0,1.41,1.41,0,0,0,0-.2,17.75,17.75,0,0,1,1.74-7.16A1.89,1.89,0,0,1,214,199a1.53,1.53,0,0,1,1-.25c1.57.06,3.07,1.11,4.58,1.11,0-.13.06-.26.09-.39a13.77,13.77,0,0,1-5.09-4.05,3.93,3.93,0,0,1-1.05-3.24C214,190.62,215.76,190,217.33,189.74Z" style="fill:#73AFA1;opacity:0.30000000000000004"></path><path d="M166.22,293.41c-2.53,1-3.56,3.38-4.13,7.15C161,308,162.1,319,172.53,321.5c3.29,6.8,16.8,25.52,45.61,25.64s43.57-15.47,50.05-36.71c5.33-17.46-3.41-41.88-10.11-50.08-6-7.38-13.62-12.37-19.29-14.18s-10.44-.34-12.82-2.73-6.47-7.76-14.3-10.74-18.33-2.44-24.94.21-17,13.49-20.09,23.47S162.06,282.15,166.22,293.41Z" style="fill:#c8856a"></path><path d="M268.19,310.43c3.33-12.32.75-25.49-3.64-37.22A53.62,53.62,0,0,0,258.82,262a48.42,48.42,0,0,0-8.78-9c-4.93-3.84-10.57-7.12-16.93-7.41-2.61-.27-5.84,0-7.77-2.14l-1.1-1.16c-4.84-5.5-11.27-9.63-18.59-10.74a33.85,33.85,0,0,0-18.17,1.53c-5.95,2.34-10.47,7.22-14.25,12.1-5.26,6.72-7.83,14.74-8.78,23.12s-1,17.05,1.77,25.08A45,45,0,0,1,163.69,281c-.68-12.58,1-26.17,8.77-36.49a45.1,45.1,0,0,1,6.87-7.37,27.48,27.48,0,0,1,14.89-6.57c7.92-1,16.84.33,23.53,4.72a39.41,39.41,0,0,1,7.2,6.38,11,11,0,0,0,2.19,2.06c1.8.89,4,.77,6,1,6.49.31,12.42,3.73,17.4,7.67a47.45,47.45,0,0,1,8.87,9.2A55.09,55.09,0,0,1,265.14,273c4.32,11.83,6.62,25.14,3.05,37.45Z" style="fill:#af6152"></path><path d="M208,253.29l0,0a4.24,4.24,0,0,0-2-.87,6.35,6.35,0,0,0-2-.06,8.17,8.17,0,0,0-3.62,1.54,7.91,7.91,0,0,0-2.46,3,6.9,6.9,0,0,0-1,3.21c0,.12.2.41.34.25.6-.72.9-1.69,1.44-2.47a11.26,11.26,0,0,1,2.5-2.42,8.11,8.11,0,0,1,2.23-1.19,9.59,9.59,0,0,1,4.66-.5C208.36,253.83,208.11,253.41,208,253.29Z" style="fill:#455a64"></path><path d="M208.05,256.21c-1.33.8-2.59,1.68-4,2.41-.67.35-1.34.7-2,1a19.2,19.2,0,0,0-2.18,1.08c-.12.07,0,.36.11.34a10.49,10.49,0,0,0,2.29-.84c.71-.33,1.4-.68,2.08-1.06a23.08,23.08,0,0,0,3.89-2.59C208.39,256.45,208.23,256.1,208.05,256.21Z" style="fill:#af6152"></path><path d="M226.06,243.62a9,9,0,0,0-.85-.46,3.94,3.94,0,0,0-1.56-.18,5.14,5.14,0,0,0-2.13.55,4.85,4.85,0,0,0-1.5,1.2,3.17,3.17,0,0,0-.68,1.18,7,7,0,0,0-.19,1.11s0,.12.08.07a11.79,11.79,0,0,1,3-2.38,6.44,6.44,0,0,1,2-.64c.3,0,.61-.06.91-.08a7.52,7.52,0,0,1,.94-.11C226.15,243.89,226.13,243.66,226.06,243.62Z" style="fill:#455a64"></path><path d="M227.8,245.54c-.78.43-1.52.91-2.34,1.27s-1.86.66-2.8,1c-.1,0,0,.27.06.26a7.33,7.33,0,0,0,2.86-.66,7.48,7.48,0,0,0,2.4-1.46C228.09,245.83,228,245.45,227.8,245.54Z" style="fill:#af6152"></path><path d="M214.24,247.11c.73-3.52-2.55-11.14-2.94-12.52s-1.45-3.12-5.22-1.89-5.67,5.58-5.67,5.58C199,241.25,207.88,243.9,214.24,247.11Z" style="fill:#af6152"></path><path d="M196,237.35a1.77,1.77,0,1,1-2.19-.47A1.6,1.6,0,0,1,196,237.35Z" style="fill:#af6152"></path><path d="M179,308.92c-.56,3.12-3.51,5.77-6.79,4.74a3.51,3.51,0,0,1-2.61-3,3.1,3.1,0,0,1,2.22-3.24.62.62,0,0,0-.18-1.2,3.94,3.94,0,0,1-3.88-4.26,3.36,3.36,0,0,1,1.56-2.52,4.39,4.39,0,0,1,3.65-.2c.07,0,.08-.1,0-.14a3.48,3.48,0,0,0-3.94-.76,4.3,4.3,0,0,0-2.59,3.23,5,5,0,0,0,3.28,5.54,4.29,4.29,0,0,0-1.61,3.43,4.68,4.68,0,0,0,3.24,4.18,6.47,6.47,0,0,0,5.6-.63,5.5,5.5,0,0,0,2.58-5C179.56,308.89,179.06,308.54,179,308.92Z" style="fill:#af6152"></path><path d="M183.09,307.89c2.41,10.08-6.28,14.69-10.56,13.61a30.78,30.78,0,0,0,1.58,2.8C185.79,321.94,185.86,311.84,183.09,307.89Z" style="fill:#af6152"></path><path d="M151.09,106a13.23,13.23,0,0,0-11.07,11c-1.19,6.6,2.54,12.43,6.08,16.11,6.26,6.5,10.61,7.94,16.14,11.07s9.15,12.76,17.33,14.92c1.56,2.26,3.68,4.5,6.41,4.81,2.34.27,5.22-.61,5.37-3.74a6.59,6.59,0,0,0-2.37-4.94c-.21-.21-.53-.88.06-.83a3.21,3.21,0,0,1,.63.14,3.87,3.87,0,0,0,3.26,0,2.55,2.55,0,0,0,1-3.33c-.18-.31-.42-.59-.59-.9a1.2,1.2,0,0,1-.11-1c.21-.46.77-.6,1.26-.73a4.22,4.22,0,0,0,1.72-.82A2.25,2.25,0,0,0,197,146c0-.82-.57-1.54-.73-2.36s.61-1,1-1.55a2.48,2.48,0,0,0,.55-1.57,2.7,2.7,0,0,0-.48-1.45,3.29,3.29,0,0,0-1.08-1c2.69-1.55,2.31-4.7-2.23-5.9-1.2-2.07-7.12-6.32-10.43-7.27-5.52-1.59-11.42-6-16-11.49S156.08,105.22,151.09,106Z" style="fill:#c8856a"></path><path d="M186.79,164.4c-.28,0-.57,0-.87-.05-2.36-.27-4.54-1.87-6.66-4.87-4.93-1.38-8.26-5.41-11.2-9-2-2.43-3.91-4.72-6.06-5.94-1.15-.65-2.24-1.22-3.31-1.79a43.78,43.78,0,0,1-12.95-9.37c-2.89-3-7.54-9.15-6.21-16.55A13.66,13.66,0,0,1,151,105.45h0c4.78-.7,12.16,1.67,17,7.56,4.62,5.59,10.5,9.83,15.71,11.33,3.21.92,9.09,5,10.61,7.32,2.38.67,3.86,2,4.07,3.51a3.12,3.12,0,0,1-1.3,2.84,4.17,4.17,0,0,1,.64.74,3.23,3.23,0,0,1,.56,1.73,3.09,3.09,0,0,1-.65,1.88,3.54,3.54,0,0,1-.47.48c-.36.33-.46.46-.42.67a4.38,4.38,0,0,0,.31.9,3.84,3.84,0,0,1,.42,1.55,2.71,2.71,0,0,1-1,2,4.86,4.86,0,0,1-1.91.91c-.41.11-.83.23-.94.46a.75.75,0,0,0,.1.59,3.74,3.74,0,0,0,.27.42,3.94,3.94,0,0,1,.31.48,3,3,0,0,1-1.17,4,4.31,4.31,0,0,1-3.63.09l-.07,0a6.88,6.88,0,0,1,2.39,5.19,4.17,4.17,0,0,1-1.43,3.08A5.6,5.6,0,0,1,186.79,164.4Zm-35.63-58h0A12.69,12.69,0,0,0,140.51,117c-1.25,7,3.19,12.82,6,15.68a43.15,43.15,0,0,0,12.69,9.19c1.08.57,2.18,1.14,3.34,1.8,2.32,1.31,4.27,3.67,6.34,6.18,3,3.66,6.15,7.44,10.87,8.69l.18.05.1.15c2,2.85,4,4.36,6.06,4.6a5,5,0,0,0,3.73-.91,3.15,3.15,0,0,0,1.08-2.37c.07-1.53-.65-3-2.22-4.55a1.28,1.28,0,0,1-.36-1.27.76.76,0,0,1,.81-.42,3.85,3.85,0,0,1,.74.16,3.42,3.42,0,0,0,2.87,0,2,2,0,0,0,.77-2.65l-.26-.39a5.69,5.69,0,0,1-.33-.52,1.63,1.63,0,0,1-.13-1.47,2.13,2.13,0,0,1,1.56-1,3.86,3.86,0,0,0,1.55-.73,1.72,1.72,0,0,0,.67-1.27,2.94,2.94,0,0,0-.34-1.15,5.46,5.46,0,0,1-.38-1.12,1.68,1.68,0,0,1,.74-1.59,2.24,2.24,0,0,0,.34-.35,2,2,0,0,0,.45-1.26,2.17,2.17,0,0,0-.4-1.19,3,3,0,0,0-.91-.88l-.76-.43.76-.44a2.35,2.35,0,0,0,1.42-2.25c-.16-1.16-1.48-2.18-3.53-2.72l-.2-.06-.11-.18c-1.1-1.91-6.82-6.09-10.13-7-5.4-1.55-11.46-5.91-16.2-11.66C162.64,108,155.66,105.78,151.16,106.44Z" style="fill:#af6152"></path><path d="M194.39,137.92c.23-.19.08-.49-.14-.62a2.81,2.81,0,0,1-.62-3.87s0-.1,0-.07a2.09,2.09,0,0,0-1.05,1.12,2.64,2.64,0,0,0-.1,1.42,2.73,2.73,0,0,0,1.07,1.66c-.8.6-1.81,1.3-1.91,2.32a3.06,3.06,0,0,0,1.29,2.46c-.09-.08-1,.35-1.12.41a2.72,2.72,0,0,0-1.69,2.11,3,3,0,0,0,.79,2.53,1.07,1.07,0,0,0,.19.18c.08.08.1-.11.07-.16s-.13-.24-.19-.36a2.85,2.85,0,0,1,0-2.59,4.49,4.49,0,0,1,2.82-1.58c.31-.08.21-.45,0-.6-.73-.57-1.69-1.37-1.33-2.43C192.74,139.05,193.77,138.45,194.39,137.92Z" style="fill:#af6152"></path><path d="M189.32,147.86a2.26,2.26,0,0,0-.82,0,3.82,3.82,0,0,0-.91.33,2.56,2.56,0,0,0-1.25,1.42,3,3,0,0,0,0,1.92,3,3,0,0,0,.51,1,2.51,2.51,0,0,0,.77.64c.14.08.13-.18.08-.24a5.65,5.65,0,0,1-.42-.72,3.73,3.73,0,0,1-.32-.67,2.67,2.67,0,0,1,0-1.56,2.58,2.58,0,0,1,.73-1.17,3.34,3.34,0,0,1,.75-.49c.28-.13.57-.27.86-.38C189.34,147.92,189.35,147.86,189.32,147.86Z" style="fill:#af6152"></path><path d="M184.23,153.35a.45.45,0,0,0-.26-.09,1.16,1.16,0,0,0-.37,0,4.32,4.32,0,0,0-.77.25,5.67,5.67,0,0,0-1.41.86,3.92,3.92,0,0,0-1,1.25,2.69,2.69,0,0,0-.25.74,1.7,1.7,0,0,0,0,.45,1.55,1.55,0,0,0,.15.56c0,.08.14.15.2.06a1.37,1.37,0,0,0,.16-.18,1.46,1.46,0,0,0,.07-.19c.05-.13.11-.25.16-.37a6.07,6.07,0,0,1,.29-.7,4.82,4.82,0,0,1,.78-1.11,4.42,4.42,0,0,1,1.12-.85c.2-.11.41-.2.62-.29a1.17,1.17,0,0,0,.53-.4S184.24,153.35,184.23,153.35Z" style="fill:#af6152"></path></g></g><g id="freepik--Flowers--inject-43"><g id="freepik--flowers--inject-43"><path d="M395.88,245.82a1.52,1.52,0,0,0,.67.22,41.94,41.94,0,0,1,13.9,4.77,19,19,0,0,0,4,1.83,2.19,2.19,0,0,0,1.13.11c1.52-.34.38-2.37-.17-3.05a11.51,11.51,0,0,0-4.26-3,27.53,27.53,0,0,0-5.32-1.72,32.39,32.39,0,0,0-5.46-.8c-1.37-.07-3.13-.37-4.29.54a.84.84,0,0,0-.39.79A.49.49,0,0,0,395.88,245.82Z" style="fill:#73AFA1"></path><path d="M395.88,245.82a1.52,1.52,0,0,0,.67.22,41.94,41.94,0,0,1,13.9,4.77,19,19,0,0,0,4,1.83,2.19,2.19,0,0,0,1.13.11c1.52-.34.38-2.37-.17-3.05a11.51,11.51,0,0,0-4.26-3,27.53,27.53,0,0,0-5.32-1.72,32.39,32.39,0,0,0-5.46-.8c-1.37-.07-3.13-.37-4.29.54a.84.84,0,0,0-.39.79A.49.49,0,0,0,395.88,245.82Z" style="fill:#fff;opacity:0.6000000000000001"></path><path d="M399.63,243.41c1.86.3,7.2.78,11.46-1.31s5.52-5.43,5.1-6.54-2-.79-4.8,1.48c-2.64,2.15-5.39,2.9-8.63,3.77l-2.62.71a5.6,5.6,0,0,0-2.11.86C397.22,243.08,399.26,243.35,399.63,243.41Z" style="fill:#73AFA1"></path><path d="M399.63,243.41c1.86.3,7.2.78,11.46-1.31s5.52-5.43,5.1-6.54-2-.79-4.8,1.48c-2.64,2.15-5.39,2.9-8.63,3.77l-2.62.71a5.6,5.6,0,0,0-2.11.86C397.22,243.08,399.26,243.35,399.63,243.41Z" style="fill:#fff;opacity:0.6000000000000001"></path><path d="M396.92,244.64c.17,1.17,4.06.86,7.16,1.61s8.33,1.92,11.15,1.17,5.55-2.62,5.41-3.39-3.68-2.38-5.78-2.8a19.26,19.26,0,0,0-9.77.84,31.16,31.16,0,0,1-6.26,1.45C397.34,243.71,396.78,243.69,396.92,244.64Z" style="fill:#73AFA1"></path><path d="M396.92,244.64c.17,1.17,4.06.86,7.16,1.61s8.33,1.92,11.15,1.17,5.55-2.62,5.41-3.39-3.68-2.38-5.78-2.8a19.26,19.26,0,0,0-9.77.84,31.16,31.16,0,0,1-6.26,1.45C397.34,243.71,396.78,243.69,396.92,244.64Z" style="fill:#fff;opacity:0.7000000000000001"></path><path d="M378.76,250.81a14.36,14.36,0,0,0,2.74-1.63q1.23-.81,2.4-1.71c1.58-1.19,3.1-2.46,4.57-3.78a42.66,42.66,0,0,0,7.6-8.82,26.08,26.08,0,0,0,1.6-2.88,8.13,8.13,0,0,0,1.06-3.26c0-.13-.19-.41-.33-.25a13.4,13.4,0,0,0-1.59,2.65c-.46.84-.94,1.66-1.46,2.46A44.3,44.3,0,0,1,392,238.2a60.38,60.38,0,0,1-8.28,8.1c-.89.73-1.8,1.43-2.71,2.15a15.32,15.32,0,0,0-2.44,2c-.08.1,0,.4.18.34Z" style="fill:#263238"></path><path d="M393.44,250.08c4,2,5.47,4.94,4.06,6.19a1.6,1.6,0,0,1-.47.31c-2.12,1-4.56-2.62-9.4-4.37a19.29,19.29,0,0,0-9.93-.81C381.47,248.67,389,247.9,393.44,250.08Z" style="fill:#263238"></path><path d="M397.5,256.27a1.6,1.6,0,0,1-.47.31c-2.12,1-4.56-2.62-9.4-4.37a19.29,19.29,0,0,0-9.93-.81,16.41,16.41,0,0,1,11.41-.65A19.59,19.59,0,0,1,397.5,256.27Z" style="fill:#455a64"></path><path d="M388.23,233.48c-.63,7.37-6.39,14.9-8.19,16.27l0,0a30.35,30.35,0,0,0,3.52-17.32,3.77,3.77,0,0,1,1.94-3.69C386.93,228.13,388.59,229.24,388.23,233.48Z" style="fill:#263238"></path><path d="M385.48,228.76c.69,1.89,1.14,4.93-.05,9.4-2.2,8.22-5.15,11.34-5.39,11.59l0,0a30.35,30.35,0,0,0,3.52-17.32A3.77,3.77,0,0,1,385.48,228.76Z" style="fill:#455a64"></path><path d="M385.39,246.29a13.47,13.47,0,0,1,9,0c3.11,1.12,7.35,4.61,8.53,4.1s.89-3.45-2.3-4.8S390.64,243.32,385.39,246.29Z" style="fill:#263238"></path><path d="M387.84,244.59A81.13,81.13,0,0,0,399.11,240c4.48-2.22,9.06-5.44,9.14-3.3.09,2.32-3.26,5.12-8.64,7.13A22.05,22.05,0,0,1,387.84,244.59Z" style="fill:#263238"></path><path d="M416.53,219.08c-1.89,1-3.85,2.2-5.79,3.17a38.16,38.16,0,0,0-5.49,3.29c-1.14.84-2.52,1.6-3.18,2.91-.21.39-.71,1.13-.26,1.39a1,1,0,0,0,.61.08,4.47,4.47,0,0,0,1.25-.42,33.24,33.24,0,0,0,4.38-2c1-.65,2.11-.64,3.17-1.12,1.33-.6,2.68-1.16,4-1.66,1.71-.64,3.45-1.19,5.22-1.67,1.57-.43,3.62-.47,5-1.46a2,2,0,0,0,.91-1.65c-.08-1.55-2.94-2.13-4.06-2.21A10.58,10.58,0,0,0,416.53,219.08Z" style="fill:#73AFA1"></path><path d="M416.53,219.08c-1.89,1-3.85,2.2-5.79,3.17a38.16,38.16,0,0,0-5.49,3.29c-1.14.84-2.52,1.6-3.18,2.91-.21.39-.71,1.13-.26,1.39a1,1,0,0,0,.61.08,4.47,4.47,0,0,0,1.25-.42,33.24,33.24,0,0,0,4.38-2c1-.65,2.11-.64,3.17-1.12,1.33-.6,2.68-1.16,4-1.66,1.71-.64,3.45-1.19,5.22-1.67,1.57-.43,3.62-.47,5-1.46a2,2,0,0,0,.91-1.65c-.08-1.55-2.94-2.13-4.06-2.21A10.58,10.58,0,0,0,416.53,219.08Z" style="fill:#fff;opacity:0.6000000000000001"></path><path d="M404.06,225.36c1.89-1.09,7.82-5.08,10.12-10.08s1.23-8.54,0-9.23-2.66.67-4,4.85a33.94,33.94,0,0,1-5.28,9.83c-.61.86-1.22,1.71-1.84,2.56a6.47,6.47,0,0,0-1.25,2.32C401.65,226.83,403.68,225.57,404.06,225.36Z" style="fill:#73AFA1"></path><path d="M404.06,225.36c1.89-1.09,7.82-5.08,10.12-10.08s1.23-8.54,0-9.23-2.66.67-4,4.85a33.94,33.94,0,0,1-5.28,9.83c-.61.86-1.22,1.71-1.84,2.56a6.47,6.47,0,0,0-1.25,2.32C401.65,226.83,403.68,225.57,404.06,225.36Z" style="fill:#fff;opacity:0.6000000000000001"></path><path d="M402.53,228.46c1,.93,4.27-2.22,7.61-3.82s8.89-4.38,10.88-7.13,3.43-5.54,2.36-7-5.05.57-7.25,1.73a22.28,22.28,0,0,0-8.15,7.93,35.78,35.78,0,0,1-4.56,5.9C402.22,227.32,401.71,227.7,402.53,228.46Z" style="fill:#73AFA1"></path><path d="M402.53,228.46c1,.93,4.27-2.22,7.61-3.82s8.89-4.38,10.88-7.13,3.43-5.54,2.36-7-5.05.57-7.25,1.73a22.28,22.28,0,0,0-8.15,7.93,35.78,35.78,0,0,1-4.56,5.9C402.22,227.32,401.71,227.7,402.53,228.46Z" style="fill:#fff;opacity:0.7000000000000001"></path><path d="M393.38,238.41a15.51,15.51,0,0,1,8.11-6.63c3.62-1.28,10-1.27,10.67-2.59s-1.73-3.75-5.59-2.62S395.91,231.88,393.38,238.41Z" style="fill:#263238"></path><path d="M394.33,235.07a92,92,0,0,0,6.76-12.38c2.4-5.29,4.15-11.53,5.79-9.67s.84,7-2.53,12.75A25.44,25.44,0,0,1,394.33,235.07Z" style="fill:#263238"></path><path d="M397.27,241.73a41.19,41.19,0,0,0-15.56,6A81.23,81.23,0,0,0,369.48,257a86.29,86.29,0,0,0-18.33,23.69,56.73,56.73,0,0,0-3.45,8,45.35,45.35,0,0,0-1.31,4.59c-.17.74-.32,1.48-.44,2.23a13.79,13.79,0,0,0-.11,2.8c0,.26.55.68.67.28.75-2.58,1.36-5.19,2.21-7.75a59.45,59.45,0,0,1,3.09-7.37,85,85,0,0,1,8.06-13A89.34,89.34,0,0,1,381,250.05a63.19,63.19,0,0,1,7.86-4.79,64.63,64.63,0,0,1,8.41-3.3c.08,0,.07-.24,0-.23Z" style="fill:#37474f"></path><path d="M293.56,135a1.85,1.85,0,0,1-.49-.55,43.78,43.78,0,0,0-10.41-11.34,20.16,20.16,0,0,1-3.42-3,2.5,2.5,0,0,1-.59-1c-.31-1.6,2.12-1.35,3-1.11a11.89,11.89,0,0,1,4.67,2.83,29.38,29.38,0,0,1,3.88,4.38,34.12,34.12,0,0,1,3.06,4.91c.64,1.28,1.67,2.85,1.28,4.34-.09.31-.27.66-.6.71A.6.6,0,0,1,293.56,135Z" style="fill:#73AFA1"></path><path d="M293.56,135a1.85,1.85,0,0,1-.49-.55,43.78,43.78,0,0,0-10.41-11.34,20.16,20.16,0,0,1-3.42-3,2.5,2.5,0,0,1-.59-1c-.31-1.6,2.12-1.35,3-1.11a11.89,11.89,0,0,1,4.67,2.83,29.38,29.38,0,0,1,3.88,4.38,34.12,34.12,0,0,1,3.06,4.91c.64,1.28,1.67,2.85,1.28,4.34-.09.31-.27.66-.6.71A.6.6,0,0,1,293.56,135Z" style="fill:#fff;opacity:0.6000000000000001"></path><path d="M294.3,130.4c-1.07-1.65-3.77-6.58-3.55-11.55s2.89-7.57,4.14-7.64,1.6,1.59.59,5.23c-1,3.44-.52,6.39,0,9.87l.42,2.82a5.75,5.75,0,0,1,.06,2.37C295.63,132.57,294.52,130.73,294.3,130.4Z" style="fill:#73AFA1"></path><path d="M294.3,130.4c-1.07-1.65-3.77-6.58-3.55-11.55s2.89-7.57,4.14-7.64,1.6,1.59.59,5.23c-1,3.44-.52,6.39,0,9.87l.42,2.82a5.75,5.75,0,0,1,.06,2.37C295.63,132.57,294.52,130.73,294.3,130.4Z" style="fill:#fff;opacity:0.6000000000000001"></path><path d="M294.26,133.52c-1.2.33-2.52-3.53-4.55-6.2s-5.35-7.18-5.81-10.21.18-6.43,1-6.61,3.83,2.53,5.11,4.37a20,20,0,0,1,3.29,9.73,32.64,32.64,0,0,0,1.24,6.62C295,132.73,295.22,133.26,294.26,133.52Z" style="fill:#73AFA1"></path><path d="M294.26,133.52c-1.2.33-2.52-3.53-4.55-6.2s-5.35-7.18-5.81-10.21.18-6.43,1-6.61,3.83,2.53,5.11,4.37a20,20,0,0,1,3.29,9.73,32.64,32.64,0,0,0,1.24,6.62C295,132.73,295.22,133.26,294.26,133.52Z" style="fill:#fff;opacity:0.7000000000000001"></path><path d="M291.62,142.38c-3.39-2.23-6.35-2-6.68-.34a1.67,1.67,0,0,0,0,.51c.2,2.1,4.13,2.35,7.7,5.33a17.37,17.37,0,0,1,5.17,7.36C298.19,151.06,295.33,144.82,291.62,142.38Z" style="fill:#263238"></path><path d="M284.94,142a1.67,1.67,0,0,0,0,.51c.2,2.1,4.13,2.35,7.7,5.33a17.37,17.37,0,0,1,5.17,7.36,14.91,14.91,0,0,0-4.7-9.19A17.72,17.72,0,0,0,284.94,142Z" style="fill:#455a64"></path><path d="M297.51,145.29a14.05,14.05,0,0,0-3.78-8.67c-2.39-2.52-7.51-5.13-7.52-6.47s2.94-2.31,5.57.19S298.16,139,297.51,145.29Z" style="fill:#263238"></path><path d="M298.12,142.22a83.48,83.48,0,0,1-.33-12.74c.24-5.24,1.41-11-.67-10.16-2.26.88-3.56,5.27-3.22,11.29A23,23,0,0,0,298.12,142.22Z" style="fill:#263238"></path><path d="M297.89,152.88a17.22,17.22,0,0,1,.65-3.68c.25-1.13.55-2.24.87-3.35.65-2.23,1.4-4.42,2.23-6.58a50.45,50.45,0,0,1,6.5-12,31.71,31.71,0,0,1,2.49-2.94,9.59,9.59,0,0,1,3.13-2.54c.14-.06.52,0,.41.27a16.06,16.06,0,0,1-2.25,2.84c-.72.85-1.42,1.72-2.08,2.62a56,56,0,0,0-3.66,5.59,71,71,0,0,0-5.41,12.46c-.43,1.28-.82,2.58-1.23,3.87a18.37,18.37,0,0,1-1.19,3.51c-.07.14-.46.15-.46-.05Z" style="fill:#263238"></path><path d="M316.26,103.62c-.27,1.94-.62,4-.81,5.91a34.27,34.27,0,0,1-1,5.69,8.48,8.48,0,0,1-1.43,3.62c-.26.3-.73,1-1.09.67a1,1,0,0,1-.27-.49,4.44,4.44,0,0,1,0-1.19,28.29,28.29,0,0,1,.26-4.33,20.55,20.55,0,0,0-.08-3c.08-1.32.11-2.63.1-3.95,0-1.65-.11-3.3-.27-4.94-.14-1.47-.77-3.21-.37-4.66a1.84,1.84,0,0,1,1.11-1.29c1.32-.44,2.74,1.79,3.16,2.71A9.42,9.42,0,0,1,316.26,103.62Z" style="fill:#73AFA1"></path><path d="M316.26,103.62c-.27,1.94-.62,4-.81,5.91a34.27,34.27,0,0,1-1,5.69,8.48,8.48,0,0,1-1.43,3.62c-.26.3-.73,1-1.09.67a1,1,0,0,1-.27-.49,4.44,4.44,0,0,1,0-1.19,28.29,28.29,0,0,1,.26-4.33,20.55,20.55,0,0,0-.08-3c.08-1.32.11-2.63.1-3.95,0-1.65-.11-3.3-.27-4.94-.14-1.47-.77-3.21-.37-4.66a1.84,1.84,0,0,1,1.11-1.29c1.32-.44,2.74,1.79,3.16,2.71A9.42,9.42,0,0,1,316.26,103.62Z" style="fill:#fff;opacity:0.6000000000000001"></path><path d="M315,116.17c.31-2,1.77-8.24,5.25-11.78s6.81-3.79,7.78-3,.29,2.47-2.82,4.92a30.62,30.62,0,0,0-6.6,7.62c-.52.79-1,1.58-1.57,2.37a5.88,5.88,0,0,1-1.55,1.81C314.5,118.67,314.91,116.56,315,116.17Z" style="fill:#73AFA1"></path><path d="M315,116.17c.31-2,1.77-8.24,5.25-11.78s6.81-3.79,7.78-3,.29,2.47-2.82,4.92a30.62,30.62,0,0,0-6.6,7.62c-.52.79-1,1.58-1.57,2.37a5.88,5.88,0,0,1-1.55,1.81C314.5,118.67,314.91,116.56,315,116.17Z" style="fill:#fff;opacity:0.6000000000000001"></path><path d="M312.84,118.46c-1.1-.56.5-4.32.78-7.66s.84-8.91,2.52-11.47,3.57-4.67,5.16-4.25,1.15,4.44.87,6.67a20.12,20.12,0,0,1-4.06,9.43,32.1,32.1,0,0,0-3.52,5.75C313.91,118.35,313.74,118.9,312.84,118.46Z" style="fill:#73AFA1"></path><path d="M312.84,118.46c-1.1-.56.5-4.32.78-7.66s.84-8.91,2.52-11.47,3.57-4.67,5.16-4.25,1.15,4.44.87,6.67a20.12,20.12,0,0,1-4.06,9.43,32.1,32.1,0,0,0-3.52,5.75C313.91,118.35,313.74,118.9,312.84,118.46Z" style="fill:#fff;opacity:0.7000000000000001"></path><path d="M307.39,129.37a14.07,14.07,0,0,0,3-9c-.09-3.47-2.15-8.84-1.25-9.84s3.72.25,4,3.88S312.08,125.14,307.39,129.37Z" style="fill:#263238"></path><path d="M309.9,127.5a83.66,83.66,0,0,1,8.28-9.68c3.69-3.73,8.4-7.21,6.3-8-2.27-.86-6.17,1.54-10,6.23A23,23,0,0,0,309.9,127.5Z" style="fill:#263238"></path><path d="M296.37,135.58a37,37,0,0,1,2.43,14.87,73.71,73.71,0,0,1-1.59,13.73,77.87,77.87,0,0,1-10.09,25.11,52.1,52.1,0,0,1-4.63,6.33c-.95,1.08-1.93,2.12-3,3.11-.5.47-1,.93-1.54,1.36a11.32,11.32,0,0,1-2.13,1.36c-.21.12-.79-.11-.53-.39,1.67-1.76,3.43-3.43,5-5.26a53.15,53.15,0,0,0,4.34-5.78,76.6,76.6,0,0,0,6.42-12.19A80.62,80.62,0,0,0,297.32,152a59.24,59.24,0,0,0,.14-8.32,59.38,59.38,0,0,0-1.27-8.05c0-.07.15-.17.18-.09Z" style="fill:#37474f"></path><path d="M341.59,229.21c-2.18,13.37-1.77,29.43,15,41s15.1,17.45,15.1,17.45,13.31-20.59.82-43.95C364.17,228,341.59,229.21,341.59,229.21Z" style="fill:#455a64"></path><path d="M371.71,278.42c-1.45-4.17-2.17-8.57-3.72-12.73a66.65,66.65,0,0,0-6-12A73.37,73.37,0,0,0,353.76,243c-2.84-3.09-6.45-5.71-8.84-9.15-.1-.14-.13-.74.18-.61,4,1.62,7.36,5.64,10.21,8.78a76.06,76.06,0,0,1,8.18,10.8,62.29,62.29,0,0,1,5.72,11.86c1.51,4.19,3,9.28,2.56,13.77C371.76,278.47,371.72,278.45,371.71,278.42Z" style="fill:#263238"></path><path d="M326.32,328.41c-1.57,11.62-6.22,24.06-22.78,30.16-14.48,5.33-16.91,10.65-16.91,10.65s-5.84-20.41,10.4-36.61C307.91,321.75,326.32,328.41,326.32,328.41Z" style="fill:#455a64"></path><path d="M289.11,361.49c2.11-3.19,3.66-6.73,5.85-9.89a57.58,57.58,0,0,1,7.58-8.77,63.69,63.69,0,0,1,9.22-7.23c3-2,6.64-3.42,9.38-5.79.11-.09.26-.59,0-.55-3.72.5-7.38,3.16-10.45,5.18a65.22,65.22,0,0,0-9.17,7.31,54.31,54.31,0,0,0-7.35,8.73c-2.16,3.19-4.5,7.14-5.09,11C289.06,361.52,289.1,361.51,289.11,361.49Z" style="fill:#263238"></path><path d="M381.92,143c-12.87-4.18-27-11.89-29.55-32.12s-8.61-21.41-8.61-21.41,24.4-2.42,39.45,19.38C393.3,123.5,381.92,143,381.92,143Z" style="fill:#455a64"></path><path d="M352,93.74c3.05,3.2,6.63,5.85,9.62,9.14a65.59,65.59,0,0,1,7.92,10.8,73.38,73.38,0,0,1,5.76,12.23c1.45,3.94,2.13,8.36,4.09,12.06.08.14.6.45.63.11.4-4.31-1.65-9.12-3.14-13.09A75.68,75.68,0,0,0,371,112.78,62.06,62.06,0,0,0,363,102.25c-3-3.25-6.87-6.91-11.07-8.56C351.93,93.67,351.93,93.71,352,93.74Z" style="fill:#263238"></path><path d="M321.3,198.32c11.59,15.94-14.88,30-28.29,30.22-6.85.11-15.11-1.19-18.83-7.75a13.1,13.1,0,0,1-.89-10.8c-4.16-.84-6.66-5.71-5.83-9.87s4.23-7.44,8.09-9.22a6.25,6.25,0,0,1-2.25-5.12c.34-5.51,7-6.69,11.4-6.79a38.49,38.49,0,0,1,20.67,5.5C311.08,187.82,317.38,192.92,321.3,198.32Z" style="fill:#73AFA1"></path><path d="M321.3,198.32c11.59,15.94-14.88,30-28.29,30.22-6.85.11-15.11-1.19-18.83-7.75a13.1,13.1,0,0,1-.89-10.8c-4.16-.84-6.66-5.71-5.83-9.87s4.23-7.44,8.09-9.22a6.25,6.25,0,0,1-2.25-5.12c.34-5.51,7-6.69,11.4-6.79a38.49,38.49,0,0,1,20.67,5.5C311.08,187.82,317.38,192.92,321.3,198.32Z" style="fill:#fff;opacity:0.7000000000000001"></path><path d="M306.8,234.43c5.49-3.35,15.87-12.8,15.37-20.05-.4-5.82-19,1.57-21.81,3.08-2,1.09-22.73,12.54-15.8,15.35-1,1.58-3.78,2.34-3.39,4.77.45,2.83,5,2.63,7.14,2.62C294.61,240.18,301.49,237.65,306.8,234.43Z" style="fill:#73AFA1"></path><path d="M306.8,234.43c5.49-3.35,15.87-12.8,15.37-20.05-.4-5.82-19,1.57-21.81,3.08-2,1.09-22.73,12.54-15.8,15.35-1,1.58-3.78,2.34-3.39,4.77.45,2.83,5,2.63,7.14,2.62C294.61,240.18,301.49,237.65,306.8,234.43Z" style="fill:#fff;opacity:0.6000000000000001"></path><path d="M321.91,213.49c-2.29-4.07-18.91,2.55-21.55,4-1.36.74-11.18,6.16-15.34,10.48a43.08,43.08,0,0,0,8,.6C301.85,228.4,316.36,222.24,321.91,213.49Z" style="fill:#73AFA1;opacity:0.30000000000000004"></path><path d="M325.14,264.33a2.51,2.51,0,0,1,.81-.4c.78-.27,1.54.66,2.33.49a4.79,4.79,0,0,0,3.16-2c3.74-4.31,5.1-9.92,4.93-15.42-.26-8.94-1.38-21.25-5.87-29.16-4.8-8.48-12.28-2.51-18.33,1.32A59.92,59.92,0,0,0,298,231.87c-3.85,4.75-7.17,10.51-8,16.67-.76,5.78,4.07,10,9.69,8,1.21,6.8,4.77,9.53,11.64,11.86,4.95,1.68,8.64.47,12.5-2.54C324.74,265.14,324.69,264.7,325.14,264.33Z" style="fill:#73AFA1"></path><path d="M325.14,264.33a2.51,2.51,0,0,1,.81-.4c.78-.27,1.54.66,2.33.49a4.79,4.79,0,0,0,3.16-2c3.74-4.31,5.1-9.92,4.93-15.42-.26-8.94-1.38-21.25-5.87-29.16-4.8-8.48-12.28-2.51-18.33,1.32A59.92,59.92,0,0,0,298,231.87c-3.85,4.75-7.17,10.51-8,16.67-.76,5.78,4.07,10,9.69,8,1.21,6.8,4.77,9.53,11.64,11.86,4.95,1.68,8.64.47,12.5-2.54C324.74,265.14,324.69,264.7,325.14,264.33Z" style="fill:#fff;opacity:0.7000000000000001"></path><path d="M292.85,239.78a41.26,41.26,0,0,0,13.95-5.35c5.49-3.35,15.87-12.8,15.37-20.05a1.68,1.68,0,0,0-.15-.51c-3.29.87-6.76,3.37-9.85,5.33A59.92,59.92,0,0,0,298,231.87,43.67,43.67,0,0,0,292.85,239.78Z" style="fill:#73AFA1;opacity:0.30000000000000004"></path><path d="M356.23,248.27c4-.21,8.92,1.67,11.22-3.06,1.58-3.22.27-5.5-1.24-8.33-5-9.39-13.2-15.32-22.62-20-3.72-1.84-8-4.56-12.17-4.94-12.14-1.11,2.24,24,4.75,28C339.21,244.85,355.85,264.09,356.23,248.27Z" style="fill:#73AFA1"></path><path d="M356.23,248.27c4-.21,8.92,1.67,11.22-3.06,1.58-3.22.27-5.5-1.24-8.33-5-9.39-13.2-15.32-22.62-20-3.72-1.84-8-4.56-12.17-4.94-12.14-1.11,2.24,24,4.75,28C339.21,244.85,355.85,264.09,356.23,248.27Z" style="fill:#fff;opacity:0.6000000000000001"></path><path d="M336,239.63c-.64-7.55-2.11-15.87-5.45-21.75a8.57,8.57,0,0,0-3.54-3.66C324.81,220.16,333.59,235.76,336,239.63Z" style="fill:#73AFA1;opacity:0.30000000000000004"></path><path d="M350.82,182.19a58.32,58.32,0,0,0-9.71,8.25c-4,4.05-9.87,8.83-11.11,14.49-2.1,9.65,7.76,17.1,15,21.09,7.54,4.16,19,8,27.58,5.5,4.29-1.26,7-3.66,7.91-8.2.92-4.79.36-3.32,4.22-5.7a12.35,12.35,0,0,0,5.43-9.77c0-6.37-3-8.74-6.49-12.9,2.72-1.17.51-3.58-1.71-4.26,3.14-13.65-15.42-15.11-24.45-11.85A32.47,32.47,0,0,0,350.82,182.19Z" style="fill:#73AFA1"></path><path d="M350.82,182.19a58.32,58.32,0,0,0-9.71,8.25c-4,4.05-9.87,8.83-11.11,14.49-2.1,9.65,7.76,17.1,15,21.09,7.54,4.16,19,8,27.58,5.5,4.29-1.26,7-3.66,7.91-8.2.92-4.79.36-3.32,4.22-5.7a12.35,12.35,0,0,0,5.43-9.77c0-6.37-3-8.74-6.49-12.9,2.72-1.17.51-3.58-1.71-4.26,3.14-13.65-15.42-15.11-24.45-11.85A32.47,32.47,0,0,0,350.82,182.19Z" style="fill:#fff;opacity:0.7000000000000001"></path><path d="M331.42,211.94c-.32,0-.62,0-.9,0,2.29,6.27,9.1,11.15,14.47,14.11a51.49,51.49,0,0,0,18.15,6.1c-5-6.71-11.85-11.41-19.55-15.24C339.87,215,335.63,212.32,331.42,211.94Z" style="fill:#73AFA1;opacity:0.30000000000000004"></path><path d="M350.41,197.84c4.46-3.14,9.31-7.63,11.79-12.61,1.91-3.82.71-6.08.8-9.69.09-4.14,7.51-12.26,1.9-15.83-4.57-2.92-12.36,1.87-15.95,4.34a50.35,50.35,0,0,0-12.35,12.23c-3.31,4.69-5.46,11.13-7.11,16.55-1.12,3.68-3.82,10.16,1.21,11.79C336.82,206.61,345.67,201.16,350.41,197.84Z" style="fill:#73AFA1"></path><path d="M350.41,197.84c4.46-3.14,9.31-7.63,11.79-12.61,1.91-3.82.71-6.08.8-9.69.09-4.14,7.51-12.26,1.9-15.83-4.57-2.92-12.36,1.87-15.95,4.34a50.35,50.35,0,0,0-12.35,12.23c-3.31,4.69-5.46,11.13-7.11,16.55-1.12,3.68-3.82,10.16,1.21,11.79C336.82,206.61,345.67,201.16,350.41,197.84Z" style="fill:#fff;opacity:0.6000000000000001"></path><path d="M357.48,178.84a32.47,32.47,0,0,0-6.66,3.35,58.32,58.32,0,0,0-9.71,8.25c-3.85,3.92-9.46,8.53-10.94,14a3.67,3.67,0,0,0,.53.22c6.12,2,15-3.46,19.71-6.78,4.46-3.14,9.31-7.63,11.79-12.61,1.52-3,1.08-5.1.87-7.63A25.11,25.11,0,0,0,357.48,178.84Z" style="fill:#73AFA1;opacity:0.30000000000000004"></path><path d="M338.91,179.26c-1.33,7.62-7.33,31.88-19.31,22.74a36.76,36.76,0,0,1-10.27-13.16c-4.89-10.09-9.64-24-7-35.25.83-3.51,2.76-9.66,7.18-10,2.65-.19,4.21,2.27,6.75,2.14,3.26-.18,9.77-4.26,13.23-2.17,2.36,1.42,4.18,5.79,4.6,8.5C347,152.52,340.43,170.59,338.91,179.26Z" style="fill:#73AFA1"></path><path d="M338.91,179.26c-1.33,7.62-7.33,31.88-19.31,22.74a36.76,36.76,0,0,1-10.27-13.16c-4.89-10.09-9.64-24-7-35.25.83-3.51,2.76-9.66,7.18-10,2.65-.19,4.21,2.27,6.75,2.14,3.26-.18,9.77-4.26,13.23-2.17,2.36,1.42,4.18,5.79,4.6,8.5C347,152.52,340.43,170.59,338.91,179.26Z" style="fill:#fff;opacity:0.7000000000000001"></path><path d="M338.91,179.26c.36-2,1.21-5.52,1.73-8-1.17,1.33-3,3.57-4,5-3.31,4.69-5.46,11.13-7.11,16.55-.87,2.85-2.67,7.36-1.11,10C334.61,198.71,338,184.72,338.91,179.26Z" style="fill:#73AFA1;opacity:0.30000000000000004"></path><path d="M313.08,201.41a54,54,0,0,1-19.45-11.89c-6.06-5.83-12.4-13.86-12.09-22.6.24-6.89,2.45-7.86,7.87-5.83-.65-6.33,8.72-.65,10.82.56,10.6,6.09,19,14.94,23.21,26.4,1.55,4.26,4.89,16.55-3.06,15.23A44.21,44.21,0,0,1,313.08,201.41Z" style="fill:#73AFA1"></path><path d="M313.08,201.41a54,54,0,0,1-19.45-11.89c-6.06-5.83-12.4-13.86-12.09-22.6.24-6.89,2.45-7.86,7.87-5.83-.65-6.33,8.72-.65,10.82.56,10.6,6.09,19,14.94,23.21,26.4,1.55,4.26,4.89,16.55-3.06,15.23A44.21,44.21,0,0,1,313.08,201.41Z" style="fill:#fff;opacity:0.6000000000000001"></path><path d="M305.37,184.49A38.43,38.43,0,0,0,285,179a50.5,50.5,0,0,0,8.6,10.53,54,54,0,0,0,19.45,11.89,44.21,44.21,0,0,0,7.3,1.87,4.44,4.44,0,0,0,3.23-.48,15.45,15.45,0,0,0-2.31-4.48C317.38,192.92,311.08,187.82,305.37,184.49Z" style="fill:#73AFA1;opacity:0.30000000000000004"></path><path d="M301.63,162.52c.47,9.09,4.05,18.78,7.7,26.32A36.76,36.76,0,0,0,319.6,202a12.2,12.2,0,0,0,2.24,1.36c6-.41,3.05-11.34,1.6-15.31C319.45,177.11,311.56,168.57,301.63,162.52Z" style="fill:#73AFA1;opacity:0.30000000000000004"></path><path d="M306.08,208.61c-3.09-.6-6.2-1.07-9.29-1.63a22,22,0,0,0-4.4-.61c-.57,0-3-.6-2-1.53a1.11,1.11,0,0,1,.39-.2c1.86-.58,4.09-.15,6,.12,3.83.55,7.67.93,11.52,1.31,1.76.17,3.87.72,5.61.56,1.23-.12,1.43-.65.13-1.28a18.7,18.7,0,0,0-2.91-1c-.88-.27-1.56-.75-2.46-1a1.76,1.76,0,0,1-1.16-.66.38.38,0,0,1-.07-.21c0-.22.27-.32.49-.36a7.25,7.25,0,0,1,3,.35c1.46.35,2.91.72,4.36,1.08.72.18,2.14.69,2.87.39,2.38-1-4.75-4.06-5.37-4.35-3.26-1.54-6.57-3-9.13-5.56a2.17,2.17,0,0,1-.73-1.81.75.75,0,0,1,.25-.49c.3-.23.74-.06,1.07.13,1.31.73,2.43,1.71,3.75,2.4,1.13.6,2.22,1.28,3.33,1.92,2.15,1.24,4.47,2.44,7,2.41-.47-3.71-4.37-7.65-6.22-10.91-1.35-2.39-3.13-5.24-3.36-8-.07-.85.72-.56,1.18-.28a4,4,0,0,1,1.16,1.37c.84,1.3,1.62,2.66,2.39,4a56.86,56.86,0,0,0,5,7.84c4,4.94,4.18,1,4.84-3.17.34-2.18.6-4.38,1-6.55s.81-4.56,2.34-6.26a1.84,1.84,0,0,1,.66-.52.68.68,0,0,1,.78.18,1,1,0,0,1,0,.84,52.64,52.64,0,0,0-1.57,8.36c-.33,3.19-1.16,6.71-.68,9.91.13.89.55,3.34,1.81,3.45s2.28-2.35,2.71-3.22c.95-1.92,1.92-3.93,2.69-5.91.09-.24.21-.51.46-.58.83,1-.18,3-.61,4.09-.28.73-.59,1.45-.86,2.19-.14.39-.34,1.86-.62,2.09,3.45-2.79,5.16-8,8.07-11.38a22,22,0,0,1,3.46-3.69c1.19-.87,2.33-2.06,3.88-2.23.18,0,.43.05.42.23a.51.51,0,0,1-.07.15,20.06,20.06,0,0,1-2,2.23c-2.11,2.35-3.5,5.07-5.14,7.76s-3.6,5.82-4.43,9c2,0,4.37-2.26,6.07-3.34,2.62-1.65,5.13-3.41,7.6-5.29a1.33,1.33,0,0,1,.63-.33.89.89,0,0,1,.89.76,2.17,2.17,0,0,1-.23,1.25c-1.41,3.17-4.83,4.72-7.77,6.13-1.73.83-3.94,1.46-5.11,3,1.46.3,2.79-.47,4.19-.78a81,81,0,0,1,9.17-1.2c2.24-.22,4.45-.68,6.66-1.07s4.35-.54,6.53-1a8.58,8.58,0,0,1,1.67-.21.73.73,0,0,1,.81,1.1c-1,3-5.48,3.43-8.12,4-3.15.67-6.34,1.06-9.52,1.56-2,.32-9.09.33-9.83,2.51,2.87,1.73,7.75,1.56,11,1.87,1.61.15,3.24.08,4.85.1,1.44,0,3.63-.16,4.93.53a.94.94,0,0,1,.54.7,1.15,1.15,0,0,1-.53,1c-1.44,1.1-3.2.59-4.85.64a100.11,100.11,0,0,1-10.25-.08c-1.66-.11-3.76-.58-5.36-.17,1.47,2.2,5.42,3,7.81,3.9s5.32,1.38,7.4,3a2.24,2.24,0,0,1,.84,1.19.55.55,0,0,1,0,.31c-.06.21-.29.31-.5.38-3.2,1-6.52-.75-9.53-1.75-2.41-.81-5.66-3.78-8.3-3.18-3.08.7-.9,3.34.27,5.07a76.71,76.71,0,0,0,5.82,7c.77.88,1.6,1.7,2.39,2.56.63.68,2.06,1.87,2,2.9a1,1,0,0,1-.82.94,1.35,1.35,0,0,1-.53-.06c-1.9-.48-3.4-2.15-4.69-3.54s-2.4-2.79-3.61-4.17-3.09-4.8-5-4.91c-2.53-.15-1.94,4.37-2.25,6.34-.58,3.7-1.08,7.36-1.89,11-.37,1.68-.1,3.52-1.68,4.72-.32.25-.81.41-1.1.13s-.17-.71-.07-1.08a16.22,16.22,0,0,0,.35-3.47c.07-1.13.4-2.27.54-3.4.2-1.51,1.95-8,1-9.1-1.74-2.05-5.16,6.86-5.86,8.08-1.18,2-2.26,4.13-3.48,6.15s-2,3.27-4.18,4.06a.58.58,0,0,1-.32,0c-.27-.08-.24-.46-.15-.72a13,13,0,0,1,1-2,105.07,105.07,0,0,0,5.46-10.34c.89-2,2.59-5.28,2.18-7.53-.53-2.88-4,.72-5.19,1.51s-2.49,1.84-3.83,2.62c-.51.3-2.81,1.77-3.28.78-.32-.68,1.7-1.93,2.08-2.25,1-.84,2-1.72,2.95-2.64s3.72-3,3.29-4.52c-.39-1.32-2.67-.31-3.5-.13a39.45,39.45,0,0,0-4.34,1.33c-2.36.81-4.46,1.52-7,1.24-.47-.05-1-.21-1.15-.67a.37.37,0,0,1,0-.18.4.4,0,0,1,.19-.15c1.66-.73,3.54-.91,5.23-1.66a22,22,0,0,0,5.07-3.11c.37-.3.77-.76.58-1.2-.37-.85-2.46-.78-3.21-.86s-1.59-.19-2.39-.23a75,75,0,0,1-7.52-.42c-.85-.12-2.64.18-3.18-.65a.37.37,0,0,1-.07-.3c0-.11.15-.18.25-.23,1.72-.88,4.27-.32,6.15-.32a36.26,36.26,0,0,0,5.71-.09c1.06-.18,2.82-.9,1.12-1.84a16,16,0,0,0-4.41-1.1Z" style="fill:#73AFA1;opacity:0.30000000000000004"></path><path d="M336.24,215.36a3.15,3.15,0,0,1-.22.29c-.61.74-1.7.39-2.36,1.19-.3.36-.4,1-1,.91-.35-.07-.49-.56-.94-.59a2.85,2.85,0,0,0-2,1.12c-.26.43-.16.77-.69.76s-1.27-1-1.75-1.37c-1.24-.92-2.25.23-3.5-.18-.54-.18-.3-.65-.51-1-.38-.67-.69-.25-1.23-.31s-.37-.69-.43-1.14-.09-.69-.63-1c-.86-.46-1.4.37-2.14,0,.11-.61.65-2.23.2-2.72-.3-.33-.82,0-1.18-.28.35-.76,1.15-1.33.77-2.3s-1.13-.87-1.84-.69a4,4,0,0,1,.85-1.57c.36-.42,1.44-1.05,1.15-1.77s-1.13-.43-.28-1.58c.39-.53,1.3-.81,1.48-1.48.14-.5-.08-.37-.19-.8-.45-1.69,1.35-.94,2.07-1.7s-.16-2,1.47-2.18c.37,0,.7.21,1.06.08.52-.19.81-1,1-1.41s-.08-.59.35-.65,1,.74,1.47.8a2.16,2.16,0,0,0,1.41-.52c.5-.38.36-.58.66-1.06a8.38,8.38,0,0,0,2,1.39c.71.19.92-.66,1.61-.61.32.73-.77,1.72.18,2s1.78-.53,2.58-.4a1.77,1.77,0,0,0-.09,1.71c.51.87,1.15.51,2,.22,1.83-.58.54.66.51,1.6a1.83,1.83,0,0,0,.46,1.37,3.39,3.39,0,0,0,.73.78c.62.33,1-.25,1.63,0-.15.89-1.41,1.34-1.38,2.4a2.73,2.73,0,0,0,.71,1.44c.59.75.5.86.24,1.75a3.49,3.49,0,0,0-.24.82c0,.2.21.36.13.57s-.61.41-.8.59c-.58.58-.45,1.2-.59,1.93s-.52,1-1.15,1.4C336.93,213.82,336.74,214.62,336.24,215.36Z" style="fill:#37474f"></path><path d="M323.64,220.82c.2-.75.25-1.52.38-2.29a3.65,3.65,0,0,1,.79-1.57c.38-.5.81-1,1.22-1.46a7.34,7.34,0,0,0,1.27-1.9c.07-.18-.11-.36-.27-.42a.64.64,0,0,0-.59.12,13.31,13.31,0,0,0-1.84,1.76,11.51,11.51,0,0,0-1.26,1.68,4.51,4.51,0,0,0-.68,1.84,6.65,6.65,0,0,0,.11,1.41,2.18,2.18,0,0,1,0,.72c-.07.43.74.51.85.11Z" style="fill:#37474f"></path><path d="M327.71,222.26a4.82,4.82,0,0,0,.1-2.84,27.47,27.47,0,0,1-.55-2.7,7.21,7.21,0,0,1,.16-2.7,5.21,5.21,0,0,1,.46-1.15c.25-.45.59-.83.85-1.27s-.42-.62-.72-.47c-1.11.52-1.64,2-1.87,3.13a8.26,8.26,0,0,0-.07,2.53,10,10,0,0,0,.72,2.51,5.27,5.27,0,0,1,.58,2.77c0,.14.27.36.34.19Z" style="fill:#37474f"></path><path d="M333.58,222.91a6.25,6.25,0,0,0-1.57-2.46,6.69,6.69,0,0,1-1.35-2.52c-.25-.88-.4-1.77-.57-2.66-.12-.64-.21-2-1-2.17a.64.64,0,0,0-.7.36,4.17,4.17,0,0,0,.15,1.78c.07.41.15.83.23,1.25a16.76,16.76,0,0,0,.56,2.3,5.87,5.87,0,0,0,1,2c.74.85,2.2,1.08,2.66,2.17.09.2.63.3.55,0Z" style="fill:#37474f"></path><path d="M333.52,219.53a6.49,6.49,0,0,0,.2-1.81,4.34,4.34,0,0,0-.23-1.6,8.5,8.5,0,0,0-.91-1.71c-.19-.31-.37-.63-.55-.94-.07-.12-.14-.24-.22-.35a.78.78,0,0,0-.51-.29c-.15,0-.37,0-.43.15s-.08.09-.09.14a.66.66,0,0,0,0,.28,1.9,1.9,0,0,0,.18.57,6.75,6.75,0,0,0,.56.93,9.1,9.1,0,0,1,1,1.68,4.44,4.44,0,0,1,.21,1.4,2.47,2.47,0,0,0,.27,1.45c.08.12.47.35.55.1Z" style="fill:#37474f"></path><path d="M336.85,219.9c.78-.83.18-2-.34-2.79-.79-1.22-1.71-2.34-2.51-3.55-.41-.62-.75-1.29-1.17-1.89a.87.87,0,0,0-.83-.46.58.58,0,0,0-.56.45c-.19.69.53,1.56.89,2.12s.88,1.29,1.36,1.9a11.88,11.88,0,0,0,1.48,1.61c.7.61,1.78,1.45,1.54,2.47,0,.06.07.22.14.14Z" style="fill:#37474f"></path><path d="M340.56,219.25a4.53,4.53,0,0,0-1.39-2.4,17.34,17.34,0,0,1-1.94-2.34c-1-1.64-1.51-3.57-2.57-5.17a.58.58,0,0,0-1,.38,14.5,14.5,0,0,0,2.12,5.35,7.36,7.36,0,0,0,1.81,2.15c.43.32.93.53,1.38.83a4.87,4.87,0,0,1,1.25,1.23c.08.11.38.18.37,0Z" style="fill:#37474f"></path><path d="M340.18,214.37a2.67,2.67,0,0,1-1-.6c-.32-.27-.62-.55-.95-.81a5.76,5.76,0,0,0-.92-.63,5.89,5.89,0,0,0-.58-.24,1.58,1.58,0,0,0-1,0,.47.47,0,0,0-.32.31c0,.18.07.25.17.37a1.59,1.59,0,0,0,.75.36,2.67,2.67,0,0,1,.46.2c.3.16.58.34.87.53a9.26,9.26,0,0,0,.86.51,5.1,5.1,0,0,0,1.58.49c.37,0,.43-.39.08-.5Z" style="fill:#37474f"></path><path d="M345.75,213.67c-.83-1.84-2.83-2.11-4.6-2.36a8.35,8.35,0,0,1-2.57-.63,3,3,0,0,1-.92-.71c-.12-.14-.26-.31-.38-.47a1.71,1.71,0,0,0-.37-.39,1.77,1.77,0,0,0-.44-.11c-.12,0-.38,0-.43.17-.4,1.15.72,2.25,1.66,2.74a6.34,6.34,0,0,0,2.57.61c1.71.09,3.82-.17,5.09,1.26.11.13.5.14.39-.11Z" style="fill:#37474f"></path><path d="M343.92,209.38a2.08,2.08,0,0,1-1.49.45,3.07,3.07,0,0,1-1.31-.69,11,11,0,0,1-1.2-1.06,3,3,0,0,0-1.41-1.05c-.29-.05-.68.13-.58.47a2,2,0,0,0,.6.82c.22.21.43.41.66.61a8.07,8.07,0,0,0,1.42,1.06,3.75,3.75,0,0,0,2,.52,2.45,2.45,0,0,0,.92-.23,2.21,2.21,0,0,0,.71-.58c.13-.14-.19-.43-.33-.32Z" style="fill:#37474f"></path><path d="M344.56,207c-1.53-.57-3.18.2-4.62.72a7.33,7.33,0,0,1-2.28.52,2.27,2.27,0,0,1-.82-.13c-.46-.16-.84-.47-1.36-.4-.15,0-.34.12-.35.3,0,.91,1.29,1.24,2,1.29a5.87,5.87,0,0,0,2.44-.48c.91-.36,1.8-.8,2.72-1.11a4,4,0,0,1,2.2-.21c.39.09.41-.38.08-.5Z" style="fill:#37474f"></path><path d="M344.91,203.65c-.34-.06-.57.15-.84.33a9.67,9.67,0,0,1-1.21.69,3.35,3.35,0,0,1-2.6.07,6.8,6.8,0,0,0-2.77-.63,4.92,4.92,0,0,0-2.75,1,.44.44,0,0,0,.26.78,2.84,2.84,0,0,0,1.45-.34,3.75,3.75,0,0,1,1.28-.26,15.83,15.83,0,0,1,2.61.58,4.84,4.84,0,0,0,2.87-.53,5.25,5.25,0,0,0,1.15-.77c.26-.21.71-.48.6-.86,0,0,0-.07,0-.07Z" style="fill:#37474f"></path><path d="M341.87,201.46a15,15,0,0,0-2.54.79,7.92,7.92,0,0,0-1.4.77,3.6,3.6,0,0,0-1,.94.35.35,0,0,0,.12.45.46.46,0,0,0,.23.09.2.2,0,0,0,.13,0,.46.46,0,0,0,.21,0c.11,0,.61-.46.74-.56l.49-.37a10.53,10.53,0,0,1,1-.58,23.17,23.17,0,0,1,2.4-1c.32-.12-.1-.51-.32-.46Z" style="fill:#37474f"></path><path d="M340.7,197.6c-.17.37-.39.74-.59,1.1a3.44,3.44,0,0,1-.58.78,6.8,6.8,0,0,1-1.8,1.24c-1.45.75-3.27,1.6-4,3.16a.49.49,0,0,0,.32.65.74.74,0,0,0,.8-.32c1-1.36,2.4-2,3.75-3a8.39,8.39,0,0,0,1.82-1.59,3.42,3.42,0,0,0,.54-.92,2.07,2.07,0,0,0,0-1c0-.09-.19-.29-.26-.15Z" style="fill:#37474f"></path><path d="M338.9,197.51a1.38,1.38,0,0,1-1.28.66,5,5,0,0,0-1.47.28,6.2,6.2,0,0,0-1.31.72,3.85,3.85,0,0,0-1.15,1c-.27.42.17.73.57.64.56-.12,1.06-.71,1.53-1a5.22,5.22,0,0,1,1.4-.69,11.15,11.15,0,0,0,1.49-.46,1.72,1.72,0,0,0,.79-.85c.13-.27-.43-.54-.57-.27Z" style="fill:#37474f"></path><path d="M338.57,193.89c-1,1.51-2.81,1.62-4.21,2.52a7.22,7.22,0,0,0-2.63,3.2,5.4,5.4,0,0,0-.53,1.84.54.54,0,0,0,.55.63.78.78,0,0,0,.74-.76,7.15,7.15,0,0,1,1.76-3.55c1.41-1.53,4-1.58,4.88-3.61.12-.27-.4-.52-.56-.27Z" style="fill:#37474f"></path><path d="M334,192.8c-.56,2.29-3.44,3.07-3.79,5.48,0,.27.28.42.49.42a.63.63,0,0,0,.63-.42,3.78,3.78,0,0,1,.6-1.36,14,14,0,0,1,1.05-1.26,8.74,8.74,0,0,0,.9-1.2,4.1,4.1,0,0,0,.49-1.48c0-.16-.32-.38-.37-.18Z" style="fill:#37474f"></path><path d="M327.54,193.31a2.86,2.86,0,0,1,1.17,1.5,13.76,13.76,0,0,1,.4,1.8,10,10,0,0,0,.44,1.6c.21.55.52,1.23,1.15,1.36a.66.66,0,0,0,.8-.81,2.51,2.51,0,0,0,0,.27.38.38,0,0,0,0-.21,2.31,2.31,0,0,0-.29-.59c-.06-.11-.14-.21-.2-.32a4.34,4.34,0,0,1-.28-.63c-.2-.57-.31-1.17-.46-1.75a4.54,4.54,0,0,0-.76-1.6,3.1,3.1,0,0,0-1.59-1.14c-.35-.12-.84.24-.4.52Z" style="fill:#37474f"></path><path d="M324.69,191.9A4.06,4.06,0,0,0,325,195a14.14,14.14,0,0,0,2.28,3.31c.3.37.56.81.89,1.15a.79.79,0,0,0,1.15.13.86.86,0,0,0,0-1,6.34,6.34,0,0,0-1-1.39c-.37-.43-.73-.86-1.1-1.28-1-1.08-2.33-2.29-1.92-3.87.06-.25-.49-.47-.59-.21Z" style="fill:#37474f"></path><path d="M320.39,195.75a1.61,1.61,0,0,1,1.3.34,6.14,6.14,0,0,1,.84.77,14.12,14.12,0,0,1,1.27,1.79c.78,1.13,1.72,2.63,3.13,3,.38.09,1.19-.31.77-.77-.61-.69-1.36-1.22-2-1.93s-1.1-1.46-1.71-2.15a4.74,4.74,0,0,0-1.68-1.26,3.43,3.43,0,0,0-2.19-.15c-.26.09,0,.41.23.38Z" style="fill:#37474f"></path><path d="M317.62,198.57a2.75,2.75,0,0,1,1-.22c.47,0,.77.38,1.11.65.6.48,1.18,1,1.79,1.45a4.52,4.52,0,0,0,2.12,1.05,5.87,5.87,0,0,0,1.11,0l.4,0a1.63,1.63,0,0,0,.48-.09c.14,0,.23-.15.36-.21a.27.27,0,0,0,.16-.27c-.07-1-1.46-.85-2.17-.92-.92-.08-1.57-.82-2.31-1.29a5,5,0,0,0-2.26-.81,3.63,3.63,0,0,0-2.08.32c-.2.1.1.41.27.34Z" style="fill:#37474f"></path><path d="M315.85,201.08a3.52,3.52,0,0,0,2.24.77,12.42,12.42,0,0,0,2.2,0c.33,0,.65-.05,1-.06h.66c.19,0-.13,0,.06,0a3.45,3.45,0,0,1,.79.15c-.14,0,0,0,.05,0l.19.08a2.26,2.26,0,0,0,1,.28c.32,0,.66-.32.56-.65-.24-.86-1.26-1.17-2.05-1.24a8.66,8.66,0,0,0-2.16.13c-.85.13-1.69.37-2.54.46a4.09,4.09,0,0,1-1.7-.21c-.22-.08-.42.13-.25.32Z" style="fill:#37474f"></path><path d="M314.87,205.57a5.25,5.25,0,0,0,2.05-.14,10,10,0,0,0,2.2-.81,7.58,7.58,0,0,1,1.55-.55l.38-.07c-.11,0,.08,0,.1,0h.2a2.37,2.37,0,0,1,.44.05,8,8,0,0,0,1.07.28c.29,0,.68-.12.57-.49a2,2,0,0,0-2.05-1.14,5.81,5.81,0,0,0-2.13.57,19.09,19.09,0,0,0-1.91,1,4.18,4.18,0,0,1-2.52.83c-.38,0-.23.43.05.49Z" style="fill:#37474f"></path><path d="M315.32,211a3.5,3.5,0,0,1,1.13-2.3,6.26,6.26,0,0,1,1.75-.66c.43-.14.85-.3,1.27-.47a18.48,18.48,0,0,0,2.57-1.25,5.57,5.57,0,0,0,2.21-1.92c.13-.26-.34-.44-.52-.37a25.22,25.22,0,0,0-2.78,1.55c-.89.47-1.82.84-2.75,1.26a7,7,0,0,0-2.57,1.66,3.92,3.92,0,0,0-.88,2.33c0,.27.52.48.57.17Z" style="fill:#37474f"></path><path d="M317.41,211.53a6.41,6.41,0,0,0,1.83-.29c.59-.14,1.17-.33,1.75-.53.4-.15.81-.31,1.21-.49a3.84,3.84,0,0,0,1.25-.73c.24-.24-.25-.45-.41-.45a4.63,4.63,0,0,0-1.61.53c-.41.17-.82.34-1.23.49s-.82.28-1.23.4c-.58.16-1.17.26-1.74.43s-.18.63.18.64Z" style="fill:#37474f"></path><path d="M317.68,216.39c.16-.32.3-.67.48-1a2.7,2.7,0,0,1,1.11-1c.66-.37,1.39-.57,2.05-.93a5,5,0,0,0,1.59-1.48,9.65,9.65,0,0,0,.59-1,11.38,11.38,0,0,0,.64-1.19c.13-.37-.45-.56-.7-.41-.82.49-1.23,1.46-1.81,2.17a4.38,4.38,0,0,1-1.75,1.15,4.71,4.71,0,0,0-2.91,3.38c-.06.32.56.56.71.25Z" style="fill:#37474f"></path><path d="M319.82,216.53a5,5,0,0,0,3.55-2.13,11.84,11.84,0,0,0,1.16-1.81c.18-.35.37-.71.54-1.07a2.48,2.48,0,0,0,.42-1.18c0-.32-.57-.35-.75-.18a6.4,6.4,0,0,0-1.14,2c-.29.58-.58,1.16-.92,1.71a5.56,5.56,0,0,1-1.2,1.36,5.47,5.47,0,0,1-.86.55,8.23,8.23,0,0,0-1,.47c-.14.09.11.3.2.3Z" style="fill:#37474f"></path><path d="M336,191.92a1,1,0,1,1,.14-1.44A1,1,0,0,1,336,191.92Z" style="fill:#37474f"></path><path d="M346.78,209.52a1,1,0,1,1,.14-1.44A1,1,0,0,1,346.78,209.52Z" style="fill:#37474f"></path><path d="M330.81,193.41a1,1,0,0,1-1.31-1.58A1,1,0,0,1,331,192,1,1,0,0,1,330.81,193.41Z" style="fill:#37474f"></path><path d="M325.68,190.32a1,1,0,1,1,.14-1.45A1,1,0,0,1,325.68,190.32Z" style="fill:#37474f"></path><path d="M322.23,194.5a1,1,0,1,1,.14-1.44A1,1,0,0,1,322.23,194.5Z" style="fill:#37474f"></path><path d="M317.79,196.84a1,1,0,1,1,.14-1.44A1,1,0,0,1,317.79,196.84Z" style="fill:#37474f"></path><path d="M343.11,215.57a1,1,0,1,1,.13-1.44A1,1,0,0,1,343.11,215.57Z" style="fill:#37474f"></path><path d="M331.42,224.26a1,1,0,0,1-1.31-1.58,1,1,0,1,1,1.31,1.58Z" style="fill:#37474f"></path><path d="M314.73,200.7a1,1,0,1,1,.14-1.45A1,1,0,0,1,314.73,200.7Z" style="fill:#37474f"></path><path d="M316.24,204.12a1,1,0,1,1,.13-1.44A1,1,0,0,1,316.24,204.12Z" style="fill:#37474f"></path><path d="M326.2,220.51a1,1,0,1,1,.13-1.44A1,1,0,0,1,326.2,220.51Z" style="fill:#37474f"></path><path d="M313.71,209.05a1,1,0,0,1-1.31-1.58,1,1,0,0,1,1.45.14A1,1,0,0,1,313.71,209.05Z" style="fill:#37474f"></path><path d="M339.46,221.24a1,1,0,1,1,.14-1.44A1,1,0,0,1,339.46,221.24Z" style="fill:#37474f"></path><path d="M316.83,214.44A1,1,0,1,1,317,213,1,1,0,0,1,316.83,214.44Z" style="fill:#37474f"></path><path d="M341.11,196.77a1,1,0,1,1,.14-1.45A1,1,0,0,1,341.11,196.77Z" style="fill:#37474f"></path><path d="M345.18,203a1,1,0,1,1-1.31-1.58,1,1,0,0,1,1.31,1.58Z" style="fill:#37474f"></path><path d="M321.47,221.23a1,1,0,1,1,.14-1.44A1,1,0,0,1,321.47,221.23Z" style="fill:#37474f"></path><path d="M390.41,157.81a21.87,21.87,0,0,0-2.84,4.53c-1.43,2.92-6.72,11.26-13.34,13.78s-20.36,1.62-23.88-1.71a7,7,0,0,1-.36-9.79c1.75-2,2.54-2.61.3-6.35s2.24-4.63,2.62-5.84-3.73-4.4.09-8.73,13.08-3.1,20.14,0C384.34,148.48,387.62,157.32,390.41,157.81Z" style="fill:#73AFA1"></path><path d="M390.41,157.81a21.87,21.87,0,0,0-2.84,4.53c-1.43,2.92-6.72,11.26-13.34,13.78s-20.36,1.62-23.88-1.71a7,7,0,0,1-.36-9.79c1.75-2,2.54-2.61.3-6.35s2.24-4.63,2.62-5.84-3.73-4.4.09-8.73,13.08-3.1,20.14,0C384.34,148.48,387.62,157.32,390.41,157.81Z" style="fill:#fff;opacity:0.5"></path><path d="M391.09,160.07s-5.28,3-10.89,5.38-18.76,11.22-19,16.5c-.19,5,6.22,3.42,7.22,5.68s-.74,5.54,2.95,5,9.69-6.79,13-11.53c1.84-2.66,5.33-10.91,6.65-15.95C392,161.28,391.09,160.07,391.09,160.07Z" style="fill:#73AFA1"></path><path d="M391.09,160.07s-5.28,3-10.89,5.38-18.76,11.22-19,16.5c-.19,5,6.22,3.42,7.22,5.68s-.74,5.54,2.95,5,9.69-6.79,13-11.53c1.84-2.66,5.33-10.91,6.65-15.95C392,161.28,391.09,160.07,391.09,160.07Z" style="fill:#fff;opacity:0.35000000000000003"></path><path d="M380.2,165.45c-4.23,1.83-12.73,7.28-16.76,12.1a30.65,30.65,0,0,0,10.79-1.43c6.62-2.52,11.91-10.86,13.33-13.78l.28-.54C385.81,162.85,383.05,164.22,380.2,165.45Z" style="fill:#73AFA1;opacity:0.5"></path><path d="M392.08,160.52a17.55,17.55,0,0,1-4.1,8.84A139.59,139.59,0,0,1,377.66,181c-3.32,3.17-2.84,6.83-.2,7.17s4.28.67,4.28.67-3.8,3.86-1.95,7.12,4.44,2.8,6,2.86.78,2.3,3,4,5.77,2.74,11.94,1,8.26-5.29,8.39-7.91-2.45-6.78-1.83-9.22,3.47-7.4.33-13.41-11.51-8.55-13.29-11.74S392.08,160.52,392.08,160.52Z" style="fill:#73AFA1"></path><path d="M392.08,160.52a17.55,17.55,0,0,1-4.1,8.84A139.59,139.59,0,0,1,377.66,181c-3.32,3.17-2.84,6.83-.2,7.17s4.28.67,4.28.67-3.8,3.86-1.95,7.12,4.44,2.8,6,2.86.78,2.3,3,4,5.77,2.74,11.94,1,8.26-5.29,8.39-7.91-2.45-6.78-1.83-9.22,3.47-7.4.33-13.41-11.51-8.55-13.29-11.74S392.08,160.52,392.08,160.52Z" style="fill:#fff;opacity:0.5"></path><path d="M391,165.18a13.76,13.76,0,0,0,.34-1.7,19.31,19.31,0,0,1-3.36,5.88A139.59,139.59,0,0,1,377.66,181c-3.32,3.17-2.84,6.83-.2,7.17l.75.1a47.66,47.66,0,0,0,6.14-7.18C386.19,178.47,389.68,170.22,391,165.18Z" style="fill:#73AFA1;opacity:0.5"></path><path d="M394.22,161.34s0,5,5.19,12.77,12.08,13,16,14.13,9.71-1.58,10.52-3,3.35-2.12,3.39-3.78-2.15-2.67-1.69-4.41,3.85-2.45,4.4-6.89a8.72,8.72,0,0,0-2.57-7.2s4.58-3.8,1.52-8.35-10.27-6.15-17.49-4.07C400.47,154.27,394.22,161.34,394.22,161.34Z" style="fill:#73AFA1"></path><path d="M394.22,161.34s0,5,5.19,12.77,12.08,13,16,14.13,9.71-1.58,10.52-3,3.35-2.12,3.39-3.78-2.15-2.67-1.69-4.41,3.85-2.45,4.4-6.89a8.72,8.72,0,0,0-2.57-7.2s4.58-3.8,1.52-8.35-10.27-6.15-17.49-4.07C400.47,154.27,394.22,161.34,394.22,161.34Z" style="fill:#fff;opacity:0.35000000000000003"></path><path d="M394.37,161.55c-.05-.09-.09-.14-.14-.22h0s0,5,5.19,12.77a45,45,0,0,0,8.82,9.85,13,13,0,0,0-.57-10.67C404.53,167.28,396.15,164.74,394.37,161.55Z" style="fill:#73AFA1;opacity:0.5"></path><path d="M395.08,156.9s6.85,3.9,12.67,4.11,16.43-2.26,20.08-7.5,3-11.34-4.93-14.52a4.84,4.84,0,0,0-1.4-5.39c-2.69-2.53-7.06-.08-8.53,1.7,0,0-.85-1.37-4,.95s-3.81,10.18-9.89,14.74S393.77,156.21,395.08,156.9Z" style="fill:#73AFA1"></path><path d="M395.08,156.9s6.85,3.9,12.67,4.11,16.43-2.26,20.08-7.5,3-11.34-4.93-14.52a4.84,4.84,0,0,0-1.4-5.39c-2.69-2.53-7.06-.08-8.53,1.7,0,0-.85-1.37-4,.95s-3.81,10.18-9.89,14.74S393.77,156.21,395.08,156.9Z" style="fill:#fff;opacity:0.4"></path><path d="M427.83,153.51a13.93,13.93,0,0,0,.8-1.31c-3.65-2.65-9.39-3.34-15.15-1.68a47.79,47.79,0,0,0-15.73,7.71,28.75,28.75,0,0,0,10,2.78C413.57,161.22,424.18,158.75,427.83,153.51Z" style="fill:#73AFA1;opacity:0.5"></path><path d="M394.32,156.34a51.5,51.5,0,0,0,10.5-7c6.66-6,8.55-16.46,9.64-18.58s-.57-7.89-5.57-9.54-7.42.38-10.35-2.06-5.2-2.13-8.31.35-5.78-2.17-9.41-.15-1.81,14.37,1.59,21.72A45.67,45.67,0,0,0,394.32,156.34Z" style="fill:#73AFA1"></path><path d="M394.32,156.34a51.5,51.5,0,0,0,10.5-7c6.66-6,8.55-16.46,9.64-18.58s-.57-7.89-5.57-9.54-7.42.38-10.35-2.06-5.2-2.13-8.31.35-5.78-2.17-9.41-.15-1.81,14.37,1.59,21.72A45.67,45.67,0,0,0,394.32,156.34Z" style="fill:#fff;opacity:0.5"></path><path d="M392.05,156.83c-1.4-.42-5.41.3-8.83-1.63s-7.82-2.3-10.82-3.72-3.65-5.22-3.43-8.26-1.69-3.19-4.29-5.79-3.87-5.89-1.88-8.13c1.09-1.22,2.16-.71,3.28-2.49s1.42-4.75,4.66-3.88,5.34,2.59,8.1,1.85,8.26-.33,9.05,4.52-.06,8.26,2,10.58,4.05,7.27,4.13,11.19S393.63,157.31,392.05,156.83Z" style="fill:#73AFA1"></path><path d="M392.05,156.83c-1.4-.42-5.41.3-8.83-1.63s-7.82-2.3-10.82-3.72-3.65-5.22-3.43-8.26-1.69-3.19-4.29-5.79-3.87-5.89-1.88-8.13c1.09-1.22,2.16-.71,3.28-2.49s1.42-4.75,4.66-3.88,5.34,2.59,8.1,1.85,8.26-.33,9.05,4.52-.06,8.26,2,10.58,4.05,7.27,4.13,11.19S393.63,157.31,392.05,156.83Z" style="fill:#fff;opacity:0.35000000000000003"></path><path d="M373.14,143.65a35.39,35.39,0,0,0-4.2-1.51,4.72,4.72,0,0,1,0,1.08c-.22,3,.43,6.84,3.43,8.26s7.41,1.78,10.82,3.72a12.34,12.34,0,0,0,5.39,1.39C386,153.92,382.1,147.51,373.14,143.65Z" style="fill:#73AFA1;opacity:0.5"></path><path d="M378.85,124.78a40.78,40.78,0,0,0,3.56,16.3,45.84,45.84,0,0,0,11.2,14.67,14.39,14.39,0,0,0,.45-4.68c-.08-3.92-2-8.87-4.13-11.19s-1.25-5.72-2-10.58S381.61,124.05,378.85,124.78Z" style="fill:#73AFA1;opacity:0.5"></path><path d="M375.12,160.65c-1.42-.17-3.61,0-4.65-1.16-.12-.14-.24-.35-.13-.51a.4.4,0,0,1,.18-.13,3.21,3.21,0,0,1,1.63-.06,22.92,22.92,0,0,0,6.08,0c.42-.06,1.77-.18,1.74-.81,0-.18-.16-.29-.31-.38a12.32,12.32,0,0,1-2.75-1.49.37.37,0,0,1-.15-.27.29.29,0,0,1,.25-.23.74.74,0,0,1,.36.06c.55.18,4.58,2,4.44.44a.85.85,0,0,0-.38-.55c-2.11-1.8-4.52-3.23-6.59-5.08-.32-.28-.66-.66-.58-1.08a5.12,5.12,0,0,1,2.24,1.24c.82.59,1.67,1.14,2.51,1.69a39.89,39.89,0,0,0,3.85,2.34c.54.27,3.51,1.73,3.49.31a1.55,1.55,0,0,0-.53-1c-.91-1-1.88-1.93-2.73-3a20.77,20.77,0,0,1-2.75-4.77.69.69,0,0,1-.09-.34c0-.12.11-.24.23-.23a.37.37,0,0,1,.19.09,15.73,15.73,0,0,1,1.59,2,26.55,26.55,0,0,0,2,2.13c.72.7,2.72,3.15,3.11,1.05a5.26,5.26,0,0,0-.46-2.53c-.34-1.07-.67-2.13-1-3.19-.41-1.31-.82-2.62-1.24-3.93a1.78,1.78,0,0,1-.12-.68c.11-1.32,1.25.06,1.48.49.36.69.56,1.45.89,2.16,1,2.13,1.94,4.25,2.83,6.43.26.63.28,1.59,1,2,2,1.15,1.18-2.4,1.37-3.35.27-1.37.53-2.75.84-4.11.15-.68.3-1.36.49-2,.1-.38.48-1.2.93-1.28.66-.12.22,1.9.2,2.26-.08,1-.16,2.06-.3,3.07-.12.83-.24,1.66-.31,2.49,0,.46-.36,1.88.14,2.19a.7.7,0,0,0,.71-.05,1.91,1.91,0,0,0,.53-.53,27,27,0,0,0,3.47-7,.75.75,0,0,1,.73.59,2,2,0,0,1,0,1,18.88,18.88,0,0,1-1.86,5,35.41,35.41,0,0,1-2.67,4.47c-.37.52,1.75-.06,1.91-.08a14,14,0,0,0,3.59-1.14c1.66-.71,3.26-1.52,4.93-2.22.36-.16.65,0,.53.45a1.15,1.15,0,0,1-.27.45,14.58,14.58,0,0,1-5.15,3.53c-.84.39-3.74,1.23-3.38,2.5.69,2.47,5.69,1.18,7.31.78s3.39-.77,5.07-1.16c.91-.2,1.78-.85,2.71-.88a.53.53,0,0,1,.31.07.38.38,0,0,1,.11.39c-.17.57-.79.71-1.25.94s-1.18.58-1.78.84a22,22,0,0,1-3.67,1.23c-.2.05-4.79.93-4.35,1.3a6.53,6.53,0,0,0,3.17,1.19c.94.17,2.47.12,3.08.95a.28.28,0,0,1,.06.15.23.23,0,0,1-.09.18c-.53.51-1.69.19-2.33.11-.84-.11-1.68-.28-2.53-.35-2.64-.2.07,1.37.93,1.77,3.16,1.45,6.46,2.59,9.72,3.79.86.32,2.57.28,3.06,1.12a.34.34,0,0,1,.05.14.28.28,0,0,1-.08.15c-.52.62-1.91.31-2.61.2a28.38,28.38,0,0,1-2.87-.66,46,46,0,0,1-4.9-2c-1.07-.42-2.14-.83-3.23-1.18-.42-.13-.81-.33-1.22-.11-.61.33-.4.95-.15,1.45.5,1,1,1.93,1.59,2.86.12.2.24.45.12.64a.42.42,0,0,1-.5.13,1.2,1.2,0,0,1-.45-.32q-2.22-2.21-4.59-4.23c-.47-.41-1-.45-.87.28.08.52.28,1,.4,1.55a24.68,24.68,0,0,1,.6,3.82,23.2,23.2,0,0,1-.65,7.19c-.26,1.09-.56,2.92-1.61,3.52a.41.41,0,0,1-.41,0,.35.35,0,0,1-.12-.17,2.92,2.92,0,0,1,.08-1.6,11.57,11.57,0,0,0,.26-1.95,31.22,31.22,0,0,0-.37-4.91,87.63,87.63,0,0,0-1.76-8.82,6.45,6.45,0,0,1-.32,1.62c-.1.62-.18,1.23-.28,1.85a16.3,16.3,0,0,1-.41,1.81,2.63,2.63,0,0,1-1,1.28.51.51,0,0,1-.22.11.29.29,0,0,1-.29-.21.86.86,0,0,1,0-.39c.13-1,1.82-7.61-.07-7.27-.86.15-1.92,2.2-2.33,2.79-1.08,1.56-2.21,3.64-4.11,4.3-.2.08-.46.12-.6-.05s0-.5.16-.7a19.57,19.57,0,0,0,3.07-4.18c.77-1.76-1.68-.29-2.2.05-2.4,1.61-4.4,3.67-7.37,4.18-.24,0-.57,0-.57-.26s.14-.22.26-.29a33.28,33.28,0,0,0,6.53-4.69c.52-.53,2.4-2,2.19-2.78s-2.06-.35-2.52-.27a27,27,0,0,1-3.91.84,1.54,1.54,0,0,1-.37,0,.36.36,0,0,1-.24-.25.32.32,0,0,1,.15-.33,1.06,1.06,0,0,1,.34-.16,9.7,9.7,0,0,0,1.86-.63c.36-.19.68-.47,1-.69s1.59-1,.93-1.64c-.45-.43-2.68.34-3.3.4A20.66,20.66,0,0,1,375.12,160.65Z" style="fill:#73AFA1;opacity:0.4"></path><path d="M401.29,153.22a2.4,2.4,0,0,0-1.19,1.1c-.19.35-.36.72-.55,1.06a1,1,0,0,1-1,0,.55.55,0,0,1-.17-.17,4,4,0,0,0,.3-.63c.13-.44,0-1.14.5-1.37.23-.1,0-.34-.21-.27a1.15,1.15,0,0,0-.58.53,5.42,5.42,0,0,1-.94.26,1.08,1.08,0,0,1-.19,0,4.78,4.78,0,0,1,.52-.75,3,3,0,0,1,1.36-.84c.09,0,0-.16-.09-.16a1.85,1.85,0,0,0-1.3.4,5,5,0,0,0-1,1.12h0l-.11-.07a2.13,2.13,0,0,1-.45-.45,1.74,1.74,0,0,0,.11-.18,7.46,7.46,0,0,0,.51-1.51c0-.19-.3-.29-.38-.12s-.27.54-.4.82c-.41.16-.73.62-1.21.71,0-.11-.06-.23-.1-.34a2.35,2.35,0,0,1,.05-1.69,4.68,4.68,0,0,1,.43-.75c.11-.17.34-.37.23-.58a0,0,0,0,0,0,0c-.26,0-.44.25-.61.44a3.48,3.48,0,0,0-.5.69,2.89,2.89,0,0,0-.39,1.7,2.33,2.33,0,0,0,.05.28l-.2-.15c-.36-.3-.48-.33-.79-.26a3.52,3.52,0,0,0,.4-2.5c-.06-.17-.46-.17-.42.05a4,4,0,0,1-.54,2.23l-.13.27a4.39,4.39,0,0,1-.33-.4,1.93,1.93,0,0,1-.38-.85,1.31,1.31,0,0,1,.27-1c.08-.1-.16-.24-.24-.17a1.79,1.79,0,0,0-.43.48,1.57,1.57,0,0,0-.16.56,2.11,2.11,0,0,0,.24,1.1,4.15,4.15,0,0,0,.32.53,1.36,1.36,0,0,1-.18.28,1,1,0,0,1-.62.27,7,7,0,0,1-.24-1.43,5.84,5.84,0,0,0-.24-1.56,2.23,2.23,0,0,0-1.11-1.25c-.12-.06-.29,0-.17.17.89.87.69,2.33.75,3.46a4.82,4.82,0,0,0,.1.75,1,1,0,0,0-.41.34l-.37-.47a2.33,2.33,0,0,1-.44-.72c-.06-.19-.45-.25-.43,0a2.47,2.47,0,0,0,.17.76,5,5,0,0,0,.41.76c.06.09.1.18.16.27a1.84,1.84,0,0,1-.25.17l-.2-.1a12.65,12.65,0,0,1-1.56-1.37,3.12,3.12,0,0,0-1.4-.85c-.13,0-.22.08-.1.18a6.62,6.62,0,0,1,1.31,1.78,4.24,4.24,0,0,0,1,.91.1.1,0,0,1-.05,0,1.09,1.09,0,0,0-.17.22l-.17-.12c-.52-.41-1.66-1.31-2.33-.72,0,0,0,.12.07.11a1,1,0,0,1,1,.45c.35.38.67.78,1.05,1.14a1,1,0,0,1-.29.4l-.11.06a7.59,7.59,0,0,0-1.58,0,.13.13,0,0,0-.07.23,2.25,2.25,0,0,0,1.17.25s0,0,0,.07c0,.22.34.33.35.62a1.39,1.39,0,0,1-.22.68c-.18-.05-.36-.08-.54-.14a4.19,4.19,0,0,1-1.44-.91,3.7,3.7,0,0,0-1.35-.89c-.18-.06-.34.15-.13.24.6.27.77,1.1,1.18,1.58a3.45,3.45,0,0,0,1.38.87.26.26,0,0,0-.12.26c0,.36.46.72.72,1a5.24,5.24,0,0,0-2.79-.27c-.14,0,0,.21.13.19a3.27,3.27,0,0,1,1.87.47,5.44,5.44,0,0,0,1.1.36,10.87,10.87,0,0,1-.18,1.12,9.14,9.14,0,0,1-2.15.53.22.22,0,0,0-.18.26c.05.13.22.15.34.13a2.21,2.21,0,0,1,.8.17,2,2,0,0,0,.65,0,2.68,2.68,0,0,0,1-.36.68.68,0,0,1,.2.07c.42.26.15.44.17.79a.33.33,0,0,0,.11.23,1.83,1.83,0,0,0-.39,1.14c0,.07.15.19.21.1.27-.38.42-.82.72-1.18h.07c.32,0,.43.07.6.42a.78.78,0,0,1,.07.35,5.94,5.94,0,0,1-.52,1,2.12,2.12,0,0,1-1.12.74c-.25.11-.07.39.16.35a3.35,3.35,0,0,0,1.32-.55,2.28,2.28,0,0,0,.56-.6c.44-.08.95-.16,1.18,0h0a3.92,3.92,0,0,0-.19,1c0,.28.49.22.56,0s.08-.28.12-.42c.35-.23.69-.49,1.17-.28a.72.72,0,0,1,.41.43,7.38,7.38,0,0,1-.36.81,1.86,1.86,0,0,1-1.52.81c-.25,0-.08.3.11.28a2.65,2.65,0,0,0,1.54-.53,2.91,2.91,0,0,0,.67-.79,2.2,2.2,0,0,0,.56-.34c.26-.21.66-.82,1.1-.69a5.86,5.86,0,0,0-.51,1.21,2.72,2.72,0,0,0-.11,1.2c0,.18.41.25.41,0a2.83,2.83,0,0,1,.55-1.56c.09-.15.16-.31.24-.46a.88.88,0,0,0,.46-.21c.31-.21.51-.68.86-.85h0a5.91,5.91,0,0,0-.08,1.33,1.78,1.78,0,0,0,.41,1.15c.07.07.35.09.32-.07s-.1-.49-.11-.74a3.42,3.42,0,0,1,.07-.71c0-.29.11-.57.16-.86.45.08.57-.17.64-.5.17.23.35.47.51.7a.89.89,0,0,1,.22.52,1.5,1.5,0,0,1-.13.66c-.05.11.18.26.24.15a2.06,2.06,0,0,0,.28-.9,2.77,2.77,0,0,0-.28-1.41,4.83,4.83,0,0,0-.37-.62c.44-.24.91,0,1.14-.42a3.8,3.8,0,0,1,.37.33,1.94,1.94,0,0,1,.4.58,1.25,1.25,0,0,1,.05.61c0,.11.22.24.28.12a2.16,2.16,0,0,0-.67-2.32l-.34-.31s0,0,0-.05c.13-.33.65-.5.92-.58h0a3.05,3.05,0,0,0,2.37.43c.25-.08,0-.32-.21-.28-.88.23-1.6-.59-2.19-1.19a.34.34,0,0,1-.05-.11,1.33,1.33,0,0,1,.36-.88.89.89,0,0,1,.16-.17l.1,0a1.62,1.62,0,0,1,.9.77c.11.19.55.09.48-.16a2.37,2.37,0,0,0-1.36-1.41,2.38,2.38,0,0,1-.44-.77c-.08-.36.23-.51.36-.76a3,3,0,0,1,1.5-1c.14,0,0-.22-.12-.21a3.06,3.06,0,0,0-1.32.54,5.58,5.58,0,0,0-.47.38c-.35.08-.69.26-.81-.15a.65.65,0,0,1,0-.34c.06-.07.14-.12.2-.19a5.52,5.52,0,0,0,.91-1.58,2.77,2.77,0,0,1,1.07-1.4C401.72,153.37,401.42,153.16,401.29,153.22Z" style="fill:#37474f"></path><path d="M402.67,155.18a.64.64,0,0,0,1,.85.64.64,0,1,0-1-.85Z" style="fill:#37474f"></path><path d="M391.74,148a.66.66,0,0,0,.06.92.65.65,0,1,0,.86-1A.66.66,0,0,0,391.74,148Z" style="fill:#37474f"></path><path d="M401.62,158.46a.64.64,0,0,0,.05.91.65.65,0,1,0,.86-1A.64.64,0,0,0,401.62,158.46Z" style="fill:#37474f"></path><path d="M403.47,161.77a.65.65,0,0,0,1,.86.65.65,0,0,0-.06-.92A.64.64,0,0,0,403.47,161.77Z" style="fill:#37474f"></path><path d="M400.75,163.87a.65.65,0,1,0,.91-.06A.64.64,0,0,0,400.75,163.87Z" style="fill:#37474f"></path><path d="M399.17,166.63a.65.65,0,1,0,.92-.06A.66.66,0,0,0,399.17,166.63Z" style="fill:#37474f"></path><path d="M387.84,150.21a.64.64,0,0,0,.05.91.65.65,0,1,0,.86-1A.64.64,0,0,0,387.84,150.21Z" style="fill:#37474f"></path><path d="M382.09,157.43a.65.65,0,0,0,1,.86.65.65,0,1,0-1-.86Z" style="fill:#37474f"></path><path d="M396.67,168.49a.64.64,0,0,0,.05.91.65.65,0,1,0,.86-1A.64.64,0,0,0,396.67,168.49Z" style="fill:#37474f"></path><path d="M394.53,167.46a.65.65,0,1,0,1,.86.64.64,0,0,0-.06-.91A.65.65,0,0,0,394.53,167.46Z" style="fill:#37474f"></path><path d="M384.35,160.81a.66.66,0,0,0,.06.92.65.65,0,1,0-.06-.92Z" style="fill:#37474f"></path><path d="M391.36,169a.65.65,0,0,0,.05.92.66.66,0,0,0,.92-.06.65.65,0,1,0-1-.86Z" style="fill:#37474f"></path><path d="M384.17,152.4a.64.64,0,0,0,.06.91.65.65,0,0,0,.91-.05.66.66,0,0,0-.05-.92A.65.65,0,0,0,384.17,152.4Z" style="fill:#37474f"></path><path d="M388,166.87a.65.65,0,1,0,1,.86.65.65,0,1,0-1-.86Z" style="fill:#37474f"></path><path d="M399.71,151.86a.65.65,0,1,0,1,.86.65.65,0,0,0-1-.86Z" style="fill:#37474f"></path><path d="M395.86,149.16a.65.65,0,1,0,.92-.06A.66.66,0,0,0,395.86,149.16Z" style="fill:#37474f"></path><path d="M383.8,163.79a.65.65,0,1,0,.92-.06A.66.66,0,0,0,383.8,163.79Z" style="fill:#37474f"></path><path d="M330.66,306.12a17.81,17.81,0,0,0-.93-4.18c-.83-2.46-2.52-10.17-.18-15.33s10.66-12.38,14.54-12.47a5.65,5.65,0,0,1,5.71,5.37c.12,2.11,0,2.9,3.4,3.77s1.33,3.89,1.8,4.79,4.6.4,4.86,5-5.69,9.12-11.41,11.36C339.36,308,332.53,304.83,330.66,306.12Z" style="fill:#73AFA1"></path><path d="M330.66,306.12a17.81,17.81,0,0,0-.93-4.18c-.83-2.46-2.52-10.17-.18-15.33s10.66-12.38,14.54-12.47a5.65,5.65,0,0,1,5.71,5.37c.12,2.11,0,2.9,3.4,3.77s1.33,3.89,1.8,4.79,4.6.4,4.86,5-5.69,9.12-11.41,11.36C339.36,308,332.53,304.83,330.66,306.12Z" style="fill:#fff;opacity:0.7000000000000001"></path><path d="M329,305.22s1.33-4.65,3.16-9.19,4.34-16.93,1.49-20c-2.7-3-5.46,1.56-7.3.83s-2.7-3.56-4.5-1.19-1.69,9.31-.88,13.84c.46,2.55,3.11,9.2,5.2,12.8C327.8,305.05,329,305.22,329,305.22Z" style="fill:#73AFA1"></path><path d="M329,305.22s1.33-4.65,3.16-9.19,4.34-16.93,1.49-20c-2.7-3-5.46,1.56-7.3.83s-2.7-3.56-4.5-1.19-1.69,9.31-.88,13.84c.46,2.55,3.11,9.2,5.2,12.8C327.8,305.05,329,305.22,329,305.22Z" style="fill:#fff;opacity:0.6000000000000001"></path><path d="M332.17,296c1.37-3.42,3.14-11.3,2.71-16.31a24.63,24.63,0,0,0-5.33,6.89c-2.34,5.16-.65,12.87.18,15.33l.15.47C330.44,300.67,331.24,298.34,332.17,296Z" style="fill:#73AFA1;opacity:0.30000000000000004"></path><path d="M328.19,305.52a14.07,14.07,0,0,1-2.65-7.33,111.85,111.85,0,0,1-.7-12.45c.09-3.67-2.24-5.48-3.93-4.18s-2.8,2-2.8,2,0-4.33-2.91-5.14-4.09.91-5,1.78-1.74-.87-4-.59-4.82,1.69-7.33,6.17-1.71,7.65-.32,9.22,5.21,2.46,6.23,4.2,2.19,6.16,7.36,7.81,11.35-1.62,14.16-.81S328.19,305.52,328.19,305.52Z" style="fill:#73AFA1"></path><path d="M328.19,305.52a14.07,14.07,0,0,1-2.65-7.33,111.85,111.85,0,0,1-.7-12.45c.09-3.67-2.24-5.48-3.93-4.18s-2.8,2-2.8,2,0-4.33-2.91-5.14-4.09.91-5,1.78-1.74-.87-4-.59-4.82,1.69-7.33,6.17-1.71,7.65-.32,9.22,5.21,2.46,6.23,4.2,2.19,6.16,7.36,7.81,11.35-1.62,14.16-.81S328.19,305.52,328.19,305.52Z" style="fill:#fff;opacity:0.7000000000000001"></path><path d="M326.18,302.26a13.84,13.84,0,0,0,.76,1.16,15.82,15.82,0,0,1-1.4-5.23,111.85,111.85,0,0,1-.7-12.45c.09-3.67-2.24-5.48-3.93-4.18l-.48.36a38.66,38.66,0,0,0,.55,7.54C321.44,292,324.09,298.66,326.18,302.26Z" style="fill:#73AFA1;opacity:0.30000000000000004"></path><path d="M326.51,306.26s-2.84-2.82-10.13-4.34-14.17-.58-17,1-4.63,6.36-4.28,7.63-.71,3.09.2,4.06,2.73.3,3.44,1.56-.81,3.55,1.38,6.39a7,7,0,0,0,5.51,2.64s-.47,4.74,3.83,5.6,9.3-2.28,12.24-7.53C326.94,313.79,326.51,306.26,326.51,306.26Z" style="fill:#73AFA1"></path><path d="M326.51,306.26s-2.84-2.82-10.13-4.34-14.17-.58-17,1-4.63,6.36-4.28,7.63-.71,3.09.2,4.06,2.73.3,3.44,1.56-.81,3.55,1.38,6.39a7,7,0,0,0,5.51,2.64s-.47,4.74,3.83,5.6,9.3-2.28,12.24-7.53C326.94,313.79,326.51,306.26,326.51,306.26Z" style="fill:#fff;opacity:0.6000000000000001"></path><path d="M326.31,306.22l.2,0h0s-2.84-2.82-10.13-4.34a35.81,35.81,0,0,0-10.56-.63,10.44,10.44,0,0,0,6.33,5.74C317.31,308.68,323.5,305.41,326.31,306.22Z" style="fill:#73AFA1;opacity:0.30000000000000004"></path><path d="M328.52,309.26s-6.09,1.64-9.51,4.8-8.07,10.53-7.19,15.56,4.66,8.14,11,5.47a3.87,3.87,0,0,0,3.83,2.28c2.95-.07,4.05-3.93,3.89-5.76,0,0,1.25.29,1.72-2.78s-3.56-7.93-2.67-13.94S329.65,308.92,328.52,309.26Z" style="fill:#73AFA1"></path><path d="M328.52,309.26s-6.09,1.64-9.51,4.8-8.07,10.53-7.19,15.56,4.66,8.14,11,5.47a3.87,3.87,0,0,0,3.83,2.28c2.95-.07,4.05-3.93,3.89-5.76,0,0,1.25.29,1.72-2.78s-3.56-7.93-2.67-13.94S329.65,308.92,328.52,309.26Z" style="fill:#fff;opacity:0.7000000000000001"></path><path d="M311.82,329.62a10.88,10.88,0,0,0,.28,1.19c3.56-.54,7.21-3.39,9.56-7.57a38.5,38.5,0,0,0,4.6-13.23,22.83,22.83,0,0,0-7.25,4.05C315.58,317.21,310.94,324.59,311.82,329.62Z" style="fill:#73AFA1;opacity:0.30000000000000004"></path><path d="M329.27,309.15a41.18,41.18,0,0,0-2,9.89c-.43,7.14,4.41,14.16,5,16s4.77,4.16,8.54,2.29,4-4.39,7-4.66,4.15-1.71,4.52-4.87,4.51-2,5.44-5.21-7.06-9.19-13.13-11.45A36.46,36.46,0,0,0,329.27,309.15Z" style="fill:#73AFA1"></path><path d="M329.27,309.15a41.18,41.18,0,0,0-2,9.89c-.43,7.14,4.41,14.16,5,16s4.77,4.16,8.54,2.29,4-4.39,7-4.66,4.15-1.71,4.52-4.87,4.51-2,5.44-5.21-7.06-9.19-13.13-11.45A36.46,36.46,0,0,0,329.27,309.15Z" style="fill:#fff;opacity:0.7000000000000001"></path><path d="M330.28,307.59c1-.55,2.91-3.21,5.94-4s5.73-3.1,8.24-4,5,.91,6.59,2.77,2.76.85,5.7.87,5.52,1.17,5.64,3.56c.07,1.31-.83,1.62-.46,3.26s1.86,3.5-.46,4.83-4.49,1.53-5.65,3.5-4.5,4.84-7.69,2.53-4.61-4.73-7.11-4.86a15.85,15.85,0,0,1-8.64-4C330.13,309.82,329.12,308.21,330.28,307.59Z" style="fill:#73AFA1"></path><path d="M330.28,307.59c1-.55,2.91-3.21,5.94-4s5.73-3.1,8.24-4,5,.91,6.59,2.77,2.76.85,5.7.87,5.52,1.17,5.64,3.56c.07,1.31-.83,1.62-.46,3.26s1.86,3.5-.46,4.83-4.49,1.53-5.65,3.5-4.5,4.84-7.69,2.53-4.61-4.73-7.11-4.86a15.85,15.85,0,0,1-8.64-4C330.13,309.82,329.12,308.21,330.28,307.59Z" style="fill:#fff;opacity:0.6000000000000001"></path><path d="M348.45,304.45a29.38,29.38,0,0,0,3.23-1.51,3.75,3.75,0,0,1-.63-.59c-1.58-1.86-4.09-3.65-6.59-2.77s-5.21,3.16-8.24,4a9.75,9.75,0,0,0-3.85,2.24C335.37,305.83,341.18,307.29,348.45,304.45Z" style="fill:#73AFA1;opacity:0.30000000000000004"></path><path d="M355.82,318.38a32.61,32.61,0,0,0-11.2-7.26,36.69,36.69,0,0,0-14.62-2,11.49,11.49,0,0,0,2.38,2.91,15.85,15.85,0,0,0,8.64,4c2.5.13,3.93,2.55,7.11,4.86S354.66,320.35,355.82,318.38Z" style="fill:#73AFA1;opacity:0.30000000000000004"></path><path d="M337.75,295.9c.91-.7,2.07-2,3.3-1.95.15,0,.33.06.36.21a.32.32,0,0,1,0,.17,2.48,2.48,0,0,1-.9.95,18.93,18.93,0,0,0-3.42,3.45c-.21.27-.91,1.1-.54,1.44.1.1.26.07.39,0a9.65,9.65,0,0,1,2.4-.7.33.33,0,0,1,.24.07.23.23,0,0,1,0,.27.59.59,0,0,1-.24.17c-.42.21-3.73,1.43-2.77,2.25a.73.73,0,0,0,.53.1c2.21-.17,4.38-.71,6.6-.83.34,0,.74,0,.93.29a4.09,4.09,0,0,1-2,.56c-.79.12-1.58.29-2.37.45a32,32,0,0,0-3.51.84c-.46.15-3,1-2.16,1.79a1.29,1.29,0,0,0,.86.25c1.07,0,2.15,0,3.22.16a16.43,16.43,0,0,1,4.25,1.16.55.55,0,0,1,.24.15.19.19,0,0,1,0,.26.38.38,0,0,1-.16.05,12.22,12.22,0,0,1-2-.21,20.17,20.17,0,0,0-2.33-.09c-.8,0-3.32-.26-2.36,1.14a4.18,4.18,0,0,0,1.69,1.18l2.36,1.25,2.92,1.54a1.39,1.39,0,0,1,.45.31c.68.82-.74.67-1.11.55-.6-.18-1.14-.5-1.73-.72-1.76-.64-3.49-1.32-5.22-2.06-.5-.21-1.06-.75-1.68-.58-1.8.49.67,2,1.1,2.68.62.93,1.24,1.86,1.84,2.81.3.47.59.94.86,1.43.16.27.41.95.19,1.25s-1.19-1-1.38-1.18c-.54-.62-1.07-1.25-1.56-1.91s-.8-1.07-1.22-1.59c-.24-.28-.86-1.27-1.31-1.16a.57.57,0,0,0-.39.43,1.67,1.67,0,0,0,0,.59,21.14,21.14,0,0,0,2,6,.63.63,0,0,1-.75.08,1.64,1.64,0,0,1-.55-.59,15.28,15.28,0,0,1-1.73-3.87,28,28,0,0,1-1-4c-.08-.5-1,1-1,1.12a11.17,11.17,0,0,0-1.4,2.67c-.54,1.34-1,2.7-1.55,4-.12.29-.39.34-.56,0a1.37,1.37,0,0,1-.1-.41,11.83,11.83,0,0,1,.95-4.9c.26-.7,1.43-2.81.51-3.33-1.79-1-3.9,2.54-4.59,3.67s-1.49,2.35-2.23,3.51c-.41.63-.53,1.49-1.05,2a.46.46,0,0,1-.22.14.31.31,0,0,1-.27-.17c-.23-.41,0-.84.18-1.23s.34-1,.54-1.48a17.93,17.93,0,0,1,1.39-2.77c.09-.14,2.2-3.22,1.75-3.18a5.13,5.13,0,0,0-2.48,1.11c-.63.43-1.47,1.32-2.29,1.19a.31.31,0,0,1-.12-.05.17.17,0,0,1,0-.15c0-.59.85-1.06,1.26-1.37s1.11-.8,1.63-1.24c1.62-1.37-.81-.73-1.52-.47-2.61.95-5.13,2.16-7.66,3.31-.67.3-1.61,1.29-2.37,1.08a.24.24,0,0,1-.1-.05.25.25,0,0,1,0-.13c0-.64.92-1.25,1.38-1.58a21.52,21.52,0,0,1,2-1.24,39,39,0,0,1,3.89-1.64c.85-.36,1.69-.73,2.5-1.15.31-.15.65-.26.76-.61.16-.54-.31-.78-.74-.92-.82-.27-1.66-.51-2.5-.73-.18,0-.39-.12-.43-.3a.33.33,0,0,1,.21-.35.91.91,0,0,1,.43-.07c1.67,0,3.33-.06,5-.18.5,0,.81-.29.34-.64s-.74-.44-1.1-.66a19.52,19.52,0,0,1-2.49-1.84,18.31,18.31,0,0,1-3.68-4.45c-.46-.77-1.33-2-1.06-2.9,0-.11.09-.24.21-.26a.3.3,0,0,1,.16,0,2.36,2.36,0,0,1,.85.95,9,9,0,0,0,.95,1.26,25.3,25.3,0,0,0,3,2.58,67.58,67.58,0,0,0,6,4c-.26-.16-.54-.84-.73-1.1l-.88-1.2c-.28-.41-.55-.83-.79-1.26a2.11,2.11,0,0,1-.17-1.27.39.39,0,0,1,.06-.19.24.24,0,0,1,.29,0,.63.63,0,0,1,.22.21c.48.62,3.25,5.35,4.14,4.09.4-.57-.15-2.33-.25-2.9-.26-1.49-.79-3.31-.09-4.75.08-.16.2-.33.37-.31s.29.28.31.49a15.35,15.35,0,0,0,.61,4.1c.55,1.44,1.11-.78,1.21-1.27.47-2.26.44-4.56,1.85-6.52.11-.15.33-.31.46-.17a.33.33,0,0,1,0,.31,25.81,25.81,0,0,0-1.07,6.34c0,.59-.23,2.51.32,2.81s1.37-1,1.58-1.27a23.17,23.17,0,0,1,1.75-2.67,1.06,1.06,0,0,1,.23-.19.25.25,0,0,1,.38.28.75.75,0,0,1-.11.28,7.63,7.63,0,0,0-.7,1.4c-.09.31-.12.65-.19,1s-.33,1.47.39,1.45c.5,0,1.34-1.7,1.65-2.08A16.77,16.77,0,0,1,337.75,295.9Z" style="fill:#73AFA1;opacity:0.4"></path><path d="M327.06,314.85a1.94,1.94,0,0,0,.06-1.3c-.09-.3-.2-.61-.29-.91a.84.84,0,0,1,.56-.54.45.45,0,0,1,.2,0,2.55,2.55,0,0,0,.18.53c.17.32.63.65.48,1.06-.07.19.22.17.28,0a1,1,0,0,0,0-.63,6.28,6.28,0,0,1,.38-.67l.13-.09a4.23,4.23,0,0,1,.13.71,2.48,2.48,0,0,1-.3,1.25c0,.07.11.07.14,0a1.47,1.47,0,0,0,.51-.95,4.22,4.22,0,0,0,0-1.23h0l.1,0a1.67,1.67,0,0,1,.5,0c0,.06,0,.11,0,.17a5.28,5.28,0,0,0,.57,1.14c.08.13.33,0,.27-.14s-.15-.46-.23-.69c.15-.33.06-.77.29-1.09l.25.14a1.87,1.87,0,0,1,.92,1,3.9,3.9,0,0,1,.18.67c0,.16,0,.4.19.46h0c.15-.14.11-.39.1-.59a3.19,3.19,0,0,0-.1-.68,2.34,2.34,0,0,0-.74-1.18l-.19-.13.2,0c.37,0,.46-.08.6-.29a2.77,2.77,0,0,0,1.18,1.64c.12.06.35-.16.21-.26a3.14,3.14,0,0,1-1-1.58c0-.07,0-.15-.08-.22a2.85,2.85,0,0,1,.41,0,1.63,1.63,0,0,1,.7.27,1.05,1.05,0,0,1,.39.7c0,.1.23.05.23,0a1.25,1.25,0,0,0,0-.51,1.09,1.09,0,0,0-.22-.41,1.64,1.64,0,0,0-.75-.49,3.89,3.89,0,0,0-.49-.12.92.92,0,0,1,0-.26.73.73,0,0,1,.19-.5,5.23,5.23,0,0,1,.94.68,5.36,5.36,0,0,0,1,.75,1.8,1.8,0,0,0,1.33.08c.1,0,.14-.19,0-.19-1,0-1.7-.94-2.37-1.54a3.48,3.48,0,0,0-.48-.38.75.75,0,0,0,0-.42l.47.06a1.83,1.83,0,0,1,.66.16c.14.08.4-.11.25-.24a1.85,1.85,0,0,0-.53-.34,5.53,5.53,0,0,0-.66-.2l-.24-.06a1.5,1.5,0,0,1,0-.24l.17-.05a9.25,9.25,0,0,1,1.66-.1,2.58,2.58,0,0,0,1.28-.31c.09,0,.07-.17-.05-.15a5.42,5.42,0,0,1-1.74-.28,3.56,3.56,0,0,0-1.08,0s0,0,0-.05a.53.53,0,0,0,0-.22l.17,0c.53-.07,1.68-.2,1.73-.91,0,0-.09-.05-.11,0a.84.84,0,0,1-.84.33c-.41,0-.82-.07-1.24-.06a.82.82,0,0,1-.05-.39.29.29,0,0,1,0-.09,6.32,6.32,0,0,0,.9-.89c.06-.08,0-.2-.09-.18a1.85,1.85,0,0,0-.8.52l0,0c-.14-.11-.38,0-.55-.15a1.15,1.15,0,0,1-.25-.52c.13-.07.25-.16.38-.22a3.22,3.22,0,0,1,1.33-.29,3,3,0,0,0,1.27-.26c.14-.07.11-.27-.06-.21-.5.18-1.06-.19-1.56-.23a2.6,2.6,0,0,0-1.28.28.21.21,0,0,0-.07-.22c-.2-.2-.67-.15-1-.17a4.16,4.16,0,0,0,1.74-1.41c.05-.1-.14-.1-.19,0a2.64,2.64,0,0,1-1.32.79,4.58,4.58,0,0,0-.83.41,8.12,8.12,0,0,1-.52-.74,7.24,7.24,0,0,1,.91-1.5c.05-.08.06-.21,0-.25s-.21,0-.26.11a2,2,0,0,1-.55.36,1.44,1.44,0,0,0-.39.35,2.31,2.31,0,0,0-.36.76.35.35,0,0,1-.15.07c-.38.1-.33-.16-.54-.34a.2.2,0,0,0-.19-.07,1.43,1.43,0,0,0-.42-.87c-.05,0-.19,0-.18.05.06.37.23.71.26,1.08,0,0,0,0,0,0a.49.49,0,0,1-.58.1.56.56,0,0,1-.23-.16,4.06,4.06,0,0,1-.25-.84,1.72,1.72,0,0,1,.22-1c.08-.2-.18-.26-.29-.11a2.91,2.91,0,0,0-.44,1.06,1.77,1.77,0,0,0,0,.65c-.2.3-.45.63-.68.65h0a2.91,2.91,0,0,0-.46-.68c-.16-.16-.4.14-.32.3a3.07,3.07,0,0,0,.17.31c-.08.33-.12.67-.51.82a.54.54,0,0,1-.47,0,4,4,0,0,1-.26-.65,1.48,1.48,0,0,1,.41-1.32c.12-.16-.13-.22-.23-.1a2.12,2.12,0,0,0-.57,1.17,2.45,2.45,0,0,0,.06.82,2,2,0,0,0-.12.51c0,.27.08.84-.24,1a4.28,4.28,0,0,0-.39-1,2.09,2.09,0,0,0-.61-.74c-.12-.08-.38.09-.25.21a2.2,2.2,0,0,1,.56,1.2l.12.39a.8.8,0,0,0-.14.38c-.05.29.09.67,0,1h0a4.84,4.84,0,0,0-.7-.8,1.4,1.4,0,0,0-.89-.42c-.08,0-.25.14-.14.22s.33.22.48.35a3.23,3.23,0,0,1,.36.45c.14.19.26.38.39.58-.29.2-.22.41-.08.64L322,306a.75.75,0,0,1-.42-.17,1.23,1.23,0,0,1-.3-.45c0-.1-.25-.05-.22.05a1.72,1.72,0,0,0,.35.67,2.14,2.14,0,0,0,.95.64,3.56,3.56,0,0,0,.56.15c-.12.38-.52.51-.41.88-.13,0-.26,0-.4,0a2.05,2.05,0,0,1-.55-.1,1.14,1.14,0,0,1-.37-.32c-.06-.07-.27,0-.23.08a1.75,1.75,0,0,0,1.69.95l.36,0,0,0c.11.26-.09.65-.19.85h0a2.47,2.47,0,0,0-1.59,1.09c-.09.18.2.16.28,0,.37-.62,1.24-.56,1.91-.56,0,0,.07,0,.09,0a1.06,1.06,0,0,1,.3.7,1,1,0,0,1,0,.19l-.06,0a1.35,1.35,0,0,1-.95.07c-.17,0-.36.26-.18.36a1.91,1.91,0,0,0,1.57,0,1.9,1.9,0,0,1,.68.19c.25.16.16.42.23.64a2.37,2.37,0,0,1-.32,1.38c-.06.09.14.12.19,0a2.43,2.43,0,0,0,.45-1,3.91,3.91,0,0,0,.05-.48c.15-.25.24-.54.55-.37a.55.55,0,0,1,.19.18c0,.07,0,.15,0,.22a4.59,4.59,0,0,0,.37,1.41,2.13,2.13,0,0,1,.18,1.4C326.74,315,327,315,327.06,314.85Z" style="fill:#37474f"></path><path d="M325.18,314.51a.52.52,0,0,0-1,.06.52.52,0,0,0,.55.49A.52.52,0,0,0,325.18,314.51Z" style="fill:#37474f"></path><path d="M335.42,312.44a.52.52,0,0,0-.55-.49.52.52,0,0,0,.06,1A.52.52,0,0,0,335.42,312.44Z" style="fill:#37474f"></path><path d="M323.93,312.06a.52.52,0,1,0-.49.54A.51.51,0,0,0,323.93,312.06Z" style="fill:#37474f"></path><path d="M321,311.22a.52.52,0,1,0-.48.54A.51.51,0,0,0,321,311.22Z" style="fill:#37474f"></path><path d="M321.38,308.49a.53.53,0,0,0-.55-.49.54.54,0,0,0-.49.55.52.52,0,1,0,1-.06Z" style="fill:#37474f"></path><path d="M320.72,306a.52.52,0,0,0-.55-.48.52.52,0,1,0,.06,1A.51.51,0,0,0,320.72,306Z" style="fill:#37474f"></path><path d="M336.4,309a.51.51,0,0,0-.54-.49.52.52,0,0,0,.05,1A.52.52,0,0,0,336.4,309Z" style="fill:#37474f"></path><path d="M335.6,301.65a.52.52,0,1,0-1,.06.52.52,0,1,0,1-.06Z" style="fill:#37474f"></path><path d="M321.1,303.57a.52.52,0,0,0-.55-.49.52.52,0,0,0-.49.55.53.53,0,0,0,.55.49A.52.52,0,0,0,321.1,303.57Z" style="fill:#37474f"></path><path d="M322.89,303a.52.52,0,1,0-1,.06.52.52,0,1,0,1-.06Z" style="fill:#37474f"></path><path d="M332.41,301a.52.52,0,1,0-1,.06.52.52,0,1,0,1-.06Z" style="fill:#37474f"></path><path d="M323.85,300.31a.53.53,0,0,0-.55-.49.54.54,0,0,0-.49.55.52.52,0,0,0,.55.49A.52.52,0,0,0,323.85,300.31Z" style="fill:#37474f"></path><path d="M337.25,305.68a.52.52,0,1,0-1,.06.52.52,0,1,0,1-.06Z" style="fill:#37474f"></path><path d="M326.93,299.62a.52.52,0,0,0-.55-.49.52.52,0,0,0,.06,1A.52.52,0,0,0,326.93,299.62Z" style="fill:#37474f"></path><path d="M328.73,314.73a.52.52,0,0,0-.55-.49.52.52,0,1,0,.55.49Z" style="fill:#37474f"></path><path d="M332.43,314.1a.52.52,0,1,0-.49.55A.52.52,0,0,0,332.43,314.1Z" style="fill:#37474f"></path><path d="M331.05,299a.52.52,0,0,0-.55-.49.52.52,0,0,0-.48.55.51.51,0,0,0,.54.49A.52.52,0,0,0,331.05,299Z" style="fill:#37474f"></path><g id="freepik--Dots--inject-43"><path d="M345.85,139.83a3.92,3.92,0,1,1-3.91-3.91A3.91,3.91,0,0,1,345.85,139.83Z" style="fill:#fff;opacity:0.30000000000000004"></path><path d="M268.71,168.44a3.92,3.92,0,1,1-3.92-3.91A3.93,3.93,0,0,1,268.71,168.44Z" style="fill:#fff;opacity:0.30000000000000004"></path><path d="M396.39,270.21a3.92,3.92,0,1,1-3.91-3.92A3.91,3.91,0,0,1,396.39,270.21Z" style="fill:#fff;opacity:0.30000000000000004"></path><path d="M352.62,127.88a2.23,2.23,0,1,1-2.22-2.22A2.22,2.22,0,0,1,352.62,127.88Z" style="fill:#fff;opacity:0.30000000000000004"></path><path d="M279.69,151.64a2.22,2.22,0,1,1-2.22-2.22A2.22,2.22,0,0,1,279.69,151.64Z" style="fill:#fff;opacity:0.30000000000000004"></path><path d="M428.58,197.9a2.23,2.23,0,1,1-2.22-2.22A2.22,2.22,0,0,1,428.58,197.9Z" style="fill:#fff;opacity:0.30000000000000004"></path><path d="M377.55,299a2.23,2.23,0,1,1-2.22-2.23A2.23,2.23,0,0,1,377.55,299Z" style="fill:#fff;opacity:0.30000000000000004"></path><path d="M297.1,270.63a2.22,2.22,0,1,1-2.22-2.22A2.22,2.22,0,0,1,297.1,270.63Z" style="fill:#fff;opacity:0.30000000000000004"></path><path d="M395.71,104.59a2.22,2.22,0,1,1-2.22-2.22A2.22,2.22,0,0,1,395.71,104.59Z" style="fill:#fff;opacity:0.30000000000000004"></path><path d="M330.45,127.15a2.22,2.22,0,1,1-2.22-2.22A2.22,2.22,0,0,1,330.45,127.15Z" style="fill:#fff;opacity:0.30000000000000004"></path></g></g></g></svg>