<svg xmlns="http://www.w3.org/2000/svg" viewBox="0 0 500 500"><g id="freepik--background-simple--inject-46"><path d="M319.43,85.52c-43-38.83-103.27-53-158.73-36.15-12.94,3.93-25.59,9.52-36.76,17.4-51.08,36-21.66,76.38-41.92,101.52S21.11,245.57,46.66,290.11s73.35,41.26,97.58,77.28,77.94,99.55,130.34,84.49,73.35-58.29,127.05-74,86.46-76,66.81-145.4-60.91-57.63-93-91.69C360.64,125.08,340,104.1,319.43,85.52Z" style="fill:#73AFA1"></path><path d="M319.43,85.52c-43-38.83-103.27-53-158.73-36.15-12.94,3.93-25.59,9.52-36.76,17.4-51.08,36-21.66,76.38-41.92,101.52S21.11,245.57,46.66,290.11s73.35,41.26,97.58,77.28,77.94,99.55,130.34,84.49,73.35-58.29,127.05-74,86.46-76,66.81-145.4-60.91-57.63-93-91.69C360.64,125.08,340,104.1,319.43,85.52Z" style="fill:#fff;opacity:0.7000000000000001"></path></g><g id="freepik--Womb--inject-46"><path d="M443.52,393.93l.07-1.14a10.27,10.27,0,0,0-1.59-6.3c-1.21-1.83-2.92-5.84-4.94-14.56C433,354.5,435.28,343.46,420.4,322s-38.66-41.37-46-50.68S362.13,253.93,352,225.09s-3.42-32-15.07-50.05-34.23-39.24-58.26-43.52-56.9-1-77.52,10.34S162.43,168.13,149.93,191s-10,40.4-5.59,67.12,13.81,47.62,24.1,65.32c0,0,15.34,27.41,40.93,45.5S290,403.75,290,403.75s26.78,7.43,39.59,13.6,31.45,9.06,47.91,5.76,33.68-13.84,39.85-18.46,18.48-6.89,20.07-7S443.52,393.93,443.52,393.93Z" style="fill:#263238"></path><path d="M363.11,425c-11.8,0-24-2.51-33.72-7.17-12.62-6.08-39.24-13.49-39.51-13.56-.56-.18-55.43-17-80.8-34.95S168.16,323.91,168,323.63c-12.68-21.8-20.36-42.61-24.16-65.48-4.65-28-6.69-44.93,5.64-67.44,11.25-20.54,27.6-36.2,51.45-49.29,19.34-10.61,52.08-15,77.84-10.39,23.71,4.22,46.52,25,58.6,43.74,6.53,10.11,7.37,15.69,8.54,23.42a129.91,129.91,0,0,0,6.58,26.73c9.72,27.75,14.52,36.32,22.27,46.13,2.59,3.27,7.34,8,12.85,13.45,10.5,10.42,23.56,23.38,33.19,37.25,11.14,16,12.76,26.56,14.48,37.7.6,3.9,1.22,7.93,2.25,12.37,2.08,8.93,3.8,12.76,4.88,14.4a10.83,10.83,0,0,1,1.67,6.6L444,394a.52.52,0,0,1-.19.36c-.47.37-4.66,3.64-6.34,3.79-1.43.14-13.68,2.34-19.82,6.94-5.34,4-22.93,15.11-40.05,18.55A74.57,74.57,0,0,1,363.11,425ZM257,130.21c-20.38,0-41.56,4.38-55.6,12.09-23.67,13-39.89,28.53-51,48.89-12.17,22.22-10.15,39-5.54,66.79,3.78,22.75,11.42,43.45,24,65.16.15.28,15.58,27.53,40.78,45.34s80,34.63,80.5,34.8c.26.07,27,7.5,39.67,13.62,13.6,6.54,32.28,8.79,47.59,5.72,16.94-3.41,34.36-14.42,39.65-18.37,6.32-4.74,18.86-7,20.33-7.13,1-.1,3.91-2.11,5.63-3.45l.06-.92a9.73,9.73,0,0,0-1.51-6c-1.63-2.48-3.32-7.43-5-14.72-1-4.48-1.67-8.53-2.27-12.45-1.77-11.5-3.3-21.43-14.31-37.28-9.58-13.79-22.61-26.72-33.08-37.11-5.52-5.49-10.3-10.22-12.92-13.54-7.82-9.9-12.67-18.53-22.43-46.42a131.25,131.25,0,0,1-6.63-26.91c-1.19-7.89-2-13.1-8.39-23-12-18.54-34.52-39.12-57.93-43.3A123.82,123.82,0,0,0,257,130.21Zm186.5,263.72h0Z" style="fill:#263238"></path><path d="M444.17,391s-8.32-4-12.06-11.7-.17-18-2.84-30.53-13.37-30.27-29.44-47.49-35.07-29.95-42.3-50.61-14.61-57.54-27.12-78.43-40.9-40.71-75.08-39.47S184,151.49,164.91,173.06s-22.84,54.38-18.07,82.82,8.55,46.16,34.42,83.48,89.6,56.2,107.33,60.37,45,20.61,65.84,21.95,40.73-5.27,53.29-14.86,16.67-18.64,20.38-18.9,14.37,5,15.42,6,2.88,6.26-3.59,8.53-10.08-1.65-20.32,4.7-25.84,20.12-55.39,19.74-39.69-7.56-53.21-13.56-61.54-19-80.08-28.4-34.65-18.61-55-45.08c-24.67-32-29.31-49.07-35-81.2,0,0-4.39-29.28.62-53.53s20.6-44.95,46.41-60.21,57.09-20.85,80.9-18.11,53.31,17.84,67.53,42.63,17.18,57,26.8,78.53,30.75,40.41,39.8,49.41c15.88,15.78,28.06,32.84,32.92,50.82,5.33,19.71,2.79,15.2,5.29,23.32s4.66,6.41,7,11.13S447.6,391.85,444.17,391Z" style="fill:#73AFA1"></path><path d="M365.41,427.41h-1.2c-25.27-.32-36.59-5.69-47.53-10.88-1.9-.9-3.87-1.83-5.87-2.72-5.5-2.43-16.58-6-29.41-10.09-18.6-6-39.69-12.72-50.69-18.32-19-9.66-35.12-19.13-55.21-45.23-24.42-31.72-29.23-48.35-35.08-81.42,0-.3-4.35-29.65.62-53.71,5.07-24.55,21.2-45.49,46.64-60.54,24-14.21,55.14-21.18,81.22-18.17,22.33,2.57,53.11,17.08,67.9,42.87,8.32,14.5,12.72,31.23,17,47.41,3,11.42,5.85,22.21,9.85,31.17,8.45,18.92,25.71,35.67,36,45.67,1.36,1.32,2.6,2.52,3.67,3.58,17.46,17.36,28.58,34.54,33.05,51.05,3.09,11.45,3.53,14.72,3.86,17.1a30.27,30.27,0,0,0,1.42,6.2c1.47,4.78,2.76,6,4.13,7.32a12,12,0,0,1,2.84,3.73,7.07,7.07,0,0,1-.4,7.55,4,4,0,0,1-4.18,1.49l-.09,0c-.35-.16-8.53-4.17-12.29-11.93-2.06-4.23-2-9.11-1.86-14.77a67.47,67.47,0,0,0-1-15.87c-2.73-12.85-13.69-30.52-29.32-47.26-4.42-4.74-9.1-9.17-13.63-13.46-12.08-11.44-23.49-22.25-28.77-37.33-2.29-6.52-4.6-14.71-7.05-23.38-5.39-19.08-11.49-40.7-20-54.95C317.76,152,289.92,132,255.34,133.24c-32.63,1.19-70.51,18.07-90.06,40.15-16.72,18.89-23.43,49.7-17.95,82.41,4.77,28.42,8.71,46.31,34.34,83.28,28.65,41.31,103.85,59.42,107,60.17,7.12,1.67,15.73,5.3,24.84,9.14,13.33,5.62,28.44,12,40.91,12.79,19.13,1.23,39.43-4.43,53-14.75a91.19,91.19,0,0,0,13.84-13.35c2.91-3.33,4.83-5.52,6.81-5.66,3.85-.27,14.59,5,15.8,6.15a5.55,5.55,0,0,1,1.09,4.69c-.33,1.47-1.43,3.46-4.87,4.67a18,18,0,0,1-6.75.83c-3.53,0-7.2-.07-13.47,3.82-1.41.88-3,1.92-4.59,3C405.3,417.32,390.29,427.41,365.41,427.41ZM256.54,126.63a139,139,0,0,0-68.35,18.72C163,160.26,147,181,142,205.23c-4.93,23.88-.66,53.06-.61,53.35,5.81,32.89,10.6,49.42,34.88,81,20,25.93,36,35.34,54.87,44.95,10.93,5.56,32,12.3,50.54,18.25,12.86,4.12,24,7.68,29.51,10.14,2,.89,4,1.83,5.9,2.73,10.84,5.14,22.06,10.46,47.12,10.78,25.3.34,40.45-9.88,50.49-16.63,1.64-1.1,3.19-2.15,4.63-3,6.51-4.05,10.49-4,14-4a17.23,17.23,0,0,0,6.41-.78c2.38-.83,3.84-2.19,4.22-3.93a4.56,4.56,0,0,0-.81-3.76c-1-1-11.55-6.12-15-5.87-1.57.11-3.38,2.18-6.13,5.32a91.17,91.17,0,0,1-14,13.48c-13.71,10.47-34.25,16.2-53.63,15-12.64-.81-27.83-7.22-41.24-12.86-9.07-3.83-17.64-7.44-24.68-9.1-3.2-.75-78.77-18.94-107.63-60.57-25.75-37.15-29.72-55.12-34.5-83.69-5.54-33,1.26-64.12,18.19-83.23,20-22.63,57.35-39.28,90.77-40.49,35-1.28,63.15,19,75.53,39.72,8.6,14.36,14.73,36,20.13,55.19,2.45,8.65,4.76,16.83,7,23.32,5.2,14.85,16.53,25.57,28.52,36.93,4.54,4.3,9.23,8.75,13.67,13.51,15.75,16.87,26.8,34.71,29.57,47.73a68.59,68.59,0,0,1,1.05,16.1c-.1,5.52-.19,10.3,1.76,14.32,3.47,7.15,11.13,11.11,11.78,11.44a3,3,0,0,0,3.11-1.16,6,6,0,0,0,.27-6.47,10.79,10.79,0,0,0-2.63-3.45c-1.4-1.34-2.85-2.73-4.4-7.75a32.85,32.85,0,0,1-1.46-6.37c-.31-2.35-.75-5.58-3.83-17C431,332,420,315,402.62,297.73c-1.06-1.06-2.3-2.25-3.66-3.57-10.36-10.05-27.71-26.88-36.24-46-4-9-6.89-19.85-9.9-31.31-4.25-16.12-8.64-32.79-16.89-47.17-14.62-25.49-45.06-39.84-67.15-42.38A106.7,106.7,0,0,0,256.54,126.63Z" style="fill:#263238"></path></g><g id="freepik--Character--inject-46"><path d="M298.29,312.93l-8.44-15.68-5.33-13.11s21.68-15.2,23.39-27.83S306,239.05,300.1,229.1s-18.51-32.54-18.51-32.54,13-13.39,15-14.59,7.73-2.46,8.13-4.81a6.2,6.2,0,0,0-1.31-4.45s-2.63-4-5.72-5.12-8-3.32-8-3.32A86.71,86.71,0,0,1,292,154.12c1.4-4.42,3.43-5.62,0-6.89s-10.09,1.33-10.89,1.85-8.46,2.47-12.8,6.2-5.59,7.85-11.1,11.75-9.5,6.52-13.11,10.23a27.36,27.36,0,0,0-5.37,8.51s-1.17,10,1.4,15.22,4.88,7.62,5.49,9.37a52.9,52.9,0,0,1,2.06,10.08c0,2.2.45,5.49.45,5.49s-10.52-2.7-19-2.94-12.39-.33-12.39-.33-26.25-6.27-40.32-1.59-22.49,15-24.25,33.78,2.8,30.44,12.74,53.22,25.27,38.53,36.21,49.43,25.77,18.22,42.51,25.37,28.42,8.95,38.15,8,15-2.79,21.36-7,10.92-14.38,8.26-30.38S298.29,312.93,298.29,312.93Z" style="fill:#fff"></path><path d="M277.08,391.59c-9.64,0-20.45-2.67-33.54-8.26-18-7.68-32.1-14.94-42.67-25.48-12.57-12.53-26.78-27.72-36.32-49.58-9.9-22.68-14.57-34.43-12.78-53.47,1.7-18.07,9.74-29.26,24.59-34.2,13.87-4.61,38.88,1.17,40.55,1.56l12.34.33a102.29,102.29,0,0,1,18.35,2.78c-.13-1.1-.35-3.23-.37-4.82a53.89,53.89,0,0,0-2-9.93,14.67,14.67,0,0,0-1.59-2.72,54.12,54.12,0,0,1-3.88-6.59c-2.6-5.31-1.49-15.08-1.45-15.5l0-.11a27.73,27.73,0,0,1,5.48-8.68c3.17-3.28,6.68-5.74,11.12-8.85l2.06-1.45a28.49,28.49,0,0,0,6.49-6.62,32.18,32.18,0,0,1,4.58-5.1c3.32-2.85,8.47-4.66,11.23-5.62a17.28,17.28,0,0,0,1.62-.62c1-.63,7.83-3.21,11.34-1.9,1.17.44,1.78.9,2,1.52.35.84-.07,1.77-.64,3.06a25,25,0,0,0-1.15,2.93,84.72,84.72,0,0,0-2.26,9.7c1.19.52,5.08,2.22,7.65,3.15,3.21,1.17,5.85,5.14,6,5.31a6.68,6.68,0,0,1,1.38,4.81c-.33,1.92-3.25,3-5.84,4.06a19.19,19.19,0,0,0-2.53,1.1c-1.53.9-10.1,9.55-14.66,14.24,1.57,2.81,12.85,23,18.33,32.2.46.78.91,1.52,1.34,2.24,5.08,8.41,8.14,13.48,6.54,25.3-1.63,12-20.45,25.91-23.28,27.94l5.18,12.74,8.42,15.64s0,0,0,0c.11.24,10.61,24.78,13.25,40.67,2.37,14.28-.8,25.83-8.48,30.88-6.62,4.35-12.07,6.14-21.59,7.07A48.34,48.34,0,0,1,277.08,391.59ZM189.87,219.85a43.06,43.06,0,0,0-13.19,1.7c-14.63,4.87-22.23,15.46-23.92,33.35-1.77,18.79,2.88,30.45,12.71,53,10.26,23.52,26.44,39.64,36.1,49.27,10.46,10.42,24.5,17.64,42.36,25.27,15.17,6.47,27.21,9,37.9,8,9.34-.92,14.67-2.66,21.14-6.91,7.34-4.83,10.35-16,8-29.89C308.42,338,298.19,314,297.84,313.15l-8.43-15.66-5.35-13.16a.5.5,0,0,1,.17-.6c.22-.15,21.52-15.22,23.19-27.48,1.55-11.47-1.27-16.16-6.4-24.65l-1.35-2.24c-5.87-9.84-18.39-32.34-18.52-32.56a.49.49,0,0,1,.08-.59c.53-.55,13.06-13.45,15.12-14.67a20.43,20.43,0,0,1,2.68-1.18c2.1-.81,5-1.93,5.22-3.29a5.74,5.74,0,0,0-1.21-4c-.05-.08-2.6-3.91-5.5-5-3.08-1.12-8-3.31-8.07-3.34a.48.48,0,0,1-.29-.53A88.16,88.16,0,0,1,291.53,154a28.12,28.12,0,0,1,1.2-3c.47-1.07.81-1.83.62-2.28s-.62-.64-1.47-1c-3.08-1.15-9.61,1.25-10.44,1.8a10.68,10.68,0,0,1-1.84.72c-2.7.95-7.73,2.71-10.91,5.44a31.14,31.14,0,0,0-4.43,5,29.62,29.62,0,0,1-6.72,6.83l-2.06,1.45c-4.39,3.08-7.86,5.52-11,8.72a27.06,27.06,0,0,0-5.24,8.28c-.09.83-1,10,1.36,14.88a54,54,0,0,0,3.81,6.47,14.73,14.73,0,0,1,1.7,2.95,53.52,53.52,0,0,1,2.09,10.24c0,2.15.44,5.4.45,5.43a.52.52,0,0,1-.17.44.49.49,0,0,1-.45.11c-.11,0-10.57-2.69-18.84-2.92-8.43-.24-12.39-.33-12.39-.33h-.1C216.54,223.1,202.7,219.85,189.87,219.85Z" style="fill:#263238"></path><path d="M296.4,323.76s-10.33-8.46-9.37-3.2,11.23,16.09,11.23,16.09S296.2,328.24,296.4,323.76Z" style="fill:#263238"></path><path d="M298.26,337.15a.46.46,0,0,1-.36-.16c-.43-.44-10.39-11-11.36-16.34-.19-1.06,0-1.77.6-2.11,2-1.18,7.83,3.4,9.57,4.83a.49.49,0,0,1,.18.41c-.19,4.36,1.84,12.67,1.86,12.75a.51.51,0,0,1-.25.56A.53.53,0,0,1,298.26,337.15ZM288,319.32a.66.66,0,0,0-.34.08c-.19.1-.23.5-.13,1.07.72,4,7.07,11.37,9.83,14.45A54.79,54.79,0,0,1,295.89,324C292.91,321.58,289.33,319.32,288,319.32Z" style="fill:#263238"></path><path d="M293.32,319.49a.49.49,0,0,1-.35-.15c-.13-.12-12.82-12.51-18.28-14a.5.5,0,0,1-.35-.61.5.5,0,0,1,.62-.35c5.7,1.57,18.18,13.74,18.71,14.26a.49.49,0,0,1,0,.7A.44.44,0,0,1,293.32,319.49Z" style="fill:#263238"></path><path d="M304.84,353.33c-13.92-25.15-6-41.57-4.64-44.44s6.23-5.59,10.27-7.69,13.15-6.31,17.22-6.37,5.64-4.37,7.66-5.41,6.86,2,10,5,7.48,2.84,10.21,1.88a38.67,38.67,0,0,1,25.35-.68c13,4,23.79,10.43,36.44,31.94,5.84,9.93,7.92,21.18,8.47,30.42a54.74,54.74,0,0,1-17,43.42,49.19,49.19,0,0,1-5.41,4.38c-15.62,10.93-31,13.91-46.46,12.52s-33.31-14.27-38.5-20.3-8.49-9.65-8.49-9.65a36.29,36.29,0,0,1-7.77-1.72l-3.89-1.36" style="fill:#fff"></path><path d="M363.8,419.15q-3.39,0-6.89-.31c-15.33-1.38-33.16-13.87-38.84-20.47-4.55-5.31-7.7-8.78-8.35-9.5a36.92,36.92,0,0,1-7.7-1.72l-3.89-1.37a.5.5,0,0,1,.33-.95l3.9,1.37a35.78,35.78,0,0,0,7.64,1.69.52.52,0,0,1,.33.16s3.37,3.69,8.5,9.66c5.43,6.32,23.31,18.79,38.17,20.13,16.91,1.52,32-2.54,46.13-12.43a50.29,50.29,0,0,0,5.35-4.34,54,54,0,0,0,16.8-43c-.7-11.73-3.52-21.89-8.4-30.19-12.34-21-23-27.68-36.16-31.72a38.08,38.08,0,0,0-24.73.58l-.3.1c-2.94,1-7.52,1.13-10.73-2s-7.71-5.82-9.38-5a7.92,7.92,0,0,0-1.9,1.82c-1.38,1.61-3.09,3.6-6,3.65-3.93.06-12.84,4.15-17,6.31s-8.79,4.83-10.06,7.47c-2.76,5.73-7.82,21.48,4.63,44a.5.5,0,0,1-.19.68.5.5,0,0,1-.68-.2c-12.69-22.9-7.48-39-4.66-44.9,1.4-2.89,5.87-5.51,10.49-7.92,4.24-2.19,13.33-6.36,17.44-6.42,2.45,0,3.93-1.77,5.24-3.3a8.55,8.55,0,0,1,2.2-2.06c2.49-1.3,7.79,2.46,10.54,5.13s7,2.71,9.7,1.77l.3-.11a39.1,39.1,0,0,1,25.36-.58c13.4,4.1,24.22,10.91,36.72,32.16,5,8.44,7.83,18.75,8.54,30.65a55,55,0,0,1-17.11,43.81,50,50,0,0,1-5.47,4.43C391.32,414.9,378.21,419.15,363.8,419.15Z" style="fill:#263238"></path><path d="M300.54,355.79a.47.47,0,0,1-.46-.31,25,25,0,0,0-1.58-3.2.51.51,0,0,1,.18-.69.49.49,0,0,1,.68.18A27.83,27.83,0,0,1,301,355.1a.51.51,0,0,1-.27.66A.63.63,0,0,1,300.54,355.79Z" style="fill:#263238"></path><path d="M301.59,382.81a.27.27,0,0,1-.13,0,.5.5,0,0,1-.36-.61c0-.11,3-11.31.44-22.09a.5.5,0,0,1,.37-.6.5.5,0,0,1,.61.37c2.6,11-.42,22.47-.45,22.58A.49.49,0,0,1,301.59,382.81Z" style="fill:#263238"></path><path d="M335.89,376.32a14.42,14.42,0,0,1-2-.12,17.58,17.58,0,0,1-11.51-6.34c-4.69-6.06-6.46-9.75-6.31-13.17a5.84,5.84,0,0,1,3.83-5.08.5.5,0,0,1,.33.94,4.87,4.87,0,0,0-3.16,4.19c-.14,3.15,1.57,6.66,6.1,12.51a16.59,16.59,0,0,0,10.84,6,13,13,0,0,0,9.79-2.6c6.53-5.17,1-15.68,1-15.78a.5.5,0,0,1,.2-.68.51.51,0,0,1,.68.2c.06.12,6,11.35-1.21,17A13.57,13.57,0,0,1,335.89,376.32Z" style="fill:#263238"></path><path d="M335.15,372.91c-6.5,0-11.43-7.18-11.49-7.27a.49.49,0,0,1,.13-.69.5.5,0,0,1,.7.13c.06.1,6.93,10.05,14.7,5.73,2-1.12,3.12-2.51,3.28-4.12.36-3.53-3.8-7.15-3.85-7.18a.51.51,0,0,1-.05-.71.49.49,0,0,1,.7-.05c.19.16,4.61,4,4.2,8-.2,2-1.47,3.6-3.79,4.89A9.21,9.21,0,0,1,335.15,372.91Z" style="fill:#263238"></path><path d="M328,362a.52.52,0,0,1-.43-.24,6.47,6.47,0,0,1-.55-1.16c-1.27-3.63.28-4.67.46-4.78a.5.5,0,0,1,.59.07c.84.77,3.38,2.72,5.07,2.52a1.68,1.68,0,0,0,1.23-.8.45.45,0,0,1,.33-.22.49.49,0,0,1,.39.09,10.36,10.36,0,0,1,2.84,3.4.49.49,0,0,1-.27.65.49.49,0,0,1-.65-.27,8.67,8.67,0,0,0-2.15-2.67,2.55,2.55,0,0,1-1.6.81c-2,.25-4.54-1.65-5.48-2.44-.24.41-.49,1.38.18,3.31a4.81,4.81,0,0,0,.47,1,.51.51,0,0,1-.43.76Z" style="fill:#263238"></path><path d="M344.35,312.7a.5.5,0,0,1-.44-.28c-2.68-5.37,1.89-9.06,1.94-9.1a.5.5,0,0,1,.62.79A6.39,6.39,0,0,0,344.8,312a.5.5,0,0,1-.22.67A.49.49,0,0,1,344.35,312.7Z" style="fill:#263238"></path><path d="M350.39,314.34a.52.52,0,0,1-.29-.09.51.51,0,0,1-.12-.7c3.19-4.6,3.35-7.39,2.92-8.91a3.65,3.65,0,0,0-1.77-2.28.49.49,0,0,1-.26-.65.5.5,0,0,1,.66-.26,4.57,4.57,0,0,1,2.33,2.91c.71,2.53-.32,5.81-3.06,9.76A.5.5,0,0,1,350.39,314.34Z" style="fill:#263238"></path><path d="M318.92,303a.49.49,0,0,1-.43-.26,5.16,5.16,0,0,1-.22-4.55.5.5,0,0,1,.67-.23.49.49,0,0,1,.23.66,4.2,4.2,0,0,0,.18,3.63.49.49,0,0,1-.18.68A.55.55,0,0,1,318.92,303Z" style="fill:#263238"></path><path d="M331,300.53a.48.48,0,0,1-.34-.13,3.11,3.11,0,0,1-1.07-2.37c0-1.84,1.6-3.53,2.08-4a7.55,7.55,0,0,1,1.73-3,.49.49,0,0,1,.7-.07.5.5,0,0,1,.07.7,6.07,6.07,0,0,0-1.54,2.67.52.52,0,0,1-.16.33s-1.87,1.71-1.88,3.39a2.12,2.12,0,0,0,.75,1.63.49.49,0,0,1,0,.7A.48.48,0,0,1,331,300.53Z" style="fill:#263238"></path><path d="M318.88,254.09s-2.91-6.64-6.51-8.52-12.11-2.63-12.8-1.21l-.68,1.41s-2.45.28-3.13,2.28a9.81,9.81,0,0,0-.59,3.35l-1.57.55" style="fill:#fff"></path><path d="M318.88,254.59a.51.51,0,0,1-.46-.3c0-.07-2.88-6.5-6.29-8.27-3.75-2-11.6-2.29-12.11-1.44l-.68,1.41a.48.48,0,0,1-.39.28s-2.15.27-2.71,1.94a9.5,9.5,0,0,0-.57,3.16.51.51,0,0,1-.34.5l-1.57.55a.51.51,0,0,1-.64-.31.5.5,0,0,1,.31-.63l1.24-.44a11.4,11.4,0,0,1,.62-3.15,4.23,4.23,0,0,1,3.27-2.57l.56-1.18a1.54,1.54,0,0,1,1-.71c2.33-.78,9.2,0,12.51,1.7,3.71,1.94,6.62,8.48,6.74,8.76a.49.49,0,0,1-.26.65A.46.46,0,0,1,318.88,254.59Z" style="fill:#263238"></path><path d="M303.11,253.83a.5.5,0,0,1-.24-.06c-2.08-1.14-7.71-1.87-7.76-1.88a.5.5,0,0,1-.44-.56.52.52,0,0,1,.56-.43c.24,0,5.88.76,8.12,2a.51.51,0,0,1,.2.68A.52.52,0,0,1,303.11,253.83Z" style="fill:#263238"></path><path d="M310.52,248.09a.57.57,0,0,1-.25-.06c-4.69-2.68-11.24-1.77-11.31-1.76a.5.5,0,0,1-.14-1c.28,0,6.95-1,11.95,1.88a.5.5,0,0,1,.19.68A.51.51,0,0,1,310.52,248.09Z" style="fill:#263238"></path><path d="M299.46,261.23l-.15,0-3.58-1.14a.5.5,0,0,1,.3-1l3.58,1.14a.5.5,0,0,1-.15,1Z" style="fill:#263238"></path><path d="M295,264.82s1.5-5.24-1.36-12.87-15.43-36.21-16.27-41.42-1.08-9.24-1.08-9.24l4-4.16" style="fill:#fff"></path><path d="M295,265.32l-.14,0a.51.51,0,0,1-.34-.62c0-.05,1.42-5.19-1.35-12.56-.94-2.48-2.9-7.18-5.16-12.62-4.71-11.28-10.56-25.33-11.14-28.89-.83-5.16-1.08-9.25-1.08-9.29a.49.49,0,0,1,.14-.38l4-4.16a.5.5,0,0,1,.71,0,.51.51,0,0,1,0,.71l-3.89,4c.06.91.34,4.53,1.06,9,.56,3.45,6.39,17.43,11.07,28.67,2.27,5.44,4.23,10.15,5.17,12.65,2.9,7.7,1.45,13,1.38,13.19A.49.49,0,0,1,295,265.32Z" style="fill:#263238"></path><path d="M259.94,258.91a.46.46,0,0,1-.22-.06c-3.74-1.88-8.62-5.2-10.65-10.33a30.31,30.31,0,0,1-1.64-15.93,11.75,11.75,0,0,0,.17-1.79,12.64,12.64,0,0,1,.26-3.37.5.5,0,0,1,.61-.36.51.51,0,0,1,.36.61,12,12,0,0,0-.23,3.08,13.37,13.37,0,0,1-.17,2A29.43,29.43,0,0,0,250,248.15c1.91,4.84,6.59,8,10.17,9.81a.49.49,0,0,1,.22.67A.49.49,0,0,1,259.94,258.91Z" style="fill:#263238"></path><path d="M265.19,261a.36.36,0,0,1-.14,0s-.79-.22-2-.68a.51.51,0,0,1-.29-.64.5.5,0,0,1,.65-.29c1.16.44,1.91.65,1.91.65a.5.5,0,0,1,.35.62A.49.49,0,0,1,265.19,261Z" style="fill:#263238"></path><path d="M222.21,225.31l-.12,0a22.82,22.82,0,0,0-3.26-.66.5.5,0,0,1-.45-.55.5.5,0,0,1,.55-.45,24.4,24.4,0,0,1,3.41.69.5.5,0,0,1-.13,1Z" style="fill:#263238"></path><path d="M247.51,235.21a.45.45,0,0,1-.2,0c-.14-.07-14-6.42-23-9.25a.5.5,0,1,1,.3-.95c9.13,2.84,23,9.23,23.15,9.29a.51.51,0,0,1,.25.66A.5.5,0,0,1,247.51,235.21Z" style="fill:#263238"></path><path d="M198.76,273.23a.42.42,0,0,1-.26-.08c-1.15-.73-2.29-1.51-3.37-2.33a.5.5,0,0,1-.09-.7.51.51,0,0,1,.7-.1c1.06.8,2.16,1.57,3.29,2.29a.49.49,0,0,1,.16.69A.51.51,0,0,1,198.76,273.23Z" style="fill:#263238"></path><path d="M234.91,283c-4.31,0-18.84-.55-32.2-7.42a.5.5,0,0,1-.22-.67.51.51,0,0,1,.68-.22c15.59,8,32.8,7.3,33,7.29a.5.5,0,0,1,.05,1S235.71,283,234.91,283Z" style="fill:#263238"></path><path d="M316.87,253s-4.09-4-9.28-3.39-1,4.73-1,4.73S303.6,256,304,257.69s4.93,2.83,9.19,2S318.32,254.75,316.87,253Z" style="fill:#fff"></path><path d="M310.15,260.46c-3.35,0-6.27-1.06-6.64-2.66s1.34-3,2.26-3.6c-.62-.74-1.63-2.2-1.19-3.46.33-.91,1.32-1.47,2.95-1.65,5.37-.59,9.51,3.36,9.68,3.53a.08.08,0,0,1,0,0,4,4,0,0,1,.49,3.91,5.72,5.72,0,0,1-4.45,3.58A16,16,0,0,1,310.15,260.46ZM308.61,250c-.31,0-.64,0-1,.05-.84.09-1.88.34-2.11,1-.32.91.91,2.43,1.37,2.88a.52.52,0,0,1,.14.43.47.47,0,0,1-.25.36c-.68.38-2.56,1.73-2.31,2.84s4.34,2.46,8.61,1.59a4.75,4.75,0,0,0,3.71-2.93,3.15,3.15,0,0,0-.3-2.93C316.21,253.05,312.87,250,308.61,250Z" style="fill:#263238"></path><path d="M289.09,351.15s-2-10.13-8.27-15.67-14.24-13.27-16.6-16.47-4.81-6.67-4.81-6.67,18.71-8.94,24.57-12,16.63-6.44,20.29-8.35,9.13-2.11,13.42-4.65,7.69-7.67,8-10.28-1.1-3.14-1.1-3.14.77-2.55-.72-6.8l-2.2-6.28a21.77,21.77,0,0,0-1.43-4.69,5.75,5.75,0,0,0-3.39-3.17s-3,2.91-6,3.13a22.47,22.47,0,0,0-11.45,4.63,45.64,45.64,0,0,0-6.88,7.6,147.28,147.28,0,0,1-25.49,5.39c-12.61,1.31-35,9.14-42.91,16.69s-8.59,17.53-5.55,26.21,18.71,29.13,20.42,31.64,4.9,12.81,4.9,12.81" style="fill:#fff"></path><path d="M244,361.57a.5.5,0,0,1-.48-.35c0-.1-3.19-10.25-4.84-12.67-.28-.42-.95-1.34-1.88-2.61-4.8-6.54-16-21.85-18.59-29.15-3.56-10.17-1.49-19.92,5.68-26.74,7.84-7.47,30.31-15.49,43.2-16.82a147.51,147.51,0,0,0,25.23-5.33,45.12,45.12,0,0,1,6.87-7.56,23,23,0,0,1,11.73-4.74c2.78-.2,5.62-2.95,5.65-3a.48.48,0,0,1,.48-.13,6.25,6.25,0,0,1,3.72,3.45,21.82,21.82,0,0,1,1.46,4.81l2.18,6.19a13.52,13.52,0,0,1,.82,6.73c.51.39,1.3,1.34,1,3.44-.38,2.94-4,8.12-8.26,10.65a29.26,29.26,0,0,1-7.78,2.8,26.84,26.84,0,0,0-5.66,1.87c-1.63.84-4.55,1.94-7.92,3.2a123,123,0,0,0-12.37,5.14c-5.25,2.75-21,10.28-24.06,11.76.76,1.07,2.65,3.72,4.46,6.18,2.34,3.18,10.4,11,16.53,16.39,6.33,5.59,8.35,15.53,8.43,16a.48.48,0,0,1-.39.58.5.5,0,0,1-.59-.39c0-.1-2-10-8.11-15.4-6.3-5.56-14.26-13.27-16.67-16.54s-4.8-6.65-4.82-6.68a.52.52,0,0,1-.08-.42.51.51,0,0,1,.27-.32c.19-.09,18.78-9,24.56-12a124.52,124.52,0,0,1,12.48-5.18c3.35-1.26,6.24-2.34,7.81-3.16a28.36,28.36,0,0,1,5.88-2,28.26,28.26,0,0,0,7.52-2.69c4.3-2.55,7.48-7.57,7.78-9.91.27-2.14-.75-2.6-.79-2.61a.52.52,0,0,1-.3-.61s.7-2.48-.71-6.5l-2.2-6.28a22.54,22.54,0,0,0-1.42-4.65,5.27,5.27,0,0,0-2.81-2.79c-.78.7-3.36,2.86-6.05,3.05a21.83,21.83,0,0,0-11.16,4.52,44.86,44.86,0,0,0-6.79,7.5.58.58,0,0,1-.26.18,148.6,148.6,0,0,1-25.59,5.42c-12.74,1.32-34.9,9.21-42.61,16.55-6.88,6.54-8.85,15.9-5.43,25.69,2.51,7.16,13.68,22.39,18.45,28.89.95,1.29,1.62,2.21,1.91,2.63,1.73,2.55,4.83,12.52,5,12.94a.49.49,0,0,1-.33.63Z" style="fill:#263238"></path><path d="M251.07,314.75a24.21,24.21,0,0,1-12.35-3.58.5.5,0,0,1,.51-.86c11.33,6.64,19.83,1.65,19.92,1.6a.5.5,0,0,1,.52.85A18,18,0,0,1,251.07,314.75Z" style="fill:#263238"></path><path d="M257.08,380.27a.46.46,0,0,1-.27-.09c-.4-.26-9.89-6.62-12.34-15.86a.51.51,0,0,1,.36-.62.5.5,0,0,1,.61.36c2.35,8.88,11.83,15.23,11.92,15.29a.5.5,0,0,1,.14.69A.48.48,0,0,1,257.08,380.27Z" style="fill:#263238"></path><path d="M238.78,186.27a.59.59,0,0,1-.22-.05.5.5,0,0,1-.23-.67,11.91,11.91,0,0,1,3.89-4.27c1.62-1.06,4.31-1.75,7.15-2.47,1.83-.47,3.73-1,5.5-1.58,3.12-1.09,5.24-2.48,9.46-5.25,1.76-1.15,3.95-2.59,6.7-4.32,9.26-5.82,16.19-3.61,16.48-3.51a.44.44,0,0,1,.28.22c.22.39,1.3,2.36.28,3.25-.76.67-3,2.42-3.12,2.49a.5.5,0,0,1-.61-.79s2.34-1.8,3.08-2.45c.23-.21,0-1.09-.4-1.83-1.13-.29-7.42-1.58-15.46,3.47-2.74,1.72-4.93,3.16-6.68,4.31-4.15,2.72-6.44,4.22-9.68,5.36-1.81.63-3.73,1.12-5.58,1.59-2.76.71-5.37,1.38-6.85,2.35a11.07,11.07,0,0,0-3.54,3.87A.49.49,0,0,1,238.78,186.27Z" style="fill:#263238"></path><path d="M294.46,177.88a.5.5,0,0,1-.33-.88,18.23,18.23,0,0,1,5.26-3.07c2.37-.83,2.24-2.28,2.23-2.34a.52.52,0,0,1,.44-.56.49.49,0,0,1,.55.43c0,.09.29,2.3-2.89,3.41a17.46,17.46,0,0,0-4.93,2.88A.53.53,0,0,1,294.46,177.88Z" style="fill:#263238"></path><path d="M292.51,174a.49.49,0,0,1-.41-.21.49.49,0,0,1,.12-.69s2.72-2,4.64-3.22a1.54,1.54,0,0,0,.8-1,1.24,1.24,0,0,0-.32-.92.51.51,0,0,1,0-.71.5.5,0,0,1,.7,0,2.31,2.31,0,0,1,.59,1.71,2.51,2.51,0,0,1-1.25,1.76c-1.9,1.25-4.58,3.17-4.61,3.19A.52.52,0,0,1,292.51,174Z" style="fill:#263238"></path><path d="M288.22,171.94a.48.48,0,0,1-.36-.16.49.49,0,0,1,0-.7,25.64,25.64,0,0,1,3.81-3c1.54-1,1.44-1.52,1.44-1.52a.47.47,0,0,1,.19-.66.52.52,0,0,1,.7.2c.12.2.61,1.31-1.79,2.83a24.87,24.87,0,0,0-3.66,2.83A.52.52,0,0,1,288.22,171.94Z" style="fill:#263238"></path><path d="M224.89,137.27s2.25,8.47.58,13.73-6.33,16.45-6.14,21.45-2.2,16-1.25,20.92,9,12.26,17.28,15.39,10.62,2.6,10.62,2.6a75.56,75.56,0,0,1,1.75,9.08c.21,1.65.29,1.63.29,1.63s-16.24-.16-23.48-5.23-10.21-9.68-10.21-9.68-6.59-4.32-8.48-14.19,2-16.5,2-16.5S209.2,164.69,210,158s2.54-8.89,3.22-10.29.54-6.83.54-6.83Z" style="fill:#73AFA1"></path><path d="M248,222.57c-.67,0-16.48-.22-23.76-5.32-6.77-4.75-9.83-9.05-10.29-9.73-.83-.58-6.79-5-8.6-14.46s1.53-15.86,2-16.75c.14-1.16,1.37-12,2.1-18.38.66-5.74,2.05-8.24,2.88-9.73l.39-.72c.51-1.07.53-5.12.49-6.6a.5.5,0,0,1,.35-.48l11.15-3.61a.48.48,0,0,1,.39,0,.55.55,0,0,1,.25.31c.09.35,2.26,8.67.57,14-.42,1.32-1,3-1.69,4.87-1.93,5.38-4.57,12.75-4.43,16.42a65.38,65.38,0,0,1-.68,8.58c-.53,4.43-1.12,9.45-.58,12.25.93,4.87,9,12,17,15s10.31,2.58,10.33,2.57a.52.52,0,0,1,.59.36,76.89,76.89,0,0,1,1.77,9.15,13.16,13.16,0,0,0,.23,1.48l-.44.2h0Zm-33.76-81.34c0,1.33,0,5.38-.6,6.68-.11.23-.25.49-.41.77-.8,1.43-2.13,3.82-2.77,9.36-.77,6.71-2.1,18.48-2.1,18.48a.48.48,0,0,1-.07.2c0,.07-3.79,6.61-2,16.16a22.31,22.31,0,0,0,8.26,13.86.54.54,0,0,1,.15.15s3,4.6,10.08,9.54c6.22,4.36,19.49,5,22.55,5.13,0-.26-.09-.6-.15-1.06a75.85,75.85,0,0,0-1.63-8.61c-1,0-4-.24-10.42-2.66-8.36-3.15-16.59-10.52-17.59-15.77-.57-3,0-7.83.57-12.56a65.26,65.26,0,0,0,.67-8.43c-.15-3.85,2.42-11,4.49-16.79.65-1.81,1.26-3.53,1.67-4.83,1.37-4.33,0-11-.46-12.94Z" style="fill:#263238"></path><path d="M211.22,175.4a.51.51,0,0,1-.4-.2.5.5,0,0,1,.1-.7c2-1.45,7.09-6.14,7.14-6.18a.5.5,0,1,1,.68.73c-.21.2-5.21,4.77-7.22,6.26A.55.55,0,0,1,211.22,175.4Z" style="fill:#263238"></path><path d="M215.59,206.83a.51.51,0,0,1-.49-.42,17.45,17.45,0,0,1,1.53-10.59.5.5,0,0,1,.88.48,16.62,16.62,0,0,0-1.42,9.94.51.51,0,0,1-.41.58Z" style="fill:#263238"></path><path d="M324.83,269.77a53.14,53.14,0,0,1,3.51-5.6c2.72-4,11-10.7,9.29-17.2a33.87,33.87,0,0,0-4.4-10.22s.22-12.65-7.67-16.45-9.11-3.38-11.62-2a31.44,31.44,0,0,1-4.7,2.19s-12.06-4-16.78-2.6a113.21,113.21,0,0,1-11.71,2.46l3.64,8.84s8.58.28,12.42,1.12,8.45,2.24,12.43,1.12,5-2,5-2l3.83,0s1.95,4.79,3.67,10.47,3.05,7.14,3.05,7.14.75,1.38-.18,4.17-4.38,4.89-4.38,4.89l1.43,4.69Z" style="fill:#73AFA1"></path><path d="M324.83,270.27h0a.5.5,0,0,1-.45-.33L321.22,261l-1.44-4.7a.49.49,0,0,1,.22-.57s3.3-2.05,4.16-4.63a5.39,5.39,0,0,0,.23-3.74c-.28-.35-1.54-2.11-3.1-7.26-1.44-4.79-3.07-9-3.52-10.12l-3.34,0a17.47,17.47,0,0,1-5.06,2c-3.54,1-7.51.08-11-.73l-1.65-.38c-3.76-.82-12.25-1.1-12.34-1.11a.47.47,0,0,1-.44-.31l-3.64-8.84a.5.5,0,0,1,0-.43.49.49,0,0,1,.36-.25,114.9,114.9,0,0,0,11.65-2.45c4.56-1.33,15.37,2.06,16.91,2.55a32.13,32.13,0,0,0,4.46-2.09c2.63-1.5,4-2,12.08,1.93,7.69,3.7,8,15.17,8,16.75a34.61,34.61,0,0,1,4.39,10.24c1.37,5.18-3.27,10.47-6.66,14.33-1.06,1.21-2.06,2.35-2.71,3.28a52.55,52.55,0,0,0-3.47,5.54A.49.49,0,0,1,324.83,270.27Zm-4-13.91,1.32,4.32,2.76,7.87c.52-.89,1.45-2.4,3-4.67a38.52,38.52,0,0,1,2.78-3.37c3.42-3.9,7.68-8.74,6.44-13.41A34.23,34.23,0,0,0,332.83,237a.47.47,0,0,1-.1-.3c0-.12.12-12.38-7.39-16-7.91-3.81-8.92-3.23-11.16-2A30.75,30.75,0,0,1,309.4,221a.5.5,0,0,1-.32,0c-.12,0-12-3.92-16.48-2.6a109.51,109.51,0,0,1-11.15,2.37l3.28,8a95.24,95.24,0,0,1,12.19,1.12l1.67.38c3.38.79,7.21,1.68,10.51.75,3.76-1.06,4.83-1.93,4.84-1.94a.43.43,0,0,1,.33-.11l3.84,0a.5.5,0,0,1,.46.31c0,.05,2,4.87,3.68,10.52,1.65,5.44,2.93,6.93,2.94,6.95l.07.09c0,.06.85,1.6-.15,4.57C324.29,253.84,321.76,255.74,320.85,256.36Z" style="fill:#263238"></path><path d="M312.58,227.65a.48.48,0,0,1-.45-.28c0-.05-2.26-4.73-5.88-6.61a.5.5,0,0,1-.21-.67.49.49,0,0,1,.67-.21c3.92,2,6.23,6.86,6.32,7.06a.5.5,0,0,1-.24.67A.52.52,0,0,1,312.58,227.65Z" style="fill:#263238"></path><path d="M318.1,230a.5.5,0,0,1-.49-.43,31.39,31.39,0,0,1,.2-9.57.49.49,0,0,1,.6-.37.5.5,0,0,1,.37.6,30.66,30.66,0,0,0-.18,9.2.49.49,0,0,1-.43.56Z" style="fill:#263238"></path><path d="M325.55,250.21a.45.45,0,0,1-.31-.11.49.49,0,0,1-.08-.7,54.72,54.72,0,0,0,5.26-8.15.5.5,0,1,1,.88.48,56.75,56.75,0,0,1-5.36,8.3A.5.5,0,0,1,325.55,250.21Z" style="fill:#263238"></path><path d="M331.85,240.11a.48.48,0,0,1-.23-.05.5.5,0,0,1-.21-.67c.85-1.69,1.36-2.83,1.37-2.84a.5.5,0,0,1,.66-.26.51.51,0,0,1,.25.66s-.52,1.18-1.39,2.89A.51.51,0,0,1,331.85,240.11Z" style="fill:#263238"></path></g><g id="freepik--Flowers--inject-46"><path d="M118.14,262.82c-23.42-34.19-27.64-80.61-27.68-81.08l3-.25c0,.45,4.2,46.11,27.16,79.63Z" style="fill:#263238"></path><path d="M150.32,339.25c-16-21.92-40.39-83.78-27.34-134.15,13.42-51.79,50.71-85.3,51.09-85.63l2,2.24c-.37.33-37,33.27-50.17,84.15-12.81,49.4,11.17,110.1,26.86,131.62Z" style="fill:#263238"></path><path d="M153.81,334.07c-40.45-42.35-49.53-87.1-49.61-87.55l2.94-.57c.09.44,9,44.37,48.84,86.05Z" style="fill:#263238"></path><path d="M165.5,131.78s-3.45,13.79.53,22.29,14.06,13.79,24.15,13.26,14.86-5,15.92-10.61-2.39-13.8-2.39-13.8,7.43,5.84,17,4.78,13.54-3.45,18.58-7.17l10.08-7.43s-13.53-6.1-22.55-6.37-39.54-.26-44.85-.26S171.87,122.75,165.5,131.78Z" style="fill:#73AFA1"></path><path d="M188.77,167.87c-10,0-19.37-5.45-23.19-13.59-4-8.56-.71-22.05-.56-22.62l.07-.17c5.11-7.24,9.32-6.55,13.4-5.89A22.19,22.19,0,0,0,182,126c10.78,0,36.71,0,44.86.26,9,.27,22.19,6.17,22.75,6.42l.78.35-10.78,7.94c-5,3.67-9,6.16-18.81,7.25a25.48,25.48,0,0,1-16-3.95c.95,2.67,2.65,8.31,1.84,12.57-.73,3.83-3.83,10.36-16.39,11C189.73,167.86,189.25,167.87,188.77,167.87ZM166,132c-.28,1.19-3.17,14,.52,21.86,3.84,8.18,13.57,13.51,23.67,13,8.8-.46,14.29-4.09,15.46-10.21,1-5.35-2.33-13.42-2.36-13.51l-.74-1.77,1.51,1.19c.07.05,7.39,5.69,16.62,4.67,9.57-1.06,13.47-3.49,18.33-7.07l9.39-6.91c-3-1.29-14-5.76-21.58-6C218.65,127,192.72,127,182,127a22.53,22.53,0,0,1-3.62-.39C174.4,125.94,170.68,125.34,166,132Z" style="fill:#263238"></path><path d="M165.5,131.78s-.5,2-.9,5a22.8,22.8,0,0,1,3.24,2.86s2.19-2.55,7.65-.73,6.93,1.46,12.76,2.55c5.59,1.05,15.86,4.78,16.71,5.08-.64-2.11-1.25-3.58-1.25-3.58a21,21,0,0,0,2.9,1.82l1.32-1.49s-14.58-12.76-15.67-12.76l-8-4H182C176.65,126.47,171.87,122.75,165.5,131.78Z" style="fill:#263238"></path><path d="M205.72,147.31l-.94-.34c-1.12-.41-11.11-4-16.62-5.05-2-.38-3.48-.58-4.79-.76a36.93,36.93,0,0,1-8-1.81c-5.05-1.68-7,.49-7.12.58l-.38.42-.37-.42a22.92,22.92,0,0,0-3.16-2.78l-.25-.18,0-.29a46.43,46.43,0,0,1,.92-5l.07-.17c5.11-7.24,9.32-6.55,13.4-5.89A22.19,22.19,0,0,0,182,126l2.51.06,8,4h0c1.8.72,10.55,8.24,15.78,12.82l.38.33-1.92,2.16-.34-.18c-.65-.35-1.2-.67-1.64-1,.21.58.45,1.31.69,2.13Zm-33.89-9.6a12.09,12.09,0,0,1,3.82.69,36.14,36.14,0,0,0,7.86,1.77c1.32.18,2.81.38,4.83.76,4.82.91,13,3.73,15.84,4.76-.5-1.54-.93-2.56-.93-2.58l-.74-1.76,1.51,1.18a23.15,23.15,0,0,0,2.48,1.58l.73-.82c-5.43-4.74-14-12-15-12.31l-.15,0-8-4H182a22.53,22.53,0,0,1-3.62-.39c-3.93-.64-7.65-1.24-12.37,5.41-.09.4-.49,2.13-.83,4.53a24.86,24.86,0,0,1,2.74,2.38A6.38,6.38,0,0,1,171.83,137.71Z" style="fill:#263238"></path><path d="M140.56,133.9s-10.88,4.24-17.78,5.84-8.23,1.59-8.23,1.59,11.15,11.67,22,15.39,22.29-4.25,26.53-10.08,9-13.27,9-13.27-4-5.31-12.73-5.57S140.56,133.9,140.56,133.9Z" style="fill:#73AFA1"></path><path d="M142.43,158.18a18.55,18.55,0,0,1-6-1c-10.87-3.71-22.12-15.4-22.23-15.52l-.8-.84h1.16c.06,0,1.46,0,8.12-1.58a167.14,167.14,0,0,0,17.66-5.8c.82-.51,10.46-6.41,19.08-6.15,8.9.27,13,5.54,13.12,5.77l.21.28-.19.29c0,.07-4.83,7.51-9,13.29C159.67,152.23,151.28,158.18,142.43,158.18Zm-26.8-16.47c2.63,2.59,12,11.44,21.11,14.54,10.25,3.5,21.56-3.84,26-9.91,3.7-5.09,7.85-11.47,8.8-12.93-.93-1-4.85-4.89-12.13-5.11-8.5-.26-18.46,6-18.55,6l-.09,0a167,167,0,0,1-17.85,5.86C118.89,141.15,116.74,141.54,115.63,141.71Z" style="fill:#263238"></path><path d="M127.74,137.05S131,139.6,138.68,140s18.95-7.29,18.95-7.29-12.08-1.23-14.58,0S127.74,137.05,127.74,137.05Z" style="fill:#263238"></path><path d="M139.22,140.48h-.57c-7.72-.37-11.07-2.92-11.21-3l-.82-.63,1-.25c.13,0,12.79-3.15,15.21-4.33s13.6-.18,14.85,0l1.37.14-1.14.77C157.46,133.4,146.92,140.48,139.22,140.48ZM129,137.24a23.65,23.65,0,0,0,9.66,2.23c5.92.28,14.33-4.51,17.44-6.43-4-.34-11.16-.75-12.87.08C141.18,134.15,132.29,136.43,129,137.24Z" style="fill:#263238"></path><path d="M159.4,127.8a27.2,27.2,0,0,0-9.48,1.7l-.67,3.54s8.38.37,12,1.82a20.39,20.39,0,0,1,6.56,4.74,2.37,2.37,0,0,1,.42-.37c2.22-3.29,3.87-5.86,3.87-5.86S168.15,128.06,159.4,127.8Z" style="fill:#263238"></path><path d="M167.84,140.35l-.37-.42a20,20,0,0,0-6.38-4.6c-3.52-1.41-11.78-1.79-11.86-1.79l-.58,0,.84-4.4.27-.1a27.53,27.53,0,0,1,9.65-1.72h0c8.9.27,13,5.54,13.12,5.77l.21.28-.19.29s-1.68,2.61-3.87,5.87l-.12.13a1.9,1.9,0,0,0-.34.29Zm-18-7.78c2,.11,8.45.56,11.61,1.83a20.27,20.27,0,0,1,6.41,4.5l0,0c1.72-2.57,3.11-4.7,3.61-5.47-.93-1-4.85-4.89-12.13-5.11a26.4,26.4,0,0,0-9,1.57Z" style="fill:#263238"></path><path d="M157,98.87s-7.7-12.47-18.31-16.45-23.35-3.71-25.47-2.92,0,12.74,3.18,18.84,18.58,11.41,27.86,13.27,19.37,4.25,19.11,0S157,98.87,157,98.87Z" style="fill:#73AFA1"></path><path d="M157,98.87s-7.7-12.47-18.31-16.45-23.35-3.71-25.47-2.92,0,12.74,3.18,18.84,18.58,11.41,27.86,13.27,19.37,4.25,19.11,0S157,98.87,157,98.87Z" style="fill:#fff;opacity:0.30000000000000004"></path><path d="M159.19,114.47c-3.31,0-8-1-12.91-1.94l-2.11-.43c-9.12-1.83-24.86-7.11-28.2-13.53-2.88-5.5-4.92-15.57-3.78-18.56a1.61,1.61,0,0,1,.86-1c2.25-.84,15-1.14,25.83,2.92,10.56,4,18.11,16,18.55,16.65.37.51,6.18,8.69,6.45,13a2.28,2.28,0,0,1-.76,1.94A6.16,6.16,0,0,1,159.19,114.47Zm-40.62-35a19.69,19.69,0,0,0-5.17.46c-.09,0-.19.18-.27.4-.95,2.47.85,12.24,3.73,17.74,3,5.78,17.9,11.09,27.51,13l2.11.43c6.61,1.34,14.09,2.86,16,1.21a1.25,1.25,0,0,0,.42-1.12c-.25-4-6.22-12.39-6.28-12.47l0,0c-.07-.13-7.73-12.38-18.05-16.25A60.43,60.43,0,0,0,118.57,79.51Z" style="fill:#263238"></path><path d="M156.48,85.87a16.75,16.75,0,0,1,3.18-13.53c5-6.9,10.35-14.33,12.47-12.47S187,74.2,188.59,81.36a113.77,113.77,0,0,1,2.12,14.06s-1.86,7.43-8.76,10.35-15.12-.79-19.63-6.37S156.48,85.87,156.48,85.87Z" style="fill:#73AFA1"></path><path d="M156.48,85.87a16.75,16.75,0,0,1,3.18-13.53c5-6.9,10.35-14.33,12.47-12.47S187,74.2,188.59,81.36a113.77,113.77,0,0,1,2.12,14.06s-1.86,7.43-8.76,10.35-15.12-.79-19.63-6.37S156.48,85.87,156.48,85.87Z" style="fill:#fff;opacity:0.30000000000000004"></path><path d="M176.78,107.31c-5.74,0-11.42-3.35-14.85-7.59C157.47,94.21,156.09,86.57,156,86s-1.75-7.07,3.27-13.94l.5-.68c4.5-6.16,8.74-12,11.38-12.27a1.64,1.64,0,0,1,1.32.4c2.28,2,15,14.45,16.61,21.76a115.32,115.32,0,0,1,2.14,14.14v.08l0,.07c-.07.32-2,7.71-9,10.69A13.74,13.74,0,0,1,176.78,107.31Zm-5.42-47.23h-.11c-2.2.25-6.71,6.42-10.68,11.87l-.5.68A16.43,16.43,0,0,0,157,85.74v.05c0,.08,1.36,7.9,5.74,13.3s12.19,9.12,19,6.22c6.21-2.63,8.22-9.16,8.44-9.93a112.42,112.42,0,0,0-2.1-13.91c-1.57-7-14.41-19.58-16.29-21.23A.67.67,0,0,0,171.36,60.08Z" style="fill:#263238"></path><path d="M203.71,126.47s16.45-8,19.64-14.59,15.92-22,18.57-26.54,3.72-6.63,1.06-7.43S225.2,81.36,218.3,84s-8.75,6.37-8.75,6.37.26-6.9.26-11.94-5.57,1.33-14.59,8.76-14.86,17.51-15.13,18.57,12.48,1.06,13.27,6.37-2.65,10.88-3.71,13.8-1.06,4.51,4.51,4.51A14.87,14.87,0,0,0,203.71,126.47Z" style="fill:#73AFA1"></path><path d="M203.71,126.47s16.45-8,19.64-14.59,15.92-22,18.57-26.54,3.72-6.63,1.06-7.43S225.2,81.36,218.3,84s-8.75,6.37-8.75,6.37.26-6.9.26-11.94-5.57,1.33-14.59,8.76-14.86,17.51-15.13,18.57,12.48,1.06,13.27,6.37-2.65,10.88-3.71,13.8-1.06,4.51,4.51,4.51A14.87,14.87,0,0,0,203.71,126.47Z" style="fill:#fff;opacity:0.30000000000000004"></path><path d="M194.16,131c-2.94,0-4.49-.42-5.18-1.41s-.29-2.42.2-3.77c.24-.67.59-1.45,1-2.35,1.39-3,3.28-7.23,2.69-11.21-.49-3.27-6.44-4.39-10-5-2.15-.41-2.9-.57-3.19-1a.67.67,0,0,1-.08-.5c.33-1.33,6.44-11.55,15.29-18.84,2.07-1.7,4-3.35,5.63-4.81,5.11-4.46,7.43-6.4,8.86-5.74.92.42.92,1.75.92,2.18,0,3.51-.13,8-.2,10.31a19.75,19.75,0,0,1,8-5.2c6.63-2.55,22.1-7,25-6.12a2.47,2.47,0,0,1,1.75,1.37c.56,1.43-.6,3.51-2.53,6.79-1,1.79-3.61,5.19-6.58,9.14-4.48,6-10.05,13.36-12,17.36-3.15,6.56-18.44,14.13-19.8,14.79A15.19,15.19,0,0,1,194.16,131Zm-13.49-25.3a21.18,21.18,0,0,0,2.39.52c3.82.72,10.2,1.92,10.8,5.9.64,4.27-1.33,8.6-2.77,11.76-.4.88-.74,1.65-1,2.28-.48,1.31-.71,2.29-.32,2.86s1.89,1,4.36,1a14.54,14.54,0,0,0,9.2-3.83l.13-.1c.17-.08,16.33-8,19.41-14.36,2-4.09,7.33-11.23,12.08-17.54,2.94-3.91,5.49-7.3,6.51-9,1.68-2.86,2.84-5,2.46-5.92a1.57,1.57,0,0,0-1.11-.78c-2.42-.73-17.17,3.33-24.36,6.09C211.88,87,210,90.57,210,90.61l-1,2,.09-2.28c0-.07.26-6.94.26-11.92,0-.7-.12-1.18-.33-1.27-.91-.41-4.25,2.5-7.79,5.58-1.67,1.46-3.58,3.12-5.65,4.83A63.77,63.77,0,0,0,180.67,105.65Z" style="fill:#263238"></path><path d="M202.47,114.88l-.71-.7c1.42-1.42,3-6.3,4.11-12.74a58.58,58.58,0,0,1,3.22-11.25l.92.39a57.81,57.81,0,0,0-3.15,11C205.69,108.35,204.05,113.31,202.47,114.88Z" style="fill:#263238"></path><path d="M81.65,110.55s-3.18-2.92,7.17-4.25a61.75,61.75,0,0,1,26.26,2.39c6.64,2.12,8,2.92,16.72,6.37s20.43,8.76,22,12.21,0,4.51,0,4.51-8.5,1.85-15.93.53S86.16,123.29,81.65,110.55Z" style="fill:#73AFA1"></path><path d="M81.65,110.55s-3.18-2.92,7.17-4.25a61.75,61.75,0,0,1,26.26,2.39c6.64,2.12,8,2.92,16.72,6.37s20.43,8.76,22,12.21,0,4.51,0,4.51-8.5,1.85-15.93.53S86.16,123.29,81.65,110.55Z" style="fill:#fff;opacity:0.30000000000000004"></path><path d="M143.85,133.29a34.38,34.38,0,0,1-6-.49l-.4-.07c-19.25-3.43-52.08-10.83-56.2-21.91a1.84,1.84,0,0,1-.45-1.8c.49-1.54,3.1-2.59,8-3.21a61.68,61.68,0,0,1,26.49,2.41c4.61,1.47,6.67,2.31,10.41,3.83,1.66.68,3.65,1.49,6.33,2.54,6.08,2.4,20.43,8.41,22.3,12.47,1.75,3.79-.1,5.08-.18,5.13l-.17.07A51.38,51.38,0,0,1,143.85,133.29Zm-47.33-27a60.21,60.21,0,0,0-7.64.49c-6,.77-7,2-7.16,2.52a.9.9,0,0,0,.27.86l.09.08,0,.12c2.8,7.9,22.5,15.49,55.48,21.37l.39.06c6.78,1.21,14.57-.28,15.61-.5.22-.22,1-1.22-.23-3.83s-9.32-7.06-21.75-12c-2.7-1.06-4.69-1.87-6.34-2.54-3.72-1.51-5.77-2.35-10.35-3.81A60.73,60.73,0,0,0,96.52,106.31Z" style="fill:#263238"></path><path d="M163.64,132s-14.06,0-18.57-1.59-17.25-8.76-23.88-16.72-13-19.37-9.82-19.37,26.53,3.72,36.35,9.82,14.07,7.43,14.07,7.43,15.39,12.47,13.53,16.72S163.64,132,163.64,132Z" style="fill:#73AFA1"></path><path d="M163.64,132s-14.06,0-18.57-1.59-17.25-8.76-23.88-16.72-13-19.37-9.82-19.37,26.53,3.72,36.35,9.82,14.07,7.43,14.07,7.43,15.39,12.47,13.53,16.72S163.64,132,163.64,132Z" style="fill:#fff;opacity:0.30000000000000004"></path><path d="M164.73,132.57c-.6,0-1,0-1.1,0-.75,0-14.22,0-18.73-1.62-5-1.75-17.61-9.09-24.1-16.87-5.27-6.33-11.87-16.8-10.61-19.48a1.22,1.22,0,0,1,1.18-.71c3.13,0,26.64,3.69,36.62,9.9,9.62,6,13.9,7.36,13.95,7.37l.16.09c1.61,1.3,15.63,12.84,13.68,17.31C174.17,132.19,167.44,132.57,164.73,132.57ZM111.37,94.86c-.21,0-.25.08-.28.14-.77,1.65,4,10.65,10.48,18.41s18.79,14.85,23.67,16.57c4.37,1.54,18.26,1.56,18.4,1.56h0c.1,0,9.49.47,11.19-3.41,1.24-2.83-7.48-11.33-13.32-16.07-.69-.24-5-1.81-14.08-7.46C137.63,98.5,114.46,94.86,111.37,94.86Z" style="fill:#263238"></path><path d="M145.07,130.45c3.76,1.33,14.18,1.55,17.52,1.58-.51-1.25-1.31-2.4-1.31-3,0-1.46-3.65-9.84-4.74-10.2s-1.82,1.09-8.75,4-14.58-.36-14.58-.36l-.27,1.35A64.38,64.38,0,0,0,145.07,130.45Z" style="fill:#263238"></path><path d="M163.34,132.54h-.76c-4.06,0-13.93-.28-17.68-1.61h0a65.39,65.39,0,0,1-12.24-6.68l-.27-.19.45-2.28.57.24c.07,0,7.54,3.16,14.19.36a51,51,0,0,0,6.57-3.25c1.22-.7,1.78-1,2.53-.77,1.51.51,5.08,9.45,5.08,10.68a5.11,5.11,0,0,0,.58,1.36c.22.44.48.94.69,1.45ZM145.24,130c3.44,1.21,12.74,1.48,16.57,1.54l-.34-.67a4.64,4.64,0,0,1-.69-1.82c0-1.43-3.55-9.25-4.42-9.74-.28-.09-.61.08-1.69.7A52.49,52.49,0,0,1,148,123.3c-6,2.53-12.47.56-14.41-.15l-.08.44A63.33,63.33,0,0,0,145.24,130Z" style="fill:#263238"></path><path d="M144.54,127s-16.45-7.43-27.6-9.82-22-.53-28.92-3.45-7.7-5-7.7-3.18,13.8,15.92,22.56,21,18.57,6.1,30,5.31,21-3.45,21-5S144.54,127,144.54,127Z" style="fill:#73AFA1"></path><path d="M126.48,137.55c-9.7,0-17.23-1.79-23.85-5.61-8.67-5-22.81-19.16-22.81-21.39,0-.35,0-.88.42-1.11s.88,0,1.84.63a39.6,39.6,0,0,0,6.13,3.2c3.63,1.54,8.36,1.72,13.84,1.93a87.6,87.6,0,0,1,15,1.49c10.88,2.34,27,9.53,27.67,9.84,3.6,1.24,9.61,3.55,9.61,5.25,0,2.38-11.3,4.83-21.43,5.54C130.65,137.47,128.52,137.55,126.48,137.55ZM80.82,110.48v.07c.16,1.65,13.37,15.38,22.31,20.53,7.83,4.51,17,6.13,29.7,5.24,11.51-.8,20.18-3.44,20.5-4.56-.15-.7-4.25-2.67-9-4.29h0c-.16-.08-16.53-7.44-27.49-9.79A87,87,0,0,0,102,116.2c-5.58-.22-10.39-.4-14.19-2a40,40,0,0,1-6.27-3.27C81.29,110.75,81,110.59,80.82,110.48Z" style="fill:#263238"></path><path d="M178.24,104.71a153.69,153.69,0,0,1-13-14.33C160.19,83.75,156.48,76.85,153,79S143.21,90.65,143,100.2s6.1,14.06,13.53,16.72S174.52,115.86,178.24,104.71Z" style="fill:#73AFA1"></path><path d="M178.24,104.71a153.69,153.69,0,0,1-13-14.33C160.19,83.75,156.48,76.85,153,79S143.21,90.65,143,100.2s6.1,14.06,13.53,16.72S174.52,115.86,178.24,104.71Z" style="fill:#fff;opacity:0.30000000000000004"></path><path d="M161.36,118.24a15,15,0,0,1-5.05-.85c-6.1-2.18-14.17-6.33-13.86-17.2.28-10.07,7-19.58,10.32-21.64,3.17-2,6.2,2.29,10,7.66.9,1.26,1.84,2.57,2.82,3.87a154.47,154.47,0,0,0,13,14.27l.22.22-.1.3a19.49,19.49,0,0,1-9.8,11.6A17.29,17.29,0,0,1,161.36,118.24Zm-7-39.15a2,2,0,0,0-1.06.31c-3.32,2-9.59,11.5-9.84,20.81-.22,7.78,4,12.94,13.2,16.24a15.41,15.41,0,0,0,11.82-.88,18.41,18.41,0,0,0,9.19-10.72,154.65,154.65,0,0,1-12.82-14.16c-1-1.32-1.94-2.63-2.84-3.9C159,82.56,156.49,79.09,154.35,79.09Z" style="fill:#263238"></path><path d="M182.75,135a202.48,202.48,0,0,0,19.37,8.49c10.61,4,22-.53,26.53-5.84s12.74-17.24,13.54-19.1-.54-5-3.19-6.1-10.88,2.12-13,3.71-13.8,4.78-19.9,6.63-12.21,4.78-13.27,5S182.22,130.71,182.75,135Z" style="fill:#73AFA1"></path><path d="M210.63,145.46a24.86,24.86,0,0,1-8.69-1.54,204.92,204.92,0,0,1-19.42-8.52l-.24-.12,0-.26c-.61-4.88,10-7.6,10.46-7.71s1.29-.49,2.51-1c2.65-1.11,6.66-2.79,10.73-4l4.31-1.28c5.83-1.72,13.82-4.07,15.44-5.28,2.23-1.67,10.6-4.94,13.49-3.78a6.11,6.11,0,0,1,3.3,3.34,4.53,4.53,0,0,1,.16,3.43c-.83,1.93-9.19,14-13.62,19.23C225.41,142.2,218.23,145.46,210.63,145.46Zm-27.4-10.82A205.16,205.16,0,0,0,202.29,143c10.94,4.1,22-1,26-5.69,4.65-5.47,12.73-17.28,13.46-19a3.6,3.6,0,0,0-.17-2.65,5.07,5.07,0,0,0-2.74-2.79c-2.33-.93-10.34,2-12.52,3.65-1.76,1.32-9.2,3.51-15.76,5.44-1.58.46-3,.89-4.3,1.27-4,1.23-8,2.9-10.63,4-1.36.57-2.26,1-2.66,1C190.18,129,183.2,131.44,183.23,134.64Z" style="fill:#263238"></path><path d="M239,112.41c-2.65-1.07-10.88,2.12-13,3.71s-13.8,4.78-19.9,6.63c-1.13.35-2.26.73-3.36,1.12,4.51-.67,18.78-2.88,27-5.1,9.82-2.65,12.48-1.32,12.48-1.32l.2-.2A5.54,5.54,0,0,0,239,112.41Z" style="fill:#73AFA1"></path><path d="M239,112.41c-2.65-1.07-10.88,2.12-13,3.71s-13.8,4.78-19.9,6.63c-1.13.35-2.26.73-3.36,1.12,4.51-.67,18.78-2.88,27-5.1,9.82-2.65,12.48-1.32,12.48-1.32l.2-.2A5.54,5.54,0,0,0,239,112.41Z" style="fill:#fff;opacity:0.30000000000000004"></path><path d="M202.81,124.37l-.24-1c1.18-.42,2.32-.8,3.38-1.12l4.31-1.28c5.83-1.72,13.82-4.07,15.44-5.28,2.23-1.67,10.6-4.94,13.49-3.78h0a6,6,0,0,1,3.7,5.3v.22l-.62.59-.32-.16s-2.74-1.17-12.12,1.37C221.58,121.49,207.06,123.73,202.81,124.37Zm34.82-11.68c-3.15,0-9.43,2.41-11.33,3.83S217.1,120,210.54,122l-1.37.4c6.21-1,14.78-2.55,20.41-4.07,7.65-2.06,11.07-1.74,12.28-1.46a5.12,5.12,0,0,0-3-4A3.39,3.39,0,0,0,237.63,112.69Z" style="fill:#263238"></path><path d="M178,100.47s-5.84,1.59-13.27,3.71-15.92,7.16-17,14.59,2.66,10.09,10.35,12.74,17.78,5.84,24.68,3.45,17.25-10.08,17.78-18.84-2.39-11.94-8.49-14.59S178,100.47,178,100.47Z" style="fill:#73AFA1"></path><path d="M177.14,136.29c-6.75,0-14.54-2.69-19.23-4.31-7.95-2.74-11.79-5.54-10.68-13.28s9.68-12.81,17.34-15c7.35-2.1,13.21-3.7,13.27-3.72h0c.33-.07,8.19-1.6,14.36,1.09s9.35,5.86,8.8,15.08c-.55,9.07-11.14,16.87-18.12,19.28A17.59,17.59,0,0,1,177.14,136.29Zm1-35.34c-.37.1-6.11,1.67-13.25,3.71s-15.59,6.93-16.62,14.19c-1,7.08,2.42,9.57,10,12.19,6,2.07,17.19,5.93,24.35,3.45,6.73-2.33,16.93-9.79,17.45-18.4s-2.35-11.56-8.19-14.1S178.48,100.88,178.09,101Z" style="fill:#263238"></path><path d="M151.53,338.37s-2.52,10.11.39,16.34,10.31,10.11,17.71,9.73,10.89-3.7,11.67-7.79-1.75-10.11-1.75-10.11A18.69,18.69,0,0,0,192,350c7-.78,9.92-2.53,13.61-5.25l7.39-5.45s-9.92-4.47-16.53-4.67-29-.19-32.88-.19S156.2,331.75,151.53,338.37Z" style="fill:#73AFA1"></path><path d="M168.59,365c-7.36,0-14.3-4-17.12-10-3-6.31-.53-16.25-.42-16.67l.08-.17c3.79-5.37,6.92-4.86,10-4.37a15.52,15.52,0,0,0,2.51.27c7.9,0,26.92,0,32.89.19,6.64.2,16.32,4.53,16.73,4.71l.78.36-8.08,5.95c-3.68,2.71-6.63,4.54-13.86,5.35a18.77,18.77,0,0,1-11.49-2.72c.71,2.08,1.79,5.95,1.23,8.93s-2.84,7.69-12.14,8.18C169.3,365,169,365,168.59,365ZM152,338.58c-.24,1-2.29,10.23.38,15.92,2.78,5.94,9.86,9.81,17.22,9.44,6.38-.34,10.36-3,11.21-7.38.74-3.89-1.7-9.77-1.72-9.83l-.75-1.77,1.51,1.19c.06,0,5.38,4.14,12.09,3.39,7-.77,9.83-2.54,13.38-5.15l6.69-4.94c-2.47-1-10.19-4.12-15.55-4.28-6-.17-25-.19-32.87-.19a16.53,16.53,0,0,1-2.67-.29C158.08,334.23,155.4,333.8,152,338.58Z" style="fill:#263238"></path><path d="M151.53,338.37s-.36,1.47-.66,3.64a16.05,16.05,0,0,1,2.38,2.1s1.6-1.88,5.61-.54,5.08,1.07,9.35,1.87a105.47,105.47,0,0,1,12.25,3.73c-.46-1.55-.91-2.63-.91-2.63a16.23,16.23,0,0,0,2.12,1.33l1-1.09s-10.69-9.36-11.49-9.36l-5.88-2.93h-1.68C159.7,334.48,156.2,331.75,151.53,338.37Z" style="fill:#263238"></path><path d="M181.22,350l-.93-.34a105.64,105.64,0,0,0-12.17-3.71c-1.46-.27-2.54-.42-3.5-.55a27.82,27.82,0,0,1-5.92-1.33c-3.59-1.2-5,.32-5.08.39l-.37.41-.37-.41a16.15,16.15,0,0,0-2.3-2l-.24-.18,0-.3a34.55,34.55,0,0,1,.67-3.69l.08-.17c3.79-5.37,6.92-4.86,10-4.37a15.52,15.52,0,0,0,2.51.27l1.91.06,5.88,2.94h0c1.09.46,5,3.62,11.6,9.41l.38.33-1.57,1.77-.34-.19-.89-.5c.12.35.25.76.39,1.21Zm-25-7.39a9,9,0,0,1,2.84.51,26.47,26.47,0,0,0,5.73,1.29c1,.13,2.07.28,3.55.56a98.71,98.71,0,0,1,11.38,3.4c-.33-1-.59-1.61-.6-1.62l-.73-1.76,1.5,1.18a17.15,17.15,0,0,0,1.71,1.09l.37-.42c-4.8-4.19-10.15-8.66-10.87-8.91l-.13,0L165.15,335h-1.56a16.53,16.53,0,0,1-2.67-.29c-2.84-.46-5.52-.89-8.92,3.89-.08.33-.35,1.54-.59,3.2a16.63,16.63,0,0,1,1.87,1.64A4.91,4.91,0,0,1,156.18,342.59Z" style="fill:#263238"></path><path d="M133.25,339.92a121.88,121.88,0,0,1-13,4.28,40.81,40.81,0,0,1-6,1.17s8.17,8.56,16.14,11.28,16.34-3.11,19.45-7.39,6.62-9.72,6.62-9.72-2.92-3.89-9.34-4.09S133.25,339.92,133.25,339.92Z" style="fill:#73AFA1"></path><path d="M134.62,357.86a13.83,13.83,0,0,1-4.45-.73c-8-2.73-16-11.06-16.35-11.41l-.8-.85h1.17a44.09,44.09,0,0,0,5.91-1.15A123.2,123.2,0,0,0,133,339.48c.67-.42,7.77-4.7,14.06-4.53,6.58.2,9.59,4.12,9.72,4.29l.21.27-.19.3c0,.05-3.55,5.5-6.63,9.75C147.35,353.46,141.16,357.86,134.62,357.86Zm-19.36-12.12c2.15,2.1,8.8,8.25,15.23,10.44,7.45,2.54,15.68-2.8,18.89-7.21,2.64-3.64,5.6-8.17,6.4-9.39a12.31,12.31,0,0,0-8.73-3.63c-6.23-.2-13.46,4.35-13.53,4.4l-.09,0a124.69,124.69,0,0,1-13.1,4.3C117.68,345.3,116.14,345.6,115.26,345.74Z" style="fill:#263238"></path><path d="M123.85,342.23s2.41,1.88,8,2.14,13.9-5.34,13.9-5.34-8.86-.9-10.69,0S123.85,342.23,123.85,342.23Z" style="fill:#263238"></path><path d="M132.27,344.88h-.42c-5.71-.27-8.2-2.16-8.3-2.24l-.82-.63,1-.25c.1,0,9.37-2.31,11.13-3.17s10-.14,11-.05l1.37.14-1.14.77C145.71,339.67,138,344.88,132.27,344.88Zm-7.08-2.46a18.05,18.05,0,0,0,6.71,1.45c4.12.19,9.87-3,12.36-4.48-3.45-.28-7.88-.44-9,.09A97.05,97.05,0,0,1,125.19,342.42Z" style="fill:#263238"></path><path d="M147.06,335.45a20,20,0,0,0-6.94,1.25l-.5,2.6s6.15.26,8.82,1.33a14.9,14.9,0,0,1,4.81,3.48,1.78,1.78,0,0,1,.31-.27c1.63-2.42,2.84-4.3,2.84-4.3S153.48,335.65,147.06,335.45Z" style="fill:#263238"></path><path d="M153.25,344.85l-.38-.41a14.45,14.45,0,0,0-4.62-3.34c-2.56-1-8.59-1.3-8.65-1.3l-.58,0,.66-3.45.27-.1a20.65,20.65,0,0,1,7.13-1.27h0c6.58.2,9.59,4.12,9.72,4.29l.21.27-.19.3s-1.22,1.88-2.85,4.31l-.12.12a1.09,1.09,0,0,0-.23.2Zm-13-6c1.61.09,6.14.43,8.4,1.34a14.89,14.89,0,0,1,4.64,3.22c1.17-1.75,2.12-3.2,2.51-3.81a12.25,12.25,0,0,0-8.72-3.63,18.89,18.89,0,0,0-6.5,1.13Z" style="fill:#263238"></path><path d="M145.31,314.25s-5.64-9.15-13.42-12.06-17.12-2.73-18.68-2.14,0,9.33,2.34,13.81,13.61,8.36,20.42,9.72,14.2,3.12,14,0S145.31,314.25,145.31,314.25Z" style="fill:#73AFA1"></path><path d="M145.31,314.25s-5.64-9.15-13.42-12.06-17.12-2.73-18.68-2.14,0,9.33,2.34,13.81,13.61,8.36,20.42,9.72,14.2,3.12,14,0S145.31,314.25,145.31,314.25Z" style="fill:#fff;opacity:0.30000000000000004"></path><path d="M146.91,325.83a55.78,55.78,0,0,1-9.49-1.44l-1.55-.31c-6.71-1.35-18.29-5.25-20.77-10-2.12-4.06-3.62-11.5-2.77-13.72a1.25,1.25,0,0,1,.71-.79c1.65-.62,11-.85,19,2.14,7.77,2.91,13.32,11.7,13.67,12.25s4.55,6.41,4.75,9.58a1.77,1.77,0,0,1-.61,1.53A4.55,4.55,0,0,1,146.91,325.83Zm-29.78-25.65a14.2,14.2,0,0,0-3.74.33c-.85.49.12,8.37,2.6,13.12,2.19,4.19,13.06,8.06,20.08,9.46l1.55.32c4.81,1,10.26,2.08,11.6.92a.79.79,0,0,0,.26-.71c-.18-2.94-4.53-9-4.58-9.08l0,0c0-.09-5.64-9-13.17-11.86A44.16,44.16,0,0,0,117.13,300.18Z" style="fill:#263238"></path><path d="M144.92,304.72a12.32,12.32,0,0,1,2.33-9.93c3.7-5.05,7.59-10.5,9.15-9.14s10.89,10.51,12.06,15.76A82,82,0,0,1,170,311.72s-1.36,5.45-6.42,7.58-11.08-.58-14.39-4.66S144.92,304.72,144.92,304.72Z" style="fill:#73AFA1"></path><path d="M144.92,304.72a12.32,12.32,0,0,1,2.33-9.93c3.7-5.05,7.59-10.5,9.15-9.14s10.89,10.51,12.06,15.76A82,82,0,0,1,170,311.72s-1.36,5.45-6.42,7.58-11.08-.58-14.39-4.66S144.92,304.72,144.92,304.72Z" style="fill:#fff;opacity:0.30000000000000004"></path><path d="M159.8,320.56a14.87,14.87,0,0,1-11-5.61,24.6,24.6,0,0,1-4.38-10.13,12.73,12.73,0,0,1,2.42-10.32l.36-.5c3.9-5.33,6.59-8.84,8.44-9.05a1.36,1.36,0,0,1,1.08.33c1.67,1.46,11,10.63,12.22,16a83.51,83.51,0,0,1,1.56,10.38v.08l0,.08c-.06.23-1.48,5.71-6.71,7.93A10.18,10.18,0,0,1,159.8,320.56Zm-4-34.62h-.07c-1.55.18-5,4.88-7.74,8.65l-.36.5a11.93,11.93,0,0,0-2.26,9.49v.05c0,.06,1,5.76,4.18,9.69s8.85,6.63,13.81,4.52c4.46-1.88,5.92-6.52,6.11-7.17A85.24,85.24,0,0,0,168,301.52c-1.14-5.12-10.52-14.29-11.9-15.49A.31.31,0,0,0,155.83,285.94Z" style="fill:#263238"></path><path d="M179.55,334.48s12.06-5.84,14.39-10.7,11.67-16.15,13.62-19.45,2.72-4.87.78-5.45-13,2.53-18.1,4.47-6.41,4.67-6.41,4.67.19-5.06.19-8.75-4.08,1-10.7,6.42-10.89,12.84-11.09,13.61,9.15.78,9.73,4.67-2,8-2.72,10.12-.78,3.31,3.3,3.31A10.91,10.91,0,0,0,179.55,334.48Z" style="fill:#73AFA1"></path><path d="M179.55,334.48s12.06-5.84,14.39-10.7,11.67-16.15,13.62-19.45,2.72-4.87.78-5.45-13,2.53-18.1,4.47-6.41,4.67-6.41,4.67.19-5.06.19-8.75-4.08,1-10.7,6.42-10.89,12.84-11.09,13.61,9.15.78,9.73,4.67-2,8-2.72,10.12-.78,3.31,3.3,3.31A10.91,10.91,0,0,0,179.55,334.48Z" style="fill:#fff;opacity:0.30000000000000004"></path><path d="M172.54,337.9c-2.2,0-3.37-.33-3.9-1.09s-.25-1.87.13-2.89c.18-.5.44-1.07.74-1.73,1-2.22,2.39-5.27,2-8.14-.34-2.31-4.64-3.12-7.21-3.6-1.65-.31-2.19-.43-2.42-.79l-.12-.19,0-.29c.2-.79,4.4-8.23,11.25-13.88,1.52-1.24,2.9-2.46,4.13-3.53,3.78-3.3,5.5-4.74,6.64-4.22.75.34.75,1.38.75,1.72,0,2.4-.08,5.4-.14,7.2a15,15,0,0,1,5.69-3.58c4.87-1.88,16.25-5.14,18.41-4.49a1.93,1.93,0,0,1,1.37,1.08c.43,1.11-.43,2.66-1.86,5.1-.78,1.31-2.65,3.81-4.83,6.71-3.28,4.36-7.37,9.79-8.77,12.71-2.31,4.81-13.44,10.35-14.55,10.89A11.28,11.28,0,0,1,172.54,337.9Zm-9.7-18.77c.36.11,1,.23,1.59.34,2.83.53,7.57,1.42,8,4.43.48,3.17-1,6.37-2,8.7-.29.64-.55,1.2-.71,1.66-.34.92-.51,1.61-.25,2s1.34.67,3.08.67a10.43,10.43,0,0,0,6.65-2.78l.14-.09c.12-.06,11.93-5.82,14.16-10.47,1.45-3,5.39-8.25,8.87-12.87,2.16-2.87,4-5.35,4.77-6.62,1-1.65,2.07-3.52,1.79-4.22,0-.08-.12-.31-.73-.49-1.72-.51-12.64,2.49-17.77,4.46-4.78,1.84-6.14,4.4-6.15,4.43l-1,2,.09-2.26c0-.05.19-5.09.19-8.73,0-.72-.17-.81-.17-.81-.6-.28-3.23,2-5.56,4.07-1.23,1.07-2.63,2.29-4.15,3.54A48.15,48.15,0,0,0,162.84,319.13Z" style="fill:#263238"></path><path d="M178.73,326.08l-.7-.71c1-1,2.16-4.64,3-9.26a42.88,42.88,0,0,1,2.36-8.28l.93.39a41.36,41.36,0,0,0-2.31,8.06C181.66,318.14,180.47,324.34,178.73,326.08Z" style="fill:#263238"></path><path d="M90.06,322.81s-2.33-2.14,5.26-3.12a45.3,45.3,0,0,1,19.25,1.75c4.87,1.56,5.84,2.14,12.26,4.67s15,6.42,16.15,8.95,0,3.31,0,3.31a35,35,0,0,1-11.68.39C125.86,337.78,93.37,332.14,90.06,322.81Z" style="fill:#73AFA1"></path><path d="M90.06,322.81s-2.33-2.14,5.26-3.12a45.3,45.3,0,0,1,19.25,1.75c4.87,1.56,5.84,2.14,12.26,4.67s15,6.42,16.15,8.95,0,3.31,0,3.31a35,35,0,0,1-11.68.39C125.86,337.78,93.37,332.14,90.06,322.81Z" style="fill:#fff;opacity:0.30000000000000004"></path><path d="M135.66,339.61a25.81,25.81,0,0,1-4.44-.36l-.29-.05c-14.13-2.52-38.22-7.95-41.3-16.12a1.51,1.51,0,0,1-.34-1.43c.37-1.18,2.32-2,6-2.45A45.35,45.35,0,0,1,114.73,321c3.38,1.08,4.89,1.7,7.63,2.81,1.22.5,2.68,1.09,4.65,1.87,5.56,2.19,15.08,6.29,16.42,9.2s-.12,3.89-.18,3.93l-.17.08A38.7,38.7,0,0,1,135.66,339.61ZM101,319.83a43.71,43.71,0,0,0-5.58.36c-4.41.57-5,1.48-5.14,1.75a.55.55,0,0,0,.17.5l.08.08,0,.12c2,5.66,16.8,11.34,40.57,15.57l.29.06a34.69,34.69,0,0,0,11.35-.36c.15-.18.58-.9-.22-2.64s-6.93-5.17-15.87-8.69c-2-.78-3.45-1.38-4.67-1.87-2.72-1.11-4.21-1.72-7.56-2.79A44.44,44.44,0,0,0,101,319.83Z" style="fill:#263238"></path><path d="M150.17,338.56s-10.31,0-13.61-1.16-12.65-6.42-17.51-12.26-9.53-14.2-7.2-14.2,19.45,2.72,26.65,7.2,10.31,5.44,10.31,5.44,11.28,9.15,9.92,12.26S150.17,338.56,150.17,338.56Z" style="fill:#73AFA1"></path><path d="M150.17,338.56s-10.31,0-13.61-1.16-12.65-6.42-17.51-12.26-9.53-14.2-7.2-14.2,19.45,2.72,26.65,7.2,10.31,5.44,10.31,5.44,11.28,9.15,9.92,12.26S150.17,338.56,150.17,338.56Z" style="fill:#fff;opacity:0.30000000000000004"></path><path d="M151,339.08c-.43,0-.72,0-.8,0-.58,0-10.45,0-13.77-1.19-3.65-1.29-13-6.69-17.73-12.41-3.89-4.67-8.74-12.42-7.8-14.42a1,1,0,0,1,1-.6c2.3,0,19.58,2.71,26.92,7.27,7,4.37,10.16,5.39,10.19,5.4l.17.09c1.93,1.56,11.5,9.55,10.06,12.84C158,338.8,153,339.08,151,339.08Zm-39.11-27.64c-.67.7,2.42,7.18,7.58,13.38,5,6,14.39,11.08,17.29,12.1,3.19,1.13,13.35,1.14,13.45,1.14h0c1.9.11,7.07-.13,8.07-2.42.88-2-5.46-8.16-9.7-11.61-.59-.2-3.76-1.38-10.33-5.47C131.05,314.1,114.11,311.44,111.85,311.44Z" style="fill:#263238"></path><path d="M136.56,337.4c2.76,1,10.39,1.13,12.84,1.16a11.9,11.9,0,0,1-1-2.2c0-1.07-2.67-7.22-3.48-7.49s-1.33.81-6.41,2.94-10.69-.26-10.69-.26l-.2,1A47.6,47.6,0,0,0,136.56,337.4Z" style="fill:#263238"></path><path d="M150.15,339.07h-.76c-3,0-10.23-.22-13-1.19h0a48.14,48.14,0,0,1-9-4.92l-.28-.19.38-1.92.57.25c.05,0,5.48,2.29,10.3.26a40,40,0,0,0,4.8-2.37c.9-.52,1.36-.78,2-.58,1.15.38,3.82,6.92,3.82,8a4.24,4.24,0,0,0,.41.93c.17.33.36.7.51,1.08Zm-21.93-6.76a47,47,0,0,0,8.5,4.61h0c2.45.87,9,1.08,11.89,1.13l-.15-.3a3.5,3.5,0,0,1-.52-1.39c0-1-2.52-6.59-3.18-7-.12,0-.38.1-1.1.51a39.35,39.35,0,0,1-4.91,2.43c-4.32,1.82-8.92.51-10.51,0Z" style="fill:#263238"></path><path d="M136.17,334.87s-12.06-5.45-20.23-7.2-16.15-.39-21.21-2.53-5.64-3.7-5.64-2.33,10.12,11.67,16.54,15.36,13.61,4.48,22,3.89S143,339.54,143,338.37,136.17,334.87,136.17,334.87Z" style="fill:#73AFA1"></path><path d="M122.92,342.74c-7.13,0-12.67-1.32-17.54-4.13-5.95-3.43-16.79-14-16.79-15.8,0-.27,0-.73.37-.94s.76,0,1.49.47a28.6,28.6,0,0,0,4.48,2.34c2.63,1.12,6.09,1.25,10.09,1.4a63.64,63.64,0,0,1,11,1.1c8,1.71,19.72,7,20.31,7.22,3.26,1.12,7.13,2.71,7.13,4,0,2-9.2,3.73-15.84,4.19C126,342.68,124.42,342.74,122.92,342.74ZM89.69,323c1,2,10,11.14,16.19,14.7,5.72,3.29,12.4,4.47,21.69,3.83,8.22-.58,14.25-2.39,14.88-3.21-.4-.63-3.6-2-6.45-3l0,0c-.12-.05-12.11-5.44-20.13-7.16A63.15,63.15,0,0,0,105,327.08c-4.1-.16-7.64-.29-10.44-1.48a29.41,29.41,0,0,1-4.62-2.41Z" style="fill:#263238"></path><path d="M160.87,318.53A113.51,113.51,0,0,1,151.34,308c-3.7-4.86-6.42-9.92-9-8.36s-7.2,8.56-7.39,15.56,4.47,10.31,9.92,12.26S158.15,326.7,160.87,318.53Z" style="fill:#73AFA1"></path><path d="M160.87,318.53A113.51,113.51,0,0,1,151.34,308c-3.7-4.86-6.42-9.92-9-8.36s-7.2,8.56-7.39,15.56,4.47,10.31,9.92,12.26S158.15,326.7,160.87,318.53Z" style="fill:#fff;opacity:0.30000000000000004"></path><path d="M148.5,328.58a11.27,11.27,0,0,1-3.75-.63c-4.51-1.61-10.47-4.69-10.25-12.74.21-7.43,5.15-14.45,7.63-16s4.68,1.66,7.54,5.66c.66.92,1.34,1.88,2.07,2.83a113.62,113.62,0,0,0,9.48,10.45l.23.22-.1.29a14.46,14.46,0,0,1-7.26,8.59A12.83,12.83,0,0,1,148.5,328.58Zm-5.16-28.7a1.34,1.34,0,0,0-.69.2c-2.41,1.49-7,8.37-7.15,15.15-.16,5.64,2.89,9.38,9.59,11.77a11.17,11.17,0,0,0,8.56-.63,13.37,13.37,0,0,0,6.65-7.71,111.72,111.72,0,0,1-9.36-10.33c-.73-1-1.42-1.94-2.08-2.86C146.73,302.5,144.86,299.88,143.34,299.88Z" style="fill:#263238"></path><path d="M164.18,340.7a149,149,0,0,0,14.2,6.23c7.78,2.92,16.14-.39,19.45-4.28a125.14,125.14,0,0,0,9.92-14c.59-1.36-.39-3.69-2.33-4.47s-8,1.55-9.53,2.72-10.12,3.5-14.59,4.86-9,3.51-9.73,3.7S163.79,337.59,164.18,340.7Z" style="fill:#73AFA1"></path><path d="M184.61,348.53a18.4,18.4,0,0,1-6.41-1.13A152.21,152.21,0,0,1,164,341.15l-.24-.12,0-.26c-.46-3.7,7.43-5.72,7.77-5.81s1-.36,1.82-.72a82.26,82.26,0,0,1,7.88-3l3.17-.95c4.26-1.25,10.1-3,11.27-3.84,1.44-1.08,7.76-3.69,10-2.79a4.61,4.61,0,0,1,2.5,2.52,3.43,3.43,0,0,1,.11,2.62c-.62,1.46-6.67,10.21-10,14.13C195.53,346.12,190.23,348.53,184.61,348.53Zm-20-8.14c1.28.64,7.1,3.52,13.89,6.07,8,3,16-.7,18.9-4.14a125.9,125.9,0,0,0,9.84-13.87,2.45,2.45,0,0,0-.12-1.84,3.53,3.53,0,0,0-1.94-2c-1.67-.67-7.46,1.47-9,2.66-1.22.91-5.77,2.29-11.59,4l-3.16.94a83.08,83.08,0,0,0-7.78,2.93c-1.13.47-1.68.7-2,.78C169.85,336.4,164.77,338.17,164.66,340.39Z" style="fill:#263238"></path><path d="M205.42,324.17c-1.95-.78-8,1.55-9.53,2.72s-10.12,3.5-14.59,4.86c-.83.26-1.66.54-2.47.82,3.31-.49,13.77-2.11,19.78-3.73,7.2-1.95,9.14-1,9.14-1l.15-.14A4.06,4.06,0,0,0,205.42,324.17Z" style="fill:#73AFA1"></path><path d="M205.42,324.17c-1.95-.78-8,1.55-9.53,2.72s-10.12,3.5-14.59,4.86c-.83.26-1.66.54-2.47.82,3.31-.49,13.77-2.11,19.78-3.73,7.2-1.95,9.14-1,9.14-1l.15-.14A4.06,4.06,0,0,0,205.42,324.17Z" style="fill:#fff;opacity:0.30000000000000004"></path><path d="M178.91,333.07l-.25-1c.82-.29,1.65-.57,2.49-.82l3.17-.95c4.26-1.25,10.1-3,11.27-3.84,1.44-1.08,7.76-3.69,10-2.79a4.55,4.55,0,0,1,2.8,4v.21l-.56.55-.32-.16s-2-.83-8.79,1C192.87,330.91,182.91,332.47,178.91,333.07Zm25.48-8.56a20,20,0,0,0-8.2,2.78c-1.14.85-5.19,2.12-10.48,3.68,4.23-.72,9.29-1.68,12.77-2.62,5.28-1.42,7.82-1.31,8.87-1.12a3.62,3.62,0,0,0-2.12-2.6h0A2.26,2.26,0,0,0,204.39,324.51Z" style="fill:#263238"></path><path d="M160.68,315.41s-4.28,1.17-9.73,2.73-11.67,5.25-12.45,10.7,1.95,7.39,7.59,9.33,13,4.28,18.09,2.53,12.64-7.39,13-13.81-1.75-8.75-6.22-10.7S160.68,315.41,160.68,315.41Z" style="fill:#73AFA1"></path><path d="M160.07,341.81c-5,0-10.7-2-14.15-3.16-5.76-2-8.73-4.16-7.91-9.88s7.15-9.5,12.8-11.11c5.45-1.56,9.74-2.73,9.74-2.73h0c.24,0,6-1.17,10.61.81s6.93,4.39,6.52,11.19-8.22,12.47-13.37,14.26A13.32,13.32,0,0,1,160.07,341.81Zm.72-25.91c-.31.09-4.46,1.22-9.7,2.72s-11.34,5-12.09,10.29c-.73,5.1,1.75,6.9,7.25,8.79,4.39,1.51,12.56,4.33,17.76,2.53s12.34-7.39,12.7-13.37c.38-6.29-1.69-8.37-5.92-10.21S161.13,315.84,160.79,315.9Z" style="fill:#263238"></path><path d="M104.49,257.43s1.92,7.65-.29,12.36-7.81,7.66-13.4,7.37-8.25-2.8-8.83-5.89,1.32-7.66,1.32-7.66a14.15,14.15,0,0,1-9.42,2.65c-5.3-.59-7.51-1.91-10.31-4L58,258.16s7.51-3.38,12.51-3.53,21.94-.15,24.88-.15S101,252.42,104.49,257.43Z" style="fill:#73AFA1"></path><path d="M91.58,277.68l-.81,0c-7.12-.38-8.88-4.11-9.3-6.3a14.58,14.58,0,0,1,.84-6.51,14.3,14.3,0,0,1-8.5,1.91c-5.5-.61-7.75-2-10.55-4.07L57,258.06l.78-.35c.31-.14,7.66-3.43,12.71-3.58C75,254,89.38,254,95.36,254a12.39,12.39,0,0,0,1.89-.2c2.22-.36,4.74-.77,7.65,3.36l.08.17c.08.31,1.93,7.88-.33,12.7C102.5,274.6,97.2,277.68,91.58,277.68ZM84.49,262l-.74,1.77c0,.05-1.85,4.47-1.29,7.37.62,3.29,3.59,5.24,8.37,5.49,5.51.27,10.83-2.62,12.91-7.08,2-4.22.49-11.08.29-11.94-2.53-3.54-4.42-3.23-6.62-2.88a12.37,12.37,0,0,1-2,.22c-6,0-20.35,0-24.86.15-3.92.11-9.49,2.29-11.53,3.15l4.89,3.6c2.66,2,4.81,3.3,10.06,3.88A13.74,13.74,0,0,0,83,263.22Z" style="fill:#263238"></path><path d="M104.49,257.43a27.22,27.22,0,0,1,.5,2.75,12.25,12.25,0,0,0-1.8,1.59s-1.21-1.42-4.24-.41-3.85.81-7.08,1.42a80.45,80.45,0,0,0-9.27,2.82c.35-1.17.69-2,.69-2a12.54,12.54,0,0,1-1.61,1l-.73-.83s8.09-7.08,8.69-7.08l4.45-2.22h1.27C98.31,254.48,101,252.42,104.49,257.43Z" style="fill:#263238"></path><path d="M81.84,266.41l.28-1,.19-.62-.39.22-.35.18-1.33-1.49.38-.33c6.62-5.8,8.29-6.93,8.8-7.15h0L94.15,254h1.21a12.39,12.39,0,0,0,1.89-.2c2.22-.36,4.74-.77,7.65,3.36l.08.17s.28,1.16.51,2.81l0,.29-.24.18a11.09,11.09,0,0,0-1.72,1.51l-.38.43-.38-.44s-1.07-1.13-3.7-.25a20.53,20.53,0,0,1-4.5,1c-.73.1-1.55.21-2.65.42a81.59,81.59,0,0,0-9.19,2.8ZM84.48,262l-.73,1.76s-.16.39-.36,1a70.49,70.49,0,0,1,8.39-2.5c1.12-.21,2-.33,2.69-.43a20,20,0,0,0,4.32-1c2.33-.78,3.72-.22,4.36.2a14.15,14.15,0,0,1,1.31-1.13c-.18-1.18-.37-2-.43-2.32-2.53-3.54-4.43-3.23-6.62-2.88a12.37,12.37,0,0,1-2,.22H94.22l-4.5,2.23c-.69.34-4.56,3.57-8.06,6.63l.13.15a11.43,11.43,0,0,0,1.19-.77Z" style="fill:#263238"></path><path d="M118.33,258.6a92.42,92.42,0,0,0,9.87,3.24,30.5,30.5,0,0,0,4.56.89s-6.18,6.48-12.22,8.54-12.37-2.36-14.72-5.6-5-7.36-5-7.36a9.35,9.35,0,0,1,7.07-3.09C112.74,255.07,118.33,258.6,118.33,258.6Z" style="fill:#73AFA1"></path><path d="M117.3,272.3c-5,0-9.72-3.35-11.89-6.33-2.33-3.22-5-7.35-5-7.39l-.19-.29.21-.28a9.76,9.76,0,0,1,7.45-3.29c4.81-.14,10.13,3.08,10.7,3.44a93.76,93.76,0,0,0,9.75,3.2,34.56,34.56,0,0,0,4.46.87l1.12,0-.77.81c-.25.27-6.34,6.59-12.42,8.67A10.36,10.36,0,0,1,117.3,272.3Zm-15.86-13.94c.66,1,2.84,4.34,4.78,7,2.41,3.31,8.57,7.32,14.16,5.41,4.68-1.6,9.53-6,11.31-7.71-.7-.12-1.82-.34-3.61-.75a91.18,91.18,0,0,1-9.93-3.26l-.09,0s-5.52-3.45-10.17-3.31A9.19,9.19,0,0,0,101.44,258.36Z" style="fill:#263238"></path><path d="M125.44,260.35s-1.82,1.42-6.07,1.62-10.51-4-10.51-4,6.7-.68,8.09,0S125.44,260.35,125.44,260.35Z" style="fill:#263238"></path><path d="M119.08,262.48c-4.34,0-10.25-4-10.5-4.14l-1.14-.77,1.37-.14c.7-.07,6.89-.68,8.36.05,1.09.53,6.43,1.9,8.39,2.39l1,.24-.81.64c-.08.06-2,1.51-6.35,1.72Zm-8.69-4.19c2,1.2,6,3.3,9,3.18a14,14,0,0,0,4.71-1,68.59,68.59,0,0,1-7.33-2.14C116,258,112.88,258.1,110.39,258.29Z" style="fill:#263238"></path><path d="M107.88,255.22a15,15,0,0,1,5.25.94l.38,2s-4.65.2-6.67,1a11.28,11.28,0,0,0-3.65,2.63,1.3,1.3,0,0,0-.23-.21c-1.23-1.83-2.15-3.25-2.15-3.25A9.35,9.35,0,0,1,107.88,255.22Z" style="fill:#263238"></path><path d="M103.19,262.53l-.37-.44-.16-.12-.12-.13c-1.23-1.83-2.15-3.26-2.15-3.26l-.19-.29.21-.28a9.76,9.76,0,0,1,7.45-3.29h0a15.55,15.55,0,0,1,5.44,1l.27.09.54,2.82-.58,0s-4.59.2-6.51,1a10.7,10.7,0,0,0-3.45,2.5Zm-1.75-4.17c.31.48,1,1.48,1.77,2.68a11,11,0,0,1,3.44-2.36,25.45,25.45,0,0,1,6.26-1l-.21-1.12a14.27,14.27,0,0,0-4.81-.82h0A9.19,9.19,0,0,0,101.44,258.36Z" style="fill:#263238"></path><path d="M109.2,239.17s4.27-6.92,10.16-9.13,13-2.06,14.14-1.62,0,7.07-1.77,10.46-10.31,6.33-15.46,7.36-10.75,2.35-10.6,0S109.2,239.17,109.2,239.17Z" style="fill:#73AFA1"></path><path d="M109.2,239.17s4.27-6.92,10.16-9.13,13-2.06,14.14-1.62,0,7.07-1.77,10.46-10.31,6.33-15.46,7.36-10.75,2.35-10.6,0S109.2,239.17,109.2,239.17Z" style="fill:#fff;opacity:0.30000000000000004"></path><path d="M108,248.05a3.58,3.58,0,0,1-2.33-.59,1.47,1.47,0,0,1-.5-1.25c.15-2.43,3.37-7,3.62-7.32s4.5-7.1,10.4-9.32c6.07-2.27,13.22-2.09,14.48-1.62a1.1,1.1,0,0,1,.61.67c.65,1.71-.49,7.39-2.11,10.49-1.89,3.62-10.7,6.6-15.8,7.62l-1.17.23A41.84,41.84,0,0,1,108,248.05Zm22.5-19.4a32.59,32.59,0,0,0-11,1.86c-5.66,2.12-9.87,8.85-9.91,8.92l0,0c-.92,1.28-3.33,5-3.44,6.81a.47.47,0,0,0,.16.44c1,.84,5.23,0,8.67-.73l1.17-.23c5.29-1.06,13.48-4,15.12-7.11,1.83-3.52,2.57-9.19,2-9.77A11.88,11.88,0,0,0,130.5,228.65Z" style="fill:#263238"></path><path d="M109.5,232a9.3,9.3,0,0,0-1.77-7.51c-2.8-3.83-5.74-7.95-6.92-6.92s-8.24,7.95-9.13,11.92a64.29,64.29,0,0,0-1.18,7.81A9.17,9.17,0,0,0,95.36,243c3.83,1.62,8.4-.44,10.9-3.54A18.49,18.49,0,0,0,109.5,232Z" style="fill:#73AFA1"></path><path d="M109.5,232a9.3,9.3,0,0,0-1.77-7.51c-2.8-3.83-5.74-7.95-6.92-6.92s-8.24,7.95-9.13,11.92a64.29,64.29,0,0,0-1.18,7.81A9.17,9.17,0,0,0,95.36,243c3.83,1.62,8.4-.44,10.9-3.54A18.49,18.49,0,0,0,109.5,232Z" style="fill:#fff;opacity:0.30000000000000004"></path><path d="M98.23,244.07a7.85,7.85,0,0,1-3.06-.61A9.55,9.55,0,0,1,90,237.38l0-.08v-.08a63,63,0,0,1,1.18-7.88c.92-4.11,8-11.08,9.29-12.19a1.14,1.14,0,0,1,.91-.28c1.45.17,3.41,2.72,6.47,6.91l.27.37a9.75,9.75,0,0,1,1.86,7.91,18.79,18.79,0,0,1-3.34,7.72A11.4,11.4,0,0,1,98.23,244.07ZM91,237.21a8.69,8.69,0,0,0,4.55,5.33c3.7,1.56,8-.52,10.31-3.39a17.91,17.91,0,0,0,3.13-7.28l0-.05a8.9,8.9,0,0,0-1.69-7.08l-.28-.37c-2.07-2.84-4.65-6.38-5.77-6.5a.17.17,0,0,0-.14,0c-1,.91-8.11,7.81-9,11.66A64,64,0,0,0,91,237.21Z" style="fill:#263238"></path><path d="M83.29,254.48s-9.13-4.42-10.89-8.1-8.84-12.22-10.31-14.72S60,228,61.5,227.54s9.86,1.91,13.69,3.38,4.86,3.54,4.86,3.54-.15-3.83-.15-6.63,3.1.74,8.1,4.86A34.29,34.29,0,0,1,96.39,243c.15.59-6.92.59-7.36,3.53s1.47,6,2.06,7.66.59,2.5-2.5,2.5A8.25,8.25,0,0,1,83.29,254.48Z" style="fill:#73AFA1"></path><path d="M83.29,254.48s-9.13-4.42-10.89-8.1-8.84-12.22-10.31-14.72S60,228,61.5,227.54s9.86,1.91,13.69,3.38,4.86,3.54,4.86,3.54-.15-3.83-.15-6.63,3.1.74,8.1,4.86A34.29,34.29,0,0,1,96.39,243c.15.59-6.92.59-7.36,3.53s1.47,6,2.06,7.66.59,2.5-2.5,2.5A8.25,8.25,0,0,1,83.29,254.48Z" style="fill:#fff;opacity:0.30000000000000004"></path><path d="M88.59,257.19A8.67,8.67,0,0,1,83,254.9c-.93-.46-9.3-4.64-11.06-8.3-1-2.2-4.14-6.3-6.62-9.6-1.65-2.19-3.07-4.08-3.66-5.09-1.11-1.88-1.77-3.07-1.42-4a1.57,1.57,0,0,1,1.12-.89c1.78-.53,10.71,2.13,14,3.4A11.74,11.74,0,0,1,79.5,233c0-1.38-.1-3.46-.1-5.15,0-.27,0-1.12.65-1.41.93-.42,2.17.62,5.15,3.22.93.81,2,1.72,3.12,2.67a34.17,34.17,0,0,1,8.56,10.57l.05.21-.13.24c-.2.32-.62.41-1.91.65-1.91.36-5.11,1-5.36,2.63-.32,2.14.71,4.42,1.47,6.09.23.5.43,1,.56,1.32a2.47,2.47,0,0,1,.08,2.3C91.22,256.93,90.3,257.19,88.59,257.19ZM62,228a1.41,1.41,0,0,0-.39,0c-.26.08-.42.18-.47.3-.19.47.67,1.92,1.35,3.09.56,1,2,2.82,3.6,5,2.64,3.51,5.63,7.48,6.73,9.77,1.67,3.48,10.57,7.82,10.66,7.86l.13.1a7.82,7.82,0,0,0,5,2.06c1.59,0,2.09-.24,2.24-.45s0-.84-.21-1.38c-.12-.35-.32-.77-.53-1.25-.81-1.78-1.92-4.22-1.55-6.65s4-3.05,6.17-3.46c.35-.07.77-.14,1.05-.21a36.56,36.56,0,0,0-8.08-9.71c-1.15-1-2.2-1.87-3.14-2.69-1.68-1.47-3.6-3.13-4.08-3.06a1.5,1.5,0,0,0-.06.5c0,2.76.15,6.57.15,6.61l.09,2.31-1-2.07s-1-1.92-4.59-3.29C71.08,229.88,64,228,62,228Z" style="fill:#263238"></path><path d="M83.82,248.21c-1.3-1.3-2.18-5.67-2.49-7.48a32.47,32.47,0,0,0-1.74-6.08l.92-.39a32,32,0,0,1,1.8,6.3c.61,3.47,1.48,6.2,2.22,6.94Z" style="fill:#263238"></path><path d="M151,245.65s1.76-1.62-4-2.36a34.23,34.23,0,0,0-14.57,1.33c-3.68,1.18-4.42,1.62-9.28,3.53S111.85,253,111,254.92s0,2.51,0,2.51a26.36,26.36,0,0,0,8.83.29C123.93,257,148.51,252.72,151,245.65Z" style="fill:#73AFA1"></path><path d="M151,245.65s1.76-1.62-4-2.36a34.23,34.23,0,0,0-14.57,1.33c-3.68,1.18-4.42,1.62-9.28,3.53S111.85,253,111,254.92s0,2.51,0,2.51a26.36,26.36,0,0,0,8.83.29C123.93,257,148.51,252.72,151,245.65Z" style="fill:#fff;opacity:0.30000000000000004"></path><path d="M116.5,258.49a29.56,29.56,0,0,1-5.64-.57l-.17-.08s-1.22-.85-.17-3.13,8.27-5.36,12.49-7l3.51-1.41c2.08-.85,3.23-1.32,5.79-2.14a34.64,34.64,0,0,1,14.8-1.34c2.84.36,4.31,1,4.61,1.93a1.26,1.26,0,0,1-.27,1.19c-2.26,5.92-18.27,9.93-31.35,12.26l-.21,0A19.55,19.55,0,0,1,116.5,258.49ZM111.22,257a25.83,25.83,0,0,0,8.5.26l.21,0c17.95-3.19,29.11-7.46,30.62-11.71l0-.12.08-.08a.26.26,0,0,0,.09-.25c0-.08-.36-.8-3.78-1.24a33.52,33.52,0,0,0-14.36,1.3c-2.53.81-3.67,1.27-5.72,2.11-.93.38-2,.83-3.53,1.42-6.74,2.65-11.32,5.15-12,6.51C110.89,256.3,111.11,256.81,111.22,257Z" style="fill:#263238"></path><path d="M105.52,257.57s7.81,0,10.31-.88,9.57-4.86,13.25-9.28,7.21-10.74,5.45-10.74-14.73,2.06-20.17,5.44-7.81,4.13-7.81,4.13S98,253.16,99,255.51,105.52,257.57,105.52,257.57Z" style="fill:#73AFA1"></path><path d="M105.52,257.57s7.81,0,10.31-.88,9.57-4.86,13.25-9.28,7.21-10.74,5.45-10.74-14.73,2.06-20.17,5.44-7.81,4.13-7.81,4.13S98,253.16,99,255.51,105.52,257.57,105.52,257.57Z" style="fill:#fff;opacity:0.30000000000000004"></path><path d="M104.85,258.09c-1.62,0-5.33-.24-6.26-2.38-1.13-2.57,6.17-8.67,7.65-9.86l.16-.09a40.89,40.89,0,0,0,7.69-4.07c5.57-3.46,18.69-5.52,20.44-5.52a.91.91,0,0,1,.86.52c.76,1.62-3,7.56-5.93,11-3.62,4.35-10.69,8.45-13.46,9.43-2.53.89-10,.91-10.46.91Zm2-11.41c-3.42,2.78-7.9,7.26-7.3,8.63.73,1.67,4.58,1.84,6,1.77h0c.08,0,7.75,0,10.14-.85,2.19-.77,9.28-4.62,13-9.13,3.62-4.35,6.13-9.22,5.78-10-1.46.06-14.49,2.09-19.86,5.43A43.2,43.2,0,0,1,106.8,246.68Z" style="fill:#263238"></path><path d="M115.83,256.69c-2.09.74-7.87.86-9.72.88a9.24,9.24,0,0,0,.73-1.67c0-.81,2-5.46,2.62-5.66s1,.61,4.86,2.23,8.09-.21,8.09-.21l.15.75A35.83,35.83,0,0,1,115.83,256.69Z" style="fill:#263238"></path><path d="M105.36,258.08l.28-.7c.12-.29.27-.57.4-.83a4.58,4.58,0,0,0,.3-.65c0-.66,2-5.8,3-6.13.51-.18.89,0,1.58.44a28,28,0,0,0,3.62,1.79c3.6,1.52,7.66-.18,7.7-.2l.57-.24.33,1.68-.27.19a35.8,35.8,0,0,1-6.84,3.73h0c-2.12.75-7.62.89-9.89.91Zm4.28-7.37h0a19.9,19.9,0,0,0-2.28,5.19,2.77,2.77,0,0,1-.41,1.11l0,.05c2.29-.05,7-.21,8.76-.84h0a33.31,33.31,0,0,0,5.86-3.12,11.45,11.45,0,0,1-7.4-.17,29.54,29.54,0,0,1-3.73-1.85A2.92,2.92,0,0,0,109.64,250.71Z" style="fill:#263238"></path><path d="M116.12,254.78s9.13-4.13,15.32-5.45,12.22-.3,16-1.92,4.27-2.79,4.27-1.76-7.65,8.83-12.51,11.63-10.31,3.39-16.64,2.94S111,258.31,111,257.43,116.12,254.78,116.12,254.78Z" style="fill:#73AFA1"></path><path d="M126.15,260.85c-1.14,0-2.33,0-3.58-.13-3.79-.26-12.1-1.46-12.1-3.29,0-.31,0-1.24,5.47-3.12.5-.23,9.37-4.18,15.39-5.47a48.65,48.65,0,0,1,8.36-.83c3-.12,5.62-.22,7.6-1.06a20.2,20.2,0,0,0,3.37-1.76c.57-.36.89-.55,1.25-.35a.85.85,0,0,1,.34.81c0,1.46-8.14,9.4-12.76,12.06C135.78,259.85,131.57,260.85,126.15,260.85Zm-14.62-3.44c.77.64,5.18,1.9,11.11,2.31,7,.5,12-.39,16.35-2.87s10.34-8.48,11.9-10.62a22.66,22.66,0,0,1-3.21,1.65c-2.14.9-4.84,1-8,1.13a46.31,46.31,0,0,0-8.19.81c-6.06,1.3-15.12,5.37-15.21,5.41l0,0A20,20,0,0,0,111.53,257.41Z" style="fill:#263238"></path><path d="M97.42,242.41a86,86,0,0,0,7.22-7.95c2.8-3.68,4.86-7.51,6.77-6.33s5.45,6.48,5.6,11.78-3.39,7.8-7.51,9.27S99.49,248.59,97.42,242.41Z" style="fill:#73AFA1"></path><path d="M97.42,242.41a86,86,0,0,0,7.22-7.95c2.8-3.68,4.86-7.51,6.77-6.33s5.45,6.48,5.6,11.78-3.39,7.8-7.51,9.27S99.49,248.59,97.42,242.41Z" style="fill:#fff;opacity:0.30000000000000004"></path><path d="M106.79,250.14a9.85,9.85,0,0,1-4.29-1A11,11,0,0,1,97,242.57l-.1-.3.23-.22a86.93,86.93,0,0,0,7.16-7.89c.55-.72,1.07-1.45,1.56-2.14,2.12-3,3.94-5.51,5.87-4.32,2.23,1.37,5.69,6.93,5.84,12.19.13,4.64-2.44,7.83-7.84,9.76A8.5,8.5,0,0,1,106.79,250.14ZM98,242.54a10,10,0,0,0,4.94,5.69,8.33,8.33,0,0,0,6.39.48c5-1.79,7.29-4.58,7.18-8.79-.14-5.09-3.55-10.25-5.36-11.37-1.14-.7-2.71,1.5-4.53,4-.5.7-1,1.43-1.58,2.16A84.48,84.48,0,0,1,98,242.54Z" style="fill:#263238"></path><path d="M94.92,259.19a110.59,110.59,0,0,1-10.75,4.71c-5.89,2.21-12.22-.29-14.72-3.23a95.12,95.12,0,0,1-7.51-10.61,2.9,2.9,0,0,1,1.77-3.38c1.47-.59,6,1.18,7.21,2.06s7.66,2.65,11,3.68,6.77,2.65,7.36,2.8S95.22,256.84,94.92,259.19Z" style="fill:#73AFA1"></path><path d="M79.46,265.24c-4.29,0-8.34-1.84-10.39-4.25a93.88,93.88,0,0,1-7.59-10.73,2.68,2.68,0,0,1,.09-2.07,3.61,3.61,0,0,1,2-2c1.73-.69,6.46,1.2,7.7,2.13.87.65,5.27,1.94,8.49,2.89l2.4.71a62.46,62.46,0,0,1,6,2.25c.64.27,1.2.5,1.36.54.65.17,6.33,1.67,6,4.53l0,.26-.24.12a115.6,115.6,0,0,1-10.8,4.73A13.91,13.91,0,0,1,79.46,265.24Zm-15-18.19a1.72,1.72,0,0,0-.6.09,2.68,2.68,0,0,0-1.4,1.43,1.77,1.77,0,0,0-.09,1.3,95.27,95.27,0,0,0,7.43,10.47c2.19,2.57,8.2,5.33,14.17,3.1,5-1.89,9.33-4,10.43-4.56-.19-1.56-3.87-2.84-5.22-3.18a13.2,13.2,0,0,1-1.51-.59,62.49,62.49,0,0,0-5.88-2.21l-2.39-.71c-4.42-1.3-7.87-2.35-8.81-3.05A15.14,15.14,0,0,0,64.49,247.05Z" style="fill:#263238"></path><path d="M63.71,246.68c1.47-.59,6,1.18,7.21,2.06s7.66,2.65,11,3.68c.62.19,1.25.4,1.86.62-2.5-.37-10.42-1.6-15-2.83-5.45-1.47-6.92-.73-6.92-.73l-.11-.12A3.07,3.07,0,0,1,63.71,246.68Z" style="fill:#73AFA1"></path><path d="M63.71,246.68c1.47-.59,6,1.18,7.21,2.06s7.66,2.65,11,3.68c.62.19,1.25.4,1.86.62-2.5-.37-10.42-1.6-15-2.83-5.45-1.47-6.92-.73-6.92-.73l-.11-.12A3.07,3.07,0,0,1,63.71,246.68Z" style="fill:#fff;opacity:0.30000000000000004"></path><path d="M83.76,253.54c-2.36-.36-10.43-1.6-15-2.84-5.06-1.37-6.56-.78-6.58-.77l-.31.13-.52-.49v-.21a3.59,3.59,0,0,1,2.19-3.15h0c1.73-.69,6.46,1.2,7.7,2.13.87.65,5.27,1.94,8.49,2.89l2.4.71c.64.19,1.27.41,1.89.63Zm-20.4-4.75a22.41,22.41,0,0,1,5.63.94c2.1.57,4.93,1.13,7.61,1.62a28.84,28.84,0,0,1-6-2.21c-1.15-.86-5.52-2.49-6.73-2h0a2.64,2.64,0,0,0-1.49,1.71A7.75,7.75,0,0,1,63.36,248.79Z" style="fill:#263238"></path><path d="M97.57,240.05s3.24.89,7.36,2.06,8.84,4,9.43,8.1-1.48,5.6-5.75,7.07-9.86,3.24-13.69,1.91-9.57-5.59-9.86-10.45,1.32-6.63,4.71-8.1S97.57,240.05,97.57,240.05Z" style="fill:#73AFA1"></path><path d="M98,260.15a10.14,10.14,0,0,1-3.27-.48c-3.93-1.36-9.89-5.77-10.2-10.9s1.6-7.1,5-8.59,7.91-.65,8.1-.62h0s3.25.88,7.37,2.06c4.32,1.24,9.15,4.12,9.78,8.51s-1.65,6.09-6.07,7.61C106.16,258.65,101.82,260.15,98,260.15Zm-3.52-19.86a11.73,11.73,0,0,0-4.54.81c-3.15,1.37-4.7,2.92-4.41,7.61.27,4.47,5.7,8.69,9.53,10s10-.77,13.36-1.91c4.18-1.44,6-2.73,5.41-6.53s-5.23-6.59-9.06-7.68-7.07-2-7.34-2.06A16.91,16.91,0,0,0,94.51,240.29Z" style="fill:#263238"></path><path d="M92,181.62s1.45,5.8-.22,9.38-5.92,5.8-10.16,5.58-6.26-2.12-6.7-4.47,1-5.8,1-5.8a10.76,10.76,0,0,1-7.14,2,13.75,13.75,0,0,1-7.82-3l-4.24-3.13s5.69-2.56,9.49-2.68,16.64-.11,18.87-.11S89.27,177.82,92,181.62Z" style="fill:#73AFA1"></path><path d="M82.16,197.1l-.62,0c-5.48-.29-6.84-3.18-7.16-4.87a10.75,10.75,0,0,1,.54-4.71,10.84,10.84,0,0,1-6.25,1.31,14.17,14.17,0,0,1-8.06-3.11l-4.93-3.63.78-.35c.24-.11,5.83-2.61,9.68-2.73,3.44-.1,14.35-.11,18.89-.11a8.79,8.79,0,0,0,1.41-.15c1.72-.28,3.67-.59,5.92,2.6l.08.17c.06.24,1.47,6-.26,9.71C90.53,194.74,86.47,197.1,82.16,197.1Zm-5.09-12.37-.74,1.77s-1.38,3.35-1,5.52c.46,2.43,2.68,3.87,6.23,4.06,4.13.23,8.12-2,9.69-5.3,1.47-3.13.38-8.22.21-8.95-1.87-2.6-3.27-2.38-4.89-2.11a9.94,9.94,0,0,1-1.57.16c-4.53,0-15.44,0-18.86.11-2.83.09-6.82,1.61-8.5,2.3l3.54,2.61a13.18,13.18,0,0,0,7.57,2.92,10.3,10.3,0,0,0,6.78-1.91Z" style="fill:#263238"></path><path d="M92,181.62s.21.84.38,2.09a9.09,9.09,0,0,0-1.36,1.2s-.92-1.07-3.22-.31a30,30,0,0,1-5.37,1.08,61.55,61.55,0,0,0-7,2.13c.26-.88.52-1.5.52-1.5a9.26,9.26,0,0,1-1.22.76l-.55-.63s6.13-5.37,6.59-5.37l3.38-1.68h1C87.26,179.38,89.27,177.82,92,181.62Z" style="fill:#263238"></path><path d="M74.58,188.63l.29-1a1.21,1.21,0,0,0,0-.18l0,0-.35.19-1.15-1.3.38-.33c4.92-4.32,6.25-5.24,6.7-5.44h0L84,178.89h1a8.79,8.79,0,0,0,1.41-.15c1.72-.28,3.67-.59,5.92,2.6l.08.17a20.45,20.45,0,0,1,.39,2.14l0,.3-.25.17a10.53,10.53,0,0,0-1.28,1.13l-.38.43-.37-.44s-.77-.79-2.69-.15a16.19,16.19,0,0,1-3.43.77c-.55.08-1.17.16-2,.32a62.61,62.61,0,0,0-7,2.11Zm2.48-3.89-.73,1.76s-.08.19-.19.5a51.33,51.33,0,0,1,6.15-1.81c.85-.17,1.49-.25,2-.33a14.89,14.89,0,0,0,3.26-.73,3.92,3.92,0,0,1,3.33.11c.21-.2.51-.47.87-.76-.12-.82-.25-1.43-.3-1.65-1.87-2.6-3.27-2.38-4.89-2.11a9.94,9.94,0,0,1-1.57.16h-.84l-3.41,1.69c-.54.3-3.16,2.47-5.68,4.66a5.29,5.29,0,0,0,.46-.32Z" style="fill:#263238"></path><path d="M102.45,182.51a70.62,70.62,0,0,0,7.48,2.46,23.35,23.35,0,0,0,3.46.67s-4.69,4.91-9.27,6.47-9.38-1.78-11.16-4.24-3.8-5.58-3.8-5.58a7.08,7.08,0,0,1,5.36-2.35C98.21,179.83,102.45,182.51,102.45,182.51Z" style="fill:#73AFA1"></path><path d="M101.67,193a12.23,12.23,0,0,1-9.12-4.85c-1.77-2.44-3.79-5.57-3.81-5.6l-.19-.3.21-.27a7.52,7.52,0,0,1,5.75-2.55c3.63-.11,7.68,2.32,8.16,2.62a70.5,70.5,0,0,0,7.37,2.42,25.69,25.69,0,0,0,3.36.66l1.11,0-.76.8c-.19.21-4.82,5-9.47,6.61A8.14,8.14,0,0,1,101.67,193ZM89.79,182.33c.55.86,2.14,3.28,3.57,5.25,1.81,2.48,6.42,5.48,10.6,4.06,3.39-1.16,6.9-4.26,8.36-5.65-.53-.1-1.33-.27-2.5-.54a70.36,70.36,0,0,1-7.55-2.47l-.09,0s-4.15-2.59-7.64-2.49A6.83,6.83,0,0,0,89.79,182.33Z" style="fill:#263238"></path><path d="M107.84,183.84a8.57,8.57,0,0,1-4.6,1.22c-3.22.16-8-3.06-8-3.06s5.09-.52,6.14,0S107.84,183.84,107.84,183.84Z" style="fill:#263238"></path><path d="M103,185.57c-3.33,0-7.84-3-8-3.16l-1.14-.77,1.37-.14c.88-.09,5.29-.5,6.41.05.82.4,4.85,1.43,6.34,1.8l1,.25-.81.63c-.06.05-1.55,1.17-4.89,1.33Zm-6.2-3.2c1.6.91,4.37,2.3,6.4,2.19a10.79,10.79,0,0,0,3.17-.57,46.72,46.72,0,0,1-5.21-1.55A15.4,15.4,0,0,0,96.82,182.37Z" style="fill:#263238"></path><path d="M94.52,179.94a11.58,11.58,0,0,1,4,.72l.28,1.49a21.63,21.63,0,0,0-5.06.77,8.55,8.55,0,0,0-2.76,2,1.22,1.22,0,0,0-.18-.16c-.93-1.38-1.63-2.46-1.63-2.46A7.08,7.08,0,0,1,94.52,179.94Z" style="fill:#263238"></path><path d="M91,185.67l-.37-.44-.09-.07-.12-.13c-.94-1.39-1.64-2.47-1.64-2.47l-.19-.3.21-.27a7.54,7.54,0,0,1,5.75-2.55h0a12,12,0,0,1,4.16.74l.27.1.45,2.34-.58,0a21.31,21.31,0,0,0-4.9.73,8.1,8.1,0,0,0-2.57,1.86Zm-1.17-3.34c.24.37.67,1,1.21,1.84a8.27,8.27,0,0,1,2.54-1.72,19,19,0,0,1,4.65-.77l-.12-.64a10.53,10.53,0,0,0-3.53-.6h0A6.83,6.83,0,0,0,89.79,182.33Z" style="fill:#263238"></path><path d="M95.53,167.77s3.23-5.25,7.7-6.92,9.83-1.57,10.72-1.23,0,5.36-1.34,7.93-7.82,4.8-11.72,5.58-8.16,1.79-8,0S95.53,167.77,95.53,167.77Z" style="fill:#73AFA1"></path><path d="M95.53,167.77s3.23-5.25,7.7-6.92,9.83-1.57,10.72-1.23,0,5.36-1.34,7.93-7.82,4.8-11.72,5.58-8.16,1.79-8,0S95.53,167.77,95.53,167.77Z" style="fill:#fff;opacity:0.30000000000000004"></path><path d="M94.58,174.63a2.69,2.69,0,0,1-1.81-.48,1.2,1.2,0,0,1-.42-1.05c.11-1.86,2.44-5.17,2.76-5.61s3.45-5.42,7.94-7.11,10.11-1.59,11.08-1.23a.89.89,0,0,1,.52.58c.55,1.42-.47,5.88-1.6,8.05-1.45,2.79-8.17,5.06-12.07,5.84l-.88.18A32.36,32.36,0,0,1,94.58,174.63Zm17.3-14.73a25.72,25.72,0,0,0-8.47,1.42C99.15,162.91,96,168,96,168l0,0c-.69,1-2.5,3.75-2.59,5.1a.29.29,0,0,0,.08.24c.69.59,4-.08,6.48-.58l.89-.18c3.87-.77,10.16-3,11.38-5.32,1.32-2.55,1.91-6.76,1.53-7.28A7.55,7.55,0,0,0,111.88,159.9Z" style="fill:#263238"></path><path d="M95.75,162.3a7.07,7.07,0,0,0-1.34-5.7c-2.12-2.9-4.36-6-5.25-5.24s-6.25,6-6.92,9a48.81,48.81,0,0,0-.9,5.92A6.93,6.93,0,0,0,85,170.67c2.9,1.23,6.36-.33,8.26-2.68A14,14,0,0,0,95.75,162.3Z" style="fill:#73AFA1"></path><path d="M95.75,162.3a7.07,7.07,0,0,0-1.34-5.7c-2.12-2.9-4.36-6-5.25-5.24s-6.25,6-6.92,9a48.81,48.81,0,0,0-.9,5.92A6.93,6.93,0,0,0,85,170.67c2.9,1.23,6.36-.33,8.26-2.68A14,14,0,0,0,95.75,162.3Z" style="fill:#fff;opacity:0.30000000000000004"></path><path d="M87.2,171.61a6,6,0,0,1-2.37-.48,7.36,7.36,0,0,1-4-4.69l0-.08v-.08a48.06,48.06,0,0,1,.9-6c.7-3.15,6.11-8.46,7.08-9.31a1,1,0,0,1,.78-.24c1.15.13,2.66,2.08,5,5.28l.21.29a7.58,7.58,0,0,1,1.43,6.1,14.48,14.48,0,0,1-2.56,5.9A8.78,8.78,0,0,1,87.2,171.61Zm-5.35-5.34a6.43,6.43,0,0,0,3.37,3.94c2.73,1.15,6-.44,7.68-2.53a13.73,13.73,0,0,0,2.36-5.46v-.05A6.52,6.52,0,0,0,94,156.9l-.21-.29c-1.28-1.74-3.63-5-4.32-4.88-.77.69-6.11,5.89-6.75,8.78A47.55,47.55,0,0,0,81.85,166.27Z" style="fill:#263238"></path><path d="M75.87,179.38S69,176,67.61,173.24s-6.7-9.27-7.82-11.16-1.56-2.8-.44-3.13,7.48,1.45,10.38,2.57,3.69,2.68,3.69,2.68-.12-2.91-.12-5,2.35.56,6.15,3.69a26.26,26.26,0,0,1,6.36,7.81c.11.45-5.25.45-5.58,2.68s1.11,4.58,1.56,5.81.45,1.9-1.9,1.9A6.27,6.27,0,0,1,75.87,179.38Z" style="fill:#73AFA1"></path><path d="M75.87,179.38S69,176,67.61,173.24s-6.7-9.27-7.82-11.16-1.56-2.8-.44-3.13,7.48,1.45,10.38,2.57,3.69,2.68,3.69,2.68-.12-2.91-.12-5,2.35.56,6.15,3.69a26.26,26.26,0,0,1,6.36,7.81c.11.45-5.25.45-5.58,2.68s1.11,4.58,1.56,5.81.45,1.9-1.9,1.9A6.27,6.27,0,0,1,75.87,179.38Z" style="fill:#fff;opacity:0.30000000000000004"></path><path d="M79.89,181.56a6.73,6.73,0,0,1-4.31-1.76c-.78-.39-7.08-3.55-8.42-6.34a62.29,62.29,0,0,0-5-7.26c-1.25-1.67-2.34-3.11-2.79-3.87-.85-1.46-1.37-2.39-1.08-3.11a1.3,1.3,0,0,1,.92-.75c1.37-.41,8.2,1.61,10.71,2.58a9.36,9.36,0,0,1,3,1.74c0-1-.07-2.45-.07-3.62,0-.23,0-.93.56-1.18.8-.36,1.89.58,4,2.46.7.61,1.5,1.31,2.36,2a26.25,26.25,0,0,1,6.54,8.08l0,.21-.13.23c-.19.3-.58.37-1.53.55-1.32.25-3.79.71-4,1.89A8.59,8.59,0,0,0,81.83,178c.17.38.33.73.43,1a2,2,0,0,1,0,1.85C82,181.34,81.23,181.56,79.89,181.56ZM59.76,159.4a1,1,0,0,0-.27,0c-.18,0-.27.11-.28.15-.12.31.59,1.52,1,2.24S61.71,164,63,165.6A60.83,60.83,0,0,1,68.06,173c1,2.16,6.15,5,8,5.9l.13.1a5.86,5.86,0,0,0,3.67,1.53c1.3,0,1.55-.22,1.6-.29s-.1-.75-.17-.94-.24-.58-.4-.94a9.4,9.4,0,0,1-1.19-5.11c.28-1.88,3.1-2.41,4.78-2.72l.64-.13a28.13,28.13,0,0,0-6-7.19c-.88-.72-1.68-1.42-2.39-2a16.07,16.07,0,0,0-2.92-2.27,1.25,1.25,0,0,0,0,.24c0,2.09.11,5,.12,5l.08,2.31-1-2.07A6.51,6.51,0,0,0,69.55,162C66.64,160.86,61.23,159.4,59.76,159.4Zm14.09-.56Z" style="fill:#263238"></path><path d="M76.19,174.71c-1-1-1.69-4.35-1.93-5.74A23.58,23.58,0,0,0,73,164.39l.93-.39a25.28,25.28,0,0,1,1.37,4.8c.52,3,1.2,4.76,1.65,5.2Z" style="fill:#263238"></path><path d="M127.24,172.68s1.34-1.23-3-1.78a26,26,0,0,0-11,1c-2.79.9-3.35,1.23-7,2.68s-8.59,3.69-9.26,5.14,0,1.9,0,1.9a20,20,0,0,0,6.69.22C106.69,181.28,125.34,178,127.24,172.68Z" style="fill:#73AFA1"></path><path d="M127.24,172.68s1.34-1.23-3-1.78a26,26,0,0,0-11,1c-2.79.9-3.35,1.23-7,2.68s-8.59,3.69-9.26,5.14,0,1.9,0,1.9a20,20,0,0,0,6.69.22C106.69,181.28,125.34,178,127.24,172.68Z" style="fill:#fff;opacity:0.30000000000000004"></path><path d="M101.07,182.54a21.58,21.58,0,0,1-4.31-.44l-.17-.07c-.11-.07-1-.73-.18-2.52s6.32-4.13,9.54-5.39l2.66-1.07a46.11,46.11,0,0,1,4.41-1.62,26.15,26.15,0,0,1,11.27-1c2.21.28,3.35.78,3.6,1.55a1.09,1.09,0,0,1-.22,1c-1.76,4.53-13.92,7.58-23.85,9.35l-.17,0A14.18,14.18,0,0,1,101.07,182.54Zm-3.94-1.38a19.29,19.29,0,0,0,6.35.19l.17,0c13.56-2.42,22-5.63,23.12-8.8l0-.12.08-.08c0-.07-.15-.6-2.73-.93a25.27,25.27,0,0,0-10.84,1c-1.92.61-2.77,1-4.33,1.59l-2.67,1.08c-5,2-8.54,3.89-9,4.88C97,180.68,97.06,181,97.13,181.16Z" style="fill:#263238"></path><path d="M92.73,181.73s5.92,0,7.82-.67a29.55,29.55,0,0,0,10-7c2.79-3.35,5.47-8.15,4.13-8.15s-11.17,1.57-15.3,4.13a31.14,31.14,0,0,1-5.91,3.13s-6.48,5.25-5.7,7S92.73,181.73,92.73,181.73Z" style="fill:#73AFA1"></path><path d="M92.73,181.73s5.92,0,7.82-.67a29.55,29.55,0,0,0,10-7c2.79-3.35,5.47-8.15,4.13-8.15s-11.17,1.57-15.3,4.13a31.14,31.14,0,0,1-5.91,3.13s-6.48,5.25-5.7,7S92.73,181.73,92.73,181.73Z" style="fill:#fff;opacity:0.30000000000000004"></path><path d="M92.23,182.24c-1.25,0-4.13-.19-4.87-1.87-.86-2,4.25-6.34,5.84-7.63l.16-.09a30.17,30.17,0,0,0,5.81-3.07c4.24-2.64,14.23-4.21,15.56-4.21a.8.8,0,0,1,.76.47c.66,1.4-2.61,6.23-4.51,8.5a30.11,30.11,0,0,1-10.26,7.19c-1.93.68-7.58.7-8,.7Zm1.53-8.67c-3,2.42-5.85,5.54-5.48,6.39.52,1.2,3.44,1.32,4.43,1.27h0c.06,0,5.86,0,7.65-.64a29.25,29.25,0,0,0,9.84-6.89c2.53-3,4.35-6.43,4.37-7.32-1.63.09-11,1.61-14.89,4.05A33.75,33.75,0,0,1,93.76,173.57Z" style="fill:#263238"></path><path d="M100.55,181.06c-1.58.56-6,.65-7.37.67a7.59,7.59,0,0,0,.55-1.27c0-.61,1.53-4.14,2-4.29s.77.46,3.68,1.68a8.77,8.77,0,0,0,6.14-.15l.11.57A27.32,27.32,0,0,1,100.55,181.06Z" style="fill:#263238"></path><path d="M92.43,182.23l.28-.69c.1-.23.21-.44.31-.64a2.74,2.74,0,0,0,.21-.46c0-.59,1.51-4.47,2.34-4.75.44-.14.76,0,1.29.35a21.28,21.28,0,0,0,2.74,1.35,8.31,8.31,0,0,0,5.74-.15l.57-.24.3,1.5-.28.18a26.89,26.89,0,0,1-5.21,2.85h0c-1.62.57-5.81.68-7.54.7Zm3.48-5.57a15.06,15.06,0,0,0-1.68,3.8,1.62,1.62,0,0,1-.25.75,30.14,30.14,0,0,0,6.4-.62h0a23.27,23.27,0,0,0,3.78-2,8.38,8.38,0,0,1-5-.33,21.81,21.81,0,0,1-2.85-1.4A4.71,4.71,0,0,0,95.91,176.66Z" style="fill:#263238"></path><path d="M100.77,179.61a74.79,74.79,0,0,1,11.62-4.14c4.69-1,9.26-.22,12.17-1.45s3.24-2.12,3.24-1.34-5.81,6.7-9.5,8.82-7.81,2.57-12.61,2.24-8.82-1.45-8.82-2.12S100.77,179.61,100.77,179.61Z" style="fill:#73AFA1"></path><path d="M108.38,184.34c-.87,0-1.78,0-2.73-.1-2.41-.17-9.28-1-9.28-2.62,0-.28,0-1,4.22-2.48A72.51,72.51,0,0,1,112.28,175a36.74,36.74,0,0,1,6.36-.64,17.18,17.18,0,0,0,5.72-.79,16,16,0,0,0,2.54-1.32c.45-.28.74-.46,1.07-.28a.75.75,0,0,1,.33.72c0,1.23-6.47,7.37-9.75,9.26A19.59,19.59,0,0,1,108.38,184.34ZM97.5,181.6c.8.47,3.9,1.34,8.22,1.64,5.29.37,9.09-.3,12.34-2.17a41.91,41.91,0,0,0,8.58-7.51,17.86,17.86,0,0,1-1.89.92,17.71,17.71,0,0,1-6.07.87,36.29,36.29,0,0,0-6.19.61,75.41,75.41,0,0,0-11.51,4.1l0,0A16.74,16.74,0,0,0,97.5,181.6Zm29.8-9Z" style="fill:#263238"></path><path d="M86.59,170.23a65.16,65.16,0,0,0,5.47-6c2.13-2.79,3.69-5.7,5.14-4.8s4.13,4.91,4.24,8.93-2.56,5.92-5.69,7S88.16,174.92,86.59,170.23Z" style="fill:#73AFA1"></path><path d="M86.59,170.23a65.16,65.16,0,0,0,5.47-6c2.13-2.79,3.69-5.7,5.14-4.8s4.13,4.91,4.24,8.93-2.56,5.92-5.69,7S88.16,174.92,86.59,170.23Z" style="fill:#fff;opacity:0.30000000000000004"></path><path d="M93.69,176.21a7.63,7.63,0,0,1-3.3-.77,8.52,8.52,0,0,1-4.27-5.06l-.1-.29.22-.22a65.92,65.92,0,0,0,5.43-6c.41-.54.8-1.09,1.18-1.62C94.48,160,95.9,158,97.46,159c1.71,1.05,4.37,5.32,4.48,9.34.1,3.58-1.87,6-6,7.52A6.45,6.45,0,0,1,93.69,176.21Zm-6.52-5.85a7.41,7.41,0,0,0,3.66,4.18,6.19,6.19,0,0,0,4.75.35c3.75-1.34,5.45-3.42,5.36-6.55-.1-3.82-2.65-7.69-4-8.52-.77-.47-2,1.23-3.28,3-.38.53-.78,1.09-1.2,1.64A62.58,62.58,0,0,1,87.17,170.36Z" style="fill:#263238"></path><path d="M84.69,183a87,87,0,0,1-8.15,3.57c-4.46,1.67-9.27-.22-11.16-2.46a72.81,72.81,0,0,1-5.7-8A2.19,2.19,0,0,1,61,173.47c1.12-.45,4.58.89,5.47,1.56s5.81,2,8.38,2.79,5.13,2,5.58,2.12S84.92,181.17,84.69,183Z" style="fill:#73AFA1"></path><path d="M73,187.66a10.84,10.84,0,0,1-8-3.26,71.08,71.08,0,0,1-5.78-8.17,2.17,2.17,0,0,1,.07-1.67A2.83,2.83,0,0,1,60.84,173c1.34-.54,5,.91,6,1.63.64.48,4.11,1.5,6.41,2.17l1.81.54c1.73.53,3.43,1.24,4.55,1.71.44.19.9.38,1,.41.5.12,4.9,1.29,4.62,3.56l0,.26-.24.12a86.3,86.3,0,0,1-8.2,3.6A10.67,10.67,0,0,1,73,187.66ZM61.6,173.87a1.07,1.07,0,0,0-.39.06,1.82,1.82,0,0,0-1,1,1.23,1.23,0,0,0-.07.89,75.06,75.06,0,0,0,5.62,7.91,10.15,10.15,0,0,0,10.61,2.31c3.68-1.38,6.87-2.94,7.81-3.41-.24-1-2.68-1.93-3.85-2.22-.18-.05-.5-.18-1.16-.46-1.1-.46-2.77-1.16-4.45-1.67l-1.8-.54c-3.37-1-6-1.79-6.73-2.33A11.37,11.37,0,0,0,61.6,173.87Z" style="fill:#263238"></path><path d="M61,173.47c1.12-.45,4.58.89,5.47,1.56s5.81,2,8.38,2.79c.47.14.95.3,1.41.47-1.9-.28-7.9-1.21-11.35-2.15-4.13-1.11-5.25-.55-5.25-.55l-.09-.09A2.33,2.33,0,0,1,61,173.47Z" style="fill:#73AFA1"></path><path d="M61,173.47c1.12-.45,4.58.89,5.47,1.56s5.81,2,8.38,2.79c.47.14.95.3,1.41.47-1.9-.28-7.9-1.21-11.35-2.15-4.13-1.11-5.25-.55-5.25-.55l-.09-.09A2.33,2.33,0,0,1,61,173.47Z" style="fill:#fff;opacity:0.30000000000000004"></path><path d="M76.21,178.79c-1.8-.27-7.93-1.22-11.41-2.16-3.77-1-4.9-.59-4.91-.59l-.31.12-.49-.45v-.21a2.87,2.87,0,0,1,1.75-2.5h0c1.34-.54,5,.91,6,1.63.64.48,4.11,1.5,6.41,2.17l1.81.54q.73.22,1.44.48Zm-15.46-3.85a17.36,17.36,0,0,1,4.31.72c1.06.29,2.38.58,3.74.85a11.74,11.74,0,0,1-2.61-1.08c-.93-.7-4.17-1.83-5-1.5a1.82,1.82,0,0,0-1,1A4.16,4.16,0,0,1,60.75,174.94Z" style="fill:#263238"></path><path d="M86.7,168.44s2.46.67,5.59,1.56,6.7,3,7.14,6.14-1.11,4.25-4.35,5.36S87.6,184,84.69,183s-7.25-4.25-7.48-7.93,1-5,3.58-6.14A11.5,11.5,0,0,1,86.7,168.44Z" style="fill:#73AFA1"></path><path d="M87.08,183.82a7.79,7.79,0,0,1-2.55-.39c-3-1-7.58-4.43-7.82-8.37s1.24-5.48,3.88-6.63A11.86,11.86,0,0,1,86.8,168h0s2.45.67,5.58,1.56c3.31.95,7,3.17,7.51,6.55s-1.27,4.73-4.69,5.91A26.85,26.85,0,0,1,87.08,183.82Zm-2.7-15.08a8.63,8.63,0,0,0-3.4.61c-2.33,1-3.48,2.16-3.27,5.65.2,3.34,4.28,6.49,7.15,7.48s7.56-.59,10.06-1.45c3.1-1.07,4.42-2,4-4.81s-3.92-4.92-6.79-5.74-5.33-1.49-5.56-1.55A12.13,12.13,0,0,0,84.38,168.74Z" style="fill:#263238"></path><path d="M380.48,275.14a202.06,202.06,0,0,1-8.38-56.26c0-13.73,1.63-21.76,1.7-22.09l2.94.61c-.07.31-4.45,37.91,8.6,82.38Z" style="fill:#263238"></path><path d="M377.58,212.46s1.91,7.65-.3,12.36-7.8,7.66-13.4,7.36-8.24-2.79-8.83-5.88,1.33-7.66,1.33-7.66a14.19,14.19,0,0,1-9.43,2.65c-5.3-.59-7.51-1.91-10.3-4l-5.6-4.12s7.51-3.38,12.52-3.53,21.93-.15,24.88-.15S374,207.45,377.58,212.46Z" style="fill:#73AFA1"></path><path d="M364.66,232.71l-.8,0c-7.12-.37-8.88-4.1-9.3-6.29a14.44,14.44,0,0,1,.83-6.51,14.23,14.23,0,0,1-8.49,1.91c-5.51-.62-7.75-2-10.55-4.07l-6.28-4.63.78-.35c.31-.14,7.65-3.43,12.7-3.58,4.53-.14,18.92-.15,24.9-.15a12.52,12.52,0,0,0,1.89-.2c2.21-.36,4.73-.77,7.65,3.36l.07.16c.08.32,1.93,7.89-.32,12.71C375.58,229.63,370.28,232.71,364.66,232.71Zm-7.08-15.65-.74,1.77s-1.85,4.47-1.3,7.37c.63,3.29,3.6,5.23,8.37,5.49,5.52.3,10.83-2.62,12.92-7.08,2-4.23.48-11.08.28-11.94-2.52-3.54-4.42-3.23-6.61-2.88a12.49,12.49,0,0,1-2.05.22c-6,0-20.36,0-24.87.15-3.91.11-9.48,2.29-11.53,3.15l4.89,3.6c2.67,2,4.81,3.3,10.07,3.88a13.74,13.74,0,0,0,9.06-2.54Z" style="fill:#263238"></path><path d="M377.58,212.46a27.22,27.22,0,0,1,.5,2.75,12.25,12.25,0,0,0-1.8,1.59s-1.21-1.42-4.25-.41-3.84.81-7.08,1.42a81.1,81.1,0,0,0-9.27,2.82,20.76,20.76,0,0,1,.7-2,12.54,12.54,0,0,1-1.61,1l-.74-.83s8.09-7.08,8.7-7.08l4.45-2.22h1.27C371.39,209.51,374,207.45,377.58,212.46Z" style="fill:#263238"></path><path d="M354.92,221.44l.29-1c.06-.21.13-.42.19-.61l-.4.22-.35.18-1.33-1.49.38-.34c6.63-5.79,8.29-6.92,8.81-7.15h0l4.73-2.28h1.21a12.52,12.52,0,0,0,1.89-.2c2.21-.36,4.73-.77,7.65,3.36l.07.16s.29,1.17.51,2.81l0,.3-.24.18a11.69,11.69,0,0,0-1.72,1.51l-.38.43-.37-.44s-1.08-1.13-3.71-.25a20.87,20.87,0,0,1-4.5,1c-.72.1-1.54.21-2.64.42a78.77,78.77,0,0,0-9.19,2.8Zm2.65-4.37-.73,1.76s-.16.38-.37,1a69.58,69.58,0,0,1,8.39-2.5c1.13-.21,2-.33,2.69-.43a19.86,19.86,0,0,0,4.32-1c2.34-.78,3.73-.22,4.37.2a12.61,12.61,0,0,1,1.3-1.13c-.17-1.19-.36-2.05-.43-2.32-2.52-3.54-4.42-3.23-6.61-2.88a12.49,12.49,0,0,1-2.05.22h-1.14l-4.51,2.23c-.69.34-4.56,3.57-8.06,6.62l.14.16a13,13,0,0,0,1.19-.77Z" style="fill:#263238"></path><path d="M391.42,213.63a91.94,91.94,0,0,0,9.86,3.24,30.68,30.68,0,0,0,4.57.89s-6.19,6.47-12.22,8.54-12.37-2.36-14.73-5.6-5-7.36-5-7.36a9.28,9.28,0,0,1,7.06-3.09C385.82,210.1,391.42,213.63,391.42,213.63Z" style="fill:#73AFA1"></path><path d="M390.38,227.33c-5,0-9.71-3.35-11.88-6.34-2.34-3.21-5-7.34-5-7.38l-.18-.29.21-.28a9.73,9.73,0,0,1,7.45-3.29c4.76-.14,10.12,3.08,10.69,3.43a90.69,90.69,0,0,0,9.75,3.21,37.5,37.5,0,0,0,4.46.87l1.13,0-.77.81c-.26.27-6.34,6.59-12.42,8.67A10.68,10.68,0,0,1,390.38,227.33Zm-15.86-14c.67,1,2.84,4.35,4.79,7,2.4,3.31,8.57,7.32,14.15,5.41,4.69-1.6,9.54-6,11.32-7.71-.7-.12-1.83-.34-3.61-.75a90.39,90.39,0,0,1-9.93-3.26l-.09,0s-5.52-3.44-10.17-3.31A9.27,9.27,0,0,0,374.52,213.38Z" style="fill:#263238"></path><path d="M398.53,215.38s-1.82,1.42-6.07,1.62S381.94,213,381.94,213s6.71-.67,8.09,0S398.53,215.38,398.53,215.38Z" style="fill:#263238"></path><path d="M392.16,217.51c-4.34,0-10.24-4-10.5-4.14l-1.14-.77,1.37-.14c.7-.07,6.89-.68,8.36,0a86.22,86.22,0,0,0,8.4,2.39l1,.24-.82.64c-.07.06-2,1.51-6.35,1.72Zm-8.69-4.19c2,1.2,6,3.32,9,3.18a13.87,13.87,0,0,0,4.7-.95,69.74,69.74,0,0,1-7.33-2.15C389.06,213,386,213.13,383.47,213.32Z" style="fill:#263238"></path><path d="M381,210.25a15,15,0,0,1,5.26.94l.37,2s-4.65.2-6.67,1a11.31,11.31,0,0,0-3.64,2.63,1.76,1.76,0,0,0-.24-.21c-1.23-1.83-2.14-3.25-2.14-3.25A9.28,9.28,0,0,1,381,210.25Z" style="fill:#263238"></path><path d="M376.27,217.56l-.37-.44h0a1.22,1.22,0,0,0-.15-.12l-.12-.13c-1.24-1.83-2.16-3.26-2.16-3.26l-.18-.29.21-.28a9.73,9.73,0,0,1,7.45-3.29h0a15.23,15.23,0,0,1,5.43,1l.28.09.53,2.82-.57,0c-.05,0-4.59.2-6.51,1a10.94,10.94,0,0,0-3.46,2.5Zm-1.75-4.18c.32.49,1,1.49,1.77,2.69a11.34,11.34,0,0,1,3.44-2.37,26,26,0,0,1,6.27-1l-.22-1.12a14,14,0,0,0-4.8-.82h0A9.27,9.27,0,0,0,374.52,213.38Z" style="fill:#263238"></path><path d="M382.29,194.2s4.27-6.92,10.16-9.13,12.95-2.06,14.13-1.62,0,7.07-1.77,10.45-10.3,6.34-15.45,7.37-10.75,2.35-10.61,0S382.29,194.2,382.29,194.2Z" style="fill:#73AFA1"></path><path d="M382.29,194.2s4.27-6.92,10.16-9.13,12.95-2.06,14.13-1.62,0,7.07-1.77,10.45-10.3,6.34-15.45,7.37-10.75,2.35-10.61,0S382.29,194.2,382.29,194.2Z" style="fill:#fff;opacity:0.30000000000000004"></path><path d="M381.09,203.08a3.62,3.62,0,0,1-2.34-.59,1.47,1.47,0,0,1-.49-1.26c.15-2.42,3.37-7,3.61-7.31s4.5-7.11,10.4-9.32c6.07-2.27,13.22-2.09,14.49-1.62a1.06,1.06,0,0,1,.6.67c.66,1.71-.49,7.39-2.1,10.49-1.89,3.62-10.7,6.6-15.81,7.62l-1.16.23A42,42,0,0,1,381.09,203.08Zm22.49-19.4a32.67,32.67,0,0,0-11,1.86c-5.65,2.12-9.86,8.85-9.91,8.92l0,0c-.91,1.28-3.32,5-3.44,6.81a.49.49,0,0,0,.16.44c1,.84,5.24,0,8.68-.73l1.17-.23c5.29-1.06,13.47-4,15.11-7.11,1.84-3.52,2.58-9.19,2-9.77A11.81,11.81,0,0,0,403.58,183.68Z" style="fill:#263238"></path><path d="M382.58,187a9.29,9.29,0,0,0-1.76-7.5c-2.8-3.83-5.75-8-6.92-6.92s-8.25,7.95-9.13,11.92a62,62,0,0,0-1.18,7.8,9.14,9.14,0,0,0,4.86,5.75c3.83,1.62,8.39-.45,10.89-3.54A18.35,18.35,0,0,0,382.58,187Z" style="fill:#73AFA1"></path><path d="M382.58,187a9.29,9.29,0,0,0-1.76-7.5c-2.8-3.83-5.75-8-6.92-6.92s-8.25,7.95-9.13,11.92a62,62,0,0,0-1.18,7.8,9.14,9.14,0,0,0,4.86,5.75c3.83,1.62,8.39-.45,10.89-3.54A18.35,18.35,0,0,0,382.58,187Z" style="fill:#fff;opacity:0.30000000000000004"></path><path d="M371.32,199.1a7.89,7.89,0,0,1-3.07-.61,9.61,9.61,0,0,1-5.15-6.08v-.16a64.12,64.12,0,0,1,1.19-7.88c.92-4.12,8-11.08,9.29-12.19a1.17,1.17,0,0,1,.9-.28c1.46.16,3.42,2.72,6.47,6.9l.28.38a9.77,9.77,0,0,1,1.85,7.91,18.7,18.7,0,0,1-3.34,7.72A11.38,11.38,0,0,1,371.32,199.1Zm-7.22-6.86a8.66,8.66,0,0,0,4.54,5.33c3.71,1.56,8-.52,10.32-3.39a18.23,18.23,0,0,0,3.13-7.28v-.05a8.9,8.9,0,0,0-1.69-7.08l-.28-.38c-2.07-2.84-4.65-6.37-5.77-6.49a.17.17,0,0,0-.14,0c-1,.91-8.11,7.81-9,11.66A61.82,61.82,0,0,0,364.1,192.24Z" style="fill:#263238"></path><path d="M356.38,209.51s-9.13-4.42-10.9-8.1-8.83-12.22-10.31-14.72-2.06-3.68-.58-4.12,9.86,1.91,13.69,3.38,4.86,3.54,4.86,3.54-.15-3.83-.15-6.63,3.09.74,8.1,4.86A34.65,34.65,0,0,1,369.48,198c.15.59-6.92.59-7.36,3.53s1.47,6,2.06,7.66.59,2.5-2.5,2.5A8.22,8.22,0,0,1,356.38,209.51Z" style="fill:#73AFA1"></path><path d="M356.38,209.51s-9.13-4.42-10.9-8.1-8.83-12.22-10.31-14.72-2.06-3.68-.58-4.12,9.86,1.91,13.69,3.38,4.86,3.54,4.86,3.54-.15-3.83-.15-6.63,3.09.74,8.1,4.86A34.65,34.65,0,0,1,369.48,198c.15.59-6.92.59-7.36,3.53s1.47,6,2.06,7.66.59,2.5-2.5,2.5A8.22,8.22,0,0,1,356.38,209.51Z" style="fill:#fff;opacity:0.30000000000000004"></path><path d="M361.68,212.22a8.7,8.7,0,0,1-5.59-2.29c-.94-.46-9.3-4.64-11.06-8.3-1.06-2.2-4.14-6.3-6.62-9.6-1.65-2.19-3.08-4.09-3.67-5.09-1.1-1.88-1.76-3.07-1.41-4a1.55,1.55,0,0,1,1.11-.89c1.79-.53,10.72,2.13,14,3.4a11.84,11.84,0,0,1,4.13,2.52c0-1.38-.1-3.46-.1-5.15,0-.28,0-1.12.64-1.41.93-.42,2.17.62,5.16,3.22.92.81,2,1.72,3.11,2.66A34.28,34.28,0,0,1,370,197.91l.06.21-.13.24c-.21.32-.62.41-1.91.65-1.92.36-5.12,1-5.37,2.62-.32,2.15.72,4.43,1.47,6.09.23.51.43.95.57,1.33a2.48,2.48,0,0,1,.08,2.29C364.3,212,363.39,212.22,361.68,212.22ZM335.12,183a1.33,1.33,0,0,0-.39,0c-.27.08-.43.18-.47.29-.19.48.66,1.93,1.34,3.1.57.95,2,2.82,3.61,5,2.63,3.51,5.62,7.48,6.72,9.77,1.67,3.48,10.57,7.82,10.66,7.86l.14.1a7.82,7.82,0,0,0,4.95,2.06c1.58,0,2.09-.24,2.23-.45s0-.84-.2-1.38c-.13-.35-.32-.78-.54-1.25-.81-1.78-1.91-4.22-1.55-6.65s4-3.05,6.17-3.46c.36-.07.77-.14,1-.21a36.26,36.26,0,0,0-8.07-9.71c-1.15-1-2.21-1.87-3.14-2.69-1.68-1.46-3.53-3.13-4.09-3.06a2.47,2.47,0,0,0-.05.5c0,2.76.14,6.57.15,6.61l.09,2.31-1-2.07s-1-1.92-4.59-3.29C344.17,184.91,337.12,183,335.12,183Z" style="fill:#263238"></path><path d="M356.91,203.24c-1.31-1.3-2.18-5.67-2.5-7.48a32,32,0,0,0-1.73-6.08l.92-.39a32.76,32.76,0,0,1,1.8,6.3c.6,3.47,1.47,6.2,2.21,6.94Z" style="fill:#263238"></path><path d="M424.1,200.68s1.77-1.62-4-2.36a34.12,34.12,0,0,0-14.58,1.33c-3.68,1.17-4.42,1.62-9.27,3.53S384.94,208,384.06,210s0,2.51,0,2.51a26.36,26.36,0,0,0,8.83.29C397,212,421.6,207.74,424.1,200.68Z" style="fill:#73AFA1"></path><path d="M424.1,200.68s1.77-1.62-4-2.36a34.12,34.12,0,0,0-14.58,1.33c-3.68,1.17-4.42,1.62-9.27,3.53S384.94,208,384.06,210s0,2.51,0,2.51a26.36,26.36,0,0,0,8.83.29C397,212,421.6,207.74,424.1,200.68Z" style="fill:#fff;opacity:0.30000000000000004"></path><path d="M389.59,213.52a28,28,0,0,1-5.64-.58l-.17-.07c-.13-.08-1.21-.89-.18-3.13s8.27-5.36,12.49-7c1.49-.58,2.6-1,3.51-1.41,2.08-.84,3.23-1.31,5.8-2.13a34.28,34.28,0,0,1,14.79-1.34c2.85.36,4.31,1,4.61,1.93a1.26,1.26,0,0,1-.26,1.18c-2.26,5.92-18.27,9.93-31.34,12.26l-.22,0A19.63,19.63,0,0,1,389.59,213.52ZM384.3,212a26.14,26.14,0,0,0,8.5.26l.22,0c18-3.2,29.11-7.47,30.61-11.71l0-.12.09-.08s.13-.14.09-.25-.37-.8-3.79-1.24a33.56,33.56,0,0,0-14.36,1.3c-2.53.81-3.66,1.27-5.72,2.11-.92.38-2,.83-3.52,1.42-6.74,2.65-11.32,5.15-11.95,6.51C384,211.32,384.19,211.84,384.3,212Z" style="fill:#263238"></path><path d="M378.61,212.6s7.8,0,10.3-.88,9.57-4.86,13.25-9.28,7.22-10.74,5.45-10.74-14.72,2.06-20.17,5.44-7.8,4.13-7.8,4.13-8.54,6.92-7.51,9.27S378.61,212.6,378.61,212.6Z" style="fill:#73AFA1"></path><path d="M378.61,212.6s7.8,0,10.3-.88,9.57-4.86,13.25-9.28,7.22-10.74,5.45-10.74-14.72,2.06-20.17,5.44-7.8,4.13-7.8,4.13-8.54,6.92-7.51,9.27S378.61,212.6,378.61,212.6Z" style="fill:#fff;opacity:0.30000000000000004"></path><path d="M377.93,213.12c-1.62,0-5.32-.24-6.26-2.38-1.12-2.57,6.18-8.67,7.65-9.86l.17-.09a41.28,41.28,0,0,0,7.69-4.07c5.57-3.46,18.69-5.52,20.43-5.52a.91.91,0,0,1,.86.52c.76,1.62-3,7.56-5.92,11-3.62,4.35-10.7,8.45-13.47,9.43-2.53.89-10,.91-10.46.91Zm1.95-11.41c-3.41,2.78-7.89,7.26-7.29,8.63.73,1.67,4.57,1.84,6,1.76h0c.07,0,7.74,0,10.14-.85,2.19-.77,9.28-4.62,13-9.13,3.63-4.35,6.14-9.22,5.78-10-1.46.06-14.49,2.09-19.85,5.43A43.44,43.44,0,0,1,379.88,201.71Z" style="fill:#263238"></path><path d="M388.91,211.72c-2.09.74-7.86.86-9.72.88a9.11,9.11,0,0,0,.73-1.67c0-.81,2-5.46,2.63-5.66s1,.61,4.85,2.22,8.09-.2,8.09-.2l.15.75A35.52,35.52,0,0,1,388.91,211.72Z" style="fill:#263238"></path><path d="M378.44,213.11l.29-.7c.12-.29.26-.57.39-.83a3.66,3.66,0,0,0,.3-.65c0-.67,2-5.8,3-6.13.51-.18.89,0,1.58.44A29.13,29.13,0,0,0,387.6,207c3.59,1.52,7.66-.18,7.7-.2l.56-.24.34,1.68-.28.19a36.41,36.41,0,0,1-6.84,3.73h0c-2.11.75-7.62.88-9.88.91Zm4.29-7.37h0a19.45,19.45,0,0,0-2.29,5.19A2.67,2.67,0,0,1,380,212s0,0,0,.05c2.29-.05,7-.21,8.76-.84h0a33.66,33.66,0,0,0,5.85-3.12,11.42,11.42,0,0,1-7.39-.17,30.7,30.7,0,0,1-3.74-1.85A2.77,2.77,0,0,0,382.73,205.74Z" style="fill:#263238"></path><path d="M389.21,209.81s9.13-4.13,15.31-5.45,12.22-.3,16.05-1.92,4.27-2.79,4.27-1.76-7.66,8.83-12.52,11.63-10.3,3.38-16.63,2.94-11.63-1.91-11.63-2.79S389.21,209.81,389.21,209.81Z" style="fill:#73AFA1"></path><path d="M399.23,215.88c-1.14,0-2.33,0-3.58-.13-3.79-.26-12.1-1.46-12.1-3.29,0-.31,0-1.24,5.47-3.12.51-.23,9.38-4.18,15.4-5.47a48.64,48.64,0,0,1,8.35-.83c3-.12,5.63-.22,7.6-1.06a22.15,22.15,0,0,0,3.38-1.76c.57-.36.88-.55,1.24-.36a.86.86,0,0,1,.35.82c0,1.46-8.15,9.4-12.77,12.06C408.86,214.88,404.65,215.88,399.23,215.88Zm-14.61-3.44c.77.64,5.18,1.9,11.1,2.31,7,.49,12-.4,16.35-2.87s10.34-8.49,11.91-10.62a23.76,23.76,0,0,1-3.22,1.64c-2.14.91-4.83,1-7.95,1.14a46.21,46.21,0,0,0-8.18.81c-6.06,1.3-15.12,5.37-15.22,5.41l0,0A19.67,19.67,0,0,0,384.62,212.44Z" style="fill:#263238"></path><path d="M370.51,197.44a85,85,0,0,0,7.21-7.95c2.8-3.68,4.86-7.51,6.78-6.33s5.44,6.47,5.59,11.77-3.38,7.81-7.51,9.28S372.57,203.62,370.51,197.44Z" style="fill:#73AFA1"></path><path d="M370.51,197.44a85,85,0,0,0,7.21-7.95c2.8-3.68,4.86-7.51,6.78-6.33s5.44,6.47,5.59,11.77-3.38,7.81-7.51,9.28S372.57,203.62,370.51,197.44Z" style="fill:#fff;opacity:0.30000000000000004"></path><path d="M379.87,205.17a9.77,9.77,0,0,1-4.28-1A11,11,0,0,1,370,197.6l-.1-.3.22-.22a84.11,84.11,0,0,0,7.17-7.9c.54-.72,1.06-1.44,1.56-2.14,2.11-2.95,3.94-5.5,5.87-4.31,2.22,1.37,5.69,6.93,5.83,12.19.13,4.64-2.43,7.83-7.84,9.76A8.46,8.46,0,0,1,379.87,205.17Zm-8.78-7.6a10,10,0,0,0,4.94,5.69,8.32,8.32,0,0,0,6.39.48c5-1.79,7.29-4.58,7.17-8.79-.14-5.1-3.55-10.26-5.35-11.37-1.15-.7-2.72,1.5-4.54,4-.5.7-1,1.43-1.58,2.16A84.75,84.75,0,0,1,371.09,197.57Z" style="fill:#263238"></path><path d="M368,214.22a110.59,110.59,0,0,1-10.75,4.71c-5.89,2.21-12.22-.29-14.72-3.24a93.86,93.86,0,0,1-7.51-10.6,2.89,2.89,0,0,1,1.76-3.38c1.48-.59,6,1.18,7.22,2.06s7.65,2.65,11,3.68,6.77,2.65,7.36,2.8S368.3,211.87,368,214.22Z" style="fill:#73AFA1"></path><path d="M352.55,220.27c-4.29,0-8.35-1.84-10.4-4.25a93.54,93.54,0,0,1-7.58-10.73,2.72,2.72,0,0,1,.08-2.07,3.62,3.62,0,0,1,2-2c1.72-.69,6.46,1.2,7.7,2.13.86.65,5.27,1.94,8.49,2.89l2.4.71a62.15,62.15,0,0,1,6,2.25c.65.27,1.2.5,1.36.54.65.16,6.33,1.67,6,4.52l0,.27-.23.12a116.53,116.53,0,0,1-10.81,4.73A13.85,13.85,0,0,1,352.55,220.27Zm-15-18.19a1.63,1.63,0,0,0-.59.09,2.65,2.65,0,0,0-1.4,1.43,1.72,1.72,0,0,0-.09,1.3,95.27,95.27,0,0,0,7.43,10.47c2.18,2.57,8.2,5.33,14.16,3.1,5-1.89,9.34-4,10.43-4.56-.19-1.46-3.53-2.76-5.22-3.18a13.39,13.39,0,0,1-1.5-.59c-1.46-.61-3.66-1.53-5.89-2.21l-2.38-.71c-4.42-1.3-7.88-2.35-8.81-3.05A15.19,15.19,0,0,0,337.57,202.08Z" style="fill:#263238"></path><path d="M336.79,201.71c1.48-.59,6,1.18,7.22,2.06s7.65,2.65,11,3.68c.63.19,1.26.4,1.87.62-2.51-.37-10.43-1.6-15-2.83-5.45-1.47-6.92-.74-6.92-.74l-.12-.11A3.09,3.09,0,0,1,336.79,201.71Z" style="fill:#73AFA1"></path><path d="M336.79,201.71c1.48-.59,6,1.18,7.22,2.06s7.65,2.65,11,3.68c.63.19,1.26.4,1.87.62-2.51-.37-10.43-1.6-15-2.83-5.45-1.47-6.92-.74-6.92-.74l-.12-.11A3.09,3.09,0,0,1,336.79,201.71Z" style="fill:#fff;opacity:0.30000000000000004"></path><path d="M356.84,208.56c-2.36-.35-10.44-1.6-15-2.84-5.07-1.37-6.57-.77-6.58-.76l-.31.13-.52-.49v-.21a3.6,3.6,0,0,1,2.2-3.15h0c1.72-.69,6.46,1.2,7.7,2.13.86.65,5.27,1.94,8.49,2.89l2.4.71c.63.19,1.27.41,1.88.63Zm-20.4-4.74a22.47,22.47,0,0,1,5.64.94c2.09.56,4.92,1.13,7.6,1.61a28,28,0,0,1-6-2.2c-1.15-.86-5.52-2.48-6.73-2a2.58,2.58,0,0,0-1.49,1.71A7.44,7.44,0,0,1,336.44,203.82Z" style="fill:#263238"></path><path d="M370.66,195.08s3.24.89,7.36,2.06,8.83,4,9.42,8.1-1.47,5.6-5.74,7.07-9.87,3.24-13.69,1.91-9.57-5.59-9.87-10.45,1.33-6.63,4.71-8.1S370.66,195.08,370.66,195.08Z" style="fill:#73AFA1"></path><path d="M371.12,215.18a9.94,9.94,0,0,1-3.28-.49c-3.93-1.36-9.89-5.76-10.2-10.89s1.6-7.1,5-8.59,7.92-.66,8.11-.62h0s3.24.88,7.37,2.06c4.31,1.24,9.15,4.12,9.78,8.51s-1.65,6.08-6.08,7.61C379.25,213.68,374.9,215.18,371.12,215.18Zm-3.53-19.86a11.73,11.73,0,0,0-4.54.81c-3.15,1.37-4.69,2.92-4.41,7.61.27,4.47,5.71,8.69,9.53,10s10.06-.77,13.37-1.91c4.18-1.45,5.95-2.73,5.41-6.53s-5.24-6.59-9.07-7.69-7.07-2-7.34-2.05A16.91,16.91,0,0,0,367.59,195.32Z" style="fill:#263238"></path></g></svg>