<svg xmlns="http://www.w3.org/2000/svg" viewBox="0 0 500 500"><g id="freepik--background-complete--inject-33"><rect y="382.4" width="500" height="0.25" style="fill:#ebebeb"></rect><rect x="416.78" y="398.49" width="33.12" height="0.25" style="fill:#ebebeb"></rect><rect x="322.53" y="401.21" width="8.69" height="0.25" style="fill:#ebebeb"></rect><rect x="396.59" y="389.21" width="19.19" height="0.25" style="fill:#ebebeb"></rect><rect x="52.46" y="390.89" width="43.19" height="0.25" style="fill:#ebebeb"></rect><rect x="104.56" y="390.89" width="6.33" height="0.25" style="fill:#ebebeb"></rect><rect x="131.47" y="395.11" width="93.68" height="0.25" style="fill:#ebebeb"></rect><path d="M237,337.8H43.91a5.71,5.71,0,0,1-5.7-5.71V60.66A5.71,5.71,0,0,1,43.91,55H237a5.71,5.71,0,0,1,5.71,5.71V332.09A5.71,5.71,0,0,1,237,337.8ZM43.91,55.2a5.46,5.46,0,0,0-5.45,5.46V332.09a5.46,5.46,0,0,0,5.45,5.46H237a5.47,5.47,0,0,0,5.46-5.46V60.66A5.47,5.47,0,0,0,237,55.2Z" style="fill:#ebebeb"></path><path d="M453.31,337.8H260.21a5.72,5.72,0,0,1-5.71-5.71V60.66A5.72,5.72,0,0,1,260.21,55h193.1A5.71,5.71,0,0,1,459,60.66V332.09A5.71,5.71,0,0,1,453.31,337.8ZM260.21,55.2a5.47,5.47,0,0,0-5.46,5.46V332.09a5.47,5.47,0,0,0,5.46,5.46h193.1a5.47,5.47,0,0,0,5.46-5.46V60.66a5.47,5.47,0,0,0-5.46-5.46Z" style="fill:#ebebeb"></path><rect x="187.88" y="237.18" width="67.79" height="12.96" style="fill:#e0e0e0"></rect><rect x="241.03" y="239.85" width="3.9" height="7.94" style="fill:#fafafa"></rect><rect x="247.7" y="239.85" width="3.9" height="7.94" style="fill:#ebebeb"></rect><circle cx="196.93" cy="243.63" r="4.1" style="fill:#f0f0f0"></circle><path d="M196,243.63a.52.52,0,0,1-.52.52.52.52,0,1,1,0-1A.52.52,0,0,1,196,243.63Z" style="fill:#e0e0e0"></path><path d="M199,243.63a.52.52,0,0,1-.52.52.52.52,0,1,1,0-1A.52.52,0,0,1,199,243.63Z" style="fill:#e0e0e0"></path><circle cx="208.69" cy="243.63" r="4.1" style="fill:#f0f0f0"></circle><path d="M207.71,243.63a.52.52,0,0,1-.52.52.52.52,0,1,1,0-1A.52.52,0,0,1,207.71,243.63Z" style="fill:#e0e0e0"></path><path d="M210.7,243.63a.52.52,0,0,1-.52.52.52.52,0,1,1,0-1A.52.52,0,0,1,210.7,243.63Z" style="fill:#e0e0e0"></path><circle cx="221.03" cy="243.63" r="4.1" style="fill:#f0f0f0"></circle><path d="M220.05,243.63a.52.52,0,0,1-.52.52.52.52,0,0,1,0-1A.52.52,0,0,1,220.05,243.63Z" style="fill:#e0e0e0"></path><path d="M223,243.63a.52.52,0,1,1-.51-.52A.51.51,0,0,1,223,243.63Z" style="fill:#e0e0e0"></path><rect x="289.47" y="80.39" width="96.9" height="162" style="fill:#f0f0f0"></rect><path d="M287.07,80.43v164H388.35v-164Zm5.36,6.35H383v26.61H292.43ZM383,239H292.43V119H383Z" style="fill:#e6e6e6"></path><polygon points="369.88 118.95 345.17 118.95 314.39 238.75 339.1 238.75 369.88 118.95" style="fill:#fafafa"></polygon><polygon points="340.39 86.78 322.84 86.78 309.34 113.39 326.89 113.39 340.39 86.78" style="fill:#fafafa"></polygon><polygon points="344.89 113.39 334.54 113.39 348.04 86.78 358.39 86.78 344.89 113.39" style="fill:#fafafa"></polygon><rect x="284.01" y="113.74" width="107.4" height="4.37" style="fill:#e0e0e0"></rect><rect x="284.01" y="121.28" width="107.4" height="4.37" style="fill:#e0e0e0"></rect><rect x="284.01" y="128.83" width="107.4" height="4.37" style="fill:#e0e0e0"></rect><rect x="284.01" y="136.37" width="107.4" height="4.37" style="fill:#e0e0e0"></rect><rect x="284.01" y="143.92" width="107.4" height="4.37" style="fill:#e0e0e0"></rect><rect x="284.01" y="106.19" width="107.4" height="4.37" style="fill:#e0e0e0"></rect><rect x="284.01" y="101.64" width="107.4" height="4.37" style="fill:#ebebeb"></rect><rect x="284.01" y="97.1" width="107.4" height="4.37" style="fill:#e0e0e0"></rect><rect x="284.01" y="92.34" width="107.4" height="4.37" style="fill:#ebebeb"></rect><rect x="284.01" y="78.49" width="107.4" height="4.37" style="fill:#e0e0e0"></rect><rect x="284.01" y="80.86" width="107.4" height="4.37" style="fill:#ebebeb"></rect><rect x="284.01" y="83.23" width="107.4" height="4.37" style="fill:#e0e0e0"></rect><rect x="284.01" y="85.6" width="107.4" height="4.37" style="fill:#ebebeb"></rect><rect x="284.01" y="87.97" width="107.4" height="4.37" style="fill:#e0e0e0"></rect><rect x="64.87" y="159.44" width="121.19" height="36.04" transform="translate(250.92 354.93) rotate(180)" style="fill:#e6e6e6"></rect><rect x="86.22" y="159.44" width="99.83" height="36.04" transform="translate(272.27 354.93) rotate(180)" style="fill:#f0f0f0"></rect><path d="M119.1,192.17H89.68V162.76H119.1Zm-28.42-1H118.1V163.76H90.68Z" style="fill:#ebebeb"></path><path d="M182.33,192.17H156.65V162.76h25.68Zm-24.68-1h23.68V163.76H157.65Z" style="fill:#ebebeb"></path><rect x="147.99" y="173.88" width="5.83" height="7.16" transform="translate(301.8 354.93) rotate(180)" style="fill:#fafafa"></rect><rect x="139.83" y="173.88" width="5.83" height="7.16" transform="translate(285.49 354.93) rotate(180)" style="fill:#fafafa"></rect><rect x="131.67" y="173.88" width="5.83" height="7.16" transform="translate(269.17 354.93) rotate(180)" style="fill:#fafafa"></rect><rect x="123.52" y="173.88" width="5.83" height="7.16" transform="translate(252.86 354.93) rotate(180)" style="fill:#fafafa"></rect><rect x="84.24" y="143" width="3" height="14.82" transform="translate(171.47 300.82) rotate(180)" style="fill:#e0e0e0"></rect><polygon points="77.84 157.15 93.63 157.15 94.47 159.44 76.99 159.44 77.84 157.15" style="fill:#e0e0e0"></polygon><rect x="73" y="124.69" width="25.47" height="22.14" transform="translate(171.47 271.52) rotate(180)" style="fill:#f5f5f5"></rect><rect x="166.77" y="143" width="3" height="14.82" transform="translate(336.54 300.82) rotate(180)" style="fill:#e0e0e0"></rect><polygon points="160.37 157.15 176.17 157.15 177.01 159.44 159.53 159.44 160.37 157.15" style="fill:#e0e0e0"></polygon><rect x="155.53" y="124.69" width="25.47" height="22.14" transform="translate(336.54 271.52) rotate(180)" style="fill:#f5f5f5"></rect><circle cx="120.65" cy="91.76" r="15.17" style="fill:#f0f0f0"></circle><circle cx="120.65" cy="91.76" r="12.9" transform="translate(10.75 196.15) rotate(-80.78)" style="fill:#fafafa"></circle><path d="M120,92.92a1,1,0,0,1-.49-.13l-6-3.38a1,1,0,0,1-.37-1.36,1,1,0,0,1,1.36-.38L119,90.21v-7.3a1,1,0,0,1,2,0v9a1,1,0,0,1-1,1Z" style="fill:#e0e0e0"></path><path d="M354,378.21a3.69,3.69,0,1,1-3.69-3.69A3.69,3.69,0,0,1,354,378.21Z" style="fill:#e0e0e0"></path><path d="M423.93,378.21a3.7,3.7,0,1,1-3.69-3.69A3.69,3.69,0,0,1,423.93,378.21Z" style="fill:#e0e0e0"></path><path d="M341.58,283.65h88.56a0,0,0,0,1,0,0v32.59a16.42,16.42,0,0,1-16.42,16.42H358a16.42,16.42,0,0,1-16.42-16.42V283.65A0,0,0,0,1,341.58,283.65Z" style="fill:#ebebeb"></path><path d="M358.12,283.65H413.6a0,0,0,0,1,0,0v14.29a16.42,16.42,0,0,1-16.42,16.42H374.53a16.42,16.42,0,0,1-16.42-16.42V283.65A0,0,0,0,1,358.12,283.65Z" style="fill:#f5f5f5"></path><rect x="359.71" y="332.65" width="4.95" height="41.86" style="fill:#e0e0e0"></rect><rect x="405.16" y="332.65" width="4.95" height="41.86" style="fill:#e0e0e0"></rect><rect x="350.06" y="374.52" width="70.17" height="3.96" style="fill:#f5f5f5"></rect><path d="M339.46,289.94h18.66v-6.29H339.46a3.15,3.15,0,0,0-3.15,3.15h0A3.14,3.14,0,0,0,339.46,289.94Z" style="fill:#e0e0e0"></path><path d="M432.26,289.94H413.6v-6.29h18.66a3.14,3.14,0,0,1,3.14,3.15h0A3.13,3.13,0,0,1,432.26,289.94Z" style="fill:#e0e0e0"></path></g><g id="freepik--Shadow--inject-33"><ellipse id="freepik--path--inject-33" cx="250" cy="416.24" rx="193.89" ry="11.32" style="fill:#f5f5f5"></ellipse></g><g id="freepik--character-5--inject-33"><polygon points="362.67 408.33 369.22 408.33 370.08 393.15 363.52 393.15 362.67 408.33" style="fill:#ce7a63"></polygon><polygon points="369.51 403.28 362.95 403.28 363.15 400.19 369.68 400.19 369.51 403.28" style="opacity:0.2"></polygon><path d="M363.12,407.57h6.29a.43.43,0,0,1,.41.45l.31,5.83a1.09,1.09,0,0,1-1,1.16c-2.19,0-3.24-.19-6-.19-1.7,0-8.94.21-11.29.21s-2.28-2.72-1.29-3c4.47-1.11,10-2.63,11.59-4.08A1.47,1.47,0,0,1,363.12,407.57Z" style="fill:#263238"></path><path d="M379,256.94s-8.86,53.36-11.48,72c-2.87,20.38-8.26,71.9-8.26,71.9h12.15s10.05-46.48,14.74-66.29c5.08-21.51,16.27-77.58,16.27-77.58Z" style="fill:#263238"></path><path d="M379,256.94s-8.86,53.36-11.48,72c-2.87,20.38-8.26,71.9-8.26,71.9h12.15s10.05-46.48,14.74-66.29c5.08-21.51,16.27-77.58,16.27-77.58Z" style="fill:#fff;opacity:0.1"></path><path d="M393.22,278.82c-4.53,11.31-5,30.53-3.2,38.41,2.77-12.93,6-28.41,8.4-40.44C397.55,273.7,396,272,393.22,278.82Z" style="opacity:0.2"></path><polygon points="409.02 408.33 402.46 408.33 401.61 393.15 408.17 393.15 409.02 408.33" style="fill:#ce7a63"></polygon><polygon points="402.18 403.28 408.74 403.28 408.54 400.19 402.01 400.19 402.18 403.28" style="opacity:0.2"></polygon><path d="M402.56,407.57h6.21a.43.43,0,0,1,.41.45l.3,5.83a1.07,1.07,0,0,1-1,1.16c-2.17,0-3.2-.19-5.94-.19-1.68,0-8.83.21-11.15.21s-2.26-2.72-1.27-3c4.41-1.11,9.88-2.63,11.44-4.08A1.43,1.43,0,0,1,402.56,407.57Z" style="fill:#263238"></path><path d="M391.81,256.94s-.62,50,.44,68.72c1.16,20.51,7.58,75.15,7.58,75.15H411.4s-.51-53,.21-73.29c.79-22,2.82-70.58,2.82-70.58Z" style="fill:#263238"></path><path d="M391.81,256.94s-.62,50,.44,68.72c1.16,20.51,7.58,75.15,7.58,75.15H411.4s-.51-53,.21-73.29c.79-22,2.82-70.58,2.82-70.58Z" style="fill:#fff;opacity:0.1"></path><path d="M383.64,211.05c-6.74.74-20.14,25.87-21,27-.15.19-17.88,4.37-18.87,8.05l1.57,5.67c.91,1.49,17.5-4.14,20.86-5.67,4.9-2.23,17-14.61,15.94-14.68Z" style="fill:#73AFA1"></path><path d="M378.52,236c-1.71,1.38-2.8,2.82-4.51,4.16-2.07-3.66,4.12-13.68,4.12-13.68A40.73,40.73,0,0,1,378.52,236Z" style="isolation:isolate;opacity:0.2"></path><path d="M344.06,245.78l-8.18-.23,3.39,8.16s6.9.13,7.14-4.11Z" style="fill:#ff8b7b"></path><path d="M332,249.52l.89,3.56a2.31,2.31,0,0,0,2.88,1.66l3.54-1-3.39-8.16-2.71,1.35A2.3,2.3,0,0,0,332,249.52Z" style="fill:#ff8b7b"></path><path d="M418.5,229.46c0,3.54-.09,7.57-.45,12-.59,7.33-1.6,21.93-4.06,31.74l-36.93-.86c-4.13-1-7.26-22.28-.33-32.92.67-6.38-.14-13.44.39-20.27.32-4.26,4.43-8.19,9.56-9.08a98.22,98.22,0,0,1,23.44-1c4.27.28,7.36,2.87,7.65,6.44C418,218.8,418.45,223.44,418.5,229.46Z" style="fill:#73AFA1"></path><path d="M418.5,229.46c0,3.54-.09,7.57-.45,12-4.58-4.08-5.12-14.88-5.12-14.88A21.35,21.35,0,0,1,418.5,229.46Z" style="isolation:isolate;opacity:0.2"></path><path d="M414,210.12c6.93,2.95,24.33,24.77,21.54,32.9s-13.15,9-14.5,8.67-4.16-6.21,3.77-11.58l-10.12-9.18s-2.93-5.71-2.86-11A27.55,27.55,0,0,1,414,210.12Z" style="fill:#73AFA1"></path><path d="M421.09,246.08l-7.7,1.13,4.51,7.09s6.5-1,6-5Z" style="fill:#ff8b7b"></path><path d="M410.38,251.58l1.41,3.18a2.19,2.19,0,0,0,3,1.08l3.14-1.54-4.51-7.09-2.31,1.71A2.19,2.19,0,0,0,410.38,251.58Z" style="fill:#ff8b7b"></path><path d="M401.94,196.92c.05,4.51.32,9.67,2.7,13.2.37.55-.05.32.42.78-1,1.25-2.88,3.31-8.37,2.83-6-.52-6.86-1.33-5.56-3.51,2.89-2.26,2.06-5.33,1.7-7.47Z" style="fill:#ff8b7b"></path><path d="M399.94,199.2c0-.33,0-.67,0-1l-7.09,4.54a11.73,11.73,0,0,1,.26,4.48C396.51,205.72,399.91,202.34,399.94,199.2Z" style="opacity:0.2"></path><polygon points="388.89 209.86 390.97 208.38 396.6 212.25 404.64 207.68 407.21 209.53 401.52 218.42 396.68 213.98 392.2 218.81 388.89 209.86" style="fill:#73AFA1"></polygon><g style="opacity:0.8"><polygon points="388.89 209.86 390.97 208.38 396.6 212.25 404.64 207.68 407.21 209.53 401.52 218.42 396.68 213.98 392.2 218.81 388.89 209.86" style="fill:#fff"></polygon></g><path d="M386,192.07c2.13,1.24,7.08,1.11,4.53-8.73C388.34,175,382.05,189.8,386,192.07Z" style="fill:#e0e0e0"></path><path d="M405,187.36c-.87,6.81-1,10.84-4.72,14.09-5.55,4.9-13.79,1.14-15-5.81-1.07-6.26.53-16.35,7.41-18.57A9.46,9.46,0,0,1,405,187.36Z" style="fill:#ff8b7b"></path><path d="M395.76,188.25a3.75,3.75,0,0,1,2.86-.22A7.43,7.43,0,0,1,395.76,188.25Z" style="opacity:0.2"></path><path d="M395.86,188.92a3.1,3.1,0,0,1,2.55.46A6.06,6.06,0,0,1,395.86,188.92Z" style="opacity:0.2"></path><path d="M406.25,183.65c.39-1.87-3.66-4.57-6-3.16s.95,4.28,1.53,6.9-2.7,5.07-2.7,5.07a5,5,0,0,0,4,1.51C408.94,191.74,407.18,184.41,406.25,183.65Z" style="fill:#263238"></path><path d="M406.25,183.65c.39-1.87-3.66-4.57-6-3.16s.95,4.28,1.53,6.9-2.7,5.07-2.7,5.07a5,5,0,0,0,4,1.51C408.94,191.74,407.18,184.41,406.25,183.65Z" style="fill:#fff;opacity:0.4"></path><path d="M406.82,194.46a6.45,6.45,0,0,1-4.08,2.84c-2.24.48-3.23-1.57-2.5-3.6.66-1.83,2.62-4.29,4.81-3.84A3,3,0,0,1,406.82,194.46Z" style="fill:#ff8b7b"></path><path d="M394,188.72c0,.56-.36,1-.73,1s-.63-.5-.59-1.05.36-1,.72-1S394.07,188.17,394,188.72Z" style="fill:#263238"></path><path d="M387.07,188.42c0,.56-.36,1-.72,1s-.63-.5-.6-1.06.37-1,.73-1S387.11,187.87,387.07,188.42Z" style="fill:#263238"></path><path d="M389.48,188.06a20,20,0,0,1-3.25,4.38,3.25,3.25,0,0,0,2.58.85Z" style="fill:#ff5652"></path><path d="M395.3,185a.49.49,0,0,0,.16-.05.34.34,0,0,0,.09-.46A3.3,3.3,0,0,0,393,183a.32.32,0,0,0-.32.33.33.33,0,0,0,.33.33h0a2.6,2.6,0,0,1,2,1.25A.37.37,0,0,0,395.3,185Z" style="fill:#263238"></path><path d="M385.05,185a.44.44,0,0,1-.15-.05.33.33,0,0,1-.1-.46,3.32,3.32,0,0,1,2.58-1.55.33.33,0,0,1,0,.66h0a2.63,2.63,0,0,0-2,1.25A.36.36,0,0,1,385.05,185Z" style="fill:#263238"></path><path d="M386.57,188.9a2.27,2.27,0,1,1-2.81-1.57A2.28,2.28,0,0,1,386.57,188.9Z" style="fill:#73AFA1"></path><path d="M392.46,188.68a2.28,2.28,0,1,1-2.81-1.57A2.28,2.28,0,0,1,392.46,188.68Z" style="fill:#73AFA1"></path><path d="M386.57,188.9a2.27,2.27,0,1,1-2.81-1.57A2.28,2.28,0,0,1,386.57,188.9Z" style="fill:#fff;opacity:0.6000000000000001"></path><path d="M392.46,188.68a2.28,2.28,0,1,1-2.81-1.57A2.28,2.28,0,0,1,392.46,188.68Z" style="fill:#fff;opacity:0.6000000000000001"></path><path d="M383.45,191.58a2.26,2.26,0,0,0,3.12-2.68,2.24,2.24,0,0,0-.92-1.26Z" style="fill:#fff;opacity:0.9"></path><path d="M389.19,191.3a2.27,2.27,0,0,0,3.27-2.62,2.23,2.23,0,0,0-1.06-1.35Z" style="fill:#fff;opacity:0.9"></path><path d="M385.06,191.89a2.47,2.47,0,1,1,1.7-3A2.47,2.47,0,0,1,385.06,191.89Zm-1.24-4.38a2.08,2.08,0,1,0,2.56,1.44A2.08,2.08,0,0,0,383.82,187.51Z" style="fill:#263238"></path><path d="M390.94,191.68a2.47,2.47,0,1,1,1.7-3.05A2.47,2.47,0,0,1,390.94,191.68Zm-1.24-4.38a2.08,2.08,0,1,0,2.57,1.43A2.08,2.08,0,0,0,389.7,187.3Z" style="fill:#263238"></path><path d="M387.78,189.43a.68.68,0,0,0-1,0l-.29-.25a1,1,0,0,1,1.52,0Z" style="fill:#263238"></path><polygon points="400.81 191.57 392.49 189.76 392.57 189.38 400.89 191.19 400.81 191.57" style="fill:#263238"></polygon><path d="M391.06,196.88a6.08,6.08,0,0,1-1.1-.07.18.18,0,0,1-.15-.22.19.19,0,0,1,.22-.16,5.33,5.33,0,0,0,4.53-1.39.2.2,0,0,1,.28,0,.21.21,0,0,1,0,.28A5.62,5.62,0,0,1,391.06,196.88Z" style="fill:#263238"></path></g><g id="freepik--character-4--inject-33"><path d="M320.84,302.11s3.79,23.91,9.1,55.21c8,31,9.27,53.64,9.27,53.64h4.93s6.9-36.57-.27-54.72c1.06-23.29-4-53.5-4-53.5Z" style="fill:#ebb376"></path><path d="M338.1,409.62l6.51.08a.35.35,0,0,1,.36.34l.21,4.37a.85.85,0,0,1-.85.86c-1.92-.06-2.34-.12-4.76-.15-2.83-.05-3.57.2-6.89.15-2,0-2.21-2.07-1.34-2.24,4-.78,3.69-1.73,5.52-3A2,2,0,0,1,338.1,409.62Z" style="fill:#263238"></path><path d="M308.53,301.76s0,23.43,1.89,55a365.54,365.54,0,0,1,1.66,54.2H317s11.86-37.17,7.56-55.27c4.76-23.22,2.92-53.31,2.92-53.31Z" style="fill:#ebb376"></path><path d="M311.4,409.62l6.49.08a.3.3,0,0,1,.32.34l-.29,4.37a1,1,0,0,1-.95.86c-1.92-.06-2.33-.12-4.75-.15-2.82-.05-4.92.2-8.24.15-2,0-2-2.07-1.08-2.24,4.06-.78,3.32-1.06,7.21-3A2.71,2.71,0,0,1,311.4,409.62Z" style="fill:#263238"></path><path d="M307.55,297.12c-6.23,17.94.2,31.82,1.84,66.19,12.35,1.87,26.44,1.76,37.91-1.05-7-39.45.14-49.1-6.58-65.79Z" style="fill:#263238"></path><path d="M307.55,297.12c-6.23,17.94.2,31.82,1.84,66.19,12.35,1.87,26.44,1.76,37.91-1.05-7-39.45.14-49.1-6.58-65.79Z" style="fill:#fff;opacity:0.2"></path><polygon points="323.29 340.55 322.78 323.23 317.06 315 323.29 340.55" style="opacity:0.2"></polygon><path d="M318.84,264.16c-.65,1.72-1.34,3.3-2.08,4.91s-1.53,3.2-2.41,4.77a48.56,48.56,0,0,1-2.92,4.74,24,24,0,0,1-1.91,2.42,15.26,15.26,0,0,1-1.34,1.29,8.3,8.3,0,0,1-2.28,1.39l-.15.06a3.28,3.28,0,0,1-1.37.24,13.74,13.74,0,0,1-5.84-1.6,16.91,16.91,0,0,1-2.31-1.41,21.32,21.32,0,0,1-2-1.61,28,28,0,0,1-3.34-3.58,28.39,28.39,0,0,1-2.68-4,2.27,2.27,0,0,1,3.45-2.82l.15.12c1,.84,2.11,1.79,3.19,2.6a35.29,35.29,0,0,0,3.33,2.24,16.39,16.39,0,0,0,3.27,1.52,6.55,6.55,0,0,0,2.72.36l-1.51.31c-.32.11-.26.1-.16,0s.26-.31.43-.54c.34-.48.74-1.06,1.11-1.7.75-1.27,1.47-2.68,2.18-4.12s1.39-2.93,2.06-4.43l2-4.48,0-.06a4.54,4.54,0,0,1,8.41,3.43Z" style="fill:#73AFA1"></path><path d="M318.84,264.16c-.65,1.72-1.34,3.3-2.08,4.91s-1.53,3.2-2.41,4.77a48.56,48.56,0,0,1-2.92,4.74,24,24,0,0,1-1.91,2.42,15.26,15.26,0,0,1-1.34,1.29,8.3,8.3,0,0,1-2.28,1.39l-.15.06a3.28,3.28,0,0,1-1.37.24,13.74,13.74,0,0,1-5.84-1.6,16.91,16.91,0,0,1-2.31-1.41,21.32,21.32,0,0,1-2-1.61,28,28,0,0,1-3.34-3.58,28.39,28.39,0,0,1-2.68-4,2.27,2.27,0,0,1,3.45-2.82l.15.12c1,.84,2.11,1.79,3.19,2.6a35.29,35.29,0,0,0,3.33,2.24,16.39,16.39,0,0,0,3.27,1.52,6.55,6.55,0,0,0,2.72.36l-1.51.31c-.32.11-.26.1-.16,0s.26-.31.43-.54c.34-.48.74-1.06,1.11-1.7.75-1.27,1.47-2.68,2.18-4.12s1.39-2.93,2.06-4.43l2-4.48,0-.06a4.54,4.54,0,0,1,8.41,3.43Z" style="fill:#fff;opacity:0.4"></path><path d="M283.68,268.37l.76-2.95a1.71,1.71,0,0,1,2.21-1.22h0a6.64,6.64,0,0,1,3.4,2.76l2.13,3.44a2.35,2.35,0,0,1,.36,1.29h0a2.38,2.38,0,0,1-3.51,2.06,10.86,10.86,0,0,1-2.4-1.83l-2.34-1.77A1.7,1.7,0,0,1,283.68,268.37Z" style="fill:#ebb376"></path><polygon points="304.61 284 302.9 283.84 310.77 260.34 304.61 284" style="opacity:0.2"></polygon><path d="M300.79,302.86c.64.18,4.89-30,10.44-43.7,1.33-3.28,31.92-.11,31.92-.11v41.56s-22.92,8.11-29.62,4.74c-2.12-1.07-3.66-8.25-3.66-8.25s-2.27,8.3-4.92,8.36C303.44,305.5,300.79,302.86,300.79,302.86Z" style="fill:#73AFA1"></path><path d="M300.79,302.86c.64.18,4.89-30,10.44-43.7,1.33-3.28,31.92-.11,31.92-.11v41.56s-22.92,8.11-29.62,4.74c-2.12-1.07-3.66-8.25-3.66-8.25s-2.27,8.3-4.92,8.36C303.44,305.5,300.79,302.86,300.79,302.86Z" style="fill:#fff;opacity:0.4"></path><polygon points="343.24 272.16 343.15 276.64 338.24 265.69 343.24 272.16" style="opacity:0.2"></polygon><path d="M317.68,274.84a.84.84,0,1,1-.84-.84A.84.84,0,0,1,317.68,274.84Z" style="isolation:isolate;opacity:0.2"></path><path d="M314.79,283.21a.84.84,0,1,1-1.68,0,.84.84,0,1,1,1.68,0Z" style="isolation:isolate;opacity:0.2"></path><path d="M311.54,292.53a.84.84,0,1,1-.84-.84A.84.84,0,0,1,311.54,292.53Z" style="isolation:isolate;opacity:0.2"></path><path d="M317.68,255.5c4-1.91,14.53-.25,17.07,2.16s-7.85,9.54-13.42,8.52S314.58,257,317.68,255.5Z" style="fill:#73AFA1"></path><path d="M317.68,255.5c4-1.91,14.53-.25,17.07,2.16s-7.85,9.54-13.42,8.52S314.58,257,317.68,255.5Z" style="isolation:isolate;opacity:0.2"></path><path d="M334,259.19s-3.77,3.14-7.3,3.3-6.89,5.34-6.89,5.34-.87-5.19-.64-5.65a5.91,5.91,0,0,0-.53-1.83h0c-.41-1.25-.73-2.66.53-2.66,2.12,0,.64-4.3.64-4.3l12-3.29a17.85,17.85,0,0,0-.68,3.43C330.94,255.91,331.3,258.75,334,259.19Z" style="fill:#ebb376"></path><path d="M331.83,250.09a17.85,17.85,0,0,0-.68,3.43c-2.39,2.84-6.57,6.46-12.47,6.82-.41-1.25-.73-2.66.53-2.66,2.12,0,.64-4.3.64-4.3Z" style="isolation:isolate;opacity:0.2"></path><path d="M345.64,260.54c1.31,1.46,2.44,2.89,3.6,4.38s2.26,3,3.32,4.59,2.08,3.22,3,5c.48.87.93,1.79,1.36,2.76a20.15,20.15,0,0,1,1.11,3.27c.07.33.15.62.2,1a8.49,8.49,0,0,1,.11,1.06,14.33,14.33,0,0,1,0,1.86,19.11,19.11,0,0,1-.56,3.29,33.41,33.41,0,0,1-2,5.68,54.19,54.19,0,0,1-2.72,5.06,48.54,48.54,0,0,1-3.24,4.7,2.27,2.27,0,0,1-3.91-2.2l0-.09c1.22-3.25,2.46-6.62,3.34-9.88a33.93,33.93,0,0,0,1-4.74,8,8,0,0,0-.17-3.57,13,13,0,0,0-.83-1.8c-.34-.66-.74-1.35-1.18-2-.88-1.38-1.84-2.78-2.86-4.17-2-2.76-4.25-5.57-6.4-8.21l0,0a4.54,4.54,0,0,1,6.9-5.9Z" style="fill:#73AFA1"></path><path d="M345.64,260.54c1.31,1.46,2.44,2.89,3.6,4.38s2.26,3,3.32,4.59,2.08,3.22,3,5c.48.87.93,1.79,1.36,2.76a20.15,20.15,0,0,1,1.11,3.27c.07.33.15.62.2,1a8.49,8.49,0,0,1,.11,1.06,14.33,14.33,0,0,1,0,1.86,19.11,19.11,0,0,1-.56,3.29,33.41,33.41,0,0,1-2,5.68,54.19,54.19,0,0,1-2.72,5.06,48.54,48.54,0,0,1-3.24,4.7,2.27,2.27,0,0,1-3.91-2.2l0-.09c1.22-3.25,2.46-6.62,3.34-9.88a33.93,33.93,0,0,0,1-4.74,8,8,0,0,0-.17-3.57,13,13,0,0,0-.83-1.8c-.34-.66-.74-1.35-1.18-2-.88-1.38-1.84-2.78-2.86-4.17-2-2.76-4.25-5.57-6.4-8.21l0,0a4.54,4.54,0,0,1,6.9-5.9Z" style="fill:#fff;opacity:0.4"></path><path d="M347.47,299.72l-6.53,2.53,6.33,3.34A11.32,11.32,0,0,0,350,303a2.17,2.17,0,0,0-1.18-3.35h0A2.18,2.18,0,0,0,347.47,299.72Z" style="fill:#ebb376"></path><path d="M339.72,306.76l2.7,2a1.68,1.68,0,0,0,2.23-.24l2.62-2.92-6.33-3.34-1.57,2.86A1.29,1.29,0,0,0,339.72,306.76Z" style="fill:#ebb376"></path><path d="M343.31,228.54c4.17,5.72,6.79,14.2-6.58,15l-8.05-13.21C330.84,224.18,339.73,223.61,343.31,228.54Z" style="fill:#263238"></path><path d="M343.31,228.54c4.17,5.72,6.79,14.2-6.58,15l-8.05-13.21C330.84,224.18,339.73,223.61,343.31,228.54Z" style="fill:#fff;opacity:0.4"></path><path d="M337.37,243.61l-.15,0a.78.78,0,0,1-.61-.91c.06-.31,1.38-7.56-7.64-12a.78.78,0,0,1,.69-1.4c10.13,5,8.49,13.63,8.47,13.72A.77.77,0,0,1,337.37,243.61Z" style="fill:#73AFA1"></path><path d="M332.88,232.82c5.77,6.29,8.55,16.56-5.06,21.27a32.79,32.79,0,0,1-5.46-12.3Z" style="fill:#263238"></path><path d="M332.88,232.82c5.77,6.29,8.55,16.56-5.06,21.27a32.79,32.79,0,0,1-5.46-12.3Z" style="fill:#fff;opacity:0.4"></path><path d="M324.72,229.38c-4.56-1.36-8.19,1.71-10.84,5.86-3.45,5.39,2.52,9.12,2.52,9.12Z" style="fill:#263238"></path><path d="M324.72,229.38c-4.56-1.36-8.19,1.71-10.84,5.86-3.45,5.39,2.52,9.12,2.52,9.12Z" style="fill:#fff;opacity:0.4"></path><path d="M325.36,233.45c-6.68-1.06-9.4,2.18-11,9l-.12.53c-4.16,3.68-1.72,13.88,7.74,13.88C333.77,256.85,336.46,235.2,325.36,233.45Z" style="fill:#ebb376"></path><path d="M318.77,242.75a14.65,14.65,0,0,1-2.39,2.47,1.88,1.88,0,0,0,1.65,1Z" style="fill:#d58745"></path><path d="M322.94,242.85c-.1.55.12,1,.48,1.11s.74-.32.84-.87-.11-1.05-.48-1.11S323,242.3,322.94,242.85Z" style="fill:#263238"></path><path d="M323.93,242l-1.11-.68S323.24,242.46,323.93,242Z" style="fill:#263238"></path><path d="M316.16,241.5c-.1.55.12,1,.48,1.11s.74-.32.84-.87-.11-1.05-.48-1.11S316.26,241,316.16,241.5Z" style="fill:#263238"></path><path d="M317.15,240.68l-1.1-.68S316.46,241.11,317.15,240.68Z" style="fill:#263238"></path><path d="M326.48,240a.29.29,0,0,1-.25-.14,3.23,3.23,0,0,0-2.5-1.33.29.29,0,0,1-.28-.29.28.28,0,0,1,.29-.28h0a3.77,3.77,0,0,1,3,1.61.29.29,0,0,1-.11.39A.23.23,0,0,1,326.48,240Z" style="fill:#263238"></path><path d="M316.17,237.61a.28.28,0,0,1-.26-.17.3.3,0,0,1,.14-.38,3.48,3.48,0,0,1,3-.12.29.29,0,0,1,.11.4.3.3,0,0,1-.39.11,2.83,2.83,0,0,0-2.49.14Z" style="fill:#263238"></path><path d="M319.75,249.9a3.86,3.86,0,0,1-1.64-.39.26.26,0,0,1-.13-.34.25.25,0,0,1,.34-.13,3,3,0,0,0,3.87-1,.26.26,0,1,1,.43.29A3.67,3.67,0,0,1,319.75,249.9Z" style="fill:#263238"></path><path d="M324.07,245.69a1.55,1.55,0,0,1-1.12-.4,2.28,2.28,0,0,1-.49-1.77.25.25,0,0,1,.28-.21.24.24,0,0,1,.21.28,1.82,1.82,0,0,0,.35,1.34,1.31,1.31,0,0,0,1.17.23.24.24,0,0,1,.29.2.25.25,0,0,1-.2.29A2.93,2.93,0,0,1,324.07,245.69Z" style="fill:#d58745"></path><path d="M316.1,244.06a2.55,2.55,0,0,1-1.07-.28.25.25,0,1,1,.21-.45,1.51,1.51,0,0,0,1.3.13,1.56,1.56,0,0,0,.73-.91.24.24,0,0,1,.3-.17.24.24,0,0,1,.18.3,2,2,0,0,1-1,1.24A1.66,1.66,0,0,1,316.1,244.06Z" style="fill:#d58745"></path><path d="M323.93,249.89a.24.24,0,0,1-.24-.2c-.51-2.26-3-3.2-3.07-3.21a.26.26,0,0,1-.15-.32.27.27,0,0,1,.32-.15,5.53,5.53,0,0,1,3.38,3.57.25.25,0,0,1-.19.3Z" style="fill:#d58745"></path><path d="M329.57,247.1a3,3,0,0,1,3.58-2.18c2,.55,2.36,5-3,5.17C329.43,250.12,329.13,249.33,329.57,247.1Z" style="fill:#ebb376"></path><g style="opacity:0.2"><path d="M326.48,240a.29.29,0,0,1-.25-.14,3.23,3.23,0,0,0-2.5-1.33.29.29,0,0,1-.28-.29.28.28,0,0,1,.29-.28h0a3.77,3.77,0,0,1,3,1.61.29.29,0,0,1-.11.39A.23.23,0,0,1,326.48,240Z" style="fill:#fff"></path></g><g style="opacity:0.2"><path d="M316.17,237.61a.28.28,0,0,1-.26-.17.3.3,0,0,1,.14-.38,3.48,3.48,0,0,1,3-.12.29.29,0,0,1,.11.4.3.3,0,0,1-.39.11,2.83,2.83,0,0,0-2.49.14Z" style="fill:#fff"></path></g><path d="M325.51,245.55h-.12l-4-.64a1.05,1.05,0,0,1-.76-1.16l.14-1.76a4.62,4.62,0,0,0-2.33-.39l-.14,1.75a1,1,0,0,1-.38.76.75.75,0,0,1-.57.16l-4-.64a1.07,1.07,0,0,1-.76-1.16l.15-1.81a.19.19,0,1,1,.37,0l-.14,1.81a.69.69,0,0,0,.44.76l4,.63a.36.36,0,0,0,.29-.08.7.7,0,0,0,.24-.49l.14-1.8c0-.17.16-.28.42-.31a2.79,2.79,0,0,1,.65,0s2.06.17,2,.77l-.14,1.8a.68.68,0,0,0,.44.76l4,.64a.36.36,0,0,0,.29-.08.67.67,0,0,0,.23-.49l.15-1.81a.19.19,0,1,1,.37,0l-.14,1.81a1.09,1.09,0,0,1-.38.75A.75.75,0,0,1,325.51,245.55Z" style="fill:#263238"></path><path d="M321.1,230.31c-5,4.15,6.88,11.57,10.88,13.53,0,0,3.68,2.39,5.31-2.88S328.38,224.26,321.1,230.31Z" style="fill:#263238"></path><path d="M321.1,230.31c-5,4.15,6.88,11.57,10.88,13.53,0,0,3.68,2.39,5.31-2.88S328.38,224.26,321.1,230.31Z" style="fill:#fff;opacity:0.4"></path></g><g id="freepik--character-3--inject-33"><path d="M199.85,238.05l-7.16-.19,3,7.15s6.05.11,6.25-3.61Z" style="fill:#eec1bb"></path><path d="M189.26,241.34l.78,3.11a2,2,0,0,0,2.52,1.45l3.1-.89-3-7.15L190.32,239A2,2,0,0,0,189.26,241.34Z" style="fill:#eec1bb"></path><polygon points="207.61 240.97 201.04 243.24 199.59 238.03 206.35 235.37 207.61 240.97" style="fill:#eec1bb"></polygon><path d="M240.64,202.32c-6,9-12.23,18.17-18.59,24.22-.73.69-21,9.77-21,9.77l2.53,7.43s19.33-6.75,22.27-8.37c7.77-4.29,16.31-14.66,16.31-14.66Z" style="fill:#263238"></path><path d="M197,206.5s3.06,24.33,3.26,32.24c0,0,9.55,9.88,8.88,13.09s-.21,1.22-1.84,1.82-.24,2.51-2.55,3.91-4.47-2.07-7.16-2.21-3.51,6-5,.62,1.47-18.26,1.47-18.26-22.25-14.25-23.82-18.45,7.76-3.15,8.55-7,2.15-6.46,6.52-4.16,7.58-1.54,7.84-2.23S196.54,204,197,206.5Z" style="fill:#73AFA1"></path><path d="M204.78,257.56c-2.31,1.41-4.47-2.07-7.16-2.21s-3.51,6-5,.62,1.47-18.26,1.47-18.26S175.33,226,171,220.4a4.29,4.29,0,0,1-.7-1.13c-1.58-4.2,7.76-3.16,8.55-7s2.15-6.46,6.52-4.15,7.57-1.55,7.85-2.24a2.62,2.62,0,0,1,3.08-.62,1.78,1.78,0,0,1,.76,1.23s3.06,24.33,3.26,32.24c0,0,9.55,9.88,8.88,13.09s-.21,1.22-1.84,1.82S207.09,256.16,204.78,257.56Z" style="fill:#fff;isolation:isolate;opacity:0.5"></path><path d="M191,218.05c-2.63.56-6.27-1.45-7.21.75s2.46,5.13-1.8,4.42-6-5.37-7.76-4.4a24.81,24.81,0,0,1-2.4,1.23c-.28.13-.57.24-.87.35a4.29,4.29,0,0,1-.7-1.13,2.81,2.81,0,0,1-.13-.45c-.77-3.68,7.91-2.85,8.68-6.54a13.66,13.66,0,0,1,.83-2.8h0c.94-2.1,2.52-3,5.7-1.35,4.37,2.29,7.57-1.55,7.85-2.24a2.57,2.57,0,0,1,2.15-.88,1.65,1.65,0,0,1,.93.26c1,1.51,0,2.95-1.37,4.28a23.76,23.76,0,0,0-2.93,3C190.58,214.65,193.64,217.48,191,218.05Z" style="isolation:isolate;opacity:0.4"></path><path d="M191,218.05c-2.63.56-6.27-1.45-7.21.75s2.46,5.13-1.8,4.42-6-5.37-7.76-4.4l-.56.31a19.59,19.59,0,0,1-1.84.92c-.6-.41-1.18-.82-1.7-1.23-1.2-.93-2-1.76-2-2.25.21-1.61,4.62-1.58,4.62-1.58s-3.13-1-1.9-3,4.47.47,4.47.47-2-3.47-1-5.45,5.07,2.27,5.27,2.48a6.15,6.15,0,0,1-.77-5.14c1-2.62,7.22,2.4,7.22,2.4s-2.61-4.16-.94-5.05,3.38,2.4,3.5,2.63c-.06-.34-1-5.54.93-5s2.23,4.92,2.25,5.16c0-.14,1.61-4,3.24-2.44.72.67.62,1.83.27,2.94a13.15,13.15,0,0,1-1.33,2.81l.89,1.73c-.32.31-.64.61-1,.9a13.08,13.08,0,0,0-2,2.07C190.58,214.65,193.64,217.48,191,218.05Z" style="fill:#73AFA1"></path><path d="M191,218.05c-2.63.56-6.27-1.45-7.21.75s2.46,5.13-1.8,4.42-6-5.37-7.76-4.4l-.56.31a19.59,19.59,0,0,1-1.84.92c-.6-.41-1.18-.82-1.7-1.23-1.2-.93-2-1.76-2-2.25.21-1.61,4.62-1.58,4.62-1.58s-3.13-1-1.9-3,4.47.47,4.47.47-2-3.47-1-5.45,5.07,2.27,5.27,2.48a6.15,6.15,0,0,1-.77-5.14c1-2.62,7.22,2.4,7.22,2.4s-2.61-4.16-.94-5.05,3.38,2.4,3.5,2.63c-.06-.34-1-5.54.93-5s2.23,4.92,2.25,5.16c0-.14,1.61-4,3.24-2.44.72.67.62,1.83.27,2.94a13.15,13.15,0,0,1-1.33,2.81l.89,1.73c-.32.31-.64.61-1,.9a13.08,13.08,0,0,0-2,2.07C190.58,214.65,193.64,217.48,191,218.05Z" style="fill:#fff;isolation:isolate;opacity:0.6000000000000001"></path><path d="M191,218.05c-2.63.56-6.27-1.45-7.21.75s2.46,5.13-1.8,4.42-6-5.37-7.76-4.4l-.56.31c-.5-1.06-.83-2.09-.45-2.48.87-.85,1.35,1.2,1.4,1.4,0-.27-.09-2.88,1.68-3.42s1.26,2.57,1.26,2.57c.84-.83,2.88-.17,2.88-.17s-2.36-1.37-2.09-3,4,0,4.38.2c-.33-.19-2.74-1.64-2.25-3.19s3.91,1.35,3.91,1.35-3.76-4.3-2.39-6.48,5.49,4.43,5.49,4.43-.07-4.64.7-4.12,1.69,3,1.69,3,0-3.09,2.21-2.19c1,.4,1.54,1.93,1.83,3.49a13.08,13.08,0,0,0-2,2.07C190.58,214.65,193.64,217.48,191,218.05Z" style="fill:#fff;isolation:isolate;opacity:0.7000000000000001"></path><path d="M177.89,206.79s.35,3.07,1.94,3.56a9.34,9.34,0,0,0,5,0c1-.4.94-1.17,1.31-2.49s-3.72-4.72-3.72-4.72c-.61.21-.78.71-.39,1.6,0,0-1.56-2.45-2.63-2s-.45,2.94-.45,2.94C178.15,205.37,177.88,205.86,177.89,206.79Z" style="fill:#263238"></path><path d="M179.9,206.92c1.24-1.64,2.53-1.14,3.87,1-.41-1.12-.78-2.21,0-2.71,0,0-3.33-.58-3.87,0S179.9,206.92,179.9,206.92Z" style="fill:#fff;opacity:0.2"></path><path d="M187.49,214.47a1.1,1.1,0,1,0,1.54-1.56,1.1,1.1,0,0,0-1.54,1.56Z" style="fill:#fff"></path><path d="M176.46,213.53a.83.83,0,0,0,1.19,0,.84.84,0,0,0-1.2-1.18A.83.83,0,0,0,176.46,213.53Z" style="fill:#fff"></path><path d="M186.88,205.49a.33.33,0,0,0,.46-.46.34.34,0,0,0-.46,0A.33.33,0,0,0,186.88,205.49Z" style="fill:#fff"></path><path d="M180.3,221.23a.73.73,0,1,0,1-1,.72.72,0,0,0-1,0A.73.73,0,0,0,180.3,221.23Z" style="fill:#fff"></path><path d="M177.88,219c-.94.44-3,.9-3.62.44-1.3-.8-3.17-4.35-3.17-4.35a1.62,1.62,0,0,1,2.27,0s-.82-1.88.63-2.51,3.34,1.74,3.34,1.74c-.24-.69-.36-1.34.55-1.74a10.16,10.16,0,0,1,1.35,3.43A3,3,0,0,1,177.88,219Z" style="fill:#263238"></path><path d="M174.05,215.4c.49-.41,1.2-.17,2,.39-.33-.75.05-1.14,1-1.23,0,0-1.5-1.06-2.26-.69S174.05,215.4,174.05,215.4Z" style="fill:#fff;opacity:0.2"></path><path d="M186.79,205.37s1,2.35,1.9,2.66a3.23,3.23,0,0,0,2.72,0,2.91,2.91,0,0,0,1.75-2.66c0-1.07-2.25-2.83-2.25-2.83a1.26,1.26,0,0,0-.19,1.5s-1.21-2.06-2.41-1.14.12,2.79.12,2.79A1.71,1.71,0,0,0,186.79,205.37Z" style="fill:#263238"></path><path d="M189.3,206.17c.77-.55,1.16-.11,1.54.36-.11-.92.09-1.62.83-1.95a1.19,1.19,0,0,0-1.46-.54C189.13,204.33,189.3,206.17,189.3,206.17Z" style="fill:#fff;opacity:0.2"></path><path d="M181,212.83s1.48,3.65,3,4.14a5.07,5.07,0,0,0,4.23,0,4.53,4.53,0,0,0,2.72-4.14c0-1.67-3.5-4.41-3.5-4.41a2,2,0,0,0-.3,2.35s-1.87-3.21-3.74-1.78.19,4.34.19,4.34A2.68,2.68,0,0,0,181,212.83Z" style="fill:#263238"></path><path d="M184.89,214.06c1.19-.85,1.8-.17,2.4.57-.18-1.43.14-2.51,1.28-3a1.85,1.85,0,0,0-2.27-.84C184.63,211.21,184.89,214.06,184.89,214.06Z" style="fill:#fff;opacity:0.2"></path><path d="M239.2,215.79a56.67,56.67,0,0,1-4.53,12.84,95.46,95.46,0,0,0,7.51-7.92Z" style="opacity:0.2"></path><path d="M273.92,270.44l4.66-56.72c1.49-10.84-1.83-13-8.23-13.51l-25.73-.13c-6.71,1.77-5.27,7.14-5.51,9.9h0a378.82,378.82,0,0,1-2.37,52.38l-.68,5.86Z" style="fill:#263238"></path><polyline points="271.68 209.3 271.68 209.3 271.68 209.3 277.52 226.54 278.82 207.65 271.68 209.3" style="isolation:isolate;opacity:0.2"></polyline><polygon points="215.93 390.92 212.63 409.54 218.81 411.48 224.46 393.62 215.93 390.92" style="fill:#eec1bb"></polygon><polygon points="215.34 394.25 214.07 401.42 221.2 403.93 223.88 395.46 215.34 394.25" style="opacity:0.2"></polygon><path d="M210,405.53c-.81-.32-1.58-.8-1.71-1.25a.63.63,0,0,1,.27-.67.88.88,0,0,1,.63-.16c1.2.13,3,2.32,3,2.41a.17.17,0,0,1,0,.19.18.18,0,0,1-.18.08A12.06,12.06,0,0,1,210,405.53Zm-.53-1.67a1.18,1.18,0,0,0-.31-.08.49.49,0,0,0-.39.09c-.19.15-.18.26-.16.33.13.54,1.76,1.2,3,1.53A7.62,7.62,0,0,0,209.45,403.86Z" style="fill:#73AFA1"></path><path d="M212,406.12l-.06,0c-.64-.65-1.64-2.68-1.21-3.35.08-.17.3-.33.74-.21a1.25,1.25,0,0,1,.75.6,4.66,4.66,0,0,1,0,2.91.14.14,0,0,1-.12.11A.14.14,0,0,1,212,406.12Zm-.54-3.26-.09,0c-.28-.08-.35,0-.37.05-.22.43.37,1.93,1,2.73a3.86,3.86,0,0,0-.07-2.33.9.9,0,0,0-.45-.41Z" style="fill:#73AFA1"></path><path d="M213.06,405.48l7.07,2.81a.6.6,0,0,1,.38.66l-1,6.27a1,1,0,0,1-1.16.85l-.21-.05c-2.53-1.06-4.75-2.1-7.92-3.35-3.75-1.49-3-.66-7.41-2.34-2.67-1-2-4.23-.77-3.93,5.4,1.39,6.56.05,9.27-1A2.51,2.51,0,0,1,213.06,405.48Z" style="fill:#263238"></path><path d="M237,258.57s-11.78,71.1-13.27,82.25-9.47,55.93-9.47,55.93l9,2s12.83-32,15.5-54.29c0,0,10.87-38,14.6-46.33,0,0,10.79-11.9,7.25-33.09Z" style="fill:#73AFA1"></path><g style="opacity:0.5"><path d="M237,258.57s-11.78,71.1-13.27,82.25-9.47,55.93-9.47,55.93l9,2s12.83-32,15.5-54.29c0,0,10.87-38,14.6-46.33,0,0,10.79-11.9,7.25-33.09Z"></path></g><path d="M247.77,313.31c2.19-6.41,4.28-12.25,5.57-15.15a21.87,21.87,0,0,0,5-3.27c.62-2.47,1-4.05,1-4.05l-6.94-10.34S250.31,301.64,247.77,313.31Z" style="opacity:0.2"></path><polygon points="212.88 393.47 212.16 397.72 225.41 401.07 227.06 396.81 212.88 393.47" style="fill:#73AFA1"></polygon><polygon points="278.66 390.25 285.96 407.69 292.21 405.98 287.3 387.91 278.66 390.25" style="fill:#eec1bb"></polygon><polygon points="279.97 393.38 282.77 400.09 290.13 398.35 287.8 389.77 279.97 393.38" style="opacity:0.2"></polygon><path d="M282.17,406.92a3,3,0,0,1-2.1-.32.62.62,0,0,1-.06-.71.86.86,0,0,1,.48-.44c1.12-.44,3.69.69,3.8.74a.17.17,0,0,1,.1.16.17.17,0,0,1-.12.15A12.6,12.6,0,0,1,282.17,406.92Zm-1.25-1.24a1.18,1.18,0,0,0-.31.08.44.44,0,0,0-.29.26c-.1.22-.05.31,0,.36.37.42,2.12.25,3.39-.05A7.64,7.64,0,0,0,280.92,405.68Z" style="fill:#73AFA1"></path><path d="M284.24,406.5h-.07c-.86-.28-2.69-1.61-2.62-2.41,0-.19.11-.43.56-.52a1.2,1.2,0,0,1,.94.18,4.71,4.71,0,0,1,1.36,2.57.18.18,0,0,1-.05.16A.17.17,0,0,1,284.24,406.5Zm-2-2.63h-.09c-.3.06-.3.18-.31.22,0,.47,1.22,1.54,2.14,2a4,4,0,0,0-1.15-2,.87.87,0,0,0-.59-.14Z" style="fill:#73AFA1"></path><path d="M284.88,405.45l7.57-.79a.61.61,0,0,1,.64.41l2,6a1,1,0,0,1-.64,1.3l-.21.05c-2.73.24-5.17.34-8.57.7-4,.43-2.94.8-7.65,1.36-2.83.34-3.69-2.83-2.51-3.12,5.44-1.27,5.84-3,7.76-5.19A2.46,2.46,0,0,1,284.88,405.45Z" style="fill:#263238"></path><path d="M250.73,263.32s4,72.36,8.92,86.39,20.44,46,20.44,46l8.58-3.73s-6.91-37.81-14.52-47.68l1.06-49.51s5.7-24.6-.12-36.25Z" style="fill:#73AFA1"></path><path d="M250.73,263.32s4,72.36,8.92,86.39,20.44,46,20.44,46l8.58-3.73s-6.91-37.81-14.52-47.68l1.06-49.51s5.7-24.6-.12-36.25Z" style="opacity:0.5"></path><polygon points="277.41 395.38 279.43 399.46 291.98 395.05 290.78 390.38 277.41 395.38" style="fill:#73AFA1"></polygon><polygon points="274.94 258.57 236.97 258.57 234.67 272.2 251.54 283.96 275.11 273.49 274.94 258.57" style="fill:#73AFA1"></polygon><polygon points="274.94 258.57 236.97 258.57 234.67 272.2 251.54 283.96 275.11 273.49 274.94 258.57" style="opacity:0.5"></polygon><path d="M251.54,202.76l.16.37a4.27,4.27,0,0,0,3.6,2.58h0c.7.06,2.34.2,6.08-2.05h0a12.12,12.12,0,0,0,2.93-2.83v0a2.21,2.21,0,0,0-.31-.66c-2.44-3.49-2.44-10.62-2.1-14.77l-8,8.48C255.14,197,255.3,200.76,251.54,202.76Z" style="fill:#eec1bb"></path><path d="M259.84,189.89l-5.72,4.33a15.65,15.65,0,0,1,.55,2.62,7.44,7.44,0,0,0,5.51-4.05C260.72,191.48,260.34,190.06,259.84,189.89Z" style="isolation:isolate;opacity:0.2"></path><path d="M248.94,169.41s-6.77,6.09-1.87,8.74S248.94,169.41,248.94,169.41Z" style="fill:#263238"></path><path d="M262.9,178.52c-.11,6.3.13,10-2.9,13.33-4.56,5-12.43,2.48-14.18-3.7-1.59-5.61-1.12-14.92,4.92-17.68a8.57,8.57,0,0,1,12.16,8.05Z" style="fill:#eec1bb"></path><path d="M253.16,180.75c0,.52-.23.94-.56.95s-.62-.38-.64-.9.23-.93.56-.94S253.15,180.24,253.16,180.75Z" style="fill:#263238"></path><path d="M247.4,181c0,.5-.23.93-.57.94s-.62-.39-.64-.89.23-.94.56-1S247.38,180.48,247.4,181Z" style="fill:#263238"></path><path d="M249.54,181.1a17.67,17.67,0,0,1-2.26,4.46,3,3,0,0,0,2.47.36Z" style="fill:#d4827d"></path><path d="M254.12,178.19a.42.42,0,0,0,.15,0,.31.31,0,0,0,0-.42,3,3,0,0,0-2.5-1.14.3.3,0,0,0-.26.34.29.29,0,0,0,.33.26h0a2.41,2.41,0,0,1,2,.92A.32.32,0,0,0,254.12,178.19Z" style="fill:#263238"></path><path d="M245.56,178.83a.29.29,0,0,0,.22-.18,2.38,2.38,0,0,1,1.62-1.42.3.3,0,0,0,.24-.35.29.29,0,0,0-.34-.24,3,3,0,0,0-2.09,1.78.29.29,0,0,0,.15.39h0A.27.27,0,0,0,245.56,178.83Z" style="fill:#263238"></path><path d="M261.69,184.5s-3-.3-2.26-2.83-2.2-5-1.64-8.48c0,0-17.09,3-12.34-5.59,1.89-2.9,8.69-2.74,13.76-2,6.67,1,5.11,4.75,5.11,4.75C271.55,171.87,268.4,186.75,261.69,184.5Z" style="fill:#263238"></path><path d="M266.21,184.25a6,6,0,0,1-3.6,2.79c-2,.53-2.57-1.63-2.43-3.19.53-1.7,2.22-4,4.24-3.74A2.68,2.68,0,0,1,266.21,184.25Z" style="fill:#eec1bb"></path><path d="M248.86,188.15a37.27,37.27,0,0,1,7.39-2.07,4.66,4.66,0,0,1-4,4.31,2.67,2.67,0,0,1-3.3-2Z" style="fill:#263238"></path><path d="M253.24,188.64a5,5,0,0,0-2.91,1.55,2.88,2.88,0,0,0,1.87.18,4.89,4.89,0,0,0,2.9-1.55A2.78,2.78,0,0,0,253.24,188.64Z" style="fill:#d4827d"></path><path d="M249.1,188.05a1.23,1.23,0,0,0,1,.73,27.23,27.23,0,0,0,4.8-1.5,1.64,1.64,0,0,0,1.06-1.16A41.87,41.87,0,0,0,249.1,188.05Z" style="fill:#fafafa"></path><path d="M305.67,183.63l1.61-9,1.12-5.6a2.83,2.83,0,0,0-2.12-3.3l-1.29-.31a2.85,2.85,0,0,0-2,.24l-.92.48a2.84,2.84,0,0,0-1.51,2.64l.13,2.93a3,3,0,0,0,.21.95l1.33,3.23-1.85,6.35Z" style="fill:#eec1bb"></path><path d="M268.88,203.39A3.21,3.21,0,0,1,270,200.9c2.91-2.46,20,2.86,23.07-1.8,6-9,7.77-21.75,7.77-21.75l6.58,1.65s-.95,20.26-6,29c-4.11,7.14-29.05,5.81-30.05,5C269.89,211.79,268.94,209.16,268.88,203.39Z" style="fill:#263238"></path></g><g id="freepik--character-2--inject-33"><path d="M62.07,333.88h95.05c1.63,0,3-1.88,3-4.21V271c0-2.33-1.33-4.22-3-4.22H62.07c-1.63,0-3,1.89-3,4.22v58.7C59.11,332,60.44,333.88,62.07,333.88Zm78.68-12a2.37,2.37,0,0,1,1.92-1.14h9.64c1.51,0,2.72,1.73,2.72,3.88a4.78,4.78,0,0,1-.8,2.75,2.38,2.38,0,0,1-1.92,1.14h-9.64c-1.5,0-2.72-1.75-2.72-3.89A4.75,4.75,0,0,1,140.75,321.84Zm-75.8,0a2.4,2.4,0,0,1,1.93-1.14h9.64c1.5,0,2.72,1.73,2.72,3.88a4.86,4.86,0,0,1-.8,2.75,2.4,2.4,0,0,1-1.92,1.14H66.88c-1.5,0-2.72-1.75-2.72-3.89A4.9,4.9,0,0,1,65,321.84Z" style="fill:#73AFA1"></path><path d="M62.07,333.88h95.05c1.63,0,3-1.88,3-4.21V271c0-2.33-1.33-4.22-3-4.22H62.07c-1.63,0-3,1.89-3,4.22v58.7C59.11,332,60.44,333.88,62.07,333.88Zm78.68-12a2.37,2.37,0,0,1,1.92-1.14h9.64c1.51,0,2.72,1.73,2.72,3.88a4.78,4.78,0,0,1-.8,2.75,2.38,2.38,0,0,1-1.92,1.14h-9.64c-1.5,0-2.72-1.75-2.72-3.89A4.75,4.75,0,0,1,140.75,321.84Zm-75.8,0a2.4,2.4,0,0,1,1.93-1.14h9.64c1.5,0,2.72,1.73,2.72,3.88a4.86,4.86,0,0,1-.8,2.75,2.4,2.4,0,0,1-1.92,1.14H66.88c-1.5,0-2.72-1.75-2.72-3.89A4.9,4.9,0,0,1,65,321.84Z" style="fill:#fff;opacity:0.6000000000000001"></path><path d="M63.65,333.88h95.06c1.63,0,3-1.88,3-4.21V271c0-2.33-1.33-4.22-3-4.22H63.65c-1.63,0-2.95,1.89-2.95,4.22v58.7C60.7,332,62,333.88,63.65,333.88Zm78.69-12a2.37,2.37,0,0,1,1.92-1.14h9.64c1.5,0,2.72,1.73,2.72,3.88a4.86,4.86,0,0,1-.8,2.75,2.4,2.4,0,0,1-1.92,1.14h-9.64c-1.51,0-2.72-1.75-2.72-3.89A4.75,4.75,0,0,1,142.34,321.84Zm-75.8,0a2.39,2.39,0,0,1,1.92-1.14h9.65c1.5,0,2.72,1.73,2.72,3.88a4.86,4.86,0,0,1-.8,2.75,2.4,2.4,0,0,1-1.92,1.14H68.46c-1.5,0-2.71-1.75-2.71-3.89A4.82,4.82,0,0,1,66.54,321.84Z" style="fill:#73AFA1"></path><path d="M63.65,333.88h95.06c1.63,0,3-1.88,3-4.21V271c0-2.33-1.33-4.22-3-4.22H63.65c-1.63,0-2.95,1.89-2.95,4.22v58.7C60.7,332,62,333.88,63.65,333.88Zm78.69-12a2.37,2.37,0,0,1,1.92-1.14h9.64c1.5,0,2.72,1.73,2.72,3.88a4.86,4.86,0,0,1-.8,2.75,2.4,2.4,0,0,1-1.92,1.14h-9.64c-1.51,0-2.72-1.75-2.72-3.89A4.75,4.75,0,0,1,142.34,321.84Zm-75.8,0a2.39,2.39,0,0,1,1.92-1.14h9.65c1.5,0,2.72,1.73,2.72,3.88a4.86,4.86,0,0,1-.8,2.75,2.4,2.4,0,0,1-1.92,1.14H68.46c-1.5,0-2.71-1.75-2.71-3.89A4.82,4.82,0,0,1,66.54,321.84Z" style="fill:#fff;opacity:0.7000000000000001"></path><rect x="65.74" y="280.77" width="90.88" height="26.43" rx="2.95" transform="translate(222.37 587.97) rotate(180)" style="opacity:0.1"></rect><rect x="60.7" y="274.64" width="100.97" height="1.58" style="fill:#73AFA1"></rect><polygon points="177.74 406.01 174.28 409.47 172.04 409.47 171.06 403.91 177.74 406.01" style="fill:#73AFA1"></polygon><path d="M168.3,402h2.62c3,0,5.51,3.08,5.51,6.88s-2.47,6.88-5.51,6.88H168.3c-3,0-5.51-3.08-5.51-6.88S165.26,402,168.3,402Z" style="fill:#263238"></path><path d="M162.79,408.83c0,3.8,2.47,6.88,5.51,6.88s5.51-3.08,5.51-6.88S171.34,402,168.3,402,162.79,405,162.79,408.83Z" style="fill:#fff;opacity:0.30000000000000004"></path><ellipse cx="168.3" cy="408.83" rx="3.54" ry="4.92" style="fill:#fff;opacity:0.30000000000000004"></ellipse><path d="M167.29,408.18v-5.55a4,4,0,0,1,1.18-2.85l3.23-3.22h6V406h-5.22l-3.07,3.06a1.27,1.27,0,0,1-1,.37h0A1.27,1.27,0,0,1,167.29,408.18Z" style="fill:#73AFA1"></path><path d="M167.29,402.64v5.55a1.26,1.26,0,0,0,2.16.89l3.07-3.07h5.22v-9.45h-6.05l-3.22,3.22A4,4,0,0,0,167.29,402.64Z" style="fill:#fff;opacity:0.30000000000000004"></path><path d="M167.29,402.64v5.55a1.26,1.26,0,0,0,2.16.89l3.07-3.07v-9.45h-.83l-3.22,3.22A4,4,0,0,0,167.29,402.64Z" style="fill:#fff;opacity:0.2"></path><rect x="165.39" y="386.65" width="13.3" height="10.59" rx="1.13" transform="translate(344.09 783.89) rotate(180)" style="fill:#73AFA1"></rect><path d="M165.4,387.55v8.78a.9.9,0,0,0,.9.91h11.49a.9.9,0,0,0,.9-.91v-8.78a.9.9,0,0,0-.9-.9H166.3A.9.9,0,0,0,165.4,387.55Z" style="fill:#fff;opacity:0.2"></path><path d="M165.4,387.55v8.78a.9.9,0,0,0,.9.91h6.21a.9.9,0,0,0,.9-.91v-8.78a.9.9,0,0,0-.9-.9H166.3A.9.9,0,0,0,165.4,387.55Z" style="fill:#fff;opacity:0.2"></path><path d="M174.4,387.54H299.72a.61.61,0,0,1,.61.61v7.28a.61.61,0,0,1-.61.61H174.4a0,0,0,0,1,0,0v-8.5A0,0,0,0,1,174.4,387.54Z" transform="translate(474.73 783.59) rotate(180)" style="fill:#73AFA1"></path><path d="M174.4,387.54H299.72a.61.61,0,0,1,.61.61v7.28a.61.61,0,0,1-.61.61H174.4a0,0,0,0,1,0,0v-8.5A0,0,0,0,1,174.4,387.54Z" transform="translate(474.73 783.59) rotate(180)" style="fill:#fff;opacity:0.30000000000000004"></path><polygon points="306.03 406.01 302.57 409.47 300.33 409.47 299.35 403.91 306.03 406.01" style="fill:#73AFA1"></polygon><path d="M296.59,402h2.62c3,0,5.51,3.08,5.51,6.88s-2.47,6.88-5.51,6.88h-2.62c-3,0-5.51-3.08-5.51-6.88S293.54,402,296.59,402Z" style="fill:#263238"></path><path d="M291.08,408.83c0,3.8,2.46,6.88,5.51,6.88s5.51-3.08,5.51-6.88-2.47-6.88-5.51-6.88S291.08,405,291.08,408.83Z" style="fill:#fff;opacity:0.30000000000000004"></path><ellipse cx="296.59" cy="408.83" rx="3.54" ry="4.92" style="fill:#fff;opacity:0.30000000000000004"></ellipse><path d="M295.58,408.18v-5.55a4,4,0,0,1,1.18-2.85l3.22-3.22h6V406H300.8l-3.06,3.06a1.27,1.27,0,0,1-1,.37h0A1.26,1.26,0,0,1,295.58,408.18Z" style="fill:#73AFA1"></path><path d="M295.58,402.64v5.55a1.25,1.25,0,0,0,1.19,1.26,1.29,1.29,0,0,0,1-.37L300.8,406H306v-9.45h-6l-3.22,3.22A4,4,0,0,0,295.58,402.64Z" style="fill:#fff;opacity:0.30000000000000004"></path><path d="M295.58,402.64v5.55a1.25,1.25,0,0,0,1.19,1.26,1.29,1.29,0,0,0,1-.37L300.8,406v-9.45H300l-3.22,3.22A4,4,0,0,0,295.58,402.64Z" style="fill:#fff;opacity:0.2"></path><rect x="293.68" y="386.65" width="13.3" height="10.59" rx="1.13" transform="translate(600.66 783.89) rotate(180)" style="fill:#73AFA1"></rect><path d="M293.68,387.55v8.78a.9.9,0,0,0,.91.91h11.48a.91.91,0,0,0,.91-.91v-8.78a.9.9,0,0,0-.91-.9H294.59A.9.9,0,0,0,293.68,387.55Z" style="fill:#fff;opacity:0.2"></path><path d="M293.68,387.55v8.78a.9.9,0,0,0,.91.91h6.2a.91.91,0,0,0,.91-.91v-8.78a.9.9,0,0,0-.91-.9h-6.2A.9.9,0,0,0,293.68,387.55Z" style="fill:#fff;opacity:0.2"></path><path d="M79.65,378a2.14,2.14,0,0,1-1-1.8V332.71a2,2,0,0,1,0-.48,2.14,2.14,0,0,1,.28-.7,2.08,2.08,0,0,1,.65-.67,2,2,0,0,1,.86-.32,2.31,2.31,0,0,1,.37,0H180.8l.37,0a2.2,2.2,0,0,1,.87.34,2.12,2.12,0,0,1,.64.66,2.24,2.24,0,0,1,.33,1.18v43.46a2.17,2.17,0,0,1-3,2l-49.15-21.38L81.69,378.15a2.18,2.18,0,0,1-.86.18A2.08,2.08,0,0,1,79.65,378ZM83,336v36.92l42.46-18.46Zm53.27,18.46,42.45,18.46V336Zm-45.06-19.6,39.65,17.25,39.65-17.25Z" style="fill:#263238"></path><g style="opacity:0.30000000000000004"><path d="M79.65,378a2.14,2.14,0,0,1-1-1.8V332.71a2,2,0,0,1,0-.48,2.14,2.14,0,0,1,.28-.7,2.08,2.08,0,0,1,.65-.67,2,2,0,0,1,.86-.32,2.31,2.31,0,0,1,.37,0H180.8l.37,0a2.2,2.2,0,0,1,.87.34,2.12,2.12,0,0,1,.64.66,2.24,2.24,0,0,1,.33,1.18v43.46a2.17,2.17,0,0,1-3,2l-49.15-21.38L81.69,378.15a2.18,2.18,0,0,1-.86.18A2.08,2.08,0,0,1,79.65,378ZM83,336v36.92l42.46-18.46Zm53.27,18.46,42.45,18.46V336Zm-45.06-19.6,39.65,17.25,39.65-17.25Z" style="fill:#fff"></path></g><path d="M210.94,359.32a2.16,2.16,0,0,0,1-4.05l-61.11.11a2.1,2.1,0,0,0-1-.27H105.67L70.54,307.43A2.16,2.16,0,0,0,67.07,310l35.78,48.55a2.12,2.12,0,0,0,1.73.88h44.7l60.62-.37A2.18,2.18,0,0,0,210.94,359.32Z" style="fill:#263238"></path><g style="opacity:0.6000000000000001"><path d="M213.11,359.63a2.15,2.15,0,0,0,1-4l-63.28-.21a2.1,2.1,0,0,0-1-.27H105.67L70.54,307.43A2.16,2.16,0,0,0,67.07,310l35.78,48.55a2.12,2.12,0,0,0,1.73.88h44.7l62.79-.06A2.18,2.18,0,0,0,213.11,359.63Z" style="fill:#fff"></path></g><path d="M202.23,394.21a2.27,2.27,0,0,0,2.26-2.21l.39-15.77a2.32,2.32,0,0,0-.64-1.64,2.29,2.29,0,0,0-1.62-.68H80.83a2.25,2.25,0,0,0-1.94,1.1l-8.73,14.65A2.26,2.26,0,1,0,74.05,392l8.06-13.54H200.3L200,391.89a2.26,2.26,0,0,0,2.2,2.32Z" style="fill:#263238"></path><g style="opacity:0.5"><path d="M202.23,394.21a2.27,2.27,0,0,0,2.26-2.21l.39-15.77a2.32,2.32,0,0,0-.64-1.64,2.29,2.29,0,0,0-1.62-.68H80.83a2.25,2.25,0,0,0-1.94,1.1l-8.73,14.65A2.26,2.26,0,1,0,74.05,392l8.06-13.54H200.3L200,391.89a2.26,2.26,0,0,0,2.2,2.32Z" style="fill:#fff"></path></g><rect x="118.76" y="355.11" width="89.17" height="4.37" style="fill:#263238"></rect><rect x="118.76" y="355.11" width="89.17" height="4.37" style="fill:#fff;opacity:0.6000000000000001"></rect><path d="M66.68,281.77a3,3,0,0,1,2.89-2.14h87.5a3,3,0,0,1,2.4,1.19l43.63,57.41a3,3,0,0,0,2.4,1.19l99.35-.38a3,3,0,0,1,1.54,3c-.18,1.4-1.31,7.64-1.55,8.83a3,3,0,0,1-3,2.42L151.26,353H108.91a3,3,0,0,1-2.41-1.19L65.66,298.06a3,3,0,0,1-.61-2.13C65.07,295.75,66.41,282.64,66.68,281.77Z" style="fill:#73AFA1"></path><path d="M66.68,281.77a3,3,0,0,1,2.89-2.14h87.5a3,3,0,0,1,2.4,1.19l43.63,57.41a3,3,0,0,0,2.4,1.19l99.35-.38a3,3,0,0,1,1.54,3c-.18,1.4-1.31,7.64-1.55,8.83a3,3,0,0,1-3,2.42L150.48,353H108.91a3,3,0,0,1-2.41-1.19L65.66,298.06a3,3,0,0,1-.61-2.13C65.07,295.75,66.41,282.64,66.68,281.77Z" style="fill:#fff;opacity:0.5"></path><g style="opacity:0.7000000000000001"><path d="M116.45,350.74h31.76a3.77,3.77,0,0,0,0-7.54H116.45a3.77,3.77,0,1,0,0,7.54Z" style="fill:#fff"></path></g><g style="opacity:0.7000000000000001"><path d="M163.54,350.74H195.3a3.77,3.77,0,0,0,0-7.54H163.54a3.77,3.77,0,0,0,0,7.54Z" style="fill:#fff"></path></g><g style="opacity:0.7000000000000001"><path d="M107.23,347.56a3.77,3.77,0,0,0,3-6.05l-37-48.75a3.77,3.77,0,0,0-6,4.56l37.05,48.75A3.74,3.74,0,0,0,107.23,347.56Z" style="fill:#fff"></path></g><path d="M70.45,269a3,3,0,0,1,2.89-2.15h87.5a3.05,3.05,0,0,1,2.41,1.19l43.62,57.41a3,3,0,0,0,2.4,1.19l99.36-.26a2.94,2.94,0,0,1,1.53,3c-.17,1.4-1.31,7.29-1.55,8.47a3,3,0,0,1-3,2.43l-193-.05a3,3,0,0,1-2.4-1.19L69.43,285.23a3,3,0,0,1-.6-2.13C68.84,282.93,70.19,269.81,70.45,269Z" style="fill:#263238"></path><path d="M70.45,269a3,3,0,0,1,2.89-2.15h89l45.44,59.79h0l100.85-.26a2.94,2.94,0,0,1,1.53,3c-.17,1.4-1.31,7.29-1.55,8.47a3,3,0,0,1-3,2.43h-96L155,340.17H112.68a3,3,0,0,1-2.4-1.19L69.43,285.23a3,3,0,0,1-.6-2.13C68.84,282.93,70.19,269.81,70.45,269Z" style="fill:#fff;opacity:0.2"></path><path d="M70.94,271.65l40.85,53.75a3,3,0,0,0,2.4,1.19h95.08a3,3,0,0,1-2.4-1.19L163.25,268a3.05,3.05,0,0,0-2.41-1.19H73.34A3,3,0,0,0,70.94,271.65Z" style="fill:#fff;opacity:0.2"></path><polygon points="79.64 406.01 76.18 409.47 73.94 409.47 72.96 403.91 79.64 406.01" style="fill:#73AFA1"></polygon><path d="M70.2,402h2.62c3,0,5.51,3.08,5.51,6.88s-2.47,6.88-5.51,6.88H70.2c-3,0-5.51-3.08-5.51-6.88S67.15,402,70.2,402Z" style="fill:#263238"></path><path d="M64.69,408.83c0,3.8,2.46,6.88,5.51,6.88s5.51-3.08,5.51-6.88S73.24,402,70.2,402,64.69,405,64.69,408.83Z" style="fill:#fff;opacity:0.30000000000000004"></path><path d="M70.2,413.75c1.92,0,3.54-2.25,3.54-4.92s-1.62-4.92-3.54-4.92-3.55,2.26-3.55,4.92S68.28,413.75,70.2,413.75Z" style="fill:#fff;opacity:0.30000000000000004"></path><path d="M69.19,408.18v-5.55a4,4,0,0,1,1.18-2.85l3.22-3.22h6V406H74.41l-3.06,3.06a1.27,1.27,0,0,1-1,.37h0A1.27,1.27,0,0,1,69.19,408.18Z" style="fill:#73AFA1"></path><path d="M69.19,402.64v5.55a1.26,1.26,0,0,0,2.16.89L74.41,406h5.23v-9.45h-6l-3.22,3.22A4,4,0,0,0,69.19,402.64Z" style="fill:#fff;opacity:0.7000000000000001"></path><path d="M69.19,402.64v5.55a1.26,1.26,0,0,0,2.16.89L74.41,406v-9.45h-.82l-3.22,3.22A4,4,0,0,0,69.19,402.64Z" style="fill:#fff;opacity:0.2"></path><rect x="67.29" y="386.65" width="13.3" height="10.59" rx="1.13" transform="translate(147.88 783.89) rotate(180)" style="fill:#73AFA1"></rect><path d="M67.29,387.55v8.78a.9.9,0,0,0,.91.91H79.68a.91.91,0,0,0,.91-.91v-8.78a.9.9,0,0,0-.91-.9H68.2A.9.9,0,0,0,67.29,387.55Z" style="fill:#fff;opacity:0.5"></path><path d="M67.29,387.55v8.78a.9.9,0,0,0,.91.91h6.21a.9.9,0,0,0,.9-.91v-8.78a.9.9,0,0,0-.9-.9H68.2A.9.9,0,0,0,67.29,387.55Z" style="fill:#fff;opacity:0.2"></path><path d="M76.3,387.54H201.61a.61.61,0,0,1,.61.61v7.28a.61.61,0,0,1-.61.61H76.3a0,0,0,0,1,0,0v-8.5A0,0,0,0,1,76.3,387.54Z" transform="translate(278.53 783.59) rotate(180)" style="fill:#73AFA1"></path><path d="M76.3,387.54H201.61a.61.61,0,0,1,.61.61v7.28a.61.61,0,0,1-.61.61H76.3a0,0,0,0,1,0,0v-8.5A0,0,0,0,1,76.3,387.54Z" transform="translate(278.53 783.59) rotate(180)" style="fill:#fff;opacity:0.7000000000000001"></path><polygon points="207.93 406.01 204.47 409.47 202.23 409.47 201.25 403.91 207.93 406.01" style="fill:#73AFA1"></polygon><path d="M198.48,402h2.63c3,0,5.51,3.08,5.51,6.88s-2.47,6.88-5.51,6.88h-2.63c-3,0-5.51-3.08-5.51-6.88S195.44,402,198.48,402Z" style="fill:#263238"></path><path d="M193,408.83c0,3.8,2.47,6.88,5.51,6.88s5.51-3.08,5.51-6.88-2.46-6.88-5.51-6.88S193,405,193,408.83Z" style="fill:#fff;opacity:0.30000000000000004"></path><ellipse cx="198.48" cy="408.83" rx="3.54" ry="4.92" style="fill:#fff;opacity:0.30000000000000004"></ellipse><path d="M197.47,408.18v-5.55a4,4,0,0,1,1.19-2.85l3.22-3.22h6.05V406H202.7l-3.06,3.06a1.29,1.29,0,0,1-1,.37h0A1.27,1.27,0,0,1,197.47,408.18Z" style="fill:#73AFA1"></path><path d="M197.47,402.64v5.55a1.26,1.26,0,0,0,1.2,1.26,1.29,1.29,0,0,0,1-.37L202.7,406h5.23v-9.45h-6.05l-3.22,3.22A4,4,0,0,0,197.47,402.64Z" style="fill:#fff;opacity:0.7000000000000001"></path><path d="M197.47,402.64v5.55a1.26,1.26,0,0,0,1.2,1.26,1.29,1.29,0,0,0,1-.37L202.7,406v-9.45h-.82l-3.22,3.22A4,4,0,0,0,197.47,402.64Z" style="fill:#fff;opacity:0.2"></path><rect x="195.58" y="386.65" width="13.3" height="10.59" rx="1.13" transform="translate(404.46 783.89) rotate(180)" style="fill:#73AFA1"></rect><path d="M195.58,387.55v8.78a.9.9,0,0,0,.91.91H208a.91.91,0,0,0,.91-.91v-8.78a.9.9,0,0,0-.91-.9H196.49A.9.9,0,0,0,195.58,387.55Z" style="fill:#fff;opacity:0.5"></path><path d="M195.58,387.55v8.78a.9.9,0,0,0,.91.91h6.2a.91.91,0,0,0,.91-.91v-8.78a.9.9,0,0,0-.91-.9h-6.2A.9.9,0,0,0,195.58,387.55Z" style="fill:#fff;opacity:0.2"></path><path d="M212.66,340.22h92.91a3.11,3.11,0,0,0,3.06-2.55l1.6-8.54a2.47,2.47,0,0,0-2.44-2.92l-96.51.24a2.23,2.23,0,0,0-2.22,2.46l.87,8.83A2.74,2.74,0,0,0,212.66,340.22Z" style="fill:#fff;opacity:0.2"></path><path d="M203.9,388.29a2.14,2.14,0,0,1-1-1.8V343a2,2,0,0,1,0-.48,2.06,2.06,0,0,1,.28-.7,2.21,2.21,0,0,1,1.51-1,2.36,2.36,0,0,1,.37,0h99.93a2.17,2.17,0,0,1,.36,0,2.2,2.2,0,0,1,.87.34,2.05,2.05,0,0,1,.65.66,2.28,2.28,0,0,1,.28.7,2.59,2.59,0,0,1,0,.48v43.46a2.16,2.16,0,0,1-3,2l-49.16-21.38-49.15,21.38a2.13,2.13,0,0,1-2-.18Zm3.34-42V383.2l42.45-18.46Zm53.26,18.47L303,383.2V346.27Zm-45.06-19.6,39.65,17.25,39.66-17.25Z" style="fill:#263238"></path><g style="opacity:0.30000000000000004"><path d="M203.9,388.29a2.14,2.14,0,0,1-1-1.8V343a2,2,0,0,1,0-.48,2.06,2.06,0,0,1,.28-.7,2.21,2.21,0,0,1,1.51-1,2.36,2.36,0,0,1,.37,0h99.93a2.17,2.17,0,0,1,.36,0,2.2,2.2,0,0,1,.87.34,2.05,2.05,0,0,1,.65.66,2.28,2.28,0,0,1,.28.7,2.59,2.59,0,0,1,0,.48v43.46a2.16,2.16,0,0,1-3,2l-49.16-21.38-49.15,21.38a2.13,2.13,0,0,1-2-.18Zm3.34-42V383.2l42.45-18.46Zm53.26,18.47L303,383.2V346.27Zm-45.06-19.6,39.65,17.25,39.66-17.25Z" style="fill:#fff"></path></g><path d="M162.36,265.53c-5.2-6.31-10.43-12.66-14.5-19.75a7.59,7.59,0,0,1-1.39-4.54c.18-1.64.74-2.81,2.43-2.81,8.84,0,19.56,19.08,21.87,21.18C170.77,259.61,165.9,264.76,162.36,265.53Z" style="fill:#73AFA1"></path><g style="opacity:0.6000000000000001"><path d="M162.36,265.53c-5.2-6.31-10.43-12.66-14.5-19.75a7.59,7.59,0,0,1-1.39-4.54c.18-1.64.74-2.81,2.43-2.81,8.84,0,19.56,19.08,21.87,21.18C170.77,259.61,165.9,264.76,162.36,265.53Z" style="fill:#fff"></path></g><path d="M154.21,279.8H121.33l1-5.7.16-.91.23-1.3.23-1.32c.06-.7.11-1.4.15-2.09h0c.05-.82.08-1.63.1-2.43,0-.17,0-.33,0-.49.05-2.23,0-4.38-.14-6.42,0-.24,0-.5,0-.74-.08-1.07-.17-2.09-.27-3.08h0c-.06-.61-.13-1.19-.2-1.76h0c0-.4-.1-.8-.15-1.18h0a.78.78,0,0,1,0-.16,1.72,1.72,0,0,1,0-.24c-.33-2.36-.71-4.41-1.06-6h0c-.55-2.65-1-4.23-1-4.33a4.12,4.12,0,0,1,2.4-3l0,0a15.27,15.27,0,0,1,3.76-1.42h0l.53-.12h0a37.1,37.1,0,0,1,6-.83l1,0h0l.73,0H135l.75,0c2.07.09,4.13.23,6.17.45.79.07,1.57.17,2.34.27l.42.06a18.43,18.43,0,0,1,2.32.75h0l.06,0a21.77,21.77,0,0,0,2.25.64h0c.47.11,1,.2,1.49.27h0l.1,0,.07,0h0a7.45,7.45,0,0,1,1.14,2.43,51.53,51.53,0,0,1,2.23,9.51h0c0,.32.08.63.11.94a1.64,1.64,0,0,1,0,.23q0,.45.06.9a1.1,1.1,0,0,1,0,.26c0,.13,0,.28,0,.41h0a11.85,11.85,0,0,1-.13,2.23,5.2,5.2,0,0,1-.13.62l-.53,1.5h0l0,.05c-.18.49-.32.9-.44,1.24l0,0c-.08.21-.14.41-.2.56h0c-.24.65-.32.88-.32.88a42.86,42.86,0,0,1,1.88,6.74c.19,1,.32,2,.4,2.85.07.7.12,1.36.13,2A21.1,21.1,0,0,1,154.21,279.8Z" style="fill:#73AFA1"></path><g style="opacity:0.6000000000000001"><path d="M154.21,279.8H121.33l1-5.7.16-.91.23-1.3.23-1.32c.06-.7.11-1.4.15-2.09h0c.05-.82.08-1.63.1-2.43,0-.17,0-.33,0-.49.05-2.23,0-4.38-.14-6.42,0-.24,0-.5,0-.74-.08-1.07-.17-2.09-.27-3.08h0c-.06-.61-.13-1.19-.2-1.76h0c0-.4-.1-.8-.15-1.18h0a.78.78,0,0,1,0-.16,1.72,1.72,0,0,1,0-.24c-.33-2.36-.71-4.41-1.06-6h0c-.55-2.65-1-4.23-1-4.33a4.12,4.12,0,0,1,2.4-3l0,0a15.27,15.27,0,0,1,3.76-1.42h0l.53-.12h0a37.1,37.1,0,0,1,6-.83l1,0h0l.73,0H135l.75,0c2.07.09,4.13.23,6.17.45.79.07,1.57.17,2.34.27l.42.06a18.43,18.43,0,0,1,2.32.75h0l.06,0a21.77,21.77,0,0,0,2.25.64h0c.47.11,1,.2,1.49.27h0l.1,0,.07,0h0a7.45,7.45,0,0,1,1.14,2.43,51.53,51.53,0,0,1,2.23,9.51h0c0,.32.08.63.11.94a1.64,1.64,0,0,1,0,.23q0,.45.06.9a1.1,1.1,0,0,1,0,.26c0,.13,0,.28,0,.41h0a11.85,11.85,0,0,1-.13,2.23,5.2,5.2,0,0,1-.13.62l-.53,1.5h0l0,.05c-.18.49-.32.9-.44,1.24l0,0c-.08.21-.14.41-.2.56h0c-.24.65-.32.88-.32.88a42.86,42.86,0,0,1,1.88,6.74c.19,1,.32,2,.4,2.85.07.7.12,1.36.13,2A21.1,21.1,0,0,1,154.21,279.8Z" style="fill:#fff"></path></g><path d="M309.44,326.08H210.59a8.6,8.6,0,0,0-8.43,6.88c-1.43,7.15-4.44,17.75-10.06,21.25-8.75,5.45-8.65,12.84-12.14,12.84s-69.19-14.26-76.43-15.87,0-25.53,0-25.53-.92-27.19,7.11-38.3S152.24,270,158,271.4s12.94,8.64,12.88,10.68-.87,2.25-.87,2.25,9.5,2.41,13.34,2.82,22-2.07,26.23-1,51.62,25.52,51.62,25.52,7.79-5,12.23-3.42,8.49.77,11.62,1.06,11.91,11.84,13.83,12.21C307.77,323.16,309.44,326.08,309.44,326.08Z" style="fill:#73AFA1"></path><path d="M299.72,321.49s-4.64.4-7.87-1.1-9.29.49-14.75,1.1-51.1-.4-63.82-1.1-12.13,1.3-14.73,4.13-6.49,21-10.69,22.78-12.56,11.76-12.81,12.16-34.49-7.07-38.62-8.48-28.6-2.63-28.61-7.48,4.25-14.74,3.07-17.42,3.81-33.68,7.85-35.95,36-14.7,38.49-14.49a23.93,23.93,0,0,1,9.15,3.39c2.4,1.57,4.47,5.3,4.47,5.3s9.5,2.41,13.34,2.82,22-2.07,26.23-1S262,311.64,262,311.64s7.79-5,12.23-3.42,8.49.77,11.62,1.06S297.81,321.12,299.72,321.49Z" style="fill:#fff;isolation:isolate;opacity:0.2"></path><path d="M169.29,284.88s-6.22-8.84-15.7-4c-5.41,2.77-23.05,12.72-23.71,16s-.89.6,6.7,0,12.83-19.19,29-10.65c3.52,1.87,11.14.85,11.14.85Z" style="isolation:isolate;opacity:0.2"></path><path d="M261.2,311.65s-13.67,5.41-18.34,4.38c-20.57-4.53-54.53,5.09-48.57,2.4,27.47-12.4,9.31-21.69,33.49-12.73,10.68,3.95,12.31,8.17,22,5.29C257,308.85,261.2,311.65,261.2,311.65Z" style="isolation:isolate;opacity:0.2"></path><path d="M204.88,287.52c-4.34,8.35-33.5,9-44.8,20.43,2-4.21,10.62-13.82,20-14.42-1.59-1.85-11.66,0-20-1.32C186,287.89,197.07,285.8,204.88,287.52Z" style="opacity:0.2"></path><path d="M123.1,268.48a12.88,12.88,0,0,0,1.66,4,15.72,15.72,0,0,0,5.23,3.8c1.21-.43,1-.29,2.1-.67a68.05,68.05,0,0,0,13.88,3.2,2.62,2.62,0,0,0,1.45-.54s5.77.88,7,.8a34,34,0,0,0,5.22-1.67c.58-.19,1.07-1,.93-1.35l-.29-.78-.49-.36-14.2,1.34-22.37-14C123.23,264.37,123.2,266.46,123.1,268.48Z" style="opacity:0.2"></path><path d="M153.05,244.1c.64,1.83,1.56,4.44,2.26,4.72,1.35-1.13,2.42-1.73,3.8-1.65l4.1,3.46a2.56,2.56,0,0,1,0,1.75l2.18,2.48c1.66.76,1.6,4.87-.48,4.6L161.66,262l-10.87.23L143.06,265l-11.22-.38L131,252.92l2.82,9.7c3.23-1.59,7.15,1,7.85,0,.47-.66,4.65-3.21,6.77-3.95s2.78-4.13,2.78-4.13c.42-1.79,1.54-5.67,2.83-6.52C153.75,247,153.63,246.68,153.05,244.1Z" style="opacity:0.2"></path><path d="M134.43,271.12c-2.64-1.67-4.4-3.95-2.21-7.11,1.81-2.62,5.82-1.74,7.93-1a2.13,2.13,0,0,0,2.21-.58,10.21,10.21,0,0,1,5.54-3,3.21,3.21,0,0,0,2-1.31c1.77-2.61,6.56-8.74,11.2-6.51,5.85,2.81,3.57,12.35-5,17.87S138.83,273.91,134.43,271.12Z" style="fill:#73AFA1"></path><path d="M134.43,271.12c-2.64-1.67-4.4-3.95-2.21-7.11,1.81-2.62,5.82-1.74,7.93-1a2.13,2.13,0,0,0,2.21-.58,10.21,10.21,0,0,1,5.54-3,3.21,3.21,0,0,0,2-1.31c1.77-2.61,6.56-8.74,11.2-6.51,5.85,2.81,3.57,12.35-5,17.87S138.83,273.91,134.43,271.12Z" style="fill:#fff;opacity:0.30000000000000004"></path><path d="M142.5,263.49a22,22,0,0,1,5.84,2.37.34.34,0,0,0,.49-.4c-.5-1.35-2-3.6-6.28-2.58A.31.31,0,0,0,142.5,263.49Z" style="opacity:0.2"></path><path d="M150.24,258.93a24,24,0,0,1,2.46.78.39.39,0,0,0,.49-.51c-.31-.65-1.07-1.35-2.94-.68A.22.22,0,0,0,150.24,258.93Z" style="opacity:0.2"></path><path d="M153.26,271c-7.58,3.67-15,2.57-18.87.1-2.64-1.67-4.4-3.95-2.22-7.11a3.87,3.87,0,0,1,.78-.83C134.93,265,140.42,275.21,153.26,271Z" style="opacity:0.2"></path><path d="M163.21,251.21a3.85,3.85,0,0,0-4.1-4c-2.43.07-4.35,2.27-5.45,4.54-.14.14-.28.28-.41.43a3.66,3.66,0,0,0,2.23,6.25l.26,0h0a4.83,4.83,0,0,0,2.64-.38c2.14-.93,2.72-2.15,4.25-5A4.44,4.44,0,0,0,163.21,251.21Z" style="fill:#ffc3bd"></path><path d="M153.5,254a.13.13,0,0,1,.12,0,1.42,1.42,0,0,0,1.19.22.18.18,0,0,1,.22.09.15.15,0,0,1-.07.21h0a1.76,1.76,0,0,1-1.5-.26.16.16,0,0,1,0-.22h0A.15.15,0,0,1,153.5,254Z" style="fill:#263238"></path><path d="M155.2,252a5.88,5.88,0,0,1-1.2.9.81.81,0,0,0,.58.37Z" style="fill:#ed847e"></path><path d="M158.26,251.42h.06a.13.13,0,0,0,.09-.15,1,1,0,0,0-.67-.81.13.13,0,0,0-.16.08.11.11,0,0,0,.07.15h0a.83.83,0,0,1,.52.65A.11.11,0,0,0,158.26,251.42Z" style="fill:#263238"></path><path d="M154.57,250a.14.14,0,0,0,.12,0,1.05,1.05,0,0,1,.86-.25.14.14,0,0,0,.15-.09.12.12,0,0,0-.07-.15,1.31,1.31,0,0,0-1.1.32.11.11,0,0,0,0,.16h0A.1.1,0,0,0,154.57,250Z" style="fill:#263238"></path><path d="M153.55,252.25a.62.62,0,0,1,.51.78.78.78,0,0,1-.85.56.63.63,0,0,1-.51-.78A.78.78,0,0,1,153.55,252.25Z" style="fill:#ba4d3c;isolation:isolate;opacity:0.2"></path><path d="M156.18,253.37a.62.62,0,0,1,.51.78.78.78,0,0,1-.85.56.63.63,0,0,1-.51-.78A.78.78,0,0,1,156.18,253.37Z" style="fill:#ba4d3c;isolation:isolate;opacity:0.2"></path><path d="M154.93,251.63c-.16.21-.4.3-.53.21s-.13-.35,0-.56.4-.3.53-.2S155.09,251.43,154.93,251.63Z" style="fill:#263238"></path><path d="M155,251.13l-.4-.5S154.58,251.21,155,251.13Z" style="fill:#263238"></path><path d="M157,252.56c-.16.21-.4.3-.54.2s-.12-.35,0-.55.39-.3.53-.21S157.12,252.35,157,252.56Z" style="fill:#263238"></path><path d="M157,252.06l-.39-.5S156.61,252.13,157,252.06Z" style="fill:#263238"></path><path d="M152.57,258.41c2.84-1.67,8.11-4.35,11.42-3.65a1.34,1.34,0,0,1,1,1.14,5.68,5.68,0,0,1-.06,2,1.7,1.7,0,0,1-2,1.33,28.11,28.11,0,0,0-10.16-.06A.42.42,0,0,1,152.57,258.41Z" style="fill:#73AFA1"></path><path d="M152.57,258.41c2.84-1.67,8.11-4.35,11.42-3.65a1.34,1.34,0,0,1,1,1.14,5.68,5.68,0,0,1-.06,2,1.7,1.7,0,0,1-2,1.33,28.11,28.11,0,0,0-10.16-.06A.42.42,0,0,1,152.57,258.41Z" style="fill:#fff;opacity:0.1"></path><path d="M140.12,270a18.15,18.15,0,0,1,6.35-2.45c2.34.41,4.54.25,5.86.66,2.14-.2,6.84-4.86,11.52-8.12l-11.68,10.65-13,.54Z" style="opacity:0.2"></path><path d="M134.94,236.05c-2.7.15-2.77,1.78-2.57,3.55.41,3.69,5,5.66,8.77,5.61,7.32-.1,7-6.93,5.86-7.44C143,236,139.05,235.82,134.94,236.05Z" style="fill:#e4897b"></path><path d="M142.78,244.7c-1.39.87-2.25.32-3.49-.53-7.55-4.67-3.88-8.2-3.88-8.2,2.15-1.53,2.87-3.73,3.28-7.24a1.37,1.37,0,0,1,.07-.29,2.44,2.44,0,0,1,.75-1.17,2.38,2.38,0,0,1,3.31,0l3.5,1.8h0c0,.06,0,.11,0,.17-.54,1.85-1,3.28-1.33,4.41,0,.14-.08.27-.11.41s0,0,0,0-.07.28-.1.42c-.37,1.57-.27,2.46.64,3.21C146,238.21,147.44,241.74,142.78,244.7Z" style="fill:#e4897b"></path><path d="M146.32,229.09h0a.35.35,0,0,0,0,.17c-.54,1.85-1,3.28-1.33,4.41a2.75,2.75,0,0,0-.11.41s0,0,0,0a3.35,3.35,0,0,0-.07.44s-.2,1-.21,1c-2.64-1.34-4.62-4.22-5.86-6.85,0,0,.06-.31.05-.31a2.62,2.62,0,0,1,.76-1.18,2.39,2.39,0,0,1,3.31,0Z" style="isolation:isolate;opacity:0.2"></path><path d="M150.61,210.82c6.35,2.33,7.15,6.48,5.21,13.2-2.42,8.39-6.37,13.54-13.67,8.87C132.23,226.56,140.06,206.94,150.61,210.82Z" style="fill:#e4897b"></path><path d="M151.84,222.15a14.29,14.29,0,0,0,.88,3.32,1.85,1.85,0,0,1-1.93.1Z" style="fill:#de5753"></path><path d="M149.69,216.22a.45.45,0,0,1-.19-.05,3.14,3.14,0,0,0-2.7-.06.42.42,0,0,1-.43-.73,4,4,0,0,1,3.52,0,.43.43,0,0,1,.17.57A.4.4,0,0,1,149.69,216.22Z" style="fill:#263238"></path><path d="M156.75,219.1a.41.41,0,0,1-.34-.18,2.82,2.82,0,0,0-2-1.28.41.41,0,0,1-.41-.42.42.42,0,0,1,.42-.42h0a3.57,3.57,0,0,1,2.68,1.63.44.44,0,0,1-.09.59A.49.49,0,0,1,156.75,219.1Z" style="fill:#263238"></path><path d="M139.73,219s4.89-4.12,5.92-8.32c0,0,14.48-.52,10.41,12.48,0,0,5.39-10.89-5.44-15.15S134,219.71,137.87,226.54C137.87,226.54,136.7,221.56,139.73,219Z" style="fill:#263238"></path><path d="M140.28,220.7a3,3,0,0,0-2.06-3.65c-2.05-.51-4.47,3.19.07,6C138.94,223.4,139.59,222.86,140.28,220.7Z" style="fill:#e4897b"></path><path d="M150.3,211.25s-6.82,10.41-12.93,7c-7-4,3-13,8.48-12.06,0,0,12.23-.11,15.44,7.54s-5.23,9.44-5.23,9.44S159.43,215.19,150.3,211.25Z" style="fill:#263238"></path><path d="M142.54,218.71a.21.21,0,0,1,0-.42c5.91-.57,7.77-7.79,7.78-7.86a.22.22,0,0,1,.26-.15.2.2,0,0,1,.15.25c0,.08-2,7.58-8.15,8.18Z" style="fill:#263238"></path><path d="M148.73,228.19a.24.24,0,0,1-.14-.05,3.4,3.4,0,0,1-1.46-2.35.23.23,0,0,1,.21-.25.22.22,0,0,1,.24.21,3.12,3.12,0,0,0,1.28,2,.23.23,0,0,1,0,.32A.22.22,0,0,1,148.73,228.19Z" style="fill:#263238"></path><path d="M147.36,220c-.19.55-.06,1.1.29,1.23s.79-.2,1-.75.06-1.09-.29-1.22S147.55,219.48,147.36,220Z" style="fill:#263238"></path><path d="M148.17,219.25l1.42.11S148.57,220.13,148.17,219.25Z" style="fill:#263238"></path><path d="M153.16,222.38c-.19.55-.06,1.1.29,1.23s.78-.2,1-.75.06-1.09-.29-1.22S153.35,221.84,153.16,222.38Z" style="fill:#263238"></path><path d="M154,221.61l1.41.11S154.37,222.49,154,221.61Z" style="fill:#263238"></path><path d="M134.34,203.69c-1.5,2.1-1.27,4.84.52,6.13s4.46.62,6-1.47,1.28-4.85-.51-6.13S135.85,201.59,134.34,203.69Z" style="fill:#263238"></path><path d="M141,207.51s1.53-.74,1.39-3.22a2.91,2.91,0,0,0-2.59-2.73,3,3,0,0,1,2.18,2.76A3.89,3.89,0,0,1,141,207.51Z" style="fill:#263238"></path><path d="M132.23,206.31s.16-2.19,3.34-4,4.68.6,4.68.6-1.66-1.78-4.53-.15A7.39,7.39,0,0,0,132.23,206.31Z" style="fill:#263238"></path><path d="M167.81,258.3c-6.59,1.67-9.87,8.74-16.33,11,.2,1.05.17,2.93.92,3.67,9.27-1.45,14.75-4.79,17.76-7.47,2.46-2.18,1.67-4,1.08-5.15S169.13,258,167.81,258.3Z" style="fill:#73AFA1"></path><path d="M167.81,258.3c-6.59,1.67-9.87,8.74-16.33,11,.2,1.05.17,2.93.92,3.67,9.27-1.45,14.75-4.79,17.76-7.47,2.46-2.18,1.67-4,1.08-5.15S169.13,258,167.81,258.3Z" style="fill:#fff;opacity:0.6000000000000001"></path><path d="M151.35,268.9c-1.37-.24-5.1-1.1-5.1-1.1l-4.68,1.45a2.46,2.46,0,0,0-1.71,1.93l-.26,1.67a2,2,0,0,0,1.78,2.31l3.74.43,7.27-2.54S155.17,269.57,151.35,268.9Z" style="fill:#ffc3bd"></path><path d="M140.41,270a42.67,42.67,0,0,0,7.11,3.56s4.51-2.2,5.71-2.06a31,31,0,0,1,3.17.65l-9.93,2.36-6.37-4.09Z" style="opacity:0.2"></path><path d="M133.77,269.54c-1.66-5.9-2.83-16.23-3.39-22a10,10,0,0,0-4.47-7.51l0,0c-3.73-1.62-5-.62-5.64,1.46-1.42,4.76,2.37,22.06,3.72,26.52a5,5,0,0,0,6.25,3.61A7.88,7.88,0,0,0,133.77,269.54Z" style="fill:#73AFA1"></path><path d="M133.77,269.54c-1.66-5.9-2.83-16.23-3.39-22a10,10,0,0,0-4.47-7.51l0,0c-3.73-1.62-5-.62-5.64,1.46-1.42,4.76,2.37,22.06,3.72,26.52a5,5,0,0,0,6.25,3.61A7.88,7.88,0,0,0,133.77,269.54Z" style="fill:#fff;opacity:0.6000000000000001"></path><path d="M128.82,264.66c7.33,1,12.27,7.55,19.41,9.21-.28,1.23,0,4.24-1.85,4.38,0,0-16-2.43-21.1-7.87-1-1-.43-2.94.28-4.29S127.36,264.46,128.82,264.66Z" style="fill:#73AFA1"></path><path d="M128.82,264.66c7.33,1,12.27,7.55,19.41,9.21-.28,1.23,0,4.24-1.85,4.38,0,0-16-2.43-21.1-7.87-1-1-.43-2.94.28-4.29S127.36,264.46,128.82,264.66Z" style="fill:#fff;opacity:0.6000000000000001"></path><path d="M147.9,273.59c.81-.32,2.46-1,3.64-1.58a4.38,4.38,0,0,1,2.75-.28l4.33,1a1.18,1.18,0,0,1,.88.88l.47,2.14a1.41,1.41,0,0,1-1,1.58l-3.6,1.2a4.31,4.31,0,0,1-1.91.19l-6.4-.82S144.15,275.08,147.9,273.59Z" style="fill:#ffc3bd"></path><path d="M207.59,326.24v58.69c0,2.33,1.32,4.22,2.95,4.22H305.6c1.63,0,3-1.89,3-4.22V326.24c0-2.33-1.33-4.22-3-4.22H210.54C208.91,322,207.59,323.91,207.59,326.24Zm80.84,5.08c0-2.14,1.21-3.88,2.72-3.88h9.63a2.37,2.37,0,0,1,1.93,1.14,4.82,4.82,0,0,1,.8,2.74c0,2.15-1.22,3.88-2.73,3.88h-9.63a2.42,2.42,0,0,1-1.93-1.13A4.88,4.88,0,0,1,288.43,331.32Zm-75.8,0c0-2.14,1.22-3.88,2.72-3.88H225a2.39,2.39,0,0,1,1.93,1.14,4.82,4.82,0,0,1,.8,2.74c0,2.15-1.23,3.88-2.73,3.88h-9.64a2.38,2.38,0,0,1-1.92-1.13A4.88,4.88,0,0,1,212.63,331.32Z" style="fill:#73AFA1"></path><path d="M207.59,326.24v58.69c0,2.33,1.32,4.22,2.95,4.22H305.6c1.63,0,3-1.89,3-4.22V326.24c0-2.33-1.33-4.22-3-4.22H210.54C208.91,322,207.59,323.91,207.59,326.24Zm80.84,5.08c0-2.14,1.21-3.88,2.72-3.88h9.63a2.37,2.37,0,0,1,1.93,1.14,4.82,4.82,0,0,1,.8,2.74c0,2.15-1.22,3.88-2.73,3.88h-9.63a2.42,2.42,0,0,1-1.93-1.13A4.88,4.88,0,0,1,288.43,331.32Zm-75.8,0c0-2.14,1.22-3.88,2.72-3.88H225a2.39,2.39,0,0,1,1.93,1.14,4.82,4.82,0,0,1,.8,2.74c0,2.15-1.23,3.88-2.73,3.88h-9.64a2.38,2.38,0,0,1-1.92-1.13A4.88,4.88,0,0,1,212.63,331.32Z" style="fill:#fff;opacity:0.6000000000000001"></path><path d="M209.17,326.24v58.69c0,2.33,1.33,4.22,3,4.22h95.05c1.64,0,3-1.89,3-4.22V326.24c0-2.33-1.32-4.22-3-4.22H212.13C210.5,322,209.17,323.91,209.17,326.24ZM290,331.32c0-2.14,1.22-3.88,2.72-3.88h9.64a2.39,2.39,0,0,1,1.93,1.14,4.82,4.82,0,0,1,.79,2.74c0,2.15-1.21,3.88-2.72,3.88h-9.64a2.38,2.38,0,0,1-1.92-1.13A4.8,4.8,0,0,1,290,331.32Zm-75.79,0c0-2.14,1.22-3.88,2.72-3.88h9.64a2.37,2.37,0,0,1,1.92,1.14,4.75,4.75,0,0,1,.8,2.74c0,2.15-1.22,3.88-2.72,3.88h-9.64a2.42,2.42,0,0,1-1.93-1.13A5,5,0,0,1,214.22,331.32Z" style="fill:#73AFA1"></path><path d="M209.17,326.24v58.69c0,2.33,1.33,4.22,3,4.22h95.05c1.64,0,3-1.89,3-4.22V326.24c0-2.33-1.32-4.22-3-4.22H212.13C210.5,322,209.17,323.91,209.17,326.24ZM290,331.32c0-2.14,1.22-3.88,2.72-3.88h9.64a2.39,2.39,0,0,1,1.93,1.14,4.82,4.82,0,0,1,.79,2.74c0,2.15-1.21,3.88-2.72,3.88h-9.64a2.38,2.38,0,0,1-1.92-1.13A4.8,4.8,0,0,1,290,331.32Zm-75.79,0c0-2.14,1.22-3.88,2.72-3.88h9.64a2.37,2.37,0,0,1,1.92,1.14,4.75,4.75,0,0,1,.8,2.74c0,2.15-1.22,3.88-2.72,3.88h-9.64a2.42,2.42,0,0,1-1.93-1.13A5,5,0,0,1,214.22,331.32Z" style="fill:#fff;opacity:0.7000000000000001"></path><rect x="214.22" y="348.7" width="90.88" height="26.43" rx="2.95" transform="translate(519.31 723.83) rotate(180)" style="opacity:0.1"></rect><rect x="209.17" y="379.68" width="100.97" height="1.58" style="fill:#73AFA1"></rect></g><g id="freepik--character-1--inject-33"><path d="M98.41,320.29c-2.41.24-14.77-8-19.48-13.92L77.68,309s10.77,15.48,22.57,20.32S98.41,320.29,98.41,320.29Z" style="fill:#ebb376"></path><path d="M79.38,308.62s1.32-3.88,1.28-4.16-7.29-4.76-7.68-4.41-1.92,5.82-1.68,6.3,4.69,6,6.38,3.62" style="fill:#ebb376"></path><path d="M118.08,316.17c2.19-1,8.57-14.45,9.57-21.94l2.4,1.58s-1.28,18.82-8.93,29S118.08,316.17,118.08,316.17Z" style="fill:#ebb376"></path><path d="M128.69,297.89s-3.69-1.8-3.86-2,1.76-8.52,2.29-8.55,5.48,2.74,5.65,3.25-.49,8.1-3.39,7.61" style="fill:#ebb376"></path><path d="M105.18,395.33c-.21,9.53-.8,16.14-.8,16.14h3.77c1.4-5.2,2.58-10.65,3.57-16a343,343,0,0,0,4.55-35.93l-12.87.65A221.75,221.75,0,0,1,105.18,395.33Z" style="fill:#ebb376"></path><path d="M104.38,411.47h3.77c1.13-4.21,2.13-8.6,3-13,.21-1,.4-2,.59-3-1.91-.07-4.35-.11-6.54-.14,0,1.26-.07,2.47-.1,3.63C104.83,406.49,104.38,411.47,104.38,411.47Z" style="fill:#73AFA1"></path><path d="M104.38,411.47h3.77c1.13-4.21,2-8.15,2.9-12.5-1.78.11-4.08-.18-6,0C104.83,406.49,104.38,411.47,104.38,411.47Z" style="fill:#fff;opacity:0.30000000000000004"></path><path d="M111,411.4a6.92,6.92,0,0,1-1.28-.18.12.12,0,0,1-.08-.09.11.11,0,0,1,0-.11c.16-.11,1.52-1,2.1-.79a.41.41,0,0,1,.26.32.62.62,0,0,1-.14.62A1.36,1.36,0,0,1,111,411.4Zm.7-.94c-.31-.13-1.11.27-1.67.62.86.17,1.48.15,1.71-.07a.39.39,0,0,0,.08-.4.17.17,0,0,0-.12-.15Z" style="fill:#73AFA1"></path><path d="M110.71,410.51a6,6,0,0,1-.89.93.09.09,0,0,1-.11,0,.12.12,0,0,1-.07-.1c0-.19,0-1.83.57-2.17a.4.4,0,0,1,.41,0,.59.59,0,0,1,.43.47A1.29,1.29,0,0,1,110.71,410.51Zm-.36-1.12c-.28.18-.42,1.06-.46,1.72.64-.6,1-1.12.94-1.43a.42.42,0,0,0-.28-.3.2.2,0,0,0-.2,0Z" style="fill:#73AFA1"></path><path d="M109.35,410.57l-5.37,0a.34.34,0,0,0-.35.32h0l-.29,4.25a.84.84,0,0,0,.82.85c1.88,0,2.77-.12,5.13-.12a45.8,45.8,0,0,0,6.29-.15c2-.3,1.63-2.26.77-2.3a13.11,13.11,0,0,1-6.18-2.54A1.38,1.38,0,0,0,109.35,410.57Z" style="fill:#263238"></path><path d="M127.81,395.65c.52,9.34,1,15.82,1,15.82h3.77c.69-5.58,1.74-10.58,1.74-15.82,0-19-5.51-44.41-5.51-44.41l-10.53,5C120.08,368.35,127.23,385.24,127.81,395.65Z" style="fill:#ebb376"></path><path d="M128.85,411.47h3.77c1.13-4.21,1.79-12.81,1.74-16-1.91-.07-4.37,0-6.56,0C127.77,396.7,128.85,411.47,128.85,411.47Z" style="fill:#73AFA1"></path><path d="M128.85,411.47h3.77c1.08-4,1.55-11.19,1.65-12.75-1.77.11-4.39.12-6.29.29C128.45,406.65,128.85,411.47,128.85,411.47Z" style="fill:#fff;opacity:0.30000000000000004"></path><path d="M135.51,411.4a6.92,6.92,0,0,1-1.28-.18.12.12,0,0,1-.08-.09.11.11,0,0,1,0-.11c.16-.11,1.52-1,2.1-.79a.41.41,0,0,1,.26.32.6.6,0,0,1-.14.62A1.36,1.36,0,0,1,135.51,411.4Zm.7-.94c-.31-.13-1.11.27-1.67.62.86.17,1.49.15,1.71-.07a.42.42,0,0,0,.09-.4.2.2,0,0,0-.13-.15Z" style="fill:#73AFA1"></path><path d="M135.18,410.51a6,6,0,0,1-.89.93.09.09,0,0,1-.11,0,.12.12,0,0,1-.07-.1c0-.19,0-1.83.57-2.17a.4.4,0,0,1,.41,0,.59.59,0,0,1,.43.47A1.29,1.29,0,0,1,135.18,410.51Zm-.36-1.12c-.28.18-.42,1.06-.46,1.72.64-.6,1-1.12.94-1.43a.42.42,0,0,0-.28-.3.2.2,0,0,0-.2,0Z" style="fill:#73AFA1"></path><path d="M133.82,410.57l-5.37,0a.34.34,0,0,0-.35.32h0l-.29,4.25a.84.84,0,0,0,.82.85c1.88,0,2.77-.12,5.13-.12a45.8,45.8,0,0,0,6.29-.15c2-.3,1.63-2.26.77-2.3a13.11,13.11,0,0,1-6.18-2.54A1.38,1.38,0,0,0,133.82,410.57Z" style="fill:#263238"></path><path d="M101.05,345.48l2.41,34.21h14.3l1.18-13s1.62,8.92,3,13.76l14.22-2.39s-2.88-15.95-6.61-28.36l-1.77-9.4Z" style="fill:#263238"></path><path d="M119.18,364l-.24,2.7c.11.25.4,2.11,1.94,9.47a32.94,32.94,0,0,0,.16-11l3.18-5.58Z" style="isolation:isolate;opacity:0.2"></path><path d="M99.29,331.8c.18,2.62.45,5.56.85,8.63.43,3.34.6,6.89.73,10.49l29.09-4.6s-6.36-15.7-7.15-24.89a4.76,4.76,0,0,0-4-4.31,29.35,29.35,0,0,0-7.61.07c-8.57,1-12.25,3.66-12.25,3.66S98.84,325.39,99.29,331.8Z" style="fill:#73AFA1"></path><path d="M99.29,331.8c.18,2.62.45,5.56.85,8.63a102,102,0,0,1,.73,10.49l29.09-4.6s-6.36-15.7-7.15-24.89a4.76,4.76,0,0,0-4-4.31,29.35,29.35,0,0,0-7.61.07c-8.57,1-12.25,3.66-12.25,3.66S98.84,325.39,99.29,331.8Z" style="fill:#fff;opacity:0.4"></path><path d="M99.29,329.82c.18,2.62.45,5.56.85,8.63,3.14-2.23,2.59-13.06,2.59-13.06A8.52,8.52,0,0,1,99.29,329.82Z" style="isolation:isolate;opacity:0.2"></path><path d="M127,314.52c-2.31-2.53-4.51-3.69-6.53-2.77,0,0-2.8,3.88-6.53,5.2,4.22.26,7.34,2.67,9.28,7.4A19.75,19.75,0,0,0,127,314.52Z" style="fill:#73AFA1"></path><path d="M102.35,319.2a30.64,30.64,0,0,1-8.8-2l-5.11,5.36s5.37,5.7,10.86,7.32C102.76,327.59,103.89,324.09,102.35,319.2Z" style="fill:#73AFA1"></path><path d="M104,318.64c2.19-1.36,8.24-2,10.12-.9,1,.6,2.49,3.89-1.52,3.89S101.85,320,104,318.64Z" style="fill:#ebb376"></path><path d="M111.28,314.44a3.86,3.86,0,0,0,1,2.85,4.78,4.78,0,0,0,.39.39,5.76,5.76,0,0,0,.7.51h0a4.85,4.85,0,0,1-5.15,2.46l-3.41-.62-.75-.14a7.25,7.25,0,0,0,0-5.94,10,10,0,0,0-1.68-2.64l6.66.34,3,.16A6.5,6.5,0,0,0,111.28,314.44Z" style="fill:#ebb376"></path><path d="M111.28,314.44a3.86,3.86,0,0,0,1,2.85,2.6,2.6,0,0,0,1.09.9c-3.56.46-7.54-2.56-9.31-4.24a10,10,0,0,0-1.68-2.64l6.66.34,3,.16A6.5,6.5,0,0,0,111.28,314.44Z" style="isolation:isolate;opacity:0.2"></path><path d="M110.1,291.21s8,3.74,2.13,11.46C105.65,311.4,110.1,291.21,110.1,291.21Z" style="fill:#263238"></path><path d="M96.42,304.23c1.66,5,6,9.88,10.36,9.57,8.09-.57,10.73-2.82,10.12-8.77-.52-5.36-4.42-13.06-11.2-12.94S94.13,297.31,96.42,304.23Z" style="fill:#ebb376"></path><path d="M111.73,294.39a30.29,30.29,0,0,1-7.43,1.18s-2.91,2.47-1.35,5.78-2,6.23-1,10.88c0,0-4.95.64-8.27-9.27-2.41-7.21,3.25-11.69,9.84-13.23C109.05,288.44,113.93,291.41,111.73,294.39Z" style="fill:#263238"></path><path d="M108.4,302.74c.19.64.68,1.06,1.1.93s.6-.74.41-1.38-.68-1.06-1.1-.93S108.21,302.1,108.4,302.74Z" style="fill:#263238"></path><path d="M113.43,301c.18.61.66,1,1.06.89s.57-.71.39-1.32-.65-1-1-.89S113.25,300.36,113.43,301Z" style="fill:#263238"></path><path d="M115,297.83a.33.33,0,0,0,.14-.12.3.3,0,0,0-.14-.4,3,3,0,0,0-2.74,0,.31.31,0,0,0-.1.42h0a.32.32,0,0,0,.41.1h0a2.34,2.34,0,0,1,2.18,0A.35.35,0,0,0,115,297.83Z" style="fill:#263238"></path><path d="M108.69,298.61a.29.29,0,0,0,0-.18.3.3,0,0,0-.38-.2,2.94,2.94,0,0,0-2,1.84.3.3,0,0,0,.2.38h0a.31.31,0,0,0,.37-.2h0a2.37,2.37,0,0,1,1.65-1.44A.31.31,0,0,0,108.69,298.61Z" style="fill:#263238"></path><path d="M112.34,302.23l.87,2.77a3.58,3.58,0,0,0,1.76-1.2A8.44,8.44,0,0,1,112.34,302.23Z" style="fill:#d58745"></path><path d="M102.93,305.85s-2.18-2.74-3.52-1.32.4,6.51,2.78,5.86S104.47,307.23,102.93,305.85Z" style="fill:#ebb376"></path><path d="M114.29,305.44a26.58,26.58,0,0,0-5.32,1.65,3.37,3.37,0,0,0,4.15,1,1.83,1.83,0,0,0,1.07-.86C114.18,307.2,114.31,305.5,114.29,305.44Z" style="fill:#263238"></path><path d="M111.82,307.46a3.63,3.63,0,0,1,2.37-.2,2.09,2.09,0,0,1-1.07.85,3.63,3.63,0,0,1-2.37.2A2,2,0,0,1,111.82,307.46Z" style="fill:#d4827d"></path><path d="M114.1,305.48a.88.88,0,0,1-.35.85,19.93,19.93,0,0,1-3.5,1,1.21,1.21,0,0,1-1.11-.29A30.29,30.29,0,0,1,114.1,305.48Z" style="fill:#fafafa"></path></g></svg>